<?xml version="1.0" encoding="utf-8"?>
<!-- Generator: Adobe Illustrator 21.1.0, SVG Export Plug-In . SVG Version: 6.00 Build 0)  -->
<svg version="1.1" xmlns="http://www.w3.org/2000/svg" xmlns:xlink="http://www.w3.org/1999/xlink" x="0px" y="0px"
	 viewBox="0 0 3005.4 2201.6" style="enable-background:new 0 0 3005.4 2201.6;" xml:space="preserve">
<style type="text/css">
	.st0{display:none;}
	.st1{display:inline;}
	.st2{fill:none;stroke:#000000;stroke-width:27;stroke-miterlimit:10;}
	.st3{fill:none;stroke:#000000;stroke-width:9;stroke-miterlimit:10;}
</style>
<g id="Layer_1" class="st0">
	<g id="Mt3pWt_1_" class="st1">
		
			<image style="overflow:visible;" width="162" height="125" id="Mt3pWt_3_" xlink:href="83B5658AEDCF6F15.jpg"  transform="matrix(1.6848 0 0 1.6848 2042.2605 1196.6215)">
		</image>
	</g>
</g>
<g id="Layer_2" class="st0">
	
		<image style="display:inline;overflow:visible;" width="1495" height="1655" xlink:href="83B5658AEDCF6F1B.png"  transform="matrix(1 0 0 1 1793.2058 614.3797)">
	</image>
</g>
<g id="Layer_3">
	<path class="st2" d="M1922.8,929.8c-34.9-41.6-77.1-73.4-123.2-95.3c-1.4,4.5-5.4,8.4-10.4,7.9c-1.4-0.1-2.5-0.4-3.9,0.1
		c1.2,4.7,3.6,9.4,5,14.1c2.2,7.1,4.4,14.1,6.6,21.2c4.2,13.6,8.5,27.2,12.7,40.7c1.3,4.1,2.5,8.4,1.4,12.5
		c-1.3,4.6-5.6,4.9-8.5,7.8c-2.9,2.9-3.2,6.5-4.2,10.4c-2.8,11.4-6.4,22.6-10.9,33.5c-10.3,25.3-25.5,48.7-38.8,72.6
		c-7.5,13.4-14.5,26.9-20.8,40.9c-5.9,12.9-11.8,26-19.9,37.7c-8.1,11.7-18.1,22-26.9,33.1c-8.3,10.4-17.3,21.8-29.4,27.9
		c-12.6,6.4-25.2,4.7-35.7-4.8c-4.1-3.7-7.4-8.1-10.8-12.4c-4.3-5.3-8.9-10.3-13.4-15.3c-10-10.9-20.1-21.9-27.9-34.4
		c-8.2-13.1-15.8-26.5-22.9-40.2c-5.7-11-11.1-22.3-17.5-32.9c-4.4-7.5-9.2-14.7-13.9-22.1c-11.3-18-22.3-36.6-29.2-56.8
		c-4.4-13-6.4-26.8-3-39.5c-0.8-1.5-1.2-3.2-1.1-5.3c0.3-11.2,0.1-22.3,0.5-33.5c0.7-21.5,2.7-43.7,10.4-63.9
		c-27.9,13.2-54.6,30.1-79.3,50.8c-154.6,129.8-174.8,360.4-45,515s360.4,174.8,515,45S2052.6,1084.4,1922.8,929.8z"/>
	<path class="st2" d="M1870.5,973.7c-15.1-18-34.6-42.1-56.8-51.7c-1.8-0.3-10.4,17.7-11.3,19.5c-5.3,9.7-7.6,18.6-11.5,28.9
		c-4.4,11.5-9,22.9-13.9,34.2c-9.8,22.6-20.6,44.8-32.3,66.4c-11.7,21.7-24.4,42.8-38,63.3c-12,18.1-23.8,40-41.8,52.4
		c-8.6,5.9-16.6,11.7-27.6,11c-14.6-0.9-23.3-8.8-33.3-18.8c-22.2-22.1-38.7-49.1-54.8-75.8c-19.5-32.3-39.1-64.8-53.7-99.7
		c-7.4-17.6-13.5-35.8-17.5-54.5c-0.9-4.2-1.5-23.9-4.9-25.9c-4.5-2.6-18.2,11.4-21.4,14.1c-125.8,105.5-142.1,293.1-36.6,418.8
		s293.1,142.1,418.8,36.6S1976,1099.4,1870.5,973.7z"/>
	<line class="st2" x1="1805.5" y1="1494.9" x2="1883.6" y2="1634.7"/>
	<line class="st2" x1="1858.2" y1="1458.8" x2="1936.4" y2="1598.6"/>
	<path class="st2" d="M1829.1,1661c0,0,92.2-10.6,148.2-93.4"/>
	<path class="st3" d="M2044,2033.6c0.8,1.4,1.6,2.7,2.4,4.1"/>
	<path class="st3" d="M2040,2026.6c0.8,1.4,1.6,2.7,2.4,4.1"/>
	<path class="st3" d="M2034.7,2017.5c1.2,2,2.3,4,3.5,6"/>
	<path class="st3" d="M1834.1,1670.7c11.7,20.3,23.4,40.5,35.2,60.8c11.9,20.5,23.8,41.1,35.7,61.6c11.9,20.5,23.7,41,35.6,61.5
		c11.9,20.5,23.7,41,35.6,61.5c11.9,20.5,23.8,41.1,35.6,61.6c1.5,2.6,3,5.2,4.5,7.8"/>
	<path class="st3" d="M1982.2,1574.7c81.3,142.9,163.2,285.3,246.6,427"/>
	<path class="st2" d="M920.1,683.5"/>
	<path class="st2" d="M3169.1,590"/>
	<path class="st2" d="M-2901.2-1231.1"/>
	<path class="st2" d="M668.9,605.8c0,0,479.9,246.1,928.9,0"/>
	<path class="st2" d="M2513.2,605.8c0,0-479.9,246.1-928.9,0"/>
	<path class="st2" d="M2513.2,1573.5c0,0-479.9,246.1-928.9,0"/>
	<path class="st2" d="M668.9,1573.5c0,0,479.9,246.1,928.9,0"/>
	<line class="st2" x1="680.5" y1="605.8" x2="680.5" y2="1573"/>
	<line class="st2" x1="2503.2" y1="611.6" x2="2503.2" y2="1578.9"/>
	<path class="st2" d="M679.5,612.6l68.4-68.4c0,0,449.3,103.8,724.1-25.8h226.4"/>
	<path class="st2" d="M1690.7,518.3c0,0,337.3,159.3,746.3,20.6l68.4,68.4"/>
	<path d="M2462.2,555.4c-16.7-11.9-41.4-12-59.9-4.5c-10.2,4.1-19.3,9.3-28.5,15.2c-0.6,0.4-1.3,0.8-1.9,1.2
		c-4.1-2.8-8.9-4.3-14.1-4.1c-29.7,1.4-58.3,8.9-86.5,17.9c-12.6,4-25.1,8.2-37.8,12c-4.4-3.9-10.1-6.3-16.5-5.9
		c-28.2,1.7-54.6,8.4-80.5,19.4c-1,0.4-1.9,1-2.9,1.8c-5.8,0.3-11.7,0.6-17.5,0.8c-4.7-5.2-11.3-8.6-19.1-8.6h-58.1
		c-6.3,0-12.4,2.5-17.2,6.7c-5.8-0.4-11.5-0.9-17.3-1.5c-0.1,0-0.3,0-0.4,0c-12-2.4-24-4.6-36.1-6.3c-9.4-1.3-18.7-2.3-28.1-3
		c-31.3-5.9-62.3-13.7-92.6-23.3c-4.2-1.3-9-1.2-13.4,0c-35.3-25-74.7-43.9-116.8-54.7c-28-7.2-57.2-11-86.1-11.1
		c-7.9,0-16,4.4-21.2,11c-6.4-0.2-13,0.7-19.5,2.3c-12.6-3.9-26.6-5.2-38.7-5.9c-19.8-1.2-39.8,1.2-59.2,4.8
		c-37.2,6.9-72.8,20.4-109.2,30.7c-18.1,5.1-36.4,9.4-54.9,13.1c-9,1.8-18.1,3.4-27.1,4.8c-4.5,0.7-9.1,1.4-13.6,2.1
		c-0.7,0.1-1.2,0.2-1.6,0.2c-0.4,0-0.8,0.1-1.4,0.2c-2.5,0.3-5,0.6-7.5,0.9c-86,10.4-172.9,8.1-259.2,2.7
		c-10.3-0.6-19.8,6.8-24.1,16.2c-9.4-1.1-18.7-2.1-28.1-3.2c-30.9-3.4-61.9-6.8-92.8-10c-3.6-0.4-7.3,0.5-10.7,2.1
		c-2.1-0.4-4.2-0.8-6.2-1.2c-2.8-0.6-5.6-1.2-8.3-1.8c-25.2-10.7-50.4-21.5-75.6-32.2c-6.7-2.9-12.7-4.7-20.1-2.6
		c-6.1,1.7-12.6,6.4-15.6,12c-2.8,5.3-3.8,10.9-3.2,16.2c-4.7,1.6-9.5,3.2-14.2,4.8c-10,3.4-17.3,11-18.7,21.7
		c-1.4,10.2,3.4,20.8,12.5,26c82,47,176,62.5,269.3,67.1c19.7,6.9,39.8,12.3,60.6,14.7c9.7,1.1,19.6,1.2,29.3,0.2
		c3.8,9.6,13.3,18.1,24.1,16.8c80.5-9.4,161.1-18.7,241.6-28.2c39.2-4.6,78.7-9.5,116.7-20.8c36.7-10.9,71.9-27.1,105.1-45.9
		c14-7.9,29.3-15.9,42.2-26c10.6,11.2,22.7,20.8,36.6,28.1c2.3,1.2,4.6,2,6.9,2.6c24,15.6,49.7,28.4,76.8,38.4
		c22.4,8.3,45.7,14.3,69.3,17.8c26.9,4,53.7,4.7,80.8,5.6c6,0.2,12.1,0.5,18.1,0.9c22.8,15.3,50.5,23.9,77.6,14.7
		c0.1,0,0.2-0.1,0.3-0.1c1.1,0.1,2.3,0.2,3.5,0.2c83.4-1,166.6-8.6,248.9-22c40.4-6.6,80.6-14.7,120.5-24.3
		c19.8-4.8,39.4-9.9,59-15.4c9.8-2.8,19.5-5.6,29.3-8.6c10.5-3.2,21.1-6,31.1-10.7c13.5-6.3,22.8-19.5,23.4-34.6
		C2484.1,577,2474.2,563.9,2462.2,555.4z M2430.1,598.1c0.3,0,0.6,0,0.9,0c0.2,0,0.3,0.1,0.4,0.1c0.4,0.1,0.7,0.2,1,0.3
		c0.1,0.1,0.2,0.1,0.3,0.2C2432.3,598.7,2431.4,598.5,2430.1,598.1z M2434.5,599.6c-0.1-0.1-0.4-0.4-0.8-0.7c0.1,0,0.2,0.1,0.3,0.1
		C2435.5,599.4,2435.9,600.2,2434.5,599.6z"/>
	<g id="tdKVpw_1_">
		<g>
			<g>
				<path d="M1631.9,1212.5c-15.7-8.8-27.2-22.3-38.1-36.1c-48.4-61.5-88.8-127.5-118.2-200.4c-44.6-111,31.9-222.3,135.4-238.4
					c1.4-0.2,2.7-0.9,4-1.3c16.2,0,32.5,0,48.7,0c35.3,6.9,67.9,19.6,94,45c50.6,49.1,71,107.6,50.5,176.9
					c-16.3,55-45.4,103.8-76,151.8c-16.7,26.2-35,51.2-55.1,75c-8.9,10.6-18.5,20.3-30.5,27.5
					C1641.8,1212.5,1636.8,1212.5,1631.9,1212.5z M1492.5,911.2c-0.8,14.1,2.7,29.6,8,44.6c28.5,80.1,73.5,150.4,127.8,215.1
					c10.5,12.5,11.2,12.1,21.7-0.2c47-55,85-115.9,115-181.6c10-21.8,19-44.2,20.7-68.5c6.1-86.8-68.3-162.5-158.7-154.7
					C1552.1,772.4,1492.8,834.9,1492.5,911.2z"/>
				<path d="M1639.2,1016.5c-58.4,0-104.7-46.3-105-104.7c-0.2-56.4,47.8-104.2,105-104.2c57.6,0,104.8,47.3,105.1,105.2
					C1744.6,969.7,1697.2,1016.5,1639.2,1016.5z M1639.8,837.9c-41.5-0.2-74.9,32-75.1,72.5c-0.3,43.2,32.4,76.9,74.5,76.9
					c40.5,0.1,74.5-33.4,74.7-73.7C1714.2,871,1682,838.1,1639.8,837.9z"/>
			</g>
		</g>
	</g>
	<path d="M1700.2,1206c-12.6,6-21.7,22-32.7,29.5c-9.9,6.8-22.3,9.8-34.2,8.3c-11.9-1.5-23.2-7.5-31.1-16.5
		c-4.4-4.9-7.7-10.7-12.2-15.5c-8.9-9.4-16.8-7.3-28.3-5.9c-13.2,1.6-26.4,3.7-39.4,6.7c-10.1,2.3-43.6,8.2-43.6,23.5
		c0,19.3,75.3,34.9,168.3,34.9c92.9,0,168.3-15.6,168.3-34.9c0-16.7-39-22.6-49.8-24.8c-17.5-3.6-35.2-5.5-53-7.5
		C1708,1203.3,1704,1204.2,1700.2,1206z"/>
	<path class="st2" d="M1588.4,1532.6c-1.2,18.7,0.8,37.7,0.5,56.8"/>
	<path class="st2" d="M1585,1139.6c1.2,106.8,1.2,212.8,2.8,319.5"/>
	<path class="st2" d="M1580.7,624.3c1.5,42.1,1.5,83.1,1.5,125.2"/>
	<g>
		<path d="M1024.3,362.2c-1-0.7-2-1.4-3.1-2.3c-1-0.8-1.7-1.8-2-2.8c-8.2-4.1-14.4-3.7-18.9,1c-4.4,4.8-7.5,12.1-9.2,21.9
			c-1.7,9.9-2.3,21.2-1.8,33.9c0.5,12.7,1.6,25.2,3.3,37.2c1.7,12.1,3.8,22.8,6.4,32.1c2.5,9.4,4.8,15.4,6.9,18.1l-8.7,11.7
			c-7.5,2.4-14.2,5.1-20.1,8.2c-5.9,3.1-11.9,5.9-17.8,8.7c-5.9,2.7-12.2,4.9-18.6,6.6c-6.5,1.7-14.1,2.4-22.9,2
			c-6.1,3.7-14.2,6.7-24.2,8.9c-10,2.2-20.2,3.6-30.6,4.1c-10.4,0.5-20.2,0.3-29.6-0.8c-9.4-1-16.4-3.1-21.2-6.1l-2-4.1
			c-6.8-0.3-13-1.3-18.6-2.8c-5.6-1.5-11-3.1-16.1-4.8c-5.1-1.7-10.1-3.5-15-5.4c-4.9-1.9-10.3-3.6-16.1-5.4
			c-4.1-6.8-9.9-12.8-17.6-18.1c-7.6-5.3-14.2-11.1-19.6-17.6c-19-21.4-32.8-42.2-41.3-62.4c-8.5-20.2-13.1-40.5-13.8-60.9
			c-0.7-20.4,2.1-41.3,8.4-62.7c6.3-21.4,14.9-44.2,25.7-68.3c7.1-4.4,13.7-10.4,19.6-17.8c5.9-7.5,12.4-15,19.4-22.7
			c7-7.6,15-14.5,24.2-20.6c9.2-6.1,20.6-10,34.2-11.7l2-4.1c6.5-1,11.4-4.2,14.8-9.7h29.6l3.6-4.1h32.6l6.1,3.6h26l1.5,2.5l7.6,4.1
			l4.1,8.2c4.1,0.3,7.5-0.2,10.2-1.5c2.7-1.4,5.3-3.1,7.6-5.1c2.4-2,4.8-4.2,7.1-6.4c2.4-2.2,5.4-4,9.2-5.4l14.3,4.6
			c3.1,5.8,5.8,12.6,8.2,20.4c2.4,7.8,4.1,15.9,5.1,24.2c1,8.3,1.1,16.4,0.3,24.2c-0.9,7.8-3,14.6-6.4,20.4
			c-7.5-6.8-14.8-14.7-21.9-23.7c-7.1-9-13.8-17.4-19.9-25.2c-6.1-1.4-11.8-3.4-17.1-6.1c-5.3-2.7-10.5-5.3-15.8-7.6
			c-5.3-2.4-10.9-4.2-16.8-5.4c-5.9-1.2-12.7-1.1-20.1,0.3l-2.5,5.1c-5.4,2.4-10.4,3.8-15,4.3c-4.6,0.5-9.4,2.1-14.5,4.8
			c-16.3,8.5-30.8,16.4-43.6,23.7c-12.7,7.3-23.7,15.6-32.9,25c-9.2,9.4-16.5,20.6-21.9,33.6c-5.4,13.1-8.8,29.8-10.2,50.2l-3.1,2.5
			c0,9.9,0.7,20.7,2,32.6c1.4,11.9,3.5,23.7,6.4,35.4c2.9,11.7,6.6,23,11.2,33.9c4.6,10.9,10.3,20.4,17.1,28.5l1.5,16.3
			c6.8,5.8,14.3,12.9,22.4,21.4c8.2,8.5,14.6,16.7,19.4,24.5c6.8-0.3,13.8,0.4,21.2,2.3c7.3,1.9,13.3,5.7,18.1,11.5h50
			c2-3.1,5.6-5.5,10.7-7.4c5.1-1.9,10.7-3.8,16.8-5.9c6.1-2,12.2-4.2,18.4-6.6c6.1-2.4,11-5.4,14.8-9.2c4.1-4.1,6.7-8.8,7.9-14.3
			c1.2-5.4,1.9-11.1,2-17.1c0.2-5.9,0-11.7-0.5-17.3c-0.5-5.6-0.4-10.6,0.3-15c0-2-0.3-4.8-1-8.4c-0.7-3.6-1.4-7.3-2.3-11.2
			c-0.9-3.9-1.5-7.5-2-10.7c-0.5-3.2-0.6-5.5-0.3-6.9c1.7-7.5,2.7-13.7,3.1-18.6c0.3-4.9-0.4-8.9-2.3-12c-1.9-3.1-5.1-5.4-9.7-6.9
			c-4.6-1.5-10.6-2.8-18.1-3.8c-1.7-1.4-3.6-2.6-5.6-3.8c-2-1.2-4.1-2.1-6.1-2.8l-8.2-11.2c1.7-4.8,3.9-9,6.6-12.7l22.4-6.1
			c2,2.4,7.1,4,15.3,4.8c8.2,0.9,17.2,1.4,27.3,1.5c10,0.2,19.5,0.1,28.5-0.3c9-0.3,15.4-0.5,19.1-0.5c2,1.7,4.2,3.4,6.4,5.1
			c2.2,1.7,4.7,3.2,7.4,4.6v25.5L1024.3,362.2z"/>
		<path d="M1244.5,405c-2.7,0.7-6.6,1.4-11.7,2.3c-5.1,0.9-10.2,1.5-15.3,2c-5.1,0.5-9.4,0.6-13,0.3c-3.6-0.3-5.2-1.5-4.8-3.6
			l-9.7-1l-2-4.6h-43.3c-0.7-0.3-1.2-0.8-1.5-1.3c-0.3-0.5-1-1.1-2-1.8h-20.9c-4.8,4.8-9.7,9.2-14.8,13.3v38.2l4.1,2
			c1.7,4.4,2.8,8.8,3.3,13.3c0.5,4.4,1.1,9,1.8,13.8c3.7,4.4,7.8,8.8,12.2,13.3c4.4,4.4,9.5,7.5,15.3,9.2c1.7,3.4,4,5.8,6.9,7.1
			c2.9,1.4,6,2.1,9.4,2.3c3.4,0.2,7,0,10.7-0.5c3.7-0.5,7.1-0.8,10.2-0.8c0.7,0,1.4-0.3,2.3-1c0.8-0.7,0.8-1.4-0.3-2
			c4.4-1,8.5-1.1,12.2-0.3c3.7,0.9,7-0.8,9.7-4.8l8.7-1l5.1-7.6c3.7-0.7,7-1.4,9.9-2c2.9-0.7,5.2-2.9,6.9-6.6c2,1,4.1,2,6.1,2.8
			c2,0.9,3.9,1.6,5.6,2.3v11.2c-11.2,12.6-19.6,21.1-25.2,25.5c-5.6,4.4-10.2,7.5-13.8,9.2c-3.6,1.7-7.1,3.1-10.7,4.3
			c-3.6,1.2-8.9,4.8-16.1,11c-14.6,0-24.9,0.2-30.8,0.5c-5.9,0.3-10.7,0.3-14.3-0.3c-3.6-0.5-7.2-1.7-11-3.6
			c-3.7-1.9-10.7-5-20.9-9.4c-2.7-4.1-5.9-7.8-9.4-11.2c-3.6-3.4-7.4-6.6-11.5-9.7l-4.6-14.8l-3.6-2c-1-3.7-1.8-6.9-2.3-9.4
			c-0.5-2.5-2.6-5-6.4-7.4c-1-4.4-2.2-11.1-3.6-20.1c-1.4-9-2.3-18.1-2.8-27.3s-0.1-17.5,1.3-25c1.4-7.5,4.4-12.1,9.2-13.8
			c2-7.5,4.8-14.8,8.2-21.9c3.4-7.1,6.1-14.4,8.2-21.9c3.7-2.7,7.3-5.6,10.7-8.7c3.4-3.1,5.6-7,6.6-11.7l40.8-25
			c10.5,0,20.1,0.3,28.8,1c8.7,0.7,17.9,1.7,27.8,3.1c2.7,3.7,6.2,6.8,10.4,9.2c4.2,2.4,8.7,5.1,13.3,8.2c4.6,3.1,8.9,6.9,13,11.5
			c4.1,4.6,7.1,11,9.2,19.1l3.6,2c1.4,6.8,2.5,11.4,3.3,13.8c0.8,2.4,1.3,4.4,1.3,6.1c0,1.7-0.4,3.7-1.3,6.1
			c-0.9,2.4-2,6.8-3.3,13.3L1244.5,405z M1209.3,354c-2.4-4.4-4.3-7.5-5.6-9.2c-1,0-2-0.1-3.1-0.3c-1-0.2-2.2-0.4-3.6-0.8
			c-0.3-1.4-0.9-3.1-1.8-5.1c-0.9-2-2.1-3.1-3.8-3.1h-32.6c-4.1,4.1-9.2,7.1-15.3,9.2c-2,3.1-4.1,6.2-6.1,9.4
			c-2,3.2-4.3,6.5-6.6,9.9c4.4,4.1,8.7,8.3,12.7,12.7h23.4c1.4,0,2,0.5,1.8,1.5c-0.2,1,0.3,1.5,1.3,1.5h21.9c1.7,0,3.7-0.5,6.1-1.5
			c2.4-1,4.7-2.3,6.9-3.8c2.2-1.5,4.1-3.3,5.6-5.4s2.3-3.9,2.3-5.6C1212.9,361.7,1211.7,358.5,1209.3,354z"/>
		<path d="M1512.4,467.2c-3.6,9.9-8.2,19.5-14,28.8c-5.8,9.4-12.3,17.5-19.6,24.5c-7.3,7-14.5,11-21.7,12c-0.3,0.7-0.7,1.4-1,2
			c-0.3,0.7-0.7,1.4-1,2c-4.1,0.7-8,1.4-11.7,2.3c-3.7,0.9-7.1,3.1-10.2,6.9c-1,0-3.2-0.2-6.6-0.5c-3.4-0.3-7-0.5-10.7-0.5
			c-3.4,0-6.5,0.3-9.4,0.8c-2.9,0.5-4.3,1.4-4.3,2.8c-6.1,0.7-11.6,0.6-16.3-0.3c-4.8-0.8-10.2-1.8-16.3-2.8l-1.5-4.1
			c-13.3-4.8-23.4-9.7-30.3-14.8c-7-5.1-12.2-10-15.8-14.8c-3.6-4.8-6.5-9.3-8.9-13.5c-2.4-4.2-5.6-7.9-9.7-11
			c-5.1-15.3-8.6-29.5-10.4-42.6c-1.9-13.1-2-25.7-0.3-38c1.7-12.2,5.5-24.2,11.5-35.9c5.9-11.7,14.2-23.7,24.7-35.9
			c4.8-5.4,9.3-9.4,13.8-12c4.4-2.5,8.7-4.5,12.7-5.9c4.1-1.4,7.8-2.5,11.2-3.6c3.4-1,6.6-3.1,9.7-6.1c17.7,0,31.9,0.4,42.8,1.3
			c10.9,0.9,20.5,2.9,28.8,6.1c8.3,3.2,16.4,8.2,24.2,15c7.8,6.8,17.5,16.1,29.1,28l8.2,55.6l4.1,5.1c0.7,4.1,1.5,8.2,2.5,12.2
			c1,4.1,1.5,8.2,1.5,12.2C1517.5,449.2,1515.9,457.4,1512.4,467.2z M1466.8,393.3c-1.4-2-2.3-4.5-2.8-7.4c-0.5-2.9-0.9-5.8-1-8.7
			c-0.2-2.9-0.6-5.5-1.3-7.9c-2-2-4.2-4.6-6.4-7.6c-2.2-3.1-4.5-6.3-6.9-9.7c-2.4-3.4-4.8-6.5-7.1-9.4c-2.4-2.9-4.8-4.8-7.1-5.9
			c-1.4-0.7-2.6-0.9-3.8-0.8c-1.2,0.2-2.5,0.3-3.8,0.3c-1,0-2.1-0.3-3.3-1c-1.2-0.7-2.5-2-3.8-4.1h-24.5v5.1
			c-9.2,0.7-16.4,2.6-21.7,5.9c-5.3,3.2-9.3,7.4-12,12.5c-2.7,5.1-4.8,11-6.4,17.6s-3.3,13.5-5.4,20.6c0,0.7-0.8,2-2.3,4.1
			c-1.5,2-2.6,3.6-3.3,4.6c-1.7,4.4-2.9,9.4-3.6,15c-0.7,5.6-0.9,11.4-0.5,17.3c0.3,5.9,0.8,11.8,1.5,17.6
			c0.7,5.8,1.5,10.9,2.5,15.3c3.7,1,5.9,3.9,6.6,8.7c0.7,4.8,1.2,8.7,1.5,11.7c0.3,3.7,1.9,7.4,4.6,11c2.7,3.6,5.9,7,9.4,10.2
			c3.6,3.2,7.1,6.3,10.7,9.2c3.6,2.9,6.7,5.5,9.4,7.9h28.5c0.3-2.4,2-4,4.8-4.8c2.9-0.8,6.3-2,10.2-3.3c3.9-1.4,7.7-3.6,11.5-6.6
			c3.7-3.1,6.6-8.2,8.7-15.3c1.7-5.8,4-10.6,6.9-14.5c2.9-3.9,5.2-8.6,6.9-14c4.1-11.5,6.6-22.9,7.6-34.2s1.5-22.8,1.5-34.7
			C1470.1,396.9,1468.1,395.3,1466.8,393.3z"/>
		<path d="M1803.7,221.5c-3.1,0-5.9-2-8.4-5.9c-2.5-3.9-5.1-8.4-7.6-13.5c-2.5-5.1-5-10-7.4-14.8c-2.4-4.8-4.8-7.8-7.1-9.2h-40.3
			c-0.7,0.3-1.7,1.5-3.1,3.6h-21.9l-3.6-3.6c-7.8,0-15.8-0.3-24-0.8s-15.8,0.9-22.9,4.3c-1,2-1.9,6.1-2.5,12.2
			c-0.7,6.1-1.3,13.5-1.8,22.2c-0.5,8.7-1,18-1.5,28c-0.5,10-0.9,19.8-1.3,29.3c-0.3,9.5-0.8,18.2-1.3,26
			c-0.5,7.8-1.1,13.9-1.8,18.4l5.6,12.2c-2.7,12.6-4.5,25-5.4,37.2c-0.9,12.2-1.5,24.2-2,35.9c-0.5,11.7-1.1,22.9-1.8,33.4
			c-0.7,10.5-2.2,20.4-4.6,29.6c2,2.7,3.6,5.9,4.8,9.4c1.2,3.6,2.4,7.4,3.6,11.5c1.2,4.1,2.5,8.2,3.8,12.5c1.4,4.3,3.1,8.1,5.1,11.5
			c3.1,1.4,6.6,2.8,10.7,4.3c4.1,1.5,8.2,3.1,12.5,4.8c4.2,1.7,8.2,3.7,12,5.9c3.7,2.2,6.6,4.7,8.7,7.4v11.7l-7.1-3.6
			c-4.1,1.4-8.8,1.9-14,1.5c-5.3-0.3-10.5-0.8-15.8-1.3c-5.3-0.5-10.4-0.6-15.3-0.3c-4.9,0.3-8.9,1.7-12,4.1l-22.4-10.2l-4.1,3.6
			c-3.4,0-6.9,0.2-10.4,0.5c-3.6,0.3-7.1,0.3-10.7,0c-3.6-0.3-6.9-1.2-9.9-2.5c-3.1-1.4-5.6-3.7-7.6-7.1l-34.2,15.3v-28
			c0.7,1,1.9,1.7,3.6,2c1.7,0.3,2.5-0.3,2.5-2c4.4-0.7,8.7-1.4,13-2.3c4.2-0.8,8.6-0.8,13,0.3c8.5-4.8,14.5-13.4,18.1-26
			c3.6-12.6,5.9-26.3,7.1-41c1.2-14.8,1.8-29.3,1.8-43.6c0-14.6,1-26.3,3.1-35.2l-3.1-4.6v-33.1c1-1.7,1.9-3.3,2.5-4.8
			c0.7-1.5-0.2-3.1-2.5-4.8c0-2,0.2-4.7,0.5-7.9c0.3-3.2,0.6-6.5,0.8-9.7c0.2-3.2,0.4-6.2,0.8-8.9c0.3-2.7,0.5-4.4,0.5-5.1
			c1.4-8.5,2.6-17.8,3.8-28c1.2-10.2,1.6-20.4,1.3-30.6c-0.3-10.2-1.6-20.1-3.8-29.8c-2.2-9.7-5.9-18.1-11-25.2h-28
			c-0.7,0-1.4,0.3-2,1c-0.7,0.7-0.7,1.4,0,2c-7.5,1.7-13.6,2.8-18.4,3.3c-4.8,0.5-10.5-0.4-17.3-2.8c-1,1.7-3.7,2.8-7.9,3.3
			c-4.3,0.5-8.9,0.8-14,0.8s-10-0.1-14.8-0.3c-4.8-0.2-8-0.3-9.7-0.3l-20.4,22.9L1452,223h-11.2l-6.1-9.7c0.3-4.8,0.4-11.5,0.3-20.1
			c-0.2-8.7-0.4-17.8-0.8-27.3c-0.3-9.5-0.7-18.6-1-27.3c-0.3-8.7-0.3-15.2,0-19.6l25.5,14.8c9.2,4.1,18.8,6.8,28.8,8.2
			c10,1.4,20.1,2,30.3,1.8c10.2-0.2,20.5-0.7,30.8-1.5c10.4-0.8,20.6-1.3,30.8-1.3c0.3-0.3,4.5-0.2,12.5,0.5
			c8,0.7,17.2,1.3,27.5,1.8c10.4,0.5,20.7,0.9,31.1,1.3c10.4,0.3,18.3,0.2,23.7-0.5l4.6,3.6h39.8c1-0.7,1.6-1.4,1.8-2
			c0.2-0.7,0.8-1.2,1.8-1.5h40.3c2.7-2.4,5-4.5,6.9-6.4c1.9-1.9,3.7-3.4,5.6-4.6c1.9-1.2,4-2.4,6.4-3.6c2.4-1.2,5.4-2.3,9.2-3.3
			l11.2,4.1c0.7,5.1,1.3,11.5,1.8,19.1s1,15.5,1.5,23.7s1,16.1,1.5,23.7s1.1,14,1.8,19.1L1803.7,221.5z"/>
		<path d="M1909.2,533c-3.4,3.1-7.2,4.9-11.5,5.6c-4.3,0.7-7.7,3.1-10.4,7.1h-22.4l-5.6-5.6c0-3.7-1.2-6.5-3.6-8.4
			c-2.4-1.9-4.9-3.8-7.6-5.9c-9.9,4.8-16.5,8.7-19.9,11.7c-3.4,3.1-6.6,5.4-9.7,7.1c-3.1,1.7-7.4,2.9-13,3.6c-5.6,0.7-15.5,1-29.8,1
			c-2.4,0-5.3-1.2-8.7-3.6c-3.4-2.4-6.9-5.1-10.4-8.2c-3.6-3.1-7-6.2-10.2-9.4c-3.2-3.2-5.7-5.9-7.4-7.9c0-8.2,0-15.5,0-21.9
			c0-6.5,0.6-12.4,1.8-17.8c1.2-5.4,3.2-10.7,6.1-15.8c2.9-5.1,7.2-10.4,13-15.8c2.7-2.4,7.1-5.6,13.3-9.7
			c6.1-4.1,12.3-8.2,18.6-12.5c6.3-4.2,11.8-8.3,16.6-12.2c4.8-3.9,7.1-7.2,7.1-9.9l15.3-1c4.1-6.1,7.6-10.6,10.7-13.5
			c3.1-2.9,5.5-5.6,7.4-8.2c1.9-2.5,3.1-5.5,3.6-8.9c0.5-3.4,0.3-8.8-0.8-16.3c-3.4-2-6.4-4.6-8.9-7.6c-2.5-3.1-4.8-6.5-6.9-10.2
			l-18.4-4.6c-2.4-2.4-4.9-3.7-7.6-4.1c-2.7,0.3-4.8,1.4-6.1,3.1c-1.4,1.7-3.9,2.4-7.6,2c-2,2.7-4.3,5.2-6.6,7.4
			c-2.4,2.2-4.4,4.4-6.1,6.6c-1.7,2.2-2.9,4.7-3.6,7.4c-0.7,2.7-0.7,6.1,0,10.2c-3.1,1.4-6,2.3-8.9,2.8c-2.9,0.5-5.2,2.3-6.9,5.4
			h-31.1l2-2c-1-6.5-1.7-11.5-2-15c-0.3-3.6-0.2-6.6,0.5-9.2c0.7-2.5,2-5,4.1-7.4c2-2.4,5.1-5.9,9.2-10.7l11.7-1l5.1-5.6h6.1
			l4.1-3.6l-0.5-1c3.4-1.7,6.7-3,9.9-3.8c3.2-0.8,6.2-2.6,8.9-5.4c3.1,0.3,5.7-0.1,7.9-1.3c2.2-1.2,4.7-2,7.4-2.3
			c10.9-0.7,20.4-0.6,28.5,0.3c8.2,0.9,17.2,2,27,3.3l20.4,17.3c2,6.1,3.3,14.4,3.8,24.7c0.5,10.4,0.7,21.7,0.5,33.9
			c-0.2,12.2-0.7,24.8-1.5,37.7c-0.9,12.9-1.4,25-1.5,36.2c-0.2,11.2,0.1,21.2,0.8,29.8c0.7,8.7,2.4,14.9,5.1,18.6l25.5,4.1v19.9
			L1909.2,533z M1857.2,468.5c-1-1.2-1.5-2.6-1.5-4.3c0-1,0-3.1,0-6.1c0-3.4-0.2-6.9-0.5-10.4c-0.3-3.6-0.7-6.9-1-9.9
			c-0.3-3.1-0.9-4.9-1.5-5.6c1-1,1.9-2.4,2.5-4.1h-26.5c-3.7,2.7-7.6,5.5-11.7,8.4c-4.1,2.9-7.8,5.9-11.2,8.9
			c-0.3,0.3-0.9,1.3-1.8,2.8c-0.9,1.5-1.8,3.1-2.8,4.8c-1,1.7-2,3.4-2.8,5.1c-0.9,1.7-1.4,2.7-1.8,3.1c-4.8,7.8-7,15.1-6.6,21.9
			c0.3,6.8,2.2,14.3,5.6,22.4c2.7-0.7,4.9-0.3,6.6,1c1.7,1.4,3.4,3.1,5.1,5.1c1.7,0,3.6,0.7,5.6,2l0.5,3.6h23.4
			c0.3-2.4,2.4-4.8,6.1-7.4c3.7-2.5,6.5-4.3,8.2-5.4c2.4-5.1,4.2-10.3,5.6-15.5c1.4-5.3,2-10.6,2-16.1
			C1858.7,471.1,1858.2,469.7,1857.2,468.5z"/>
		<path d="M2066.2,548c-3.7-0.2-8-0.3-12.7-0.5c-4.8-0.2-9.4-0.3-14-0.5c-4.6-0.2-8.1-0.6-10.4-1.3l-5.6,3.6h-54l-4.6-6.6
			c1-2.4,0.9-5.4-0.3-9.2c-1.2-3.7-2.1-6.6-2.8-8.7c1.7-0.7,3.1-1.4,4.3-2.3c1.2-0.8,2.5-1.8,3.8-2.8c6.5,0,11.7-1.2,15.8-3.6
			c4.1-2.4,6.1-7.1,6.1-14.3c0-23.4,0-47.1,0-70.9c0-24.1-2.4-47.7-7.1-70.9c1-4.1,1.9-10.9,2.5-20.4c0.7-9.5,1.1-20.1,1.3-31.9
			c0.2-11.7,0.3-24,0.3-37c0-13.3-0.3-25.6-0.8-37c-0.5-11.4-1.1-21.2-1.8-29.3c-0.7-8.2-1.4-13.6-2-16.3c-3.1-2.7-6.4-4.7-9.9-5.9
			c-3.6-1.2-7.2-2.1-11-2.8l-3.6-12.7c2.7-4.8,6.6-8.5,11.7-11.2c5.1-2.7,10.2-4.8,15.3-6.1l2-4.1c8.8-1.4,17.2-2.4,25-3.1
			c7.8-0.7,16.5-1,26-1l-4.6,6.1c1,0,1.5,0.9,1.5,2.5l0.5,3.6c0.7,3.7,1.2,7.4,1.5,11c0.3,3.6,0.7,7.2,1,11
			c-1.7,1.7-2.9,4.8-3.6,9.2c-0.7,4.4-1,9.2-1,14.3s0.2,10.1,0.5,15c0.3,4.9,0.5,8.6,0.5,11l2.5,2c0.3,1,0.3,5.4-0.3,13.3
			c-0.5,7.8-1.2,16.3-2,25.5c-0.9,9.2-1.7,17.5-2.5,25c-0.9,7.5-1.3,11.4-1.3,11.7c-0.3,5.8-0.1,11.7,0.8,17.8
			c0.8,6.1,2,12.3,3.3,18.6c1.4,6.3,2.5,12.7,3.6,19.1c1,6.5,1.5,12.7,1.5,18.9c0,12.2-0.9,24-2.8,35.2c-1.9,11.2-3.4,22.3-4.6,33.4
			c-1.2,11-1.4,22.3-0.8,33.6c0.7,11.4,3.7,23.4,9.2,35.9c8.5,0.7,17.2,2.2,26,4.6l4.1,5.1v24.5
			C2072.1,548.6,2069.9,548.2,2066.2,548z"/>
		<path d="M2278.7,405c-2.7,0.7-6.6,1.4-11.7,2.3c-5.1,0.9-10.2,1.5-15.3,2c-5.1,0.5-9.4,0.6-13,0.3c-3.6-0.3-5.2-1.5-4.8-3.6
			l-9.7-1l-2-4.6h-43.3c-0.7-0.3-1.2-0.8-1.5-1.3c-0.3-0.5-1-1.1-2-1.8h-20.9c-4.8,4.8-9.7,9.2-14.8,13.3v38.2l4.1,2
			c1.7,4.4,2.8,8.8,3.3,13.3c0.5,4.4,1.1,9,1.8,13.8c3.7,4.4,7.8,8.8,12.2,13.3c4.4,4.4,9.5,7.5,15.3,9.2c1.7,3.4,4,5.8,6.9,7.1
			c2.9,1.4,6,2.1,9.4,2.3c3.4,0.2,7,0,10.7-0.5c3.7-0.5,7.1-0.8,10.2-0.8c0.7,0,1.4-0.3,2.3-1c0.8-0.7,0.8-1.4-0.3-2
			c4.4-1,8.5-1.1,12.2-0.3c3.7,0.9,7-0.8,9.7-4.8l8.7-1l5.1-7.6c3.7-0.7,7-1.4,9.9-2c2.9-0.7,5.2-2.9,6.9-6.6c2,1,4.1,2,6.1,2.8
			c2,0.9,3.9,1.6,5.6,2.3v11.2c-11.2,12.6-19.6,21.1-25.2,25.5c-5.6,4.4-10.2,7.5-13.8,9.2c-3.6,1.7-7.1,3.1-10.7,4.3
			c-3.6,1.2-8.9,4.8-16.1,11c-14.6,0-24.9,0.2-30.8,0.5c-6,0.3-10.7,0.3-14.3-0.3c-3.6-0.5-7.2-1.7-11-3.6c-3.7-1.9-10.7-5-20.9-9.4
			c-2.7-4.1-5.9-7.8-9.4-11.2c-3.6-3.4-7.4-6.6-11.5-9.7l-4.6-14.8l-3.6-2c-1-3.7-1.8-6.9-2.3-9.4c-0.5-2.5-2.6-5-6.4-7.4
			c-1-4.4-2.2-11.1-3.6-20.1c-1.4-9-2.3-18.1-2.8-27.3s-0.1-17.5,1.3-25c1.4-7.5,4.4-12.1,9.2-13.8c2-7.5,4.8-14.8,8.2-21.9
			c3.4-7.1,6.1-14.4,8.2-21.9c3.7-2.7,7.3-5.6,10.7-8.7c3.4-3.1,5.6-7,6.6-11.7l40.8-25c10.5,0,20.1,0.3,28.8,1
			c8.7,0.7,17.9,1.7,27.8,3.1c2.7,3.7,6.2,6.8,10.4,9.2c4.2,2.4,8.7,5.1,13.3,8.2c4.6,3.1,8.9,6.9,13,11.5s7.1,11,9.2,19.1l3.6,2
			c1.4,6.8,2.5,11.4,3.3,13.8c0.8,2.4,1.3,4.4,1.3,6.1c0,1.7-0.4,3.7-1.3,6.1c-0.9,2.4-2,6.8-3.3,13.3L2278.7,405z M2243.6,354
			c-2.4-4.4-4.3-7.5-5.6-9.2c-1,0-2-0.1-3.1-0.3c-1-0.2-2.2-0.4-3.6-0.8c-0.3-1.4-0.9-3.1-1.8-5.1c-0.9-2-2.1-3.1-3.8-3.1h-32.6
			c-4.1,4.1-9.2,7.1-15.3,9.2c-2,3.1-4.1,6.2-6.1,9.4c-2,3.2-4.3,6.5-6.6,9.9c4.4,4.1,8.7,8.3,12.7,12.7h23.4c1.4,0,2,0.5,1.8,1.5
			c-0.2,1,0.3,1.5,1.3,1.5h21.9c1.7,0,3.7-0.5,6.1-1.5c2.4-1,4.7-2.3,6.9-3.8c2.2-1.5,4.1-3.3,5.6-5.4s2.3-3.9,2.3-5.6
			C2247.1,361.7,2245.9,358.5,2243.6,354z"/>
		<path d="M2460.2,453.4v3.1c0,2-0.1,4.2-0.3,6.4c-0.2,2.2-0.3,4.3-0.3,6.4v3.1l-0.5,44.3c-3.1,4.1-7,7.8-11.7,11.2
			c-4.8,3.4-9.3,6.4-13.5,8.9c-4.3,2.5-9.6,5.4-16.1,8.4c-11.9,1.7-21.4,3-28.5,3.8c-7.1,0.8-12.9,1.4-17.3,1.5
			c-4.4,0.2-7.9-0.1-10.4-0.8c-2.5-0.7-5.3-1.8-8.2-3.3c-2.9-1.5-6.3-3.6-10.2-6.1c-3.9-2.5-9.4-5.5-16.6-8.9
			c-2.4-4.1-5.3-8-8.7-11.7c-1.7-7.5-2.9-13.6-3.6-18.4c-0.7-4.8-0.7-9,0-12.7c0.7-3.7,2-7.7,3.8-12c1.9-4.2,4.5-9.8,7.9-16.6h11.2
			c3.7,7.8,7.1,15.7,10.2,23.7c3.1,8,5.9,16.1,8.7,24.2c-3.1,2.4-5.9,4.1-8.7,5.1c1,2.7,2.5,5.1,4.6,7.1c2.7,0.3,5.3,0.4,7.6,0.3
			c2.4-0.2,4.8-1.1,7.1-2.8h20.9l3.6,3.1c3.7-0.7,7.6-2.1,11.7-4.3c4.1-2.2,7.7-4.9,11-8.2c3.2-3.2,5.9-6.9,8.2-11
			c2.2-4.1,3.3-8.3,3.3-12.7c0-14.6-0.5-25.5-1.5-32.6c-1-7.1-3.6-12.1-7.6-15c-4.1-2.9-10.2-4.3-18.4-4.3c-7.8,0-18.9,0-33.1,0
			l-1.5-4.6c-6.5-1-12.1-2.5-16.8-4.6c-2.7-5.1-6.6-7.8-11.7-8.2c-5.1-5.4-8.8-12.1-11.2-19.9c-2.4-7.8-3.5-15.9-3.3-24.2
			c0.2-8.3,1.5-16.4,4.1-24.2c2.5-7.8,6.2-14.6,11-20.4c2.7-1,5.3-2.4,7.6-4.1c2.4-1.7,4.8-3.5,7.1-5.4c2.4-1.9,4.8-3.4,7.1-4.6
			c2.4-1.2,5.1-1.8,8.2-1.8l1-4.6h24c0.3-0.3,1.4-0.6,3.1-0.8c1.7-0.2,3.6-0.1,5.9,0.3c2.2,0.3,4.2,0.6,6.1,0.8
			c1.9,0.2,3.1,0.3,3.8,0.3l2,4.1c4.4,1.4,8.2,2.4,11.2,3.1c3.1,0.7,6,1.5,8.9,2.5c2.9,1,5.7,2.3,8.4,3.8c2.7,1.5,6.1,3.8,10.2,6.9
			c1.4,5.4,2.5,9.8,3.6,13c1,3.2,1.6,6.2,1.8,8.9c0.2,2.7-0.1,5.8-0.8,9.2c-0.7,3.4-2,8-4.1,13.8h-14.8c-1.7-2.7-3.7-5.4-6.1-7.9
			c-2.4-2.5-5.3-4.2-8.7-4.8c-2.7-6.8-7.1-13.4-13-19.9c-6-6.5-12.3-10.7-19.1-12.7c-3.4,0.7-5.8,2.2-7.1,4.6
			c-8.2,0-14.7,3.6-19.6,10.7c-4.9,7.1-7.4,14.4-7.4,21.9c0,4.4,0.6,8,1.8,10.7c1.2,2.7,2.6,5,4.3,6.9c1.7,1.9,3.3,3.6,4.8,5.1
			c1.5,1.5,2.6,3.3,3.3,5.4c4.8,3.1,10.1,4.4,16.1,4.1c5.9-0.3,11.8-0.5,17.6-0.5c1.4,0.7,2,1.7,2,3.1l12.7,1l2.5,4.1
			c14.3,2,24.4,7.6,30.3,16.8C2456.2,429.5,2459.5,440.5,2460.2,453.4c0.3,0,0.5,1.5,0.5,4.6C2460.7,456,2460.5,454.5,2460.2,453.4z
			 M2460.2,453.4c0.3,1,0.5,2.5,0.5,4.6C2460.7,455,2460.5,453.4,2460.2,453.4z"/>
	</g>
	<g>
		<path d="M785.7,1825.2c-0.9,0-1.7-0.6-2.5-1.7c-0.8-1.1-1.5-2.5-2.2-4s-1.5-2.9-2.2-4.3c-0.7-1.4-1.4-2.3-2.1-2.7h-11.8
			c-0.2,0.1-0.5,0.5-0.9,1h-6.4l-1.1-1c-2.3,0-4.6-0.1-7-0.2c-2.4-0.2-4.6,0.3-6.8,1.3c-0.3,0.6-0.6,1.8-0.8,3.6
			c-0.2,1.8-0.4,4-0.5,6.5c-0.2,2.6-0.3,5.3-0.5,8.2c-0.2,3-0.3,5.8-0.4,8.6c-0.1,2.8-0.2,5.4-0.4,7.7c-0.2,2.3-0.3,4.1-0.5,5.4
			l1.7,3.6c-0.8,3.7-1.3,7.3-1.6,11c-0.3,3.6-0.5,7.1-0.6,10.6c-0.2,3.4-0.3,6.7-0.5,9.8c-0.2,3.1-0.7,6-1.3,8.7
			c0.6,0.8,1.1,1.7,1.4,2.8c0.3,1,0.7,2.2,1,3.4c0.3,1.2,0.7,2.4,1.1,3.7c0.4,1.3,0.9,2.4,1.5,3.4c0.9,0.4,2,0.8,3.2,1.3
			c1.2,0.4,2.4,0.9,3.7,1.4c1.2,0.5,2.4,1.1,3.5,1.7c1.1,0.7,2,1.4,2.6,2.2v3.5l-2.1-1c-1.2,0.4-2.6,0.6-4.1,0.5
			c-1.6-0.1-3.1-0.2-4.6-0.4c-1.6-0.2-3.1-0.2-4.5-0.1c-1.5,0.1-2.6,0.5-3.5,1.2l-6.6-3l-1.2,1c-1,0-2,0.1-3.1,0.2
			c-1,0.1-2.1,0.1-3.2,0c-1-0.1-2-0.3-2.9-0.8c-0.9-0.4-1.6-1.1-2.2-2.1l-10,4.5v-8.2c0.2,0.3,0.5,0.5,1,0.6
			c0.5,0.1,0.8-0.1,0.8-0.6c1.3-0.2,2.6-0.4,3.8-0.7c1.2-0.2,2.5-0.2,3.8,0.1c2.5-1.4,4.3-3.9,5.3-7.7c1-3.7,1.7-7.7,2.1-12.1
			c0.3-4.3,0.5-8.6,0.5-12.8c0-4.3,0.3-7.7,0.9-10.4l-0.9-1.3v-9.8c0.3-0.5,0.5-1,0.8-1.4c0.2-0.5-0.1-0.9-0.8-1.4
			c0-0.6,0-1.4,0.1-2.3c0.1-0.9,0.2-1.9,0.2-2.9c0-0.9,0.1-1.8,0.2-2.6c0.1-0.8,0.2-1.3,0.2-1.5c0.4-2.5,0.8-5.2,1.1-8.2
			c0.3-3,0.5-6,0.4-9c-0.1-3-0.5-5.9-1.1-8.8c-0.7-2.9-1.7-5.3-3.2-7.4h-8.2c-0.2,0-0.4,0.1-0.6,0.3c-0.2,0.2-0.2,0.4,0,0.6
			c-2.2,0.5-4,0.8-5.4,1c-1.4,0.2-3.1-0.1-5.1-0.8c-0.3,0.5-1.1,0.8-2.3,1c-1.3,0.2-2.6,0.2-4.1,0.2s-3,0-4.3-0.1
			c-1.4,0-2.4-0.1-2.9-0.1l-6,6.8l-1.2,4.8h-3.3l-1.8-2.8c0.1-1.4,0.1-3.4,0.1-5.9c-0.1-2.5-0.1-5.2-0.2-8c-0.1-2.8-0.2-5.5-0.3-8
			c-0.1-2.5-0.1-4.5,0-5.8l7.5,4.3c2.7,1.2,5.5,2,8.5,2.4c2.9,0.4,5.9,0.6,8.9,0.5c3,0,6-0.2,9.1-0.5c3-0.2,6.1-0.4,9.1-0.4
			c0.1-0.1,1.3,0,3.7,0.2c2.3,0.2,5,0.4,8.1,0.5c3,0.1,6.1,0.3,9.2,0.4c3,0.1,5.4,0.1,7-0.2l1.3,1h11.7c0.3-0.2,0.5-0.4,0.5-0.6
			c0-0.2,0.2-0.3,0.5-0.5h11.9c0.8-0.7,1.5-1.3,2-1.9c0.5-0.5,1.1-1,1.7-1.3c0.5-0.3,1.2-0.7,1.9-1.1c0.7-0.3,1.6-0.7,2.7-1l3.3,1.2
			c0.2,1.5,0.4,3.4,0.5,5.6c0.1,2.2,0.3,4.6,0.4,7c0.2,2.4,0.3,4.7,0.5,7c0.2,2.2,0.3,4.1,0.5,5.6L785.7,1825.2z"/>
		<path d="M863.5,1919.5c-0.6,0.9-1.2,1.6-2,2.1h-16.5l-0.5-0.3l-1-0.2l-4.8-0.6c-0.4-0.7-0.8-1.5-1-2.3c-0.3-0.8-0.4-1.7-0.2-2.5
			c1.8-0.7,3.6-1.1,5.5-1.4l1.7-1.8v-13.8c-0.9-1.3-1.7-2.7-2.2-4.4c0.8-1.8,1.2-3.5,1.2-5.1c0-1.6,0-3.4,0-5.4
			c0-0.3-0.2-0.5-0.5-0.5c-0.3,0-0.6,0-0.8,0.2c0-3.5,0-6.2,0.1-8c0.1-1.8,0-3.4-0.3-4.7c-0.3-1.2-1-2.5-2-3.7
			c-1.1-1.2-2.8-2.9-5.2-5.2h-9.8l-1.5,1.3c-1.5-0.3-2.7,0.1-3.6,1c-0.9,1-1.6,2.3-2.2,4c-0.6,1.6-0.9,3.5-1,5.5
			c-0.2,2.1-0.3,4-0.3,5.9c-0.1,1.9,0,3.6,0.1,5c0.1,1.4,0.2,2.3,0.2,2.7c-0.2,0.4-0.6,0.6-1,0.6c-0.5,4.2-0.8,8.3-0.8,12.3
			c0,4,0,8.1,0,12.3l2.1,2.4c0.9,0,1.8,0,2.8,0.1c1,0.1,2,0.2,2.9,0.5l-3.8,4.5l2.5-0.2l-1.7,0.9l0.3,0.6c-3.5,0-7.1,0.1-10.8,0.4
			c-3.7,0.2-7.2-0.2-10.3-1.4l-0.8-2.7l1.3-3.2c1.4-0.5,2.4-1.2,3.2-2.1c0.7-8.2,1.1-16.2,1.3-24c0.2-7.8,0.2-15.5,0.2-23.2
			c-0.1-7.7-0.3-15.3-0.5-22.9c-0.2-7.6-0.3-15.4-0.3-23.4c-0.7-1-1.6-1.8-2.6-2.3c-1-0.5-1.8-1.2-2.2-2l-1.7-0.2
			c-0.4-1.5-0.6-2.6-0.6-3.5c0-0.8,0.3-1.9,1-3.4l5.1-1.4l0.5-1c4.2-0.6,7.2-1.4,8.9-2.5c1.7-1.1,2.9-1.6,3.5-1.6
			c0.7,0,1.2,0.9,1.6,2.6c0.3,1.8,1.2,5,2.6,9.8l-1.2,3.4l1.7,4.4l-1.7,3.8l1.2,1.8c-1,2.3-1.7,4.8-2,7.4c-0.3,2.7-0.5,5.3-0.5,8
			s0.1,5.4,0.3,8.2c0.2,2.8,0.3,5.4,0.3,7.9c2.1,0,4.4-0.7,6.8-2.2c2.4-1.4,4.5-2.7,6.1-3.8c1.9,0,3.8,0,5.7,0c2,0,3.7,0.3,5.1,0.8
			l4.4,0.3c1.4,1.1,2.6,2.1,3.5,2.9c0.9,0.9,1.6,2.2,1.9,4.1l2.1,1.5c0.7,1.7,1.2,4.1,1.6,7.1c0.3,3,0.5,6.3,0.6,9.8
			c0,3.6,0,7.2,0,11c-0.1,3.8,0,7.2,0.1,10.4c0.1,3.2,0.3,5.9,0.5,8.2c0.2,2.2,0.7,3.7,1.4,4.3l4.5,0.3c1,1.1,1.8,2.3,2.4,3.6
			C864.4,1917.7,864,1918.6,863.5,1919.5z"/>
		<path d="M927.3,1879.2c-0.8,0.2-2,0.4-3.5,0.7c-1.5,0.3-3,0.5-4.5,0.6c-1.5,0.1-2.8,0.2-3.8,0.1c-1.1-0.1-1.5-0.5-1.4-1.1
			l-2.8-0.3l-0.6-1.3h-12.8c-0.2-0.1-0.4-0.2-0.5-0.4c-0.1-0.2-0.3-0.3-0.6-0.5h-6.1c-1.4,1.4-2.9,2.7-4.4,3.9v11.2l1.2,0.6
			c0.5,1.3,0.8,2.6,1,3.9c0.1,1.3,0.3,2.7,0.5,4c1.1,1.3,2.3,2.6,3.6,3.9c1.3,1.3,2.8,2.2,4.5,2.7c0.5,1,1.2,1.7,2,2.1
			c0.8,0.4,1.8,0.6,2.8,0.7c1,0.1,2,0,3.1-0.2c1.1-0.1,2.1-0.2,3-0.2c0.2,0,0.4-0.1,0.7-0.3c0.2-0.2,0.2-0.4-0.1-0.6
			c1.3-0.3,2.5-0.3,3.6-0.1c1.1,0.2,2-0.2,2.9-1.4l2.5-0.3l1.5-2.2c1.1-0.2,2.1-0.4,2.9-0.6c0.8-0.2,1.5-0.8,2-2
			c0.6,0.3,1.2,0.6,1.8,0.8c0.6,0.3,1.1,0.5,1.6,0.7v3.3c-3.3,3.7-5.8,6.2-7.4,7.5c-1.6,1.3-3,2.2-4,2.7c-1,0.5-2.1,0.9-3.2,1.3
			c-1,0.4-2.6,1.4-4.7,3.2c-4.3,0-7.3,0-9.1,0.2c-1.8,0.1-3.1,0.1-4.2-0.1c-1-0.2-2.1-0.5-3.2-1c-1.1-0.5-3.2-1.5-6.2-2.8
			c-0.8-1.2-1.7-2.3-2.8-3.3c-1-1-2.2-2-3.4-2.9l-1.4-4.3l-1-0.6c-0.3-1.1-0.5-2-0.7-2.8s-0.8-1.5-1.9-2.2c-0.3-1.3-0.7-3.3-1-5.9
			c-0.4-2.6-0.7-5.3-0.8-8s0-5.1,0.4-7.3c0.4-2.2,1.3-3.5,2.7-4.1c0.6-2.2,1.4-4.3,2.4-6.4c1-2.1,1.8-4.2,2.4-6.5
			c1.1-0.8,2.1-1.7,3.2-2.5c1-0.9,1.6-2,1.9-3.5l12-7.4c3.1,0,5.9,0.1,8.5,0.3c2.5,0.2,5.3,0.5,8.2,0.9c0.8,1.1,1.8,2,3.1,2.7
			c1.2,0.7,2.5,1.5,3.9,2.4c1.4,0.9,2.6,2,3.8,3.4c1.2,1.3,2.1,3.2,2.7,5.6l1,0.6c0.4,2,0.7,3.4,1,4c0.2,0.7,0.4,1.3,0.4,1.8
			c0,0.5-0.1,1.1-0.4,1.8c-0.3,0.7-0.6,2-1,3.9L927.3,1879.2z M916.9,1864.2c-0.7-1.3-1.3-2.2-1.7-2.7c-0.3,0-0.6,0-0.9-0.1
			c-0.3,0-0.7-0.1-1.1-0.2c-0.1-0.4-0.3-0.9-0.5-1.5c-0.3-0.6-0.6-0.9-1.1-0.9h-9.6c-1.2,1.2-2.7,2.1-4.5,2.7
			c-0.6,0.9-1.2,1.8-1.8,2.8c-0.6,1-1.3,1.9-2,2.9c1.3,1.2,2.6,2.5,3.8,3.8h6.9c0.4,0,0.6,0.2,0.5,0.5c-0.1,0.3,0.1,0.5,0.4,0.5h6.4
			c0.5,0,1.1-0.2,1.8-0.5c0.7-0.3,1.4-0.7,2-1.1c0.6-0.5,1.2-1,1.7-1.6c0.5-0.6,0.7-1.1,0.7-1.6
			C918,1866.4,917.6,1865.5,916.9,1864.2z"/>
		<path d="M1053.6,1964.2c0,1-0.2,1.8-0.5,2.5c-0.4,0.6-0.9,1.2-1.7,1.7c-0.8,0.5-1.8,1.1-3,1.8c-1.2,0-3,0-5.2,0.2
			c-2.3,0.1-4.7,0.2-7,0.2c-2.4,0-4.6-0.1-6.6-0.2c-2-0.1-3.4-0.5-4-1l-6.1-0.3c-0.6-0.6-1.2-1.2-1.8-1.8c-0.6-0.6-1.2-1.3-1.6-1.9
			l1.2-3.8c1.1-0.8,2.1-1.2,3.1-1.2c1.1,0,2.3-0.1,3.8-0.2c0.9-1.4,2-2.4,3.3-3c0.5-2.8,0.8-5.7,1-8.5c0.1-2.9,0.2-5.8,0.2-8.7
			c0-2.8,0-5.7,0.2-8.5c0.1-2.9,0.4-5.8,0.9-8.5c0.2-1.1,0-1.9-0.4-2.3c-0.5-0.5-1.2-0.7-2-0.7c-0.7,0-1.5,0.2-2.2,0.7
			c-0.8,0.5-1.4,1-1.8,1.7h-9.8l-0.5-1.5c-1.6,0-3,0-4.2,0.1c-1.2,0.1-2.2-0.3-3.2-1l-7.3-1.4l-4.3-4.9c-1.7-0.4-3.1-1.2-4.3-2.3
			c-1.2-1.1-2.3-2.3-3.5-3.4c-0.3-1.3-0.4-2.4-0.4-3.3c0-0.9-0.1-1.7-0.2-2.5c-0.1-0.8-0.4-1.5-0.7-2.3c-0.3-0.8-0.9-1.8-1.8-3
			c-0.2-2.5-0.5-5-0.8-7.5c-0.3-2.5-0.4-5-0.3-7.5c0.1-2.5,0.5-4.9,1.2-7.3c0.7-2.3,2-4.6,3.8-6.7c0.2-1.4,0.7-2.6,1.4-3.8
			c0.8-1.1,1.4-2.3,2-3.6c0.9-0.6,1.7-1.1,2.5-1.6c0.8-0.4,1.5-0.9,2.2-1.3c0.8-0.4,1.5-0.8,2.4-1.1c0.8-0.3,1.8-0.7,2.9-1.1
			l0.6-1.2l5.7-1.3l0.6-1.4c0.5,0,0.9,0,1.3,0c0.4,0,0.8,0.1,1.4,0.2c1-1.2,2.2-1.9,3.6-2.1c1.4-0.2,2.9-0.1,4.5,0.4
			c1.6,0.5,3.3,1.1,5.1,1.8c1.8,0.8,3.6,1.5,5.4,2.2c1.8,0.7,3.5,1.2,5.2,1.6c1.7,0.4,3.2,0.3,4.6-0.1l0.6-1.2l3.9-1.2l3.6,1
			c0.7,2.5,1,4.8,1,6.8c-0.1,2-0.3,3.9-0.7,5.8c-0.4,1.9-0.8,3.7-1.2,5.6c-0.4,1.9-0.6,4-0.6,6.3c0,1,0,2.7,0.1,5.2
			c0,2.5,0.1,5.3,0.2,8.5c0,3.2,0.1,6.5,0.2,10c0,3.5,0,6.6-0.1,9.5c-0.1,2.9-0.3,5.3-0.5,7.3c-0.2,2-0.5,3-0.9,3.2
			c0,1.7,0.1,3.3,0.4,4.9c0.2,1.5,0.5,3.2,0.7,4.9c-0.6,1.1-1,2.3-1.2,3.8c-0.2,1.4-0.3,2.8-0.2,4.3c0,1.4,0.1,2.9,0.2,4.4
			c0.1,1.5,0.1,2.8,0.1,4l-1.5,2.4v6.6c0.1,0.6,0.6,1,1.4,1.1c0.8,0.1,1.9,0.2,3.1,0.3c1.2,0,2.4,0.2,3.6,0.3
			c1.2,0.2,2.1,0.6,2.8,1.3C1053.4,1962,1053.6,1963.3,1053.6,1964.2z M1032.8,1892.1c0.2-1.7,0.5-3.4,0.9-5.1
			c0.5-1.7,0.8-3.4,1.2-5.2c0.3-1.7,0.4-3.7,0.1-5.8c-0.2-2.1-1-4.4-2.2-7s-3.1-5.4-5.8-8.6c-1.8-0.5-3.2-1.4-4.2-2.7
			c-0.8-0.2-1.6-0.4-2.3-0.8c-0.8-0.3-1.5-0.4-2.3-0.4c-1.2,0-2.7,0.5-4.3,1.5c-1.7,1-3.4,2.2-5.2,3.6c-1.8,1.4-3.4,2.8-4.8,4.3
			c-1.5,1.5-2.5,2.6-3.2,3.5c-0.5,0.6-1,1.4-1.3,2.5c-0.4,1-0.8,2.2-1.3,3.4c-0.5,1.2-0.9,2.4-1.3,3.6s-0.9,2.2-1.4,3.2v11.2
			c0.8,1.1,1.4,2.7,1.8,4.8c0.4,2.1,0.8,3.8,1,5c0.7,0.6,1.2,1.6,1.7,2.8c0.5,0.6,1,1.3,1.5,2c1.1,0.8,2.1,1.6,3.1,2.5
			c0.9,0.9,1.9,1.9,2.8,2.8c1,0,2,0.2,3,0.5c1,0.3,2,0.6,3,0.8l0.6-1h9.3c2.3-2.3,4.4-4.7,6.3-7.3c1.9-2.5,3.3-5.4,4.3-8.5
			C1032.9,1895.6,1032.7,1893.8,1032.8,1892.1z"/>
		<path d="M1119.4,1919.2c-1.6,0.6-3.6,1-6,1.2l-0.6,1.2c-0.9,0.2-1.8,0.4-2.6,0.5c-0.9,0.1-1.7,0.4-2.5,0.7l-4.4-1
			c-0.8-2-1.2-3.9-1-5.7c-2.2-0.6-3.9-0.7-5.1-0.3c-1.2,0.4-2.3,0.9-3.2,1.6c-1,0.7-2,1.3-3.1,2c-1.1,0.7-2.6,0.9-4.5,0.8l-1.6,1.7
			h-7l-0.5-1.4c-1.1-0.5-2.1-1-2.9-1.6c-0.9-0.5-1.8-1-2.8-1.4c-0.5-1.3-1.3-2.5-2.3-3.8s-2-2.3-2.8-3.5c-0.3-0.9-0.3-1.9,0-3
			c0.3-1.1,0.6-2.2,0.8-3.4c0.2-1.1,0.3-2.3,0.3-3.5c-0.1-1.2-0.5-2.3-1.4-3.5V1870c0-0.2,0.1-0.4,0.2-0.6c0.1-0.2,0.3-0.2,0.5,0
			c0.5-2,0.8-3.9,0.8-5.6c0-1.7,0.1-3.7,0.1-5.9c-1.6-0.5-3.1-1.1-4.6-1.9c-1.5-0.8-2.9-1.5-4.3-2.3v-5h9.9l1.7,1.1h9.9
			c0.7,0.9,1.4,1.4,2.2,1.5v6.1c-0.7,0.2-1.2,0.6-1.6,1.2c-0.4,0.6-0.7,1.3-0.9,2c-0.3,0.8-0.5,1.5-0.8,2.3c-0.3,0.8-0.6,1.5-1,2.1
			v37.8l1.3,0.6l1.3,4.1l3.8,3h11.9c0.6,0,1.3-0.7,2-2.2c0.8-1.4,1.5-3.1,2.2-4.9c0.7-1.8,1.3-3.7,1.7-5.5s0.7-3,0.7-3.6v-30.5
			c0-0.3-0.2-0.7-0.7-1.1s-1-0.9-1.6-1.5c-0.6-0.5-1.2-1-1.7-1.5c-0.6-0.5-0.9-0.8-1.1-1.1l-7.2-1.2c-0.5-1.5-0.6-2.7-0.3-3.7
			c0.3-0.9,0.8-1.7,1.6-2.2c0.8-0.5,1.8-1,2.9-1.4c1.1-0.4,2.3-0.8,3.4-1.4c0.3,0.5,1.1,0.9,2.4,1.1c1.3,0.2,2.7,0.3,4.2,0.3
			s3,0,4.4-0.2c1.4-0.1,2.5-0.1,3.1-0.1c0.2,0.8,0.6,1.3,1.1,1.4c0.5,0.1,1.1,0.2,1.7,0.2c0.6,0,1.2,0,1.9-0.1
			c0.6-0.1,1.2,0,1.6,0.1c0.2,1.1,0.5,2.2,0.9,3.3c0.4,1.1,0.6,2.2,0.8,3.3c0,1.4-0.1,2.4-0.4,3.1c-0.3,0.7-0.5,1.3-0.6,1.9
			c-0.1,0.6-0.2,1.4-0.2,2.2c0,0.8,0.2,2.1,0.8,3.8c-1.1,4.2-1.9,8.7-2.5,13.4c-0.6,4.8-0.8,9.4-0.7,13.9c0,0.7,0.2,1.4,0.5,2.1
			c0.3,0.7,0.5,1.4,0.5,2.1c0,1.4-0.3,2.7-0.8,3.8c-0.5,1.2-0.5,2.5,0,4.1c1,0.7,2.2,1,3.6,1c0.5,0.9,1,1.8,1.6,2.6
			c0.5,0.9,1,1.8,1.3,2.8C1122.5,1917.2,1121,1918.6,1119.4,1919.2z"/>
		<path d="M1185.7,1879.2c-0.8,0.2-2,0.4-3.5,0.7c-1.5,0.3-3,0.5-4.5,0.6c-1.5,0.1-2.8,0.2-3.8,0.1c-1-0.1-1.5-0.5-1.4-1.1l-2.9-0.3
			l-0.6-1.3h-12.8c-0.2-0.1-0.4-0.2-0.5-0.4c-0.1-0.2-0.3-0.3-0.6-0.5h-6.2c-1.4,1.4-2.8,2.7-4.3,3.9v11.2l1.2,0.6
			c0.5,1.3,0.8,2.6,1,3.9c0.2,1.3,0.3,2.7,0.5,4c1.1,1.3,2.3,2.6,3.6,3.9c1.3,1.3,2.8,2.2,4.5,2.7c0.5,1,1.2,1.7,2,2.1
			c0.8,0.4,1.8,0.6,2.8,0.7c1,0.1,2,0,3.2-0.2c1.1-0.1,2.1-0.2,3-0.2c0.2,0,0.4-0.1,0.7-0.3c0.2-0.2,0.2-0.4-0.1-0.6
			c1.3-0.3,2.5-0.3,3.6-0.1c1.1,0.2,2-0.2,2.8-1.4l2.5-0.3l1.5-2.2c1.1-0.2,2.1-0.4,2.9-0.6c0.8-0.2,1.5-0.8,2-2
			c0.6,0.3,1.2,0.6,1.8,0.8c0.6,0.3,1.1,0.5,1.7,0.7v3.3c-3.3,3.7-5.8,6.2-7.4,7.5c-1.7,1.3-3,2.2-4.1,2.7c-1,0.5-2.1,0.9-3.1,1.3
			c-1,0.4-2.6,1.4-4.7,3.2c-4.3,0-7.3,0-9.1,0.2c-1.8,0.1-3.2,0.1-4.2-0.1c-1-0.2-2.1-0.5-3.2-1c-1.1-0.5-3.1-1.5-6.1-2.8
			c-0.8-1.2-1.7-2.3-2.8-3.3c-1-1-2.2-2-3.4-2.9l-1.3-4.3l-1-0.6c-0.3-1.1-0.5-2-0.7-2.8c-0.1-0.8-0.8-1.5-1.9-2.2
			c-0.3-1.3-0.7-3.3-1-5.9c-0.4-2.6-0.7-5.3-0.8-8c-0.1-2.7,0-5.1,0.4-7.3c0.4-2.2,1.3-3.5,2.7-4.1c0.6-2.2,1.4-4.3,2.4-6.4
			c1-2.1,1.8-4.2,2.4-6.5c1.1-0.8,2.1-1.7,3.2-2.5c1-0.9,1.7-2,2-3.5l12-7.4c3.1,0,5.9,0.1,8.5,0.3c2.5,0.2,5.3,0.5,8.2,0.9
			c0.8,1.1,1.8,2,3.1,2.7c1.2,0.7,2.5,1.5,3.9,2.4c1.3,0.9,2.6,2,3.8,3.4c1.2,1.3,2.1,3.2,2.7,5.6l1.1,0.6c0.4,2,0.7,3.4,1,4
			c0.2,0.7,0.4,1.3,0.4,1.8c0,0.5-0.1,1.1-0.4,1.8c-0.3,0.7-0.6,2-1,3.9L1185.7,1879.2z M1175.4,1864.2c-0.7-1.3-1.3-2.2-1.6-2.7
			c-0.3,0-0.6,0-0.9-0.1c-0.3,0-0.7-0.1-1-0.2c-0.1-0.4-0.3-0.9-0.5-1.5c-0.3-0.6-0.6-0.9-1.1-0.9h-9.6c-1.2,1.2-2.7,2.1-4.5,2.7
			c-0.6,0.9-1.2,1.8-1.8,2.8c-0.6,1-1.3,1.9-2,2.9c1.3,1.2,2.5,2.5,3.8,3.8h6.9c0.4,0,0.6,0.2,0.5,0.5c-0.1,0.3,0.1,0.5,0.4,0.5h6.5
			c0.5,0,1.1-0.2,1.8-0.5c0.7-0.3,1.4-0.7,2-1.1c0.6-0.5,1.2-1,1.6-1.6c0.5-0.6,0.7-1.1,0.7-1.6
			C1176.4,1866.4,1176.1,1865.5,1175.4,1864.2z"/>
		<path d="M1239.1,1893.4v0.9c0,0.6,0,1.2-0.1,1.9c-0.1,0.7-0.1,1.3-0.1,1.9v0.9l-0.2,13.1c-0.9,1.2-2.1,2.3-3.4,3.3
			c-1.4,1-2.7,1.9-4,2.6c-1.3,0.8-2.8,1.6-4.7,2.5c-3.5,0.5-6.3,0.9-8.4,1.1c-2.1,0.2-3.8,0.4-5.1,0.5c-1.3,0-2.3,0-3.1-0.2
			s-1.6-0.5-2.4-1c-0.9-0.5-1.9-1-3-1.8c-1.2-0.8-2.8-1.6-4.9-2.6c-0.7-1.2-1.6-2.3-2.5-3.5c-0.5-2.2-0.9-4-1-5.4
			c-0.2-1.4-0.2-2.6,0-3.8c0.2-1.1,0.6-2.3,1.1-3.5c0.5-1.2,1.3-2.9,2.3-4.9h3.3c1.1,2.3,2.1,4.6,3,7c0.9,2.4,1.7,4.7,2.5,7.1
			c-0.9,0.7-1.8,1.2-2.5,1.5c0.3,0.8,0.8,1.5,1.3,2.1c0.8,0.1,1.5,0.1,2.2,0.1c0.7,0,1.4-0.3,2.1-0.8h6.1l1.1,0.9
			c1.1-0.2,2.2-0.6,3.4-1.3c1.2-0.6,2.3-1.4,3.2-2.4c0.9-0.9,1.7-2,2.4-3.2c0.6-1.2,1-2.4,1-3.8c0-4.3-0.2-7.5-0.5-9.6
			c-0.3-2.1-1-3.6-2.2-4.4c-1.2-0.8-3-1.3-5.4-1.3c-2.3,0-5.5,0-9.8,0l-0.4-1.4c-1.9-0.3-3.6-0.8-5-1.3c-0.8-1.5-2-2.3-3.5-2.4
			c-1.5-1.6-2.6-3.5-3.3-5.8c-0.7-2.3-1-4.7-1-7.1c0-2.4,0.5-4.8,1.2-7.1c0.8-2.3,1.8-4.3,3.2-6c0.8-0.3,1.5-0.7,2.2-1.2
			c0.7-0.5,1.4-1,2.1-1.6c0.7-0.5,1.4-1,2.1-1.3c0.7-0.3,1.5-0.5,2.4-0.5l0.3-1.3h7c0.1-0.1,0.4-0.2,0.9-0.2c0.5,0,1.1,0,1.7,0.1
			c0.6,0.1,1.2,0.2,1.8,0.2c0.5,0.1,0.9,0.1,1.1,0.1l0.6,1.2c1.3,0.4,2.4,0.7,3.3,0.9c0.9,0.2,1.8,0.5,2.6,0.8
			c0.8,0.3,1.7,0.7,2.5,1.1c0.8,0.5,1.8,1.1,3,2c0.4,1.6,0.8,2.9,1,3.8c0.3,1,0.5,1.8,0.5,2.6c0,0.8,0,1.7-0.2,2.7
			c-0.2,1-0.6,2.4-1.2,4h-4.3c-0.5-0.8-1.1-1.6-1.8-2.3c-0.7-0.8-1.6-1.2-2.6-1.4c-0.8-2-2.1-3.9-3.8-5.8c-1.8-1.9-3.6-3.2-5.6-3.8
			c-1,0.2-1.7,0.7-2.1,1.3c-2.4,0-4.3,1-5.8,3.2c-1.5,2.1-2.2,4.3-2.2,6.5c0,1.3,0.2,2.4,0.5,3.1c0.3,0.8,0.8,1.5,1.3,2
			c0.5,0.6,1,1,1.4,1.5s0.8,1,1,1.6c1.4,0.9,3,1.3,4.7,1.2c1.7-0.1,3.5-0.1,5.2-0.1c0.4,0.2,0.6,0.5,0.6,0.9l3.8,0.3l0.8,1.2
			c4.2,0.6,7.2,2.2,8.9,5C1238,1886.4,1238.9,1889.6,1239.1,1893.4c0.1,0,0.1,0.5,0.1,1.4
			C1239.3,1894.2,1239.2,1893.7,1239.1,1893.4z M1239.1,1893.4c0.1,0.3,0.1,0.8,0.1,1.4C1239.3,1893.9,1239.2,1893.4,1239.1,1893.4z
			"/>
		<path d="M1291.1,1855.8c-0.7,0.7-1.5,1.1-2.5,1.2c-1,0.1-2.1,0-3.2-0.2c-1.2-0.2-2.2-0.4-3.1-0.4h-13.2c-0.2,0.2-0.6,0.7-1.1,1.4
			c-0.5,0.8-0.8,1.2-0.8,1.4c0,0.9,0,2.5,0.1,4.7c0,2.2,0.1,4.9,0.2,7.9c0,3,0.1,6.2,0.3,9.5c0.2,3.4,0.3,6.6,0.5,9.8
			c0.2,3.2,0.4,6,0.7,8.6c0.2,2.5,0.6,4.5,1,5.8c1.8,1.4,3.2,2.4,4.3,3c1,0.6,2.1,1,3.2,1.1c1.1,0.2,2.4,0.2,4,0
			c1.5-0.1,3.7-0.2,6.5-0.2c0.3,0,0.8-0.3,1.6-0.8c0.8-0.5,1.2-0.9,1.4-1.1v-0.6c1.1,1.1,2,2.2,2.5,3.4c0.6,1.2,0.9,2.2,0.8,3.1
			c-0.1,0.9-0.5,1.7-1.4,2.2c-0.9,0.6-2.3,1-4.2,1.1c-0.8,1-1.8,1.7-3,2.1c-1.2,0.4-2.3,1-3.3,1.8c-1.6,0.2-3.2,0.4-4.7,0.7
			c-1.6,0.3-3.1,0.5-4.6,0.6c-1.5,0.1-3,0.1-4.6,0c-1.6-0.2-3.1-0.6-4.7-1.3l-0.6-1.2c-2.2-0.1-3.9-1-5-2.8
			c-1.2-1.8-2.1-3.8-2.8-6.2c-0.7-2.3-1.2-4.6-1.6-7c-0.4-2.3-0.8-4.2-1.4-5.5l0.9-1.2c0.2-3,0.4-6.2,0.6-9.7
			c0.2-3.5,0.4-6.9,0.5-10.5c0.1-3.5,0.3-7,0.4-10.4c0.1-3.4,0.1-6.6,0.1-9.6l-3.5-0.6c-0.6-0.9-1.3-1.4-1.9-1.7
			c-0.7-0.2-1.3-0.3-1.9-0.4c-0.6,0-1-0.2-1.3-0.3c-0.3-0.2-0.5-0.5-0.5-1.1c0-0.5,0.5-1.2,1.4-2.1c0.9-0.9,1.4-1.7,1.5-2.5
			c0.3,0,0.4,0.1,0.4,0.2l2.1-0.8l1.2-1.8c1-0.4,1.8-0.9,2.5-1.7c0.7-0.7,1.3-1.4,1.8-2.1c0.5-0.7,1-1.3,1.4-1.9
			c0.5-0.5,1-0.9,1.6-1.1c0.1-0.4,0.2-1.1,0.2-2.1l1.6-0.1l1-0.9h3.9c0.3,1.2,0.5,2.4,0.7,3.5c0.2,1.2,0.4,2.2,0.7,3.2
			c0.3,1,0.8,1.9,1.6,2.6s1.9,1.4,3.4,1.9l2.1-1.5h12.9c1.4,1.2,2.4,2.1,2.9,2.8c0.5,0.7,0.9,1.9,1,3.8
			C1292,1853.7,1291.8,1855.1,1291.1,1855.8z"/>
		<path d="M1377.7,1921.8c-2,0.8-4.2,1.2-6.8,1.3c-2.6,0.1-5.2,0-7.7-0.2c-2.5-0.2-4.4-0.1-5.6,0.2c-0.6,0.1-1.3,0-2-0.2
			c-0.8-0.3-1.5-0.6-2.2-1s-1.5-0.8-2.2-1.2c-0.8-0.4-1.3-0.8-1.7-1c0.6-1.2,1.4-2,2.5-2.5c1.1-0.5,2.2-1.1,3.3-1.7
			c1.1-0.6,2.1-1.6,3-2.9c0.9-1.2,1.4-3.2,1.4-5.8c0-3.9-0.1-7.3-0.3-10.2c-0.2-2.9-0.4-5.7-0.5-8.4c-0.2-2.7-0.2-5.5-0.2-8.4
			c0-2.9,0.3-6.3,0.8-10.4c0.1-0.9-0.2-1.7-0.8-2.5c-0.6-0.8-1.3-1.6-2.1-2.5c-0.8-0.8-1.6-1.7-2.2-2.7c-0.7-0.9-1.1-2-1.2-3.2
			c-0.1-0.6,0.5-1.3,1.9-2c1.3-0.8,2.9-1.4,4.7-2.1c1.8-0.6,3.6-1.2,5.3-1.6c1.7-0.4,2.9-0.6,3.5-0.6c1.3,0,2.3,0.8,3.1,2.5
			c0.8,1.6,1.3,3.7,1.7,6.1c0.3,2.5,0.5,5.2,0.5,8.2c0,2.9-0.1,5.7-0.2,8.2c-0.1,2.6-0.3,4.9-0.5,6.8c-0.2,1.9-0.3,3.1-0.3,3.5
			c-0.3,2.1-0.5,3.7-0.6,4.9c-0.1,1.2-0.1,2.2-0.1,3.2c0,1,0.1,2,0.2,3.2c0,1.2,0.1,2.9,0.1,5c0,1.7,0.2,3.5,0.6,5.2
			c0.4,1.8,1.3,3.3,2.7,4.5c0.6,0.5,1.5,1,2.8,1.5c1.3,0.5,2,1.3,2.1,2.4C1380.5,1919.6,1379.6,1921.1,1377.7,1921.8z
			 M1372.2,1836.3c-2,1.3-4.2,1.9-6.6,1.9c-2.4,0-4.6-0.8-6.6-2.2c-2-1.4-3-3.7-3-6.8c0-1.9,1-3.2,3-4c2-0.8,4.2-1,6.6-0.8
			c2.4,0.2,4.6,0.9,6.6,2c2,1.2,3,2.6,3,4.4C1375.2,1833.1,1374.2,1835,1372.2,1836.3z"/>
		<path d="M1435.3,1893.4v0.9c0,0.6,0,1.2-0.1,1.9c-0.1,0.7-0.1,1.3-0.1,1.9v0.9l-0.2,13.1c-0.9,1.2-2.1,2.3-3.4,3.3
			c-1.4,1-2.7,1.9-4,2.6c-1.3,0.8-2.8,1.6-4.7,2.5c-3.5,0.5-6.3,0.9-8.4,1.1c-2.1,0.2-3.8,0.4-5.1,0.5c-1.3,0-2.3,0-3.1-0.2
			s-1.6-0.5-2.4-1c-0.9-0.5-1.9-1-3-1.8c-1.2-0.8-2.8-1.6-4.9-2.6c-0.7-1.2-1.6-2.3-2.5-3.5c-0.5-2.2-0.9-4-1-5.4
			c-0.2-1.4-0.2-2.6,0-3.8c0.2-1.1,0.6-2.3,1.1-3.5c0.5-1.2,1.3-2.9,2.3-4.9h3.3c1.1,2.3,2.1,4.6,3,7c0.9,2.4,1.7,4.7,2.5,7.1
			c-0.9,0.7-1.8,1.2-2.5,1.5c0.3,0.8,0.8,1.5,1.3,2.1c0.8,0.1,1.5,0.1,2.2,0.1c0.7,0,1.4-0.3,2.1-0.8h6.1l1.1,0.9
			c1.1-0.2,2.2-0.6,3.4-1.3c1.2-0.6,2.3-1.4,3.2-2.4c0.9-0.9,1.7-2,2.4-3.2c0.6-1.2,1-2.4,1-3.8c0-4.3-0.2-7.5-0.5-9.6
			c-0.3-2.1-1-3.6-2.2-4.4c-1.2-0.8-3-1.3-5.4-1.3c-2.3,0-5.5,0-9.8,0l-0.4-1.4c-1.9-0.3-3.6-0.8-5-1.3c-0.8-1.5-2-2.3-3.5-2.4
			c-1.5-1.6-2.6-3.5-3.3-5.8c-0.7-2.3-1-4.7-1-7.1c0-2.4,0.5-4.8,1.2-7.1c0.8-2.3,1.8-4.3,3.2-6c0.8-0.3,1.5-0.7,2.2-1.2
			c0.7-0.5,1.4-1,2.1-1.6c0.7-0.5,1.4-1,2.1-1.3c0.7-0.3,1.5-0.5,2.4-0.5l0.3-1.3h7c0.1-0.1,0.4-0.2,0.9-0.2c0.5,0,1.1,0,1.7,0.1
			c0.6,0.1,1.2,0.2,1.8,0.2c0.5,0.1,0.9,0.1,1.1,0.1l0.6,1.2c1.3,0.4,2.4,0.7,3.3,0.9c0.9,0.2,1.8,0.5,2.6,0.8
			c0.8,0.3,1.7,0.7,2.5,1.1c0.8,0.5,1.8,1.1,3,2c0.4,1.6,0.8,2.9,1,3.8c0.3,1,0.5,1.8,0.5,2.6c0,0.8,0,1.7-0.2,2.7
			c-0.2,1-0.6,2.4-1.2,4h-4.3c-0.5-0.8-1.1-1.6-1.8-2.3c-0.7-0.8-1.6-1.2-2.6-1.4c-0.8-2-2.1-3.9-3.8-5.8c-1.8-1.9-3.6-3.2-5.6-3.8
			c-1,0.2-1.7,0.7-2.1,1.3c-2.4,0-4.3,1-5.8,3.2c-1.5,2.1-2.2,4.3-2.2,6.5c0,1.3,0.2,2.4,0.5,3.1c0.3,0.8,0.8,1.5,1.3,2
			c0.5,0.6,1,1,1.4,1.5s0.8,1,1,1.6c1.4,0.9,3,1.3,4.7,1.2c1.7-0.1,3.5-0.1,5.2-0.1c0.4,0.2,0.6,0.5,0.6,0.9l3.8,0.3l0.8,1.2
			c4.2,0.6,7.2,2.2,8.9,5C1434.1,1886.4,1435.1,1889.6,1435.3,1893.4c0.1,0,0.1,0.5,0.1,1.4
			C1435.5,1894.2,1435.4,1893.7,1435.3,1893.4z M1435.3,1893.4c0.1,0.3,0.1,0.8,0.1,1.4C1435.5,1893.9,1435.4,1893.4,1435.3,1893.4z
			"/>
		<path d="M1537.2,1856.1c0.2,0.8,0.3,1.5,0.2,2.1c-0.1,0.7-0.2,1.4-0.5,2.2c-0.2,0.8-0.6,1.9-1,3.2c-1,1.8-1.9,2.8-2.7,3
			c-0.7,0.2-1.4,0-2.2-0.8c-0.8-0.7-1.3-1.4-1.7-2.1c-0.4-0.7-0.6-1.1-0.7-1.2h-10.3c-0.8,0.7-1.9,1.7-3.2,2.9c-1.3,1.3-2,2.4-2,3.5
			v42.6c0,0.7,0.2,1.3,0.8,1.8c0.5,0.5,1.1,0.9,1.9,1.2s1.5,0.5,2.3,0.7c0.8,0.2,1.4,0.3,2,0.4l2.2,2.5v3.5c-0.5-0.5-1-0.9-1.7-1.2
			c-0.8,0.6-2.4,1-4.9,1.2c-2.5,0.2-5.1,0.3-8,0.3c-2.8,0-5.5-0.1-8.1-0.1c-2.6-0.1-4.4-0.2-5.4-0.2c-0.4-0.5-0.8-1-1.1-1.5
			c-0.4-0.5-0.7-1-1-1.5c0-1.3,0.2-2.2,0.8-2.6c0.5-0.5,1.1-0.7,1.8-0.8c0.7-0.1,1.5-0.2,2.3-0.2c0.8,0,1.6-0.4,2.2-1
			c0.4-0.4,0.8-1.8,1-4.2c0.3-2.4,0.5-5,0.6-7.7c0.1-2.7,0.1-5.3,0-7.7c-0.1-2.4-0.3-3.8-0.6-4.2c-0.2-0.2-0.5-0.5-0.8-1
			c-0.4-0.5-0.5-0.8-0.5-1.1v-11.9c0-1.7,0.2-2.8,0.5-3.5c0.3-0.6,0.5-1.2,0.6-1.7c0.1-0.5,0-1.3-0.2-2.2c-0.3-0.9-0.9-2.5-2-4.8
			c-2.7-0.6-4.3-1.4-4.8-2.5c-0.5-1-0.4-2.2,0.2-3.4c0.6-1.2,1.6-2.4,2.8-3.7c1.2-1.2,2.2-2.3,3-3.2h7.7l1-0.9h4l-0.6,0.8l0.5,7.8
			l0.3-1.5l2.1-0.1l3.8-3.3c1.8-0.2,3.1-0.5,3.9-1c0.8-0.5,1.8-1.4,3.2-2.7c2.2,0,3.7,0,4.6,0.1c0.8,0.1,1.5,0.2,2,0.3
			c0.5,0.2,0.9,0.4,1.5,0.8c0.5,0.4,1.7,0.9,3.4,1.6C1536.7,1854.3,1537,1855.4,1537.2,1856.1z"/>
		<path d="M1599.6,1879.2c-0.8,0.2-2,0.4-3.5,0.7c-1.5,0.3-3,0.5-4.5,0.6c-1.5,0.1-2.8,0.2-3.8,0.1c-1.1-0.1-1.5-0.5-1.4-1.1
			l-2.8-0.3l-0.6-1.3h-12.8c-0.2-0.1-0.4-0.2-0.5-0.4c-0.1-0.2-0.3-0.3-0.6-0.5h-6.1c-1.4,1.4-2.9,2.7-4.4,3.9v11.2l1.2,0.6
			c0.5,1.3,0.8,2.6,1,3.9c0.1,1.3,0.3,2.7,0.5,4c1.1,1.3,2.3,2.6,3.6,3.9c1.3,1.3,2.8,2.2,4.5,2.7c0.5,1,1.2,1.7,2,2.1
			c0.8,0.4,1.8,0.6,2.8,0.7c1,0.1,2,0,3.1-0.2c1.1-0.1,2.1-0.2,3-0.2c0.2,0,0.4-0.1,0.7-0.3c0.2-0.2,0.2-0.4-0.1-0.6
			c1.3-0.3,2.5-0.3,3.6-0.1c1.1,0.2,2-0.2,2.9-1.4l2.5-0.3l1.5-2.2c1.1-0.2,2.1-0.4,2.9-0.6c0.8-0.2,1.5-0.8,2-2
			c0.6,0.3,1.2,0.6,1.8,0.8c0.6,0.3,1.1,0.5,1.6,0.7v3.3c-3.3,3.7-5.8,6.2-7.4,7.5c-1.6,1.3-3,2.2-4,2.7c-1,0.5-2.1,0.9-3.2,1.3
			c-1,0.4-2.6,1.4-4.7,3.2c-4.3,0-7.3,0-9.1,0.2c-1.8,0.1-3.1,0.1-4.2-0.1c-1-0.2-2.1-0.5-3.2-1c-1.1-0.5-3.2-1.5-6.2-2.8
			c-0.8-1.2-1.7-2.3-2.8-3.3c-1-1-2.2-2-3.4-2.9l-1.4-4.3l-1-0.6c-0.3-1.1-0.5-2-0.7-2.8s-0.8-1.5-1.9-2.2c-0.3-1.3-0.7-3.3-1-5.9
			c-0.4-2.6-0.7-5.3-0.8-8s0-5.1,0.4-7.3c0.4-2.2,1.3-3.5,2.7-4.1c0.6-2.2,1.4-4.3,2.4-6.4c1-2.1,1.8-4.2,2.4-6.5
			c1.1-0.8,2.1-1.7,3.2-2.5c1-0.9,1.6-2,1.9-3.5l12-7.4c3.1,0,5.9,0.1,8.5,0.3c2.5,0.2,5.3,0.5,8.2,0.9c0.8,1.1,1.8,2,3.1,2.7
			c1.2,0.7,2.5,1.5,3.9,2.4c1.4,0.9,2.6,2,3.8,3.4c1.2,1.3,2.1,3.2,2.7,5.6l1,0.6c0.4,2,0.7,3.4,1,4c0.2,0.7,0.4,1.3,0.4,1.8
			c0,0.5-0.1,1.1-0.4,1.8c-0.3,0.7-0.6,2-1,3.9L1599.6,1879.2z M1589.2,1864.2c-0.7-1.3-1.3-2.2-1.7-2.7c-0.3,0-0.6,0-0.9-0.1
			c-0.3,0-0.7-0.1-1.1-0.2c-0.1-0.4-0.3-0.9-0.5-1.5c-0.3-0.6-0.6-0.9-1.1-0.9h-9.6c-1.2,1.2-2.7,2.1-4.5,2.7
			c-0.6,0.9-1.2,1.8-1.8,2.8c-0.6,1-1.3,1.9-2,2.9c1.3,1.2,2.6,2.5,3.8,3.8h6.9c0.4,0,0.6,0.2,0.5,0.5c-0.1,0.3,0.1,0.5,0.4,0.5h6.4
			c0.5,0,1.1-0.2,1.8-0.5c0.7-0.3,1.4-0.7,2-1.1c0.6-0.5,1.2-1,1.7-1.6c0.5-0.6,0.7-1.1,0.7-1.6
			C1590.3,1866.4,1589.9,1865.5,1589.2,1864.2z"/>
		<path d="M1666,1916.8c-1,0.9-2.1,1.5-3.4,1.6c-1.3,0.2-2.3,0.9-3.1,2.1h-6.6l-1.7-1.7c0-1.1-0.4-1.9-1-2.5
			c-0.7-0.5-1.5-1.1-2.2-1.7c-2.9,1.4-4.9,2.6-5.8,3.5c-1,0.9-2,1.6-2.9,2.1c-0.9,0.5-2.2,0.9-3.8,1c-1.7,0.2-4.6,0.3-8.8,0.3
			c-0.7,0-1.6-0.3-2.5-1c-1-0.7-2-1.5-3.1-2.4c-1-0.9-2.1-1.8-3-2.8c-1-0.9-1.7-1.7-2.2-2.3c0-2.4,0-4.5,0-6.5
			c0-1.9,0.2-3.6,0.5-5.2c0.3-1.6,0.9-3.2,1.8-4.7c0.8-1.5,2.1-3,3.8-4.6c0.8-0.7,2.1-1.7,3.9-2.9c1.8-1.2,3.6-2.4,5.5-3.7
			c1.8-1.2,3.5-2.4,4.9-3.6c1.4-1.1,2.1-2.1,2.1-2.9l4.5-0.3c1.2-1.8,2.2-3.1,3.1-4c0.9-0.8,1.6-1.7,2.2-2.4c0.5-0.8,0.9-1.6,1-2.6
			c0.1-1,0.1-2.6-0.2-4.8c-1-0.6-1.9-1.3-2.6-2.2c-0.8-0.9-1.4-1.9-2-3l-5.4-1.3c-0.7-0.7-1.5-1.1-2.2-1.2c-0.8,0.1-1.4,0.4-1.8,0.9
			c-0.4,0.5-1.2,0.7-2.2,0.6c-0.6,0.8-1.3,1.5-2,2.2c-0.7,0.7-1.3,1.3-1.8,2c-0.5,0.7-0.9,1.4-1,2.2c-0.2,0.8-0.2,1.8,0,3
			c-0.9,0.4-1.8,0.7-2.6,0.8c-0.9,0.2-1.5,0.7-2,1.6h-9.1l0.6-0.6c-0.3-1.9-0.5-3.4-0.6-4.4c-0.1-1-0.1-2,0.1-2.7
			c0.2-0.8,0.6-1.5,1.2-2.2c0.6-0.7,1.5-1.7,2.7-3.1l3.5-0.3l1.5-1.6h1.8l1.2-1l-0.2-0.3c1-0.5,2-0.9,2.9-1.1
			c0.9-0.2,1.8-0.8,2.6-1.6c0.9,0.1,1.7,0,2.3-0.4c0.6-0.3,1.4-0.6,2.2-0.7c3.2-0.2,6-0.2,8.4,0.1c2.4,0.3,5,0.6,8,1l6,5.1
			c0.6,1.8,1,4.2,1.1,7.3c0.1,3.1,0.2,6.4,0.1,10c-0.1,3.6-0.2,7.3-0.5,11.1c-0.2,3.8-0.4,7.4-0.4,10.7c-0.1,3.3,0,6.2,0.2,8.8
			c0.2,2.5,0.7,4.4,1.5,5.5l7.5,1.2v5.8L1666,1916.8z M1650.7,1897.8c-0.3-0.3-0.5-0.8-0.5-1.3c0-0.3,0-0.9,0-1.8c0-1-0.1-2-0.1-3.1
			c-0.1-1-0.2-2-0.3-2.9c-0.1-0.9-0.2-1.4-0.4-1.7c0.3-0.3,0.5-0.7,0.8-1.2h-7.8c-1.1,0.8-2.2,1.6-3.4,2.5c-1.2,0.9-2.3,1.7-3.3,2.6
			c-0.1,0.1-0.3,0.4-0.5,0.8c-0.3,0.5-0.5,0.9-0.8,1.4c-0.3,0.5-0.6,1-0.8,1.5c-0.3,0.5-0.4,0.8-0.5,0.9c-1.4,2.3-2.1,4.5-2,6.5
			c0.1,2,0.6,4.2,1.6,6.6c0.8-0.2,1.4-0.1,2,0.3c0.5,0.4,1,0.9,1.5,1.5c0.5,0,1,0.2,1.7,0.6l0.1,1h6.9c0.1-0.7,0.7-1.4,1.8-2.2
			c1.1-0.8,1.9-1.3,2.4-1.6c0.7-1.5,1.2-3,1.6-4.6c0.4-1.5,0.6-3.1,0.6-4.7C1651.2,1898.6,1651,1898.2,1650.7,1897.8z"/>
		<path d="M1712.2,1921.2c-1.1,0-2.4-0.1-3.8-0.2c-1.4,0-2.8-0.1-4.1-0.1c-1.4,0-2.4-0.2-3.1-0.4l-1.7,1h-15.9l-1.4-2
			c0.3-0.7,0.3-1.6-0.1-2.7c-0.4-1.1-0.6-1.9-0.8-2.5c0.5-0.2,0.9-0.4,1.3-0.7c0.3-0.2,0.7-0.5,1.1-0.8c1.9,0,3.5-0.3,4.7-1
			c1.2-0.7,1.8-2.1,1.8-4.2c0-6.9,0-13.8,0-20.8c0-7.1-0.7-14-2.1-20.9c0.3-1.2,0.5-3.2,0.8-6c0.2-2.8,0.3-5.9,0.4-9.4
			c0-3.4,0.1-7.1,0.1-10.9c0-3.9-0.1-7.5-0.2-10.9c-0.1-3.3-0.3-6.2-0.5-8.6c-0.2-2.4-0.4-4-0.6-4.8c-0.9-0.8-1.9-1.4-2.9-1.7
			c-1-0.3-2.1-0.6-3.2-0.8l-1.1-3.8c0.8-1.4,2-2.5,3.5-3.3c1.5-0.8,3-1.4,4.5-1.8l0.6-1.2c2.6-0.4,5-0.7,7.3-0.9
			c2.3-0.2,4.8-0.3,7.7-0.3l-1.4,1.8c0.3,0,0.5,0.3,0.5,0.8l0.2,1c0.2,1.1,0.3,2.2,0.4,3.2c0.1,1,0.2,2.1,0.3,3.2
			c-0.5,0.5-0.9,1.4-1.1,2.7c-0.2,1.3-0.3,2.7-0.3,4.2s0,3,0.2,4.4c0.1,1.5,0.1,2.5,0.1,3.2l0.8,0.6c0.1,0.3,0.1,1.6-0.1,3.9
			c-0.2,2.3-0.4,4.8-0.6,7.5c-0.3,2.7-0.5,5.2-0.8,7.4c-0.3,2.2-0.4,3.4-0.4,3.5c-0.1,1.7,0,3.4,0.2,5.2c0.2,1.8,0.6,3.6,1,5.5
			c0.4,1.9,0.8,3.7,1,5.6c0.3,1.9,0.5,3.8,0.5,5.5c0,3.6-0.3,7-0.8,10.4c-0.6,3.3-1,6.6-1.3,9.8c-0.4,3.3-0.4,6.6-0.2,9.9
			c0.2,3.4,1.1,6.9,2.7,10.6c2.5,0.2,5,0.7,7.7,1.3l1.2,1.5v7.2C1714,1921.4,1713.3,1921.3,1712.2,1921.2z"/>
		<path d="M1748.1,1915c-0.3,0.9-0.4,1.8-0.4,2.5c0,1.8-0.6,3.5-1.8,5c-1.2,1.5-2.8,2.2-4.8,2.2c-4.8,0-8.4-1.1-10.6-3.2
			c-2.3-2.1-3.6-4.4-3.8-7c-0.3-2.6,0.3-5,1.7-7.3c1.4-2.2,3.3-3.6,5.9-4l-0.8,0.3c1.2-0.3,2.6-0.5,4.2-0.5c1.6,0,3.2,0.2,4.7,0.7
			c1.5,0.5,2.7,1.2,3.8,2.1c1,1,1.4,2.2,1.3,3.8c0,0.5,0.2,1,0.7,1.3c0.4,0.4,0.6,0.9,0.5,1.3
			C1748.6,1913.3,1748.4,1914.1,1748.1,1915z"/>
	</g>
	<path class="st3" d="M2101.1,2105.9c19.8,11.4,46.2,15.8,69.8,10.5c34.7-14.7,59.2-50.6,59.2-92.6c0-55.1-42.1-99.7-94.1-99.7
		c-52,0-94.1,44.7-94.1,99.7c0,4.8,0.3,9.6,1,14.2C2057.8,2064.3,2074.9,2090.8,2101.1,2105.9z"/>
	<g>
		<path d="M1912.9,1631.2c-1.1,0-1.9,0.4-2.1,0.6C1911.6,1631.5,1912.3,1631.2,1912.9,1631.2
			C1912.9,1631.2,1912.9,1631.2,1912.9,1631.2z"/>
		<path d="M1930.3,1620.8c0.4-0.5-1,0-1.6,1.2c0,0,0,0,0,0C1929,1621.6,1929.8,1621.1,1930.3,1620.8z"/>
		<path d="M2206.2,1959.4c-0.3-0.3-0.6-0.7-1-1c-0.6-0.6-1.1-1.1-1.7-1.7c-1.6-1.4-3.3-2.7-5.2-3.6c-5.1-13.8-11.2-27.3-18.1-40.2
			c-5.7-10.7-11.8-24.6-24.5-28.1c-0.1-3-0.8-6.1-2-8.9c-1.5-3.5-3-5.8-5.3-8.8c0.4,0.6-1.3-1.7-2.2-2.9c-0.7-0.9-1.8-2.5-2-2.7
			c-5.9-8.3-11.2-17.1-15.7-26.3c-4.6-9.3-8.3-19.1-13.2-28.2c-5.1-9.4-11.4-18.1-17.2-27.1c-11-17.2-20.8-35.1-30.1-53.3
			c-21-41.3-39.3-83.9-63.6-123.5c-2.8-4.5-7.2-7.9-12.2-9.7c-3.5-7.5-10.8-12.7-19.7-12.7c-9.7,0-19.1,7.3-21.5,16.7
			c-1.6,1.4-3.1,3.1-4.4,5.1c-1,1.5-2,3-3,4.5c-0.2,0.3-0.4,0.6-0.6,0.8c-0.1,0.1-0.1,0.2-0.2,0.3c-2.7,3.1-5.4,6.2-8.5,9
			c-1.3,1.2-2.7,2.4-4,3.6c0,0-0.1,0.1-0.1,0.1c-0.1,0.2-0.4,0.4-0.9,0.8c-0.2,0.2-0.4,0.3-0.7,0.5c0,0.1-0.1,0.1-0.1,0.2
			c0,0,0-0.1,0.1-0.1c-3,2-5.9,4-9,5.8c-1.6,0.9-3.2,1.7-4.8,2.5c-0.6,0.3-1.3,0.6-1.9,0.9c0,0,0.1,0,0.1,0c0,0-0.1,0-0.2,0
			c-0.3,0.1-0.6,0.3-0.8,0.4c-1.1,0.5-1.4,0.4-1.3,0.2c-1,0.4-2.1,1-2.7,1.2c-3.1,1.1-6.1,2.3-9.1,3.7
			c-12.6,5.9-19.6,18.6-17.8,32.2c-1.5-2.9-3-5.8-4.5-8.6c-5.2-10.3-20.5-14.1-30.1-7.9c-10.5,6.8-13.5,19.1-7.9,30.1
			c16.8,32.9,35.7,64.8,56.6,95.2c7.7,11.3,15.8,22.3,23.9,33.2c0,0.3,0,0.5,0,0.8c0.4,8.6,5.1,15.9,12.2,19.6
			c3.9,9.1,7.7,18.2,11.6,27.2c3.5,8.2,9.1,14.1,15.3,19.9c1.9,6.7,4.9,13.2,9.1,18.7c1.9,2.4,4,4.6,6.3,6.3c0.9,2.4,1.7,4.7,2.7,7
			c3.5,8.6,7.1,17.3,14.7,22.8c0.3,7.4,1.6,14.8,4.2,21.9c2.4,6.5,7.4,12.2,13.7,14.8c4.2,9.8,9.7,19,16.4,27.1
			c0.8,2.5,1.6,5,2.4,7.5c1.5,4.7,3,9.9,4.7,15c1.2,2.1,2.3,4.1,3.5,6.2c16.9,30.2,35,62.8,65.2,80.2c17.9,10.3,41.1,14.9,62.8,11.8
			c2.5-1,4.9-2.1,7.3-3.3c2-1,4.5-2.8,6.8-3.7c0.4,0,0.8-0.1,1.2-0.2c1.6-0.4,3.2-0.8,4.7-1.2c6.4-1.7,11.6-4.5,16.6-8.8
			c11.6-9.9,19.3-26.4,22.8-40.9c2.1-9.1,2.9-18.1,2.8-27.2c1.4-3.3,2.2-7,2.6-11C2230.7,1999,2221.5,1975.6,2206.2,1959.4z
			 M2078.1,1904.1c-0.3,0.1-0.7,0.3-1.3,0.6c0-0.1,0-0.2-0.1-0.3c0.5-0.2,1.1-0.4,1.8-0.6C2078.4,1903.9,2078.3,1904,2078.1,1904.1z
			"/>
	</g>
	<polyline points="2012.2,1986 2039.9,2041.4 2073.5,2009.7 2026.2,1978.4 2011.9,1987.7 2042.9,2047 	"/>
</g>
</svg>
