<?xml version="1.0" encoding="utf-8"?>
<!-- Generator: Adobe Illustrator 21.1.0, SVG Export Plug-In . SVG Version: 6.00 Build 0)  -->
<svg version="1.1" id="Layer_1" xmlns="http://www.w3.org/2000/svg" xmlns:xlink="http://www.w3.org/1999/xlink" x="0px" y="0px"
	 viewBox="0 0 1224 792" style="enable-background:new 0 0 1224 792;" xml:space="preserve">
<style type="text/css">
	.st0{fill:none;stroke:#000000;stroke-width:2;stroke-miterlimit:10;}
	.st1{font-family:'UglyQua';}
	.st2{font-size:20.3098px;}
	.st3{fill:#FFFFFF;stroke:#000000;stroke-width:2;stroke-miterlimit:10;}
	.st4{fill:none;}
</style>
<g>
	<path d="M857.5,614.5c0,15.7,0,31.3,0,47c0,8.6-4.6,14.2-12.1,14.9c-8.4,0.8-14.7-4-16.1-12.7c-4.5-27.6-8.9-55.2-13.3-82.8
		c-3.5-21.5-7.7-43-10.3-64.6c-2.9-24-0.4-47.1,17.8-65.6c3.7-3.7,7.7-7,12.7-8.6c9.5-3,18.8,2.6,21.1,12.8c0.7,2.9,1,5.9,1.1,8.9
		c0.1,26.2,0.1,52.3,0,78.5c0,2.3-0.3,4.7-0.9,6.9c-1.3,4.8-5.5,8.1-10.2,8.2c-4.7,0.1-8.8-3-10.4-7.9c-0.9-2.7-0.9-5.6-0.9-8.4
		c0-19.3,0-38.7,0-58c0-1.8,0.6-3.8-1-5.2c-1.1-0.9-2.5-0.9-3.8-0.4c-2,0.8-1.8,2.6-1.8,4.3c0,10,0,20,0,30c0,11.3-0.1,22.7,0.1,34
		c0.3,15.7,11.8,22.7,25.7,15.9c3.8-1.9,3,1.2,3,2.8c0.1,10.7,0,21.3,0,32c0,6,0,12,0,18C857.9,614.5,857.7,614.5,857.5,614.5z"/>
	<path d="M857.4,415c0,12.5-10.9,23.3-23.4,23.1c-12.2-0.2-23.1-11.2-22.9-23.2c0.2-12.5,10.6-23,23-23
		C846.7,391.8,857.4,402.4,857.4,415z"/>
</g>
<ellipse class="st0" cx="977.5" cy="215.3" rx="228.8" ry="110.2"/>
<text transform="matrix(1 0 0 1 789.0814 193.2052)"><tspan x="0" y="0" class="st1 st2">What is a brand? How do we find a niche? </tspan><tspan x="0" y="24.4" class="st1 st2">Who is our audience? How do we differentiate</tspan><tspan x="0" y="48.7" class="st1 st2">ourselves? How do we make something cool</tspan><tspan x="0" y="73.1" class="st1 st2">into something marketable?</tspan></text>
<path class="st3" d="M801.8,284.5c-17.9,20.5-24.6,50.3-17.3,76.5c16.2-20.8,33.3-41,51.3-60.3"/>
<path id="SVGID_x5F_1_x5F_" class="st4" d="M169.6,370.4c16.5-38.2,43.3-71.5,75-98.5c60.3-51.2,142.1-80,220.1-66.3
	s148.5,74.1,163.9,151.8"/>
<text><textPath  xlink:href="#SVGID_x5F_1_x5F_" startOffset="11.4093%">
<tspan  class="st1" style="font-size:123px;">Challenges</tspan></textPath>
</text>
<path d="M71,621.8c0,0,306.1-887.2,674,5.2"/>
</svg>
