<?xml version="1.0" encoding="utf-8"?>
<!-- Generator: Adobe Illustrator 21.1.0, SVG Export Plug-In . SVG Version: 6.00 Build 0)  -->
<svg version="1.1" xmlns="http://www.w3.org/2000/svg" xmlns:xlink="http://www.w3.org/1999/xlink" x="0px" y="0px"
	 viewBox="0 0 3005.4 2201.6" style="enable-background:new 0 0 3005.4 2201.6;" xml:space="preserve">
<style type="text/css">
	.st0{display:none;}
	.st1{display:inline;}
	.st2{fill:none;stroke:#000000;stroke-width:27;stroke-miterlimit:10;}
	.st3{fill:none;stroke:#000000;stroke-width:9;stroke-miterlimit:10;}
	.st4{font-family:'UglyQua';}
	.st5{font-size:509.7336px;}
	.st6{font-size:150px;}
</style>
<g id="Layer_1" class="st0">
	<g id="Mt3pWt_1_" class="st1">
		
			<image style="overflow:visible;" width="162" height="125" id="Mt3pWt_3_" xlink:href="C5555442AFADA9FF.jpg"  transform="matrix(1.6848 0 0 1.6848 2042.2605 1196.6215)">
		</image>
	</g>
</g>
<g id="Layer_2" class="st0">
	
		<image style="display:inline;overflow:visible;" width="1495" height="1655" xlink:href="C5555442AFADA9FD.png"  transform="matrix(1 0 0 1 1793.2058 614.3797)">
	</image>
</g>
<g id="Layer_3">
	<path class="st2" d="M1922.8,929.8c-34.9-41.6-77.1-73.4-123.2-95.3c-1.4,4.5-5.4,8.4-10.4,7.9c-1.4-0.1-2.5-0.4-3.9,0.1
		c1.2,4.7,3.6,9.4,5,14.1c2.2,7.1,4.4,14.1,6.6,21.2c4.2,13.6,8.5,27.2,12.7,40.7c1.3,4.1,2.5,8.4,1.4,12.5
		c-1.3,4.6-5.6,4.9-8.5,7.8c-2.9,2.9-3.2,6.5-4.2,10.4c-2.8,11.4-6.4,22.6-10.9,33.5c-10.3,25.3-25.5,48.7-38.8,72.6
		c-7.5,13.4-14.5,26.9-20.8,40.9c-5.9,12.9-11.8,26-19.9,37.7c-8.1,11.7-18.1,22-26.9,33.1c-8.3,10.4-17.3,21.8-29.4,27.9
		c-12.6,6.4-25.2,4.7-35.7-4.8c-4.1-3.7-7.4-8.1-10.8-12.4c-4.3-5.3-8.9-10.3-13.4-15.3c-10-10.9-20.1-21.9-27.9-34.4
		c-8.2-13.1-15.8-26.5-22.9-40.2c-5.7-11-11.1-22.3-17.5-32.9c-4.4-7.5-9.2-14.7-13.9-22.1c-11.3-18-22.3-36.6-29.2-56.8
		c-4.4-13-6.4-26.8-3-39.5c-0.8-1.5-1.2-3.2-1.1-5.3c0.3-11.2,0.1-22.3,0.5-33.5c0.7-21.5,2.7-43.7,10.4-63.9
		c-27.9,13.2-54.6,30.1-79.3,50.8c-154.6,129.8-174.8,360.4-45,515s360.4,174.8,515,45S2052.6,1084.4,1922.8,929.8z"/>
	<path class="st2" d="M1870.5,973.7c-15.1-18-34.6-42.1-56.8-51.7c-1.8-0.3-10.4,17.7-11.3,19.5c-5.3,9.7-7.6,18.6-11.5,28.9
		c-4.4,11.5-9,22.9-13.9,34.2c-9.8,22.6-20.6,44.8-32.3,66.4c-11.7,21.7-24.4,42.8-38,63.3c-12,18.1-23.8,40-41.8,52.4
		c-8.6,5.9-16.6,11.7-27.6,11c-14.6-0.9-23.3-8.8-33.3-18.8c-22.2-22.1-38.7-49.1-54.8-75.8c-19.5-32.3-39.1-64.8-53.7-99.7
		c-7.4-17.6-13.5-35.8-17.5-54.5c-0.9-4.2-1.5-23.9-4.9-25.9c-4.5-2.6-18.2,11.4-21.4,14.1c-125.8,105.5-142.1,293.1-36.6,418.8
		s293.1,142.1,418.8,36.6S1976,1099.4,1870.5,973.7z"/>
	<line class="st2" x1="1805.5" y1="1494.9" x2="1883.6" y2="1634.7"/>
	<line class="st2" x1="1858.2" y1="1458.8" x2="1936.4" y2="1598.6"/>
	<path class="st2" d="M1829.1,1661c0,0,92.2-10.6,148.2-93.4"/>
	<path class="st3" d="M1834.1,1670.7c1.1,1.9,2.2,3.7,3.2,5.6c3.1,5.3,6.1,10.6,9.2,15.9c4.8,8.2,9.5,16.4,14.3,24.6
		c6.2,10.8,12.5,21.6,18.7,32.4c7.4,12.9,14.9,25.7,22.3,38.6c8.3,14.4,16.6,28.8,25,43.2c9.1,15.6,18.1,31.3,27.2,46.9
		c9.5,16.4,18.9,32.7,28.4,49.1c9.6,16.5,19.1,33.1,28.7,49.6c9.5,16.5,19,32.9,28.6,49.4c2.3,3.9,4.5,7.8,6.8,11.7"/>
	<path class="st3" d="M1982.2,1574.7c81.3,142.9,163.2,285.3,246.6,427"/>
	<path class="st2" d="M920.1,683.5"/>
	<path class="st2" d="M3169.1,590"/>
	<path class="st2" d="M-2901.2-1231.1"/>
	<path class="st2" d="M668.9,605.8c0,0,479.9,246.1,928.9,0"/>
	<path class="st2" d="M2513.2,605.8c0,0-479.9,246.1-928.9,0"/>
	<path class="st2" d="M2513.2,1573.5c0,0-479.9,246.1-928.9,0"/>
	<path class="st2" d="M668.9,1573.5c0,0,479.9,246.1,928.9,0"/>
	<line class="st2" x1="680.5" y1="605.8" x2="680.5" y2="1573"/>
	<line class="st2" x1="2503.2" y1="611.6" x2="2503.2" y2="1578.9"/>
	<path class="st2" d="M679.5,612.6l68.4-68.4c0,0,449.3,103.8,724.1-25.8h226.4"/>
	<path class="st2" d="M1690.7,518.3c0,0,337.3,159.3,746.3,20.6l68.4,68.4"/>
	<path d="M2462.2,555.4c-16.7-11.9-41.4-12-59.9-4.5c-10.2,4.1-19.3,9.3-28.5,15.2c-0.6,0.4-1.3,0.8-1.9,1.2
		c-4.1-2.8-8.9-4.3-14.1-4.1c-29.7,1.4-58.3,8.9-86.5,17.9c-12.6,4-25.1,8.2-37.8,12c-4.4-3.9-10.1-6.3-16.5-5.9
		c-28.2,1.7-54.6,8.4-80.5,19.4c-1,0.4-1.9,1-2.9,1.8c-5.8,0.3-11.7,0.6-17.5,0.8c-4.7-5.2-11.3-8.6-19.1-8.6h-58.1
		c-6.3,0-12.4,2.5-17.2,6.7c-5.8-0.4-11.5-0.9-17.3-1.5c-0.1,0-0.3,0-0.4,0c-12-2.4-24-4.6-36.1-6.3c-9.4-1.3-18.7-2.3-28.1-3
		c-31.3-5.9-62.3-13.7-92.6-23.3c-4.2-1.3-9-1.2-13.4,0c-35.3-25-74.7-43.9-116.8-54.7c-28-7.2-57.2-11-86.1-11.1
		c-7.9,0-16,4.4-21.2,11c-6.4-0.2-13,0.7-19.5,2.3c-12.6-3.9-26.6-5.2-38.7-5.9c-19.8-1.2-39.8,1.2-59.2,4.8
		c-37.2,6.9-72.8,20.4-109.2,30.7c-18.1,5.1-36.4,9.4-54.9,13.1c-9,1.8-18.1,3.4-27.1,4.8c-4.5,0.7-9.1,1.4-13.6,2.1
		c-0.7,0.1-1.2,0.2-1.6,0.2c-0.4,0-0.8,0.1-1.4,0.2c-2.5,0.3-5,0.6-7.5,0.9c-86,10.4-172.9,8.1-259.2,2.7
		c-10.3-0.6-19.8,6.8-24.1,16.2c-9.4-1.1-18.7-2.1-28.1-3.2c-30.9-3.4-61.9-6.8-92.8-10c-3.6-0.4-7.3,0.5-10.7,2.1
		c-2.1-0.4-4.2-0.8-6.2-1.2c-2.8-0.6-5.6-1.2-8.3-1.8c-25.2-10.7-50.4-21.5-75.6-32.2c-6.7-2.9-12.7-4.7-20.1-2.6
		c-6.1,1.7-12.6,6.4-15.6,12c-2.8,5.3-3.8,10.9-3.2,16.2c-4.7,1.6-9.5,3.2-14.2,4.8c-10,3.4-17.3,11-18.7,21.7
		c-1.4,10.2,3.4,20.8,12.5,26c82,47,176,62.5,269.3,67.1c19.7,6.9,39.8,12.3,60.6,14.7c9.7,1.1,19.6,1.2,29.3,0.2
		c3.8,9.6,13.3,18.1,24.1,16.8c80.5-9.4,161.1-18.7,241.6-28.2c39.2-4.6,78.7-9.5,116.7-20.8c36.7-10.9,71.9-27.1,105.1-45.9
		c14-7.9,29.3-15.9,42.2-26c10.6,11.2,22.7,20.8,36.6,28.1c2.3,1.2,4.6,2,6.9,2.6c24,15.6,49.7,28.4,76.8,38.4
		c22.4,8.3,45.7,14.3,69.3,17.8c26.9,4,53.7,4.7,80.8,5.6c6,0.2,12.1,0.5,18.1,0.9c22.8,15.3,50.5,23.9,77.6,14.7
		c0.1,0,0.2-0.1,0.3-0.1c1.1,0.1,2.3,0.2,3.5,0.2c83.4-1,166.6-8.6,248.9-22c40.4-6.6,80.6-14.7,120.5-24.3
		c19.8-4.8,39.4-9.9,59-15.4c9.8-2.8,19.5-5.6,29.3-8.6c10.5-3.2,21.1-6,31.1-10.7c13.5-6.3,22.8-19.5,23.4-34.6
		C2484.1,577,2474.2,563.9,2462.2,555.4z M2430.1,598.1c0.3,0,0.6,0,0.9,0c0.2,0,0.3,0.1,0.4,0.1c0.4,0.1,0.7,0.2,1,0.3
		c0.1,0.1,0.2,0.1,0.3,0.2C2432.3,598.7,2431.4,598.5,2430.1,598.1z M2434.5,599.6c-0.1-0.1-0.4-0.4-0.8-0.7c0.1,0,0.2,0.1,0.3,0.1
		C2435.5,599.4,2435.9,600.2,2434.5,599.6z"/>
	<g id="tdKVpw_1_">
		<g>
			<g>
				<path d="M1631.9,1212.5c-15.7-8.8-27.2-22.3-38.1-36.1c-48.4-61.5-88.8-127.5-118.2-200.4c-44.6-111,31.9-222.3,135.4-238.4
					c1.4-0.2,2.7-0.9,4-1.3c16.2,0,32.5,0,48.7,0c35.3,6.9,67.9,19.6,94,45c50.6,49.1,71,107.6,50.5,176.9
					c-16.3,55-45.4,103.8-76,151.8c-16.7,26.2-35,51.2-55.1,75c-8.9,10.6-18.5,20.3-30.5,27.5
					C1641.8,1212.5,1636.8,1212.5,1631.9,1212.5z M1492.5,911.2c-0.8,14.1,2.7,29.6,8,44.6c28.5,80.1,73.5,150.4,127.8,215.1
					c10.5,12.5,11.2,12.1,21.7-0.2c47-55,85-115.9,115-181.6c10-21.8,19-44.2,20.7-68.5c6.1-86.8-68.3-162.5-158.7-154.7
					C1552.1,772.4,1492.8,834.9,1492.5,911.2z"/>
				<path d="M1639.2,1016.5c-58.4,0-104.7-46.3-105-104.7c-0.2-56.4,47.8-104.2,105-104.2c57.6,0,104.8,47.3,105.1,105.2
					C1744.6,969.7,1697.2,1016.5,1639.2,1016.5z M1639.8,837.9c-41.5-0.2-74.9,32-75.1,72.5c-0.3,43.2,32.4,76.9,74.5,76.9
					c40.5,0.1,74.5-33.4,74.7-73.7C1714.2,871,1682,838.1,1639.8,837.9z"/>
			</g>
		</g>
	</g>
	<path d="M1700.2,1206c-12.6,6-21.7,22-32.7,29.5c-9.9,6.8-22.3,9.8-34.2,8.3c-11.9-1.5-23.2-7.5-31.1-16.5
		c-4.4-4.9-7.7-10.7-12.2-15.5c-8.9-9.4-16.8-7.3-28.3-5.9c-13.2,1.6-26.4,3.7-39.4,6.7c-10.1,2.3-43.6,8.2-43.6,23.5
		c0,19.3,75.3,34.9,168.3,34.9c92.9,0,168.3-15.6,168.3-34.9c0-16.7-39-22.6-49.8-24.8c-17.5-3.6-35.2-5.5-53-7.5
		C1708,1203.3,1704,1204.2,1700.2,1206z"/>
	<path class="st2" d="M1588.4,1532.6c-1.2,18.7,0.8,37.7,0.5,56.8"/>
	<path class="st2" d="M1585,1139.6c1.2,106.8,1.2,212.8,2.8,319.5"/>
	<path class="st2" d="M1580.7,624.3c1.5,42.1,1.5,83.1,1.5,125.2"/>
	<text transform="matrix(1 0 0 1 634.8722 549.2771)" class="st4 st5">GeoTales</text>
	<text transform="matrix(1 0 0 1 671.5366 1921.6169)" class="st4 st6">The quest is real.</text>
	<ellipse class="st3" cx="2135.9" cy="2023.7" rx="94.1" ry="99.7"/>
	<g>
		<path d="M2230.2,1990.5c-4.9-14.2-13-25.7-22.6-37c-3.7-4.3-7.5-8.4-11.3-12.6c-1.7-1.9-3.4-3.8-5.1-5.8c-0.7-0.8-1.3-1.6-2-2.3
			c-0.1-0.2-0.3-0.3-0.4-0.5c-0.1-0.1-0.2-0.2-0.2-0.3c-4.1-5.9-8-12-12-18c0.5-2.1,0.7-4.3,0.6-6.5c-0.6-13.5-10.2-25.1-23.6-26.8
			c-1-5.8-3.6-10.5-7.5-15.5c5.1,6.6-0.4-0.5-1.3-1.9c-1.5-2-2.9-4.1-4.4-6.1c-3-4.3-5.9-8.8-8.7-13.2c-5.4-8.7-10.5-17.7-15.3-26.8
			c-9.5-18.1-17.8-36.8-26.1-55.5c-8.3-18.8-16.4-37.6-25.4-56c-9.4-19.4-19.3-39.6-33.2-56.3c-6-7.1-13.7-12.5-22.3-15.5
			c-3.2-10.4-6.3-20.8-9.2-31.3c0,0-0.1,0-0.1,0.1c-0.7-2.1-1.6-4.3-2.6-6.5c-2.4-5.5-10.5-11.1-16.1-12.4c-6-1.4-11.8-1.1-17.6,1.4
			c-9.8,4.2-16.3,13.8-16.6,24.2c-0.9,0.6-1.8,1.2-2.8,1.8c-3,2-6.1,3.9-9.1,5.9c-11.9,7.7-23.7,15.3-35.6,23
			c-5.3,3.4-10.3,8.8-12.1,15c-3.4-1.6-7-2.8-10.8-3.5c-9.7-1.8-19-0.3-26.3,6.9c-6.2,6.2-10.5,17.6-6.9,26.3
			c32.4,79.4,77.8,152.2,121.8,225.5c12.7,21.2,25.5,42.5,38.2,63.7c3.9,6.5,10.8,11.2,18.2,12.8c0.2,0.4,0.4,0.7,0.6,1.1
			c3.1,6.2,6.3,12.5,9.3,18.8c1.4,2.8,2.8,5.7,4.1,8.6c0.7,1.6,2,3.5,2.3,5.2c-0.4-1-0.8-2-1.2-3c0.5,1.2,0.9,2.3,1.4,3.5
			c4.9,12.8,7,26.3,11.6,39.1c5,13.9,11.9,26.2,22.2,36.9c17.1,17.9,43.4,30.6,68.5,27.9c17.1-1.8,31.3-8.3,44.6-19.1
			c10.5-8.5,18.8-19.6,26.5-30.6C2228.4,2051,2240.3,2019.5,2230.2,1990.5z M1864.9,1704.3c-1-0.2-1.7-0.5-2-0.8
			c0.6,0.1,1.2,0.3,1.8,0.5c-0.1-0.1-0.2-0.3-0.4-0.4c0.1,0.1,0.2,0.1,0.3,0.2c0.1,0.1,0.3,0.3,0.4,0.4c0.1,0,0.2,0.1,0.3,0.1
			c0.1,0,0.1,0.1,0.2,0.1c-0.1,0-0.2,0-0.3,0c0.5,0.4,0.9,0.8,1.3,1.2c0,0,0.1,0.1,0.1,0.1
			C1866.5,1705.7,1865.9,1705.4,1864.9,1704.3z M1866.7,1705.7C1868.2,1707.3,1869.2,1709.8,1866.7,1705.7L1866.7,1705.7z"/>
		<path d="M1865.1,1704.1c-0.1,0-0.2-0.1-0.4-0.1c0.1,0.1,0.1,0.1,0.2,0.2c0.1,0,0.2,0,0.4,0.1
			C1865.2,1704.3,1865.2,1704.2,1865.1,1704.1z"/>
	</g>
</g>
</svg>
