<?xml version="1.0" encoding="utf-8"?>
<!-- Generator: Adobe Illustrator 21.1.0, SVG Export Plug-In . SVG Version: 6.00 Build 0)  -->
<svg version="1.1" id="Layer_1" xmlns="http://www.w3.org/2000/svg" xmlns:xlink="http://www.w3.org/1999/xlink" x="0px" y="0px"
	 viewBox="0 0 1224 792" style="enable-background:new 0 0 1224 792;" xml:space="preserve">
<style type="text/css">
	.st0{fill:#0E0E0E;}
	.st1{fill:#FBFBFB;}
	.st2{fill:#FAFAFA;}
	.st3{fill:#FEFEFE;}
	.st4{fill:#161616;}
	.st5{font-family:'UglyQua';}
	.st6{font-size:50px;}
</style>
<g>
	<g id="XMLID_1_">
		<g>
			<path class="st0" d="M715.2,605.9c0.8,5.9,0.7,11.3-2.7,16.5c-4.7,7.1-11.6,9.7-20.2,7.5c-5.9-1.5-10.4-5.4-12.7-10.5
				c-0.9-2-1.4-4.1-1.5-6.4c-0.2-4.3,0.1-8.6-0.8-12.9c-0.4-1.8-0.8-3-2.6-3.3c-2-0.3-3.8,0.2-5.3,1.4c-1.8,1.3,0.1,2.6,0.5,3.7
				c2.4,6.2,5.4,12.2,8.1,18.3c1.9,4.2,3.5,8.5,4.7,13c2.4,9.5,1.2,18.5-5.8,26.1c-2.8,3-1.6,6.2-0.2,9.2c3.7,8,7.6,16,11.5,24
				c5,10.3,10.2,20.4,15.2,30.8c3.2,6.6,4.1,13.7,2.4,20.9c-1.6,6.8-6,10.2-13,10.3c-7.2,0-14.4,0-21.6,0c-3.5,0-5.9-1.4-6.5-4.9
				c-4.3-23.8-17.2-44.1-26.6-65.8c-0.8-1.8-1.6-2.2-3.6-1.3c-6.8,3.2-9.3,9.2-6.8,17.3c1.9,6.1,3,12.2,2,18.6
				c-2.1,13-18.3,20.9-29.6,14.5c-2.2-1.2-3.9-2.9-4.7-5.3c-4.3-13-8.6-26-11.6-39.4c-1.4-6.3,0-11.6,3.3-16.7
				c6.6-10.1,16.2-17,25.8-23.8c5.9-4.2,6-4.1,2.9-10.7c-2.2-4.6-4.5-9.2-7.1-14.6c-2,6.4-3.4,12.2-6.5,17.3
				c-4.3,7.1-9.2,13.9-18,15.4c-9.8,1.7-19-0.8-25.3-8.5c-9.6-11.7-13.3-25.9-11.3-40.7c1.8-14.2,18.2-19.5,29.3-10.3
				c1,0.8,1.9,1.7,3.2,2.9c3.1-5.8,7.5-9.8,13.5-12.9c-12.6-8.6-20.2-20.2-21.6-35.4c-1-11.4,1.9-21.9,8.8-31.1
				c13.7-18.3,37.5-24,57.6-14c16.4,8.2,32.4,29.1,21.9,59.6c6.1-1.5,11.9-3.3,18-4c7-0.7,12.8,1,18.2,5.8
				C708,577.1,713.2,590.7,715.2,605.9z M697.9,619.7c3.4,0,7-3.8,6.7-7.6c-0.9-13-4-25.2-13.2-35.1c-4.3-4.7-9.1-6.6-15.7-4.9
				c-11.7,3-23.1,6.4-33.4,13c-2.8,1.8-5.8,2-8-1c-2.1-2.8-1.3-5.7,1.9-8.1c0.5-0.3,1-0.6,1.4-1c11.3-8.4,16.3-19.6,14.5-33.7
				c-2.1-16.3-15.2-28.7-32.7-30c-14-1-29.5,7.4-34.9,24c-0.7,2.1-0.9,3.6,0.7,5.4c2.1,2.3,1.8,5,0,7.5c-4,5.2-2,10.2,4.5,11.4
				c3.3,0.6,6.2-0.4,9-2c3-1.7,5.8-1.7,7.9,1.4c1.8,2.7,0.8,6-2.3,8.1c-3.3,2.1-6.9,3.1-11.1,3.8c5.2,5.8,11.6,8.6,18.8,10
				c2.9,0.5,4.5,2.2,4.6,4.8c0.1,3-1.4,5.3-4.6,5.9c-1.4,0.3-2.8,0.3-4.3,0.5c-11.1,1.2-17.3,7-19.5,17.8c-1,5.2-2.8,10.2-6.2,14.5
				c-2.1,2.6-4.8,4.5-8.2,2.3c-3.2-2.1-3.4-4.9-1.5-8.2c2.2-4,1.9-8-0.5-11.9c-2.2-3.7-5.7-4.7-9.7-3.9c-3.5,0.7-4.8,3.8-4.9,6.8
				c-0.5,13.7,4.7,24.9,15.6,33.2c4.5,3.4,8.7,3,13-0.6c5.1-4.2,8.3-9.8,10.2-16.1c1.2-4,2.1-8,3.5-11.9c1.2-3.3,3.1-6.4,7.1-6.7
				c3.7-0.3,6.1,2,8.1,4.7c5.2,7,8.2,15.1,12,22.8c1.3,2.6,2,3.4,4.7,1.7c3.6-2.3,7-1.4,8.5,1.6c1.6,3.1,0.5,5.7-3.4,8
				c-4.5,2.7-9.2,5.4-13.6,8.3c-9.5,6.3-18.8,12.7-26,21.7c-2.6,3.3-3.3,6.6-2.3,10.8c2.5,10.7,5.8,21.2,9.2,31.7
				c2,6.4,4.3,7.1,10.4,4.1c3.4-1.7,4.5-4.6,4.8-8c0.3-3.6-0.5-7.1-1.7-10.6c-4.9-14.9,0.3-26.5,14.6-32.5
				c11.5-4.8,22.4-10.9,33.2-17.1c5-2.9,7.1-7.2,7.4-12.7c0.2-3.8-0.7-7.4-2.2-10.9c-4.4-10.2-8.8-20.5-13.3-30.6
				c-1.2-2.8-1.5-5.4,0.9-7.4c3-2.5,5.9-5.1,9.8-6c13-3.2,19.4,1.9,20.5,12.9c0.4,4.1,0.6,8.3,0.8,12.5
				C689.4,616.6,693,619.7,697.9,619.7z M695.3,739.7c0.1-4.8-0.7-9.3-2.8-13.7c-9.1-18.3-18.6-36.4-26.7-55.2c-0.9-2.1-1.8-2-3.4-1
				c-2.5,1.4-5.1,2.7-7.6,3.9c-7.6,3.7-7.5,3.6-3.9,11.5c7.3,16.3,16.3,31.8,21.5,49c0.9,3,0.4,7.2,3,8.6c2.4,1.3,6.2,0.3,9.3,0.3
				c0,0.1,0,0.1,0,0.2c2.3,0,4.6-0.1,6.9,0C694.2,743.6,695.3,742.5,695.3,739.7z"/>
			<path class="st1" d="M704.6,612c0.3,3.9-3.3,7.6-6.7,7.6c-4.9,0.1-8.5-3-8.8-7.5c-0.3-4.2-0.4-8.3-0.8-12.5
				c-1.1-11-7.5-16.1-20.5-12.9c-3.9,0.9-6.8,3.6-9.8,6c-2.4,2-2.1,4.7-0.9,7.4c4.5,10.2,8.9,20.4,13.3,30.6
				c1.5,3.5,2.4,7.1,2.2,10.9c-0.3,5.4-2.4,9.8-7.4,12.7c-10.8,6.2-21.7,12.2-33.2,17.1c-14.4,6-19.5,17.6-14.6,32.5
				c1.1,3.4,2,6.9,1.7,10.6c-0.3,3.4-1.4,6.3-4.8,8c-6.1,3.1-8.4,2.3-10.4-4.1c-3.3-10.5-6.7-20.9-9.2-31.7c-1-4.2-0.3-7.6,2.3-10.8
				c7.2-9,16.5-15.5,26-21.7c4.4-2.9,9-5.6,13.6-8.3c3.9-2.3,5-4.9,3.4-8c-1.5-3-4.9-3.9-8.5-1.6c-2.8,1.7-3.4,1-4.7-1.7
				c-3.7-7.7-6.8-15.8-12-22.8c-2.1-2.8-4.5-5.1-8.1-4.7c-4,0.4-5.9,3.4-7.1,6.7c-1.4,3.9-2.4,7.9-3.5,11.9
				c-1.9,6.3-5.1,11.9-10.2,16.1c-4.3,3.6-8.5,4-13,0.6c-10.8-8.3-16.1-19.5-15.6-33.2c0.1-3,1.3-6.1,4.9-6.8c4-0.8,7.5,0.2,9.7,3.9
				c2.3,3.8,2.7,7.9,0.5,11.9c-1.8,3.3-1.7,6.1,1.5,8.2c3.4,2.2,6,0.4,8.2-2.3c3.4-4.2,5.2-9.2,6.2-14.5
				c2.2-10.9,8.3-16.6,19.5-17.8c1.4-0.1,2.9-0.2,4.3-0.5c3.2-0.6,4.7-2.9,4.6-5.9c-0.1-2.6-1.7-4.3-4.6-4.8
				c-7.1-1.3-13.5-4.2-18.8-10c4.1-0.7,7.8-1.7,11.1-3.8c3.2-2,4.2-5.4,2.3-8.1c-2.1-3.1-4.9-3.1-7.9-1.4c-2.8,1.6-5.7,2.5-9,2
				c-6.5-1.1-8.5-6.2-4.5-11.4c1.9-2.4,2.1-5.2,0-7.5c-1.7-1.8-1.4-3.4-0.7-5.4c5.5-16.6,20.9-25,34.9-24
				c17.6,1.3,30.6,13.7,32.7,30c1.8,14.1-3.2,25.2-14.5,33.7c-0.5,0.4-1,0.6-1.4,1c-3.2,2.5-4,5.3-1.9,8.1c2.2,3,5.2,2.8,8,1
				c10.3-6.6,21.7-9.9,33.4-13c6.6-1.7,11.4,0.2,15.7,4.9C700.6,586.9,703.7,599.1,704.6,612z M602.9,550.5c3.1-0.2,6-3.1,6-6.2
				c0-3.4-3-6.2-6.4-6.1c-3.3,0.1-5.8,2.7-5.8,6.1C596.7,547.7,599.6,550.7,602.9,550.5z"/>
			<path class="st2" d="M692.5,726c2.2,4.4,2.9,8.9,2.8,13.7c0,2.8-1.1,3.9-3.9,3.6c-2.3-0.2-4.6,0-6.9,0c0-0.1,0-0.1,0-0.2
				c-3.2,0-6.9,1-9.3-0.3c-2.5-1.4-2.1-5.6-3-8.6c-5.2-17.2-14.1-32.8-21.5-49c-3.6-7.9-3.7-7.8,3.9-11.5c2.6-1.2,5.2-2.5,7.6-3.9
				c1.7-1,2.5-1.1,3.4,1C673.9,689.6,683.4,707.7,692.5,726z"/>
			<path class="st3" d="M679.6,619.4l-1.7,0.7c-2.7-6.1-5.7-12.1-8.1-18.3c-0.4-1.1-2.3-2.4-0.5-3.7c1.5-1.1,3.3-1.7,5.3-1.4
				c1.9,0.3,2.3,1.5,2.6,3.3c0.9,4.3,0.6,8.6,0.8,12.9C678.1,615.3,678.7,617.4,679.6,619.4z"/>
			<path class="st0" d="M663.2,474.2c1.7,1.7,2.3,4.4,0.7,6.5c-4.4,5.7-9.2,11-14.1,16.2c-2,2.1-4.8,1.9-7,0
				c-2.2-1.9-2.8-4.6-0.9-6.9c4.5-5.4,9.2-10.6,13.9-15.9c0.3-0.4,0.7-0.6,1.2-0.9c0.3-0.1,0.6-0.2,0.9-0.3c0.2,0,0.3-0.1,0.5-0.1
				c0.3-0.1,0.6-0.1,1-0.2c0.4,0,0.8,0,1.3,0.1c0.7,0.1,1.4,0.4,2,0.9C662.6,473.7,662.9,474,663.2,474.2z"/>
			<path class="st4" d="M626.3,463.8c0,3.3,0,6.6,0,9.9c0,3.2,0,6.3,0,9.5c-0.1,3.2-1.7,5.1-4.9,5.4c-3.4,0.3-5.7-1.6-5.8-4.9
				c-0.3-6.9-0.3-13.8,0-20.6c0.1-3.3,2.5-5.1,5.9-4.8C624.7,458.5,626.2,460.6,626.3,463.8z"/>
			<path class="st4" d="M608.9,544.3c0,3.1-2.8,6.1-6,6.2c-3.3,0.1-6.2-2.8-6.2-6.2c0-3.4,2.5-6,5.8-6.1
				C605.8,538,608.8,540.9,608.9,544.3z"/>
			<path class="st0" d="M601,489.1c0.2,0.4,0.1,0.8,0.1,1.4c0,2.4-1.1,4.2-3.6,5.1c-2.5,0.9-4.8,0.4-6.1-1.7
				c-3.8-6.3-7.5-12.8-10.9-19.3c-1.2-2.4-0.4-5.1,2.2-6.7c2.4-1.5,5-1.3,6.6,0.9C594,475.1,597.4,482.1,601,489.1z"/>
		</g>
		<g>
		</g>
	</g>
</g>
<g>
	<path d="M116.2,651.3c0,22.5,0,45.1,0,67.6c0,6-2.8,10-7.7,11.5c-1.3,0.4-2.6,0.4-3.9,0.4c-22.2,0-44.5,0-66.7,0
		c-8.1,0-12.3-4.2-12.3-12.2c0-30,0-60,0-90c0-1.8,0.1-3.3-1.7-4.7c-1.8-1.3-1.3-5.4,0.5-6.8c1.5-1.2,1.6-2,0-3.2
		c-2.1-1.6-2.1-5.7,0-7.3c1.7-1.3,1.5-2.1-0.1-3.4c-2-1.5-2-5.7,0-7.2c1.1-0.8,1.3-1.8,1.3-3c0-3.5,0-6.9,0-10.4
		c0.1-6.5,4.6-11,11.1-11c22.6,0,45.2,0,67.9,0c7.1,0,11.5,4.3,11.6,11.5c0.1,8.8,0,17.5,0,26.3
		C116.2,623.5,116.2,637.4,116.2,651.3z M70.7,587.5c0.8,0,1.7,0,2.5,0c11.4,0,22.8,0,34.1,0c1,0,2.2,0.4,2.7-1
		c1.8-5.2-0.8-8.9-6.3-8.9c-13.8,0-27.7,0-41.5,0c-8.5,0-16.9,0-25.4,0c-2,0-3.6,0.6-4.7,2.3c-0.8,1.3-0.8,2.8-0.8,4.2
		c0,3.5,0,3.5,3.4,3.5C46.8,587.5,58.8,587.5,70.7,587.5z M47.3,710c-4.5,0-9.1,0-13.6,0c-1.7,0-2.4,0.5-2.3,2.3
		c0.1,2.5,0,5.1,0,7.6c0.1,3.3,2,5.3,5.4,5.3c8,0,16,0,24,0c1.6,0,2.1-0.2,1.1-1.8c-2.4-3.8-2.5-7.7,0-11.5c1.1-1.8,0.3-1.8-1.2-1.8
		C56.3,710,51.8,710,47.3,710z M79,724.7c0.2,0.2,0.4,0.3,0.5,0.3c8.8,0,17.5,0.1,26.3,0c2.6,0,4.3-1.8,4.4-4.4
		c0.1-2.6-0.1-5.2,0.1-7.8c0.1-2.3-0.8-2.9-3-2.9c-8.2,0.1-16.3,0-24.5,0c-3.5,0-3.5,0-2.1,3.2c0.2,0.5,0.4,1,0.5,1.5
		C82.5,718.5,81.3,721.7,79,724.7z M62.6,611.7c0-1-0.4-1.8-1.3-2.2c-1.3-0.5-2.3,0.1-3.3,1.1c-7.5,7.5-15,15-22.5,22.5
		c-1.2,1.2-2,2.6-0.5,4c1.5,1.4,2.8,0.5,4-0.7c7.4-7.4,14.9-14.9,22.3-22.3C62,613.4,62.6,612.8,62.6,611.7z M36.7,611.4
		c0.8-0.1,1.5-0.7,2.2-1.3c3.1-3.1,6.2-6.2,9.3-9.3c1.2-1.2,2.1-2.5,0.6-4c-1.4-1.4-2.8-0.7-4,0.5c-2.9,2.9-5.8,5.7-8.6,8.6
		c-0.6,0.6-1.2,1.2-1.6,1.9C33.7,609.4,34.8,611.3,36.7,611.4z M71,722.4c2.9,0,5-2.1,4.9-5c0-2.7-2.3-5-5-5c-2.7,0-4.9,2.3-4.9,5.1
		C66,720.5,68.1,722.4,71,722.4z M62.6,598.4c0-0.9-0.3-1.7-1.1-2.1c-1.1-0.5-2.1-0.4-3,0.5c-2.4,2.4-4.9,4.9-7.3,7.3
		c-1.2,1.2-1.8,2.5-0.3,3.8c1.4,1.3,2.7,0.7,3.8-0.5c2.3-2.3,4.6-4.6,6.8-6.8C62.1,600,62.6,599.4,62.6,598.4z M36.7,624.4
		c0.1,0,0.6,0,0.8-0.2c2.4-1.8,4.5-3.9,6.3-6.3c0.6-0.9,0.3-1.9-0.5-2.7c-0.9-0.8-2-0.9-2.9-0.1c-2,1.8-3.9,3.7-5.7,5.7
		c-0.7,0.7-0.6,1.7-0.2,2.6C34.9,624.1,35.6,624.4,36.7,624.4z M71,603.2c1.7,0,5-3.2,4.9-4.9c0-0.9-0.5-1.6-1.3-2
		c-0.8-0.4-1.7-0.4-2.4,0.2c-1.1,1-2.2,1.9-3.1,3.1C68,601.2,69,603.2,71,603.2z M65.5,608.7c1.5-0.1,2.4-0.9,2.5-2.3
		c0.1-1.4-0.8-2.3-2.2-2.4c-1.4,0-2.3,0.7-2.4,2.2C63.3,607.7,64.2,608.4,65.5,608.7z M46.7,609.4c-1.2,0.1-2,0.9-1.9,2.4
		c0.1,1.4,0.9,2.1,2.3,2c1.5,0,2.4-0.9,2.3-2.3C49.4,610.2,48.5,609.4,46.7,609.4z"/>
	<path d="M74.9,579.6c2,0,4,0,6,0c2.1,0.1,3.6,1.2,3.4,2.9c-0.1,1.9-1.4,2.8-3.3,2.9c-4.1,0.1-8.3,0.1-12.4,0
		c-1.8,0-3.2-0.9-3.2-2.9c0-1.9,1.4-2.8,3.2-2.8C70.8,579.6,72.9,579.6,74.9,579.6z"/>
	<path d="M58.9,585.4c-3,0-4.8-1.7-3.9-3.9c0.7-1.7,2.2-2,3.8-1.9c1.7,0,3.3,0,4.1,1.9C63.9,583.7,62.1,585.4,58.9,585.4z"/>
</g>
<g>
	<g>
		<path d="M249.8,698.1c-20.6,0-37.2-16.8-37.3-37.7c-0.1-19.9,17.3-36.9,37.7-36.9c20.5,0.1,37.3,17.1,37.3,37.8
			C287.5,681.4,270.3,698.1,249.8,698.1z M249.9,680.2c10.8,0,19.9-8.8,19.8-19.2c-0.2-11.1-8.5-19.5-19.3-19.6
			c-11.3-0.1-19.9,8.3-19.9,19.4C230.5,671.7,239,680.2,249.9,680.2z"/>
		<path d="M324.3,660.4c0-20.3,16.9-36.9,37.5-36.9c20.6,0.1,37.2,16.9,37.2,37.8c0,20.2-17,36.8-37.6,36.8
			C340.7,698.1,324.3,681.4,324.3,660.4z M361.5,680.2c11.1,0,19.5-8.3,19.5-19.3c0-11.2-8.2-19.5-19.3-19.6
			c-10.9,0-19.3,8.1-19.4,18.8C342.2,671.7,350.3,680.2,361.5,680.2z"/>
		<path d="M473,698.1c-20.6,0-37.1-16.7-37.3-37.7c-0.2-19.9,17.2-37,37.6-36.9c20.5,0.1,37.3,17.1,37.4,37.8
			C510.8,681.3,493.5,698.1,473,698.1z M473.3,680.2c10.7,0,19.5-8.5,19.5-18.9c0.1-11.2-8.4-19.9-19.5-19.9
			c-11,0-19.8,8.5-19.8,19.1C453.6,671.7,462.2,680.2,473.3,680.2z"/>
	</g>
</g>
<text transform="matrix(1 0 0 1 20.7145 268.5712)"><tspan x="0" y="0" class="st5 st6">How do you get people </tspan><tspan x="0" y="60" class="st5 st6">moving while understanding </tspan><tspan x="0" y="120" class="st5 st6">their wants and needs?</tspan></text>
<g id="m2Re54.tif">
	
		<image style="overflow:visible;" width="2000" height="445" id="Layer_0" xlink:href="222B1ABE6080855E.png"  transform="matrix(0.3078 0 0 0.3078 595.1564 8)">
	</image>
</g>
</svg>
