<?xml version="1.0" encoding="utf-8"?>
<!-- Generator: Adobe Illustrator 21.1.0, SVG Export Plug-In . SVG Version: 6.00 Build 0)  -->
<svg version="1.1" id="Layer_1" xmlns="http://www.w3.org/2000/svg" xmlns:xlink="http://www.w3.org/1999/xlink" x="0px" y="0px"
	 viewBox="0 0 1224 792" style="enable-background:new 0 0 1224 792;" xml:space="preserve">
<style type="text/css">
	.st0{fill:#FFFFFF;}
	.st1{font-family:'UglyQua';}
	.st2{font-size:70.8009px;}
	.st3{font-size:45px;}
	.st4{letter-spacing:42;}
</style>
<g>
	<g id="XMLID_1_">
		<g>
			<path d="M913.4,603.1v133.6c-76.4,16.3-153,32.6-230.7,49.1c-22.8,0.7-45.7,1.5-68.5,2.3V652.3
				C712.7,636.1,811.7,619.8,913.4,603.1z"/>
			<path d="M855.5,593.8c0.1,3.4,0.2,6.9,0.3,10.3c-32.2,4.2-64.5,7.6-96.6,12.8c-46.2,7.5-92.2,18.1-138.5,24
				c-20.6,2.6-41.8-2.9-62.7-8.1C656.8,610.9,755.6,592.2,855.5,593.8z"/>
			<path d="M813.6,454.5c0,44.9,0,85.3,0,128.7c-97.1,12.5-194.7,25-295.7,38c0-40.8,0-86,0-140
				C614.8,472.4,713.3,463.5,813.6,454.5z"/>
			<path d="M733.2,446.5c0.1,2.2,0.2,4.4,0.3,6.6c-80.2,6.2-160.5,12.3-240.7,18.5c-0.1-2.4-0.2-4.8-0.3-7.2
				C572.8,458.5,653,452.5,733.2,446.5z"/>
			<path d="M721.6,315.3c0,41.9,0,81.3,0,123.6c-97.1,7.8-194.6,15.5-293.9,23.4c0-44.9,0-88.9,0-136.5
				C525.5,322.4,622.5,318.9,721.6,315.3z"/>
			<path d="M614.5,183.2c18-0.2,24.5,7,23,32.3c-1.6,28.1-0.4,56.5-0.4,88.1c-98.8,3.6-194.6,7.2-292.1,10.8c0-43.2,0-85.3,0-129.4
				c4.6-0.6,9.8-1.8,15.1-1.8C444.9,183.2,529.7,184.1,614.5,183.2z"/>
			<path d="M557.2,71c0,34.9,0,68.7,0,104.3c-95.7,0-191.2,0-288.2,0c0-41,0-80.4,0-124.8C365.7,57.4,460.9,64.2,557.2,71z"/>
			<path d="M440.6,472.8c22.4,1.8,44.5,7.2,68.5,11.3v149.6c32.9,5.8,64,11.4,96.8,17.2v137.4c-15,0.5-30.1,1-45.1,1.5
				c-13.9-2.8-27.6-6.5-40.6-13c-14.3-7.2-24.1-34.2-34.5-53.7c-28.8-53.8-56.8-108.3-85.3-162.4c-39.3-74.7-78.6-149.5-118.3-223.8
				c-29.6-55.4-60.2-109.8-89.8-165.2c-29.9-56.1-59.4-112.7-89.1-169.1h87.5c0,9.8-0.1,19.6-0.3,29.4c-0.3,17.9,2.2,25.2,17.6,21.5
				c16-3.8,32.9-0.8,51.9-0.8v128.9H336v138.5c28.8,2.4,55.3,4.6,83.8,7c0,38.3,1,75.2-0.4,112C418.6,461.9,423.5,471.4,440.6,472.8
				z"/>
			<path d="M200.2,2.8c16.3,0,32.6,0.2,49,0.1c7.2,1.9,14.7,2.9,22.5,2.9c57.8-0.1,115.5-4,173.3-5.4c12.6,2.6,25.1,5.6,37.6,8.5
				v37.5H197.8V2.8H200.2z"/>
		</g>
		<g>
		</g>
	</g>
</g>
<text transform="matrix(1 0 0 1 270.1763 138.0122)" class="st0 st1 st2">Aesthetic</text>
<text transform="matrix(1 0 0 1 368.7058 267.1177)" class="st0 st1 st2">Fix Bugs</text>
<text transform="matrix(0.9347 0 0 1 437.8232 381.8237)"><tspan x="0" y="0" class="st0 st1 st3">User Submitted</tspan><tspan x="0" y="54" class="st0 st1 st3">Stories</tspan></text>
<text transform="matrix(0.9934 -0.1149 0.1149 0.9934 561.3697 575.8393)" class="st0 st1 st2">Genres</text>
<text transform="matrix(1 0 0 1 759.8822 211.2354)"><tspan x="0" y="0" class="st1 st2">Next</tspan><tspan x="0" y="85" class="st1 st2 st4">	</tspan><tspan x="65.4" y="85" class="st1 st2">Steps</tspan></text>
</svg>
