<?xml version="1.0" encoding="utf-8"?>
<!-- Generator: Adobe Illustrator 21.1.0, SVG Export Plug-In . SVG Version: 6.00 Build 0)  -->
<svg version="1.1" id="Layer_1" xmlns="http://www.w3.org/2000/svg" xmlns:xlink="http://www.w3.org/1999/xlink" x="0px" y="0px"
	 viewBox="0 0 1224 792" style="enable-background:new 0 0 1224 792;" xml:space="preserve">
<style type="text/css">
	.st0{enable-background:new    ;}
	.st1{fill:#FFFFFF;}
</style>
<g>
	<g id="XMLID_1_">
		<g>
			<path d="M913.4,603.1v133.6c-76.4,16.3-153,32.6-230.7,49.1c-22.8,0.7-45.7,1.5-68.5,2.3V652.3
				C712.7,636.1,811.7,619.8,913.4,603.1z"/>
			<path d="M855.5,593.8c0.1,3.4,0.2,6.9,0.3,10.3c-32.2,4.2-64.5,7.6-96.6,12.8c-46.2,7.5-92.2,18.1-138.5,24
				c-20.6,2.6-41.8-2.9-62.7-8.1C656.8,610.9,755.6,592.2,855.5,593.8z"/>
			<path d="M813.6,454.5c0,44.9,0,85.3,0,128.7c-97.1,12.5-194.7,25-295.7,38c0-40.8,0-86,0-140
				C614.8,472.4,713.3,463.5,813.6,454.5z"/>
			<path d="M733.2,446.5c0.1,2.2,0.2,4.4,0.3,6.6c-80.2,6.2-160.5,12.3-240.7,18.5c-0.1-2.4-0.2-4.8-0.3-7.2
				C572.8,458.5,653,452.5,733.2,446.5z"/>
			<path d="M721.6,315.3c0,41.9,0,81.3,0,123.6c-97.1,7.8-194.6,15.5-293.9,23.4c0-44.9,0-88.9,0-136.5
				C525.5,322.4,622.5,318.9,721.6,315.3z"/>
			<path d="M614.5,183.2c18-0.2,24.5,7,23,32.3c-1.6,28.1-0.4,56.5-0.4,88.1c-98.8,3.6-194.6,7.2-292.1,10.8c0-43.2,0-85.3,0-129.4
				c4.6-0.6,9.8-1.8,15.1-1.8C444.9,183.2,529.7,184.1,614.5,183.2z"/>
			<path d="M557.2,71c0,34.9,0,68.7,0,104.3c-95.7,0-191.2,0-288.2,0c0-41,0-80.4,0-124.8C365.7,57.4,460.9,64.2,557.2,71z"/>
			<path d="M440.6,472.8c22.4,1.8,44.5,7.2,68.5,11.3v149.6c32.9,5.8,64,11.4,96.8,17.2v137.4c-15,0.5-30.1,1-45.1,1.5
				c-13.9-2.8-27.6-6.5-40.6-13c-14.3-7.2-24.1-34.2-34.5-53.7c-28.8-53.8-56.8-108.3-85.3-162.4c-39.3-74.7-78.6-149.5-118.3-223.8
				c-29.6-55.4-60.2-109.8-89.8-165.2C162.4,115.6,132.9,59,103.2,2.6h87.5c0,9.8-0.1,19.6-0.3,29.4c-0.3,17.9,2.2,25.2,17.6,21.5
				c16-3.8,32.9-0.8,51.9-0.8v128.9H336v138.5c28.8,2.4,55.3,4.6,83.8,7c0,38.3,1,75.2-0.4,112C418.6,461.9,423.5,471.4,440.6,472.8
				z"/>
			<path d="M200.2,2.8c16.3,0,32.6,0.2,49,0.1c7.2,1.9,14.7,2.9,22.5,2.9c57.8-0.1,115.5-4,173.3-5.4C457.6,3,470.1,6,482.6,8.9
				v37.5H197.8V2.8H200.2z"/>
		</g>
	</g>
</g>
<g class="st0">
	<path class="st1" d="M320.9,138l-3,0.6c-0.6-0.3-1.3-0.5-2.2-0.6s-1.7-0.1-2.7-0.1c-0.9,0-1.8,0-2.7,0.1c-0.9,0.1-1.7,0.1-2.4,0.1
		l-0.6,0.5h-3.9c-0.5-0.4-0.9-0.8-1-1.4c-0.2-0.5-0.2-1.1-0.1-1.7c0.3-0.3,0.7-0.5,1.2-0.5c0.5-0.1,1.1-0.1,1.7-0.1
		c0.7,0,1.3,0,2-0.1c0.7-0.1,1.3-0.3,1.8-0.7c0.4-0.2,0.6-0.8,0.6-1.7c0-0.9-0.1-2-0.3-3.2c-0.2-1.2-0.6-2.5-1-3.9
		c-0.4-1.4-0.8-2.7-1.3-3.9c-0.5-1.2-1-2.2-1.5-3.1c-0.5-0.9-0.9-1.4-1.3-1.7h-12.7c-0.2,0.3-0.5,0.6-0.9,0.7s-0.7,0.2-1.1,0.3
		c-0.4,0-0.8,0.1-1.2,0.1c-0.4,0-0.8,0.1-1.1,0.3c-0.4,0.7-1,1.6-1.7,2.9c-0.7,1.3-1.4,2.7-2,4.1c-0.6,1.5-1.1,2.9-1.4,4.2
		c-0.3,1.3-0.3,2.4,0,3.1l2.5,0.5l0.4,0.7h4l0.8,1.8c-0.2,0.7-0.6,1.3-1,1.8l-2.8,0.1l-0.4,0.6l-1.5,0.1c-0.3-0.3-0.8-0.5-1.5-0.6
		s-1.5-0.2-2.3-0.3c-0.8,0-1.6-0.1-2.3,0c-0.7,0-1.3,0.1-1.7,0.1c-0.4,0.5-0.9,0.8-1.5,0.8c-0.6,0-1.2,0-1.8-0.1
		c-0.4-0.7-0.6-1.2-0.8-1.6c-0.2-0.3-0.3-0.6-0.3-0.9c0-0.3,0-0.6,0-1c0-0.4,0.1-1,0.2-1.8c0.7-0.4,1.4-0.6,2.2-0.8
		c0.7-0.1,1.5-0.3,2.3-0.6c0.3-0.8,0.9-2.1,1.6-3.9c0.7-1.8,1.6-3.9,2.5-6.2c0.9-2.3,1.9-4.7,3-7.2c1.1-2.5,2.1-4.8,3.1-6.9
		s1.9-3.9,2.7-5.4c0.8-1.5,1.4-2.4,1.9-2.7c-0.1-0.6-0.1-1.2-0.1-1.8c0-0.6,0.1-1.2,0.2-1.8c0.5-0.5,1-1.2,1.4-2.2
		c0.4-1,0.9-2.1,1.3-3.3c0.4-1.2,0.9-2.3,1.4-3.5c0.5-1.2,1-2.1,1.6-2.9c0.6-0.8,1.2-1.3,2-1.6c0.7-0.2,1.6,0,2.5,0.6
		c0.8,1.6,1.5,3.6,2.1,6c0.6,2.5,1.3,4.9,1.9,7.4c0.6,2.5,1.2,4.8,1.9,6.9c0.6,2.1,1.3,3.6,2,4.4c0.3,1.4,0.6,2.8,1.1,4.2
		c0.4,1.4,0.9,2.8,1.3,4.2c0.4,1.4,0.8,2.8,1.2,4.2c0.3,1.4,0.5,2.8,0.6,4.2c0.3,0.3,0.6,0.7,0.7,1.1c0.2,0.4,0.3,0.8,0.5,1.3
		s0.3,0.9,0.5,1.3c0.2,0.4,0.4,0.9,0.6,1.2c-0.2,0.8-0.1,1.6,0.3,2.2c0.4,0.6,0.9,1.2,1.5,1.7c0.6,0.5,1.2,1.1,1.9,1.6
		c0.7,0.5,1.2,1.2,1.5,1.9L320.9,138z M303.7,105.9c-0.4-1.5-1.1-3-2.2-4.5c-0.1-0.1-0.2-0.3-0.5-0.4c-0.2-0.1-0.4-0.3-0.5-0.5
		c-0.5-0.8-0.8-1.6-1.1-2.5c-0.3-0.9-0.6-1.8-1.1-2.6h-1.8c-0.6,1.2-1.2,2.5-2,3.9c-0.8,1.4-1.5,2.9-2.1,4.4c-0.6,1.5-1.1,3-1.5,4.5
		c-0.3,1.5-0.4,2.9-0.1,4.1c1.1,0.4,2.1,0.6,3,0.6c1,0,2.1,0,3.3,0l0.2-0.5c0.3,0.3,0.6,0.5,1,0.6c0.4,0,0.8,0,1.3-0.1
		c0.4-0.1,0.9-0.2,1.3-0.4s0.8-0.2,1.1-0.3c0.2-0.3,0.5-0.6,0.9-0.8c0.4-0.2,0.8-0.4,1.1-0.5C304.2,109.1,304,107.5,303.7,105.9z"/>
	<path class="st1" d="M350.3,118c-0.4,0.1-0.9,0.2-1.6,0.3c-0.7,0.1-1.4,0.2-2.1,0.3c-0.7,0.1-1.3,0.1-1.8,0c-0.5,0-0.7-0.2-0.7-0.5
		l-1.3-0.1l-0.3-0.6h-6c-0.1,0-0.2-0.1-0.2-0.2c0-0.1-0.1-0.2-0.3-0.2H333c-0.7,0.7-1.3,1.3-2.1,1.8v5.3l0.6,0.3
		c0.2,0.6,0.4,1.2,0.5,1.8c0.1,0.6,0.2,1.3,0.2,1.9c0.5,0.6,1.1,1.2,1.7,1.8c0.6,0.6,1.3,1,2.1,1.3c0.2,0.5,0.6,0.8,1,1
		c0.4,0.2,0.8,0.3,1.3,0.3c0.5,0,1,0,1.5-0.1c0.5-0.1,1-0.1,1.4-0.1c0.1,0,0.2,0,0.3-0.1c0.1-0.1,0.1-0.2,0-0.3
		c0.6-0.1,1.2-0.2,1.7,0c0.5,0.1,1-0.1,1.3-0.7l1.2-0.1l0.7-1.1c0.5-0.1,1-0.2,1.4-0.3c0.4-0.1,0.7-0.4,1-0.9
		c0.3,0.1,0.6,0.3,0.8,0.4c0.3,0.1,0.5,0.2,0.8,0.3v1.6c-1.6,1.7-2.7,2.9-3.5,3.5c-0.8,0.6-1.4,1-1.9,1.3c-0.5,0.2-1,0.4-1.5,0.6
		c-0.5,0.2-1.2,0.7-2.2,1.5c-2,0-3.5,0-4.3,0.1c-0.8,0-1.5,0-2,0c-0.5-0.1-1-0.2-1.5-0.5c-0.5-0.3-1.5-0.7-2.9-1.3
		c-0.4-0.6-0.8-1.1-1.3-1.6c-0.5-0.5-1-0.9-1.6-1.3l-0.6-2.1l-0.5-0.3c-0.1-0.5-0.2-1-0.3-1.3c-0.1-0.4-0.4-0.7-0.9-1
		c-0.1-0.6-0.3-1.5-0.5-2.8c-0.2-1.2-0.3-2.5-0.4-3.8s0-2.4,0.2-3.5c0.2-1,0.6-1.7,1.3-1.9c0.3-1,0.7-2.1,1.1-3c0.5-1,0.8-2,1.1-3
		c0.5-0.4,1-0.8,1.5-1.2c0.5-0.4,0.8-1,0.9-1.6l5.7-3.5c1.5,0,2.8,0,4,0.1c1.2,0.1,2.5,0.2,3.9,0.4c0.4,0.5,0.9,0.9,1.5,1.3
		c0.6,0.3,1.2,0.7,1.8,1.1s1.2,1,1.8,1.6c0.6,0.6,1,1.5,1.3,2.7l0.5,0.3c0.2,0.9,0.3,1.6,0.5,1.9c0.1,0.3,0.2,0.6,0.2,0.8
		c0,0.2-0.1,0.5-0.2,0.8c-0.1,0.3-0.3,0.9-0.5,1.8L350.3,118z M345.4,110.9c-0.3-0.6-0.6-1-0.8-1.3c-0.1,0-0.3,0-0.4,0
		c-0.1,0-0.3-0.1-0.5-0.1c0-0.2-0.1-0.4-0.2-0.7c-0.1-0.3-0.3-0.4-0.5-0.4h-4.5c-0.6,0.6-1.3,1-2.1,1.3c-0.3,0.4-0.6,0.9-0.8,1.3
		c-0.3,0.4-0.6,0.9-0.9,1.4c0.6,0.6,1.2,1.2,1.8,1.8h3.3c0.2,0,0.3,0.1,0.2,0.2c0,0.1,0,0.2,0.2,0.2h3c0.2,0,0.5-0.1,0.8-0.2
		c0.3-0.1,0.6-0.3,1-0.5c0.3-0.2,0.6-0.5,0.8-0.7s0.3-0.5,0.3-0.8C345.9,112,345.8,111.5,345.4,110.9z"/>
	<path class="st1" d="M375.5,124.7v0.4c0,0.3,0,0.6,0,0.9c0,0.3,0,0.6,0,0.9v0.4l-0.1,6.2c-0.4,0.6-1,1.1-1.6,1.6
		c-0.7,0.5-1.3,0.9-1.9,1.2c-0.6,0.4-1.3,0.7-2.2,1.2c-1.7,0.2-3,0.4-4,0.5s-1.8,0.2-2.4,0.2c-0.6,0-1.1,0-1.5-0.1
		c-0.4-0.1-0.7-0.2-1.1-0.5c-0.4-0.2-0.9-0.5-1.4-0.8c-0.5-0.4-1.3-0.8-2.3-1.2c-0.3-0.6-0.7-1.1-1.2-1.6c-0.2-1-0.4-1.9-0.5-2.5
		c-0.1-0.7-0.1-1.2,0-1.8c0.1-0.5,0.3-1.1,0.5-1.7c0.3-0.6,0.6-1.4,1.1-2.3h1.6c0.5,1.1,1,2.2,1.4,3.3c0.4,1.1,0.8,2.2,1.2,3.4
		c-0.4,0.3-0.8,0.6-1.2,0.7c0.1,0.4,0.4,0.7,0.6,1c0.4,0,0.7,0.1,1.1,0c0.3,0,0.7-0.2,1-0.4h2.9l0.5,0.4c0.5-0.1,1.1-0.3,1.6-0.6
		c0.6-0.3,1.1-0.7,1.5-1.1c0.4-0.4,0.8-1,1.1-1.5c0.3-0.6,0.5-1.2,0.5-1.8c0-2-0.1-3.5-0.2-4.5s-0.5-1.7-1.1-2.1
		c-0.6-0.4-1.4-0.6-2.5-0.6c-1.1,0-2.6,0-4.6,0l-0.2-0.6c-0.9-0.1-1.7-0.4-2.3-0.6c-0.4-0.7-0.9-1.1-1.6-1.1
		c-0.7-0.8-1.2-1.7-1.6-2.8c-0.3-1.1-0.5-2.2-0.5-3.4c0-1.2,0.2-2.3,0.6-3.4c0.4-1.1,0.9-2,1.5-2.8c0.4-0.1,0.7-0.3,1.1-0.6
		c0.3-0.2,0.7-0.5,1-0.7c0.3-0.3,0.7-0.5,1-0.6c0.3-0.2,0.7-0.2,1.1-0.2l0.1-0.6h3.3c0,0,0.2-0.1,0.4-0.1c0.2,0,0.5,0,0.8,0
		c0.3,0,0.6,0.1,0.8,0.1c0.3,0,0.4,0,0.5,0l0.3,0.6c0.6,0.2,1.1,0.3,1.6,0.4c0.4,0.1,0.8,0.2,1.2,0.4c0.4,0.1,0.8,0.3,1.2,0.5
		c0.4,0.2,0.8,0.5,1.4,1c0.2,0.8,0.4,1.4,0.5,1.8c0.1,0.4,0.2,0.9,0.2,1.2c0,0.4,0,0.8-0.1,1.3c-0.1,0.5-0.3,1.1-0.6,1.9h-2.1
		c-0.2-0.4-0.5-0.7-0.8-1.1c-0.3-0.4-0.7-0.6-1.2-0.7c-0.4-0.9-1-1.9-1.8-2.8c-0.8-0.9-1.7-1.5-2.7-1.8c-0.5,0.1-0.8,0.3-1,0.6
		c-1.1,0-2,0.5-2.7,1.5c-0.7,1-1,2-1,3c0,0.6,0.1,1.1,0.2,1.5c0.2,0.4,0.4,0.7,0.6,1c0.2,0.3,0.5,0.5,0.7,0.7
		c0.2,0.2,0.4,0.5,0.5,0.7c0.7,0.4,1.4,0.6,2.2,0.6c0.8,0,1.6-0.1,2.4-0.1c0.2,0.1,0.3,0.2,0.3,0.4l1.8,0.1l0.4,0.6
		c2,0.3,3.4,1.1,4.2,2.3C375,121.4,375.4,122.9,375.5,124.7c0,0,0.1,0.2,0.1,0.6C375.6,125.1,375.6,124.8,375.5,124.7z M375.5,124.7
		c0,0.1,0.1,0.4,0.1,0.6C375.6,124.9,375.6,124.7,375.5,124.7z"/>
	<path class="st1" d="M400.1,106.9c-0.3,0.3-0.7,0.5-1.2,0.6c-0.5,0-1,0-1.5-0.1c-0.5-0.1-1-0.2-1.5-0.2h-6.2
		c-0.1,0.1-0.3,0.3-0.5,0.7c-0.2,0.4-0.4,0.6-0.4,0.7c0,0.4,0,1.2,0,2.2c0,1.1,0,2.3,0.1,3.7c0,1.4,0.1,2.9,0.1,4.5
		c0.1,1.6,0.2,3.1,0.2,4.6c0.1,1.5,0.2,2.8,0.3,4c0.1,1.2,0.3,2.1,0.5,2.7c0.8,0.7,1.5,1.1,2,1.4s1,0.5,1.5,0.5
		c0.5,0.1,1.1,0.1,1.9,0c0.7-0.1,1.8-0.1,3.1-0.1c0.1,0,0.4-0.1,0.7-0.4c0.4-0.3,0.6-0.4,0.7-0.5V131c0.5,0.5,0.9,1.1,1.2,1.6
		c0.3,0.5,0.4,1,0.4,1.5c0,0.4-0.2,0.8-0.7,1.1s-1.1,0.4-2,0.5c-0.4,0.5-0.8,0.8-1.4,1c-0.6,0.2-1.1,0.5-1.6,0.8
		c-0.8,0.1-1.5,0.2-2.2,0.3c-0.7,0.1-1.5,0.2-2.2,0.3c-0.7,0.1-1.4,0.1-2.2,0c-0.7-0.1-1.5-0.3-2.2-0.6l-0.3-0.6
		c-1,0-1.8-0.5-2.4-1.3c-0.5-0.8-1-1.8-1.3-2.9c-0.3-1.1-0.6-2.2-0.7-3.3c-0.2-1.1-0.4-2-0.7-2.6l0.4-0.6c0.1-1.4,0.2-2.9,0.3-4.6
		c0.1-1.6,0.2-3.3,0.2-5c0.1-1.7,0.1-3.3,0.2-4.9c0-1.6,0.1-3.1,0.1-4.5l-1.6-0.3c-0.3-0.4-0.6-0.7-0.9-0.8
		c-0.3-0.1-0.6-0.2-0.9-0.2c-0.3,0-0.5-0.1-0.6-0.1c-0.1-0.1-0.2-0.2-0.2-0.5c0-0.2,0.2-0.6,0.6-1s0.7-0.8,0.7-1.2
		c0.1,0,0.2,0,0.2,0.1l1-0.4l0.6-0.8c0.5-0.2,0.9-0.4,1.2-0.8c0.3-0.3,0.6-0.7,0.8-1c0.2-0.3,0.5-0.6,0.7-0.9
		c0.2-0.3,0.5-0.4,0.7-0.5c0-0.2,0.1-0.5,0.1-1l0.8-0.1l0.5-0.4h1.8c0.1,0.6,0.2,1.1,0.3,1.7c0.1,0.5,0.2,1.1,0.3,1.5
		c0.1,0.5,0.4,0.9,0.7,1.2c0.4,0.4,0.9,0.6,1.6,0.9l1-0.7h6.1c0.7,0.6,1.1,1,1.4,1.3c0.3,0.3,0.4,0.9,0.5,1.8
		C400.5,106,400.4,106.6,400.1,106.9z"/>
	<path class="st1" d="M437.7,137c-0.3,0.4-0.6,0.8-1,1h-7.8l-0.2-0.1l-0.5-0.1l-2.3-0.3c-0.2-0.3-0.4-0.7-0.5-1.1
		c-0.1-0.4-0.2-0.8-0.1-1.2c0.8-0.3,1.7-0.5,2.6-0.6l0.8-0.8v-6.5c-0.4-0.6-0.8-1.3-1.1-2.1c0.4-0.8,0.6-1.7,0.6-2.4
		c0-0.8,0-1.6,0-2.5c0-0.1-0.1-0.2-0.2-0.2c-0.1,0-0.3,0-0.4,0.1c0-1.7,0-2.9,0.1-3.8c0-0.9,0-1.6-0.1-2.2c-0.1-0.6-0.5-1.2-1-1.7
		s-1.3-1.4-2.4-2.5h-4.6l-0.7,0.6c-0.7-0.1-1.3,0-1.7,0.5c-0.4,0.5-0.8,1.1-1,1.9c-0.3,0.8-0.4,1.7-0.5,2.6c-0.1,1-0.1,1.9-0.1,2.8
		c0,0.9,0,1.7,0,2.3c0,0.7,0.1,1.1,0.1,1.3c-0.1,0.2-0.3,0.3-0.5,0.3c-0.2,2-0.4,3.9-0.4,5.8c0,1.9,0,3.8,0,5.8l1,1.1
		c0.4,0,0.9,0,1.3,0c0.5,0,0.9,0.1,1.3,0.2l-1.8,2.1l1.2-0.1l-0.8,0.4l0.1,0.3c-1.7,0-3.4,0.1-5.1,0.2c-1.7,0.1-3.4-0.1-4.9-0.7
		l-0.4-1.3l0.6-1.5c0.7-0.2,1.2-0.6,1.5-1c0.3-3.9,0.5-7.6,0.6-11.3c0.1-3.7,0.1-7.3,0.1-10.9c0-3.6-0.1-7.2-0.2-10.8
		c-0.1-3.6-0.1-7.3-0.1-11c-0.3-0.5-0.7-0.8-1.2-1.1c-0.5-0.3-0.8-0.6-1-1l-0.8-0.1c-0.2-0.7-0.3-1.2-0.3-1.6c0-0.4,0.2-0.9,0.5-1.6
		l2.4-0.6l0.2-0.5c2-0.3,3.4-0.7,4.2-1.2c0.8-0.5,1.4-0.7,1.7-0.7c0.3,0,0.6,0.4,0.7,1.2c0.2,0.8,0.6,2.4,1.2,4.6l-0.6,1.6l0.8,2.1
		l-0.8,1.8l0.6,0.8c-0.5,1.1-0.8,2.3-0.9,3.5c-0.1,1.3-0.2,2.5-0.2,3.8s0,2.6,0.1,3.9c0.1,1.3,0.1,2.5,0.1,3.7c1,0,2.1-0.3,3.2-1
		c1.2-0.7,2.1-1.3,2.9-1.8c0.9,0,1.8,0,2.7,0c0.9,0,1.7,0.1,2.4,0.4l2.1,0.1c0.7,0.5,1.2,1,1.7,1.4c0.4,0.4,0.7,1.1,0.9,1.9l1,0.7
		c0.3,0.8,0.6,1.9,0.7,3.3c0.2,1.4,0.3,3,0.3,4.6c0,1.7,0,3.4,0,5.2c0,1.8,0,3.4,0,4.9c0,1.5,0.1,2.8,0.2,3.9c0.1,1.1,0.3,1.7,0.7,2
		l2.1,0.1c0.5,0.5,0.8,1.1,1.1,1.7C438.1,136.2,437.9,136.6,437.7,137z"/>
	<path class="st1" d="M467.8,118c-0.4,0.1-0.9,0.2-1.6,0.3c-0.7,0.1-1.4,0.2-2.1,0.3c-0.7,0.1-1.3,0.1-1.8,0c-0.5,0-0.7-0.2-0.7-0.5
		l-1.3-0.1l-0.3-0.6h-6c-0.1,0-0.2-0.1-0.2-0.2c0-0.1-0.1-0.2-0.3-0.2h-2.9c-0.7,0.7-1.3,1.3-2.1,1.8v5.3l0.6,0.3
		c0.2,0.6,0.4,1.2,0.5,1.8c0.1,0.6,0.2,1.3,0.2,1.9c0.5,0.6,1.1,1.2,1.7,1.8c0.6,0.6,1.3,1,2.1,1.3c0.2,0.5,0.6,0.8,1,1
		c0.4,0.2,0.8,0.3,1.3,0.3c0.5,0,1,0,1.5-0.1c0.5-0.1,1-0.1,1.4-0.1c0.1,0,0.2,0,0.3-0.1c0.1-0.1,0.1-0.2,0-0.3
		c0.6-0.1,1.2-0.2,1.7,0c0.5,0.1,1-0.1,1.3-0.7l1.2-0.1l0.7-1.1c0.5-0.1,1-0.2,1.4-0.3c0.4-0.1,0.7-0.4,1-0.9
		c0.3,0.1,0.6,0.3,0.8,0.4c0.3,0.1,0.5,0.2,0.8,0.3v1.6c-1.6,1.7-2.7,2.9-3.5,3.5c-0.8,0.6-1.4,1-1.9,1.3c-0.5,0.2-1,0.4-1.5,0.6
		c-0.5,0.2-1.2,0.7-2.2,1.5c-2,0-3.5,0-4.3,0.1c-0.8,0-1.5,0-2,0c-0.5-0.1-1-0.2-1.5-0.5c-0.5-0.3-1.5-0.7-2.9-1.3
		c-0.4-0.6-0.8-1.1-1.3-1.6c-0.5-0.5-1-0.9-1.6-1.3l-0.6-2.1l-0.5-0.3c-0.1-0.5-0.2-1-0.3-1.3c-0.1-0.4-0.4-0.7-0.9-1
		c-0.1-0.6-0.3-1.5-0.5-2.8c-0.2-1.2-0.3-2.5-0.4-3.8s0-2.4,0.2-3.5c0.2-1,0.6-1.7,1.3-1.9c0.3-1,0.7-2.1,1.1-3c0.5-1,0.8-2,1.1-3
		c0.5-0.4,1-0.8,1.5-1.2c0.5-0.4,0.8-1,0.9-1.6l5.7-3.5c1.5,0,2.8,0,4,0.1c1.2,0.1,2.5,0.2,3.9,0.4c0.4,0.5,0.9,0.9,1.5,1.3
		c0.6,0.3,1.2,0.7,1.8,1.1s1.2,1,1.8,1.6c0.6,0.6,1,1.5,1.3,2.7l0.5,0.3c0.2,0.9,0.3,1.6,0.5,1.9c0.1,0.3,0.2,0.6,0.2,0.8
		c0,0.2-0.1,0.5-0.2,0.8c-0.1,0.3-0.3,0.9-0.5,1.8L467.8,118z M462.9,110.9c-0.3-0.6-0.6-1-0.8-1.3c-0.1,0-0.3,0-0.4,0
		c-0.1,0-0.3-0.1-0.5-0.1c0-0.2-0.1-0.4-0.2-0.7c-0.1-0.3-0.3-0.4-0.5-0.4h-4.5c-0.6,0.6-1.3,1-2.1,1.3c-0.3,0.4-0.6,0.9-0.8,1.3
		c-0.3,0.4-0.6,0.9-0.9,1.4c0.6,0.6,1.2,1.2,1.8,1.8h3.3c0.2,0,0.3,0.1,0.2,0.2c0,0.1,0,0.2,0.2,0.2h3c0.2,0,0.5-0.1,0.8-0.2
		c0.3-0.1,0.6-0.3,1-0.5c0.3-0.2,0.6-0.5,0.8-0.7s0.3-0.5,0.3-0.8C463.4,112,463.2,111.5,462.9,110.9z"/>
	<path class="st1" d="M492.7,106.9c-0.3,0.3-0.7,0.5-1.2,0.6c-0.5,0-1,0-1.5-0.1c-0.5-0.1-1-0.2-1.5-0.2h-6.2
		c-0.1,0.1-0.3,0.3-0.5,0.7c-0.2,0.4-0.4,0.6-0.4,0.7c0,0.4,0,1.2,0,2.2c0,1.1,0,2.3,0.1,3.7c0,1.4,0.1,2.9,0.1,4.5
		c0.1,1.6,0.2,3.1,0.2,4.6c0.1,1.5,0.2,2.8,0.3,4c0.1,1.2,0.3,2.1,0.5,2.7c0.8,0.7,1.5,1.1,2,1.4s1,0.5,1.5,0.5
		c0.5,0.1,1.1,0.1,1.9,0c0.7-0.1,1.8-0.1,3.1-0.1c0.1,0,0.4-0.1,0.7-0.4c0.4-0.3,0.6-0.4,0.7-0.5V131c0.5,0.5,0.9,1.1,1.2,1.6
		c0.3,0.5,0.4,1,0.4,1.5c0,0.4-0.2,0.8-0.7,1.1s-1.1,0.4-2,0.5c-0.4,0.5-0.8,0.8-1.4,1c-0.6,0.2-1.1,0.5-1.6,0.8
		c-0.8,0.1-1.5,0.2-2.2,0.3c-0.7,0.1-1.5,0.2-2.2,0.3c-0.7,0.1-1.4,0.1-2.2,0c-0.7-0.1-1.5-0.3-2.2-0.6l-0.3-0.6
		c-1,0-1.8-0.5-2.4-1.3c-0.5-0.8-1-1.8-1.3-2.9c-0.3-1.1-0.6-2.2-0.7-3.3c-0.2-1.1-0.4-2-0.7-2.6l0.4-0.6c0.1-1.4,0.2-2.9,0.3-4.6
		c0.1-1.6,0.2-3.3,0.2-5c0.1-1.7,0.1-3.3,0.2-4.9c0-1.6,0.1-3.1,0.1-4.5l-1.6-0.3c-0.3-0.4-0.6-0.7-0.9-0.8
		c-0.3-0.1-0.6-0.2-0.9-0.2c-0.3,0-0.5-0.1-0.6-0.1c-0.1-0.1-0.2-0.2-0.2-0.5c0-0.2,0.2-0.6,0.6-1s0.7-0.8,0.7-1.2
		c0.1,0,0.2,0,0.2,0.1l1-0.4l0.6-0.8c0.5-0.2,0.9-0.4,1.2-0.8c0.3-0.3,0.6-0.7,0.8-1c0.2-0.3,0.5-0.6,0.7-0.9
		c0.2-0.3,0.5-0.4,0.7-0.5c0-0.2,0.1-0.5,0.1-1l0.8-0.1l0.5-0.4h1.8c0.1,0.6,0.2,1.1,0.3,1.7c0.1,0.5,0.2,1.1,0.3,1.5
		c0.1,0.5,0.4,0.9,0.7,1.2c0.4,0.4,0.9,0.6,1.6,0.9l1-0.7h6.1c0.7,0.6,1.1,1,1.4,1.3c0.3,0.3,0.4,0.9,0.5,1.8
		C493.2,106,493,106.6,492.7,106.9z"/>
	<path class="st1" d="M511.1,138.1c-0.9,0.4-2,0.6-3.2,0.6c-1.2,0-2.4,0-3.6-0.1c-1.2-0.1-2.1-0.1-2.7,0.1c-0.3,0-0.6,0-1-0.1
		c-0.4-0.1-0.7-0.3-1.1-0.5s-0.7-0.4-1.1-0.6c-0.4-0.2-0.6-0.4-0.8-0.5c0.3-0.6,0.7-1,1.2-1.2c0.5-0.2,1-0.5,1.6-0.8
		c0.5-0.3,1-0.8,1.4-1.3c0.4-0.6,0.6-1.5,0.6-2.7c0-1.8,0-3.4-0.1-4.8c-0.1-1.4-0.2-2.7-0.2-4s-0.1-2.6-0.1-4c0-1.4,0.2-3,0.4-4.9
		c0-0.4-0.1-0.8-0.4-1.2c-0.3-0.4-0.6-0.8-1-1.2c-0.4-0.4-0.7-0.8-1.1-1.3c-0.3-0.4-0.5-1-0.6-1.5c0-0.3,0.2-0.6,0.9-1
		c0.6-0.4,1.4-0.7,2.2-1c0.8-0.3,1.7-0.6,2.5-0.7c0.8-0.2,1.4-0.3,1.7-0.3c0.6,0,1.1,0.4,1.5,1.2c0.4,0.8,0.6,1.7,0.8,2.9
		c0.2,1.2,0.2,2.4,0.2,3.9c0,1.4,0,2.7-0.1,3.9c-0.1,1.2-0.2,2.3-0.2,3.2c-0.1,0.9-0.1,1.4-0.1,1.6c-0.1,1-0.2,1.8-0.3,2.3
		c0,0.5-0.1,1,0,1.5c0,0.4,0,1,0.1,1.5c0,0.6,0,1.3,0,2.3c0,0.8,0.1,1.6,0.3,2.5c0.2,0.8,0.6,1.6,1.3,2.1c0.3,0.2,0.7,0.5,1.3,0.7
		c0.6,0.2,0.9,0.6,1,1.1C512.5,137,512.1,137.8,511.1,138.1z M508.6,97.7c-0.9,0.6-2,0.9-3.1,0.9c-1.1,0-2.2-0.4-3.1-1.1
		c-0.9-0.7-1.4-1.8-1.4-3.2c0-0.9,0.5-1.5,1.4-1.9c0.9-0.4,2-0.5,3.1-0.4c1.1,0.1,2.2,0.4,3.1,1c0.9,0.5,1.4,1.2,1.4,2.1
		C510,96.2,509.5,97.1,508.6,97.7z"/>
	<path class="st1" d="M541.2,131.9c-0.3,0.4-0.6,0.9-0.7,1.4c-0.6,0.2-1.1,0.6-1.5,1.2c-0.6,0.1-1.1,0.3-1.6,0.7
		c-0.5,0.4-1,0.7-1.4,1.1c-0.4,0-0.7,0.2-1,0.4c-0.3,0.2-0.5,0.5-0.7,0.8c-0.8,0.1-1.6,0.2-2.3,0.2c-0.7,0-1.4,0-2.1,0
		c-0.7,0-1.4,0-2.2-0.1c-0.8,0-1.6,0-2.5,0l-0.2-0.7c-1.3-0.1-2.3-0.4-3-1s-1.3-1.3-1.7-2.1c-0.4-0.8-0.8-1.7-1.1-2.6
		c-0.3-0.9-0.7-1.7-1.2-2.4c-0.4-0.6-0.8-1.2-1.2-1.9c-0.4-0.6-0.7-1.3-0.9-2c-0.4-1.5-0.5-3-0.4-4.7c0.1-1.7,0.2-3.3,0.3-4.8
		c0.7-0.8,1.2-1.8,1.6-2.9c0.4-1.1,0.9-2.1,1.4-3c0.4-0.7,1-1.3,1.6-1.8c0.7-0.5,1.3-0.9,2.1-1.3c0.7-0.4,1.4-0.7,2.1-1.1
		c0.7-0.4,1.3-0.8,1.7-1.3h10.1c0.3,0.4,0.7,0.6,1.1,0.8c0.4,0.2,0.8,0.3,1.2,0.5c0.6,0.7,1.1,1.4,1.7,2.2c0.5,0.8,1.2,1.4,1.9,1.9
		v2.8c-1.2,0.4-2.1,0.6-2.7,0.5c-0.6-0.1-1-0.4-1.3-0.8c-0.3-0.4-0.6-1-0.9-1.6c-0.3-0.7-0.7-1.4-1.3-2.1c-0.4-0.1-0.8-0.2-1.2-0.4
		c-0.4-0.2-0.7-0.5-0.8-0.8h-4l-0.3,0.6c-1,0.1-2,0.6-2.8,1.4s-1.6,1.9-2.2,3.2c-0.6,1.3-1.1,2.7-1.4,4.2c-0.4,1.5-0.6,3-0.7,4.5
		c-0.1,1.5-0.1,2.9,0,4.2c0.1,1.3,0.4,2.3,0.7,3.2c0.4,0.8,1,1.6,1.8,2.4c0.8,0.8,1.6,1.5,2.2,2.2h5.2l2.7-2.2h3.6
		c0.2-0.3,0.4-0.6,0.8-0.7c0.3-0.2,0.6-0.3,0.9-0.5h1.6v1.7C542,131.1,541.5,131.4,541.2,131.9z"/>
</g>
<g class="st0">
	<path class="st1" d="M411.6,225.3h-1.4c-0.3-0.3-0.6-0.5-1-0.7c-0.4-0.2-0.7-0.4-1.1-0.7c-0.5-1.2-1.1-2.4-1.7-3.6
		c-0.6-1.2-1.3-2.4-1.9-3.6h-5.4l-0.6-0.5c-0.8,0-1.8-0.1-3-0.2c-1.2-0.1-2.4-0.2-3.5-0.2c-1.2,0-2.3,0.2-3.3,0.5
		c-1,0.3-1.8,0.9-2.3,1.8c-0.1,0.2-0.2,0.5-0.3,0.9c-0.1,0.4-0.2,0.6-0.3,0.9c-0.2,1-0.3,2.1-0.2,3.2c0.1,1.2,0.2,2.3,0.4,3.5
		c0.2,1.2,0.3,2.3,0.4,3.5c0.1,1.2,0,2.2-0.1,3.2c0,0.2-0.1,0.7-0.2,1.3c-0.1,0.6-0.1,1.3-0.1,1.9c0,0.6,0.2,1.2,0.4,1.6
		c0.2,0.4,0.7,0.5,1.3,0.2c1.4-0.5,2.9-0.7,4.5-0.6c1.7,0.1,3.2,0.1,4.7,0.1c0.7-0.5,1.2-1,1.5-1.5c0.3-0.5,0.6-1.1,0.7-1.6
		s0.2-1.2,0.3-1.8c0-0.6,0.1-1.3,0.3-2.1h2.8c0.2,0.7,0.3,1.4,0.4,2.2c0.1,0.7,0.2,1.5,0.2,2.2c0.1,0.7,0.2,1.4,0.3,2.1
		c0.1,0.7,0.3,1.3,0.6,1.9l-0.5,1.5c0.2,0.6,0.3,1.4,0.3,2.3c0,0.9,0,1.9,0,2.8c0,0.9,0,1.8-0.1,2.6c0,0.8,0.1,1.3,0.3,1.6h-3.8
		c-0.1-0.6-0.2-1.3-0.3-2c-0.1-0.7-0.1-1.4-0.2-2.1c-0.1-0.7-0.2-1.4-0.4-2c-0.2-0.7-0.4-1.3-0.7-1.8h-6.6c-0.1,0-0.2,0-0.2,0.1
		c-0.1,0.1-0.1,0.2,0,0.3l-2.9,0.4c-0.2,0.7-0.2,1.5-0.1,2.3l-1.3,0.1c-0.1,0.1-0.2,0.6-0.2,1.3c0,0.8-0.1,1.7-0.1,2.7
		c0,1,0,2.2,0,3.4c0,1.2,0,2.3,0.1,3.4c0,1.1,0.1,2,0.1,2.8c0,0.8,0.1,1.3,0.2,1.6c0.6,0.2,1.3,0.5,2.1,0.8c0.8,0.4,1.6,0.7,2.4,1.1
		c0.8,0.4,1.6,0.8,2.3,1.3c0.8,0.4,1.4,0.8,1.8,1.2l-1.2,1.8c-1.8,0.4-3.7,0.6-5.5,0.4c-1.8-0.2-3.7-0.2-5.7-0.2l-0.5,0.5h-8.1
		c-0.1-0.2-0.4-0.4-0.8-0.5s-0.8-0.2-1-0.1c-0.4-0.6-0.8-1.3-1.1-2.1c0.2-0.6,0.5-1.2,0.8-1.8s0.6-1.1,0.9-1.6l3.5-0.6
		c0.6-0.3,1.1-0.8,1.3-1.6c0.3-0.8,0.5-1.6,0.5-2.5c0.1-0.9,0-1.8-0.1-2.6c-0.2-0.8-0.4-1.5-0.7-1.9c0.2-0.3,0.3-1.3,0.4-2.9
		c0.1-1.6,0.1-3.5,0-5.8c0-2.2-0.1-4.6-0.2-7.2s-0.2-4.9-0.3-7.2c-0.1-2.2-0.2-4.1-0.3-5.7s-0.1-2.5-0.1-2.7c0-0.2-0.2-0.6-0.6-1.2
		c-0.4-0.6-0.7-1-0.8-1.2c-0.6,0.2-1.1,0.4-1.5,0.4c-0.4,0-0.9,0-1.6,0c-0.5-0.7-1.1-1.3-1.6-1.9c-0.5-0.6-1.1-1.3-1.6-1.9l1.1-1.8
		c0.3-0.1,0.6-0.3,1-0.4c0.3-0.1,0.6-0.3,0.8-0.5h3.3l0.3-0.7c0.6-0.1,1.2-0.2,1.8-0.4s1.2-0.2,1.8-0.2c0.6,0,1.1,0.2,1.6,0.4
		c0.5,0.2,0.8,0.7,1.1,1.4h19.3l0.2,0.7h4.2l1.1-0.8c0.4,0.1,0.9,0.3,1.4,0.7c0.5,0.4,1,0.6,1.5,0.7c0.2,1,0.4,2,0.5,2.8
		c0.2,0.8,0.3,1.6,0.5,2.4c0.1,0.8,0.3,1.6,0.4,2.5c0.1,0.9,0.1,2,0.1,3.2L411.6,225.3z"/>
	<path class="st1" d="M428.4,267.2c-0.9,0.4-2,0.6-3.2,0.6c-1.2,0-2.4,0-3.6-0.1c-1.2-0.1-2.1-0.1-2.7,0.1c-0.3,0-0.6,0-1-0.1
		c-0.4-0.1-0.7-0.3-1.1-0.5c-0.4-0.2-0.7-0.4-1.1-0.6c-0.4-0.2-0.6-0.4-0.8-0.5c0.3-0.6,0.7-1,1.2-1.2c0.5-0.2,1-0.5,1.6-0.8
		c0.5-0.3,1-0.8,1.4-1.3c0.4-0.6,0.6-1.5,0.6-2.7c0-1.8,0-3.4-0.1-4.8c-0.1-1.4-0.2-2.7-0.2-4c-0.1-1.3-0.1-2.6-0.1-4
		c0-1.4,0.2-3,0.4-4.9c0-0.4-0.1-0.8-0.4-1.2c-0.3-0.4-0.6-0.8-1-1.2c-0.4-0.4-0.7-0.8-1.1-1.3c-0.3-0.4-0.5-1-0.6-1.5
		c0-0.3,0.2-0.6,0.9-1c0.6-0.4,1.4-0.7,2.2-1c0.8-0.3,1.7-0.6,2.5-0.7c0.8-0.2,1.4-0.3,1.7-0.3c0.6,0,1.1,0.4,1.5,1.2
		c0.4,0.8,0.6,1.7,0.8,2.9c0.2,1.2,0.2,2.4,0.2,3.9c0,1.4,0,2.7-0.1,3.9c-0.1,1.2-0.2,2.3-0.2,3.2c-0.1,0.9-0.1,1.4-0.1,1.6
		c-0.1,1-0.2,1.8-0.3,2.3c0,0.5-0.1,1,0,1.5c0,0.4,0,1,0.1,1.5c0,0.6,0,1.3,0,2.3c0,0.8,0.1,1.6,0.3,2.5c0.2,0.8,0.6,1.6,1.3,2.1
		c0.3,0.2,0.7,0.5,1.3,0.7c0.6,0.2,0.9,0.6,1,1.1C429.8,266.2,429.3,266.9,428.4,267.2z M425.8,226.8c-0.9,0.6-2,0.9-3.1,0.9
		c-1.1,0-2.2-0.4-3.1-1.1c-0.9-0.7-1.4-1.8-1.4-3.2c0-0.9,0.5-1.5,1.4-1.9c0.9-0.4,2-0.5,3.1-0.4c1.1,0.1,2.2,0.4,3.1,1
		c0.9,0.5,1.4,1.2,1.4,2.1C427.3,225.3,426.8,226.2,425.8,226.8z"/>
	<path class="st1" d="M462.5,265.8c-0.3,0.3-0.5,0.6-0.8,0.7c-1.2,0.2-2.4,0.4-3.5,0.5c-1.1,0.1-2.3,0.1-3.6,0.1
		c-0.6-0.7-1-1.5-1.3-2.3c0.1-0.5,0.3-0.9,0.5-1.3c0.2-0.4,0.3-0.8,0.4-1.3c-0.2-0.5-0.5-0.8-0.8-0.9c-0.2-1.2-0.7-2.3-1.4-3.3
		c-0.7-1-1.2-2.1-1.5-3.3c-0.5-0.1-1-0.2-1.4-0.2c-0.4,0-0.8,0.1-1.3,0.5c-0.2,0.5-0.4,0.9-0.6,1.2c-0.1,0.3-0.3,0.5-0.5,0.7
		c-0.2,0.2-0.4,0.4-0.6,0.6c-0.2,0.2-0.5,0.4-0.9,0.8c0,1.1,0,1.8,0,2.2c0,0.4-0.1,0.7-0.1,0.8c-0.1,0.2-0.2,0.4-0.3,0.6
		c-0.1,0.2-0.3,0.7-0.5,1.5l0.5,1.1l1.5,0.4l0.2,0.4l0.6,0.3v1.6h-5.9c-0.3,0-0.4-0.1-0.4-0.4l-0.1,0.4h-4.1
		c-0.1-0.2-0.3-0.3-0.7-0.4c-0.4,0-0.7-0.1-0.8-0.1l-0.5-1.5l0.4-1.3c0.6-0.5,1.2-0.8,1.7-1c0.5-0.1,1.2-0.2,2-0.3
		c0.4-0.7,0.8-1.2,1.2-1.6c0.4-0.4,0.7-1,0.9-1.8c0.7-0.3,1.1-0.8,1.3-1.4c0.2-0.7,0.3-1.3,0.4-1.9l0.6-0.2l0.1-0.9
		c0.4-0.4,0.8-0.8,1.1-1.3c0.4-0.5,0.7-1,0.9-1.5c-0.1-0.3-0.2-0.6-0.2-0.8c-0.1-0.3-0.2-0.5-0.3-0.8l-0.8-0.3
		c-0.2-0.3-0.4-0.6-0.6-1c-0.2-0.3-0.5-0.6-0.8-0.7c-0.1-0.4-0.3-0.8-0.7-1.3c-0.4-0.5-0.8-1.1-1.2-1.6c-0.4-0.6-0.9-1.1-1.3-1.7
		c-0.4-0.5-0.7-1-0.8-1.5l-1.8-1.3l-0.6-2.1c-0.6-0.5-1.2-1.1-1.7-1.6s-0.8-1.1-1-1.7c-0.1-0.5,0-1,0.5-1.5c0.4-0.4,1.3-0.8,2.6-1.1
		c0.7,0.3,1.4,0.4,2,0.4c0.7,0,1.4,0,2.2,0l0.1,0.7l0.1-0.6h4.9c0.1,0.4,0.3,0.8,0.4,1.1c0.1,0.3,0.4,0.6,0.8,0.8v1.6
		c-0.6,0.2-1.1,0.6-1.5,1.1c-1.1,0-1.8,0.3-2.1,0.6c-0.3,0.4-0.4,0.8-0.3,1.2c0.1,0.4,0.5,0.9,1,1.3c0.5,0.4,1.1,0.7,1.8,0.8
		c0.1,0.5,0.2,1,0.3,1.5c0,0.5,0,1-0.3,1.4h1.6l0.5,1.7l0.6,0.1c1.1-0.5,1.9-1,2.5-1.7c0.6-0.7,1-1.3,1.3-2c0.3-0.6,0.6-1.2,0.7-1.7
		c0.2-0.5,0.4-0.9,0.8-1.1v-2.6h-3.6c-0.2-0.5-0.4-1.1-0.5-1.7c0.1-0.3,0.3-0.6,0.6-0.9s0.5-0.5,0.7-0.8h3l0.9-0.7
		c0.2,0.1,0.4,0.2,0.5,0.4s0.3,0.3,0.4,0.4h3.4c0.2-0.5,0.5-0.8,0.8-0.8c0.4,0,0.8,0.1,1.1,0.4c0.4,0.2,0.7,0.6,1,1
		c0.3,0.4,0.5,0.8,0.6,1.1c-0.2,0.4-0.4,0.7-0.8,1s-0.7,0.5-1,0.7c-0.4,0.2-0.7,0.4-1.1,0.6c-0.4,0.2-0.8,0.4-1.1,0.7l-0.6,2.5
		c-0.2,0-0.6,0.4-1.1,1c-0.5,0.6-0.9,1.3-1.4,2.1c-0.5,0.8-0.9,1.5-1.3,2.3c-0.4,0.7-0.6,1.2-0.7,1.5c-0.8,0.4-1.2,0.9-1.2,1.6
		c0,0.7,0.4,1.2,1.2,1.6c0.1,0.8,0.4,1.5,0.8,2.1s0.9,1.1,1.5,1.7s1.1,1.2,1.7,1.9c0.5,0.7,1,1.6,1.2,2.6l0.5,0.3
		c0.1,1.1,0.5,2,1.3,2.7c0.8,0.7,1.5,1.5,2.2,2.2C463,265.2,462.8,265.5,462.5,265.8z"/>
	<path class="st1" d="M525.8,262.2c-0.4,0.5-0.9,0.9-1.3,1.4c-0.4,0.4-0.9,0.9-1.3,1.4c-0.4,0.5-0.8,1-1.1,1.6
		c-1.2,0.2-2.2,0.3-3,0.3c-0.8,0-1.8-0.1-2.9-0.3c-0.1,0.2-0.5,0.3-1.1,0.4c-0.7,0.1-1.5,0.2-2.4,0.2c-0.9,0-2,0.1-3.1,0.1
		s-2.2,0-3.2,0c-1,0-1.9,0-2.7-0.1c-0.8,0-1.3,0-1.6,0l-0.5-0.6h-2.9l-0.6,0.6h-4.4l-1.4-1.9v-1.8l2.5-0.1l0.3-0.6l1.1-0.4
		c0.3-0.9,0.5-1.9,0.6-2.9c0.1-1,0.2-2.1,0.2-3.2c0-1.1,0-2.2,0-3.3c0-1.1,0-2.1,0-3l0.6-0.4c-0.3-0.8-0.5-1.7-0.7-2.8
		c-0.2-1.1-0.3-2.2-0.3-3.3s-0.1-2.3-0.1-3.4s0-2.1,0-3v-20.2c0-0.6-0.2-1-0.5-1.3c-0.4-0.2-0.8-0.4-1.2-0.5c-0.5-0.1-1-0.1-1.5-0.1
		c-0.5,0-0.8-0.1-1.1-0.2c-0.1-0.1-0.4-0.3-0.8-0.5c-0.4-0.2-0.7-0.3-0.8-0.2l-0.3-1.2c0.3-0.6,0.8-1.2,1.4-1.8
		c1.1-0.2,2.1-0.4,2.9-0.5c0.9-0.1,1.9-0.1,3.2-0.1l0.8,0.6h9.3l0.2,0.8h0.7l0.2-0.8h6.3l0.2,0.6l3.6,0.7c0.7,0.6,1.4,1.2,2.2,1.7
		c0.8,0.5,1.5,1,2.3,1.5c0.2,0.4,0.4,1,0.7,1.6c0.3,0.6,0.5,1.3,0.8,1.9c0.3,0.6,0.6,1.2,0.9,1.7c0.3,0.5,0.7,0.9,1.1,1.2
		c0.6,1.9,0.7,3.3,0.3,4.4c-0.4,1-1,1.9-1.9,2.5c-0.8,0.7-1.8,1.3-2.9,1.9c-1.1,0.6-1.9,1.5-2.7,2.5c0.4,0.7,0.8,1.3,1.4,1.8
		c0.5,0.5,1.1,0.9,1.7,1.3c0.6,0.4,1.2,0.8,1.8,1.2s1.2,0.9,1.6,1.5c1.3,1.6,2.2,3.2,2.8,5.1c0.6,1.8,0.8,3.7,0.8,5.6
		c0,1.8-0.3,3.7-0.8,5.6c-0.5,1.9-1.3,3.6-2.2,5.3C526.7,261.2,526.3,261.7,525.8,262.2z M520.9,219.9c-0.4-0.7-1-1.4-1.6-2.1
		c-0.6-0.7-1.2-1.3-1.8-1.9c-0.6-0.6-1.1-0.9-1.6-1.1l-0.4,0.1l-0.5-0.8c-0.7,0-1.3-0.1-1.9-0.3c-0.6-0.2-1.2-0.3-1.8-0.3h-5.6
		c-0.7,0.6-1.3,1.3-1.9,1.9c-0.6,0.7-0.9,1.5-0.8,2.5l0.3,14c0.5,0.3,0.9,0.7,1.4,1.3c1.7,0,3,0,3.8,0c0.8-0.1,1.5-0.2,2.1-0.3
		c0.6-0.1,1.2-0.3,1.8-0.4c0.6-0.2,1.6-0.3,2.9-0.5c0.1-0.5,0.4-0.7,0.8-0.7c0.4,0,0.7,0.3,0.7,0.8h1.5c0.5-0.6,1-1.3,1.4-2.2
		c0.4-0.9,0.8-1.9,1.1-2.9s0.5-2,0.6-3s0.2-1.9,0.1-2.6C521.6,221.1,521.3,220.6,520.9,219.9z M524.2,245.7
		c-0.2-0.8-0.4-1.5-0.6-2.2c-0.2-0.7-0.4-1.5-0.7-2.2s-0.7-1.4-1.3-2.1c-0.5-0.1-1-0.2-1.5-0.4c-0.5-0.1-0.9-0.5-1.1-1
		c-1.2-0.4-2.1-0.7-2.9-0.8c-0.8-0.1-1.7-0.3-2.8-0.4l-0.4-0.6c-0.5,0-1-0.1-1.6-0.2c-0.5-0.2-1-0.3-1.5-0.4c-0.1,0-0.2,0-0.4,0.1
		c-0.1,0-0.3,0.1-0.4,0.1c-0.7,0.1-1.3,0.2-1.9,0.3c-0.6,0.1-1.3,0.1-1.9,0.2c-0.4,0.4-0.9,0.9-1.3,1.5c-0.4,0.6-0.7,1.2-0.7,1.7
		l0.3,21.5c0.3,0.1,0.6,0.2,0.8,0.5c0.3,0.2,0.5,0.5,0.6,0.8l2.3,0.2l0.1,0.3l0.4,0.2l0.7-0.6h6.5c0.1-0.3,0.3-0.5,0.6-0.6
		c0.2-0.1,0.5-0.2,0.8-0.2c0.3,0,0.7-0.3,1.2-0.6c0.5-0.4,1-0.8,1.5-1.2c0.5-0.4,0.9-0.9,1.3-1.2c0.4-0.4,0.7-0.6,0.9-0.6
		c0.3-0.6,0.7-1.3,1.1-2c0.4-0.7,0.8-1.5,1.1-2.2c0.3-0.7,0.6-1.5,0.8-2.3c0.2-0.8,0.2-1.5,0.1-2.2l0.4-0.8
		C524.6,247.2,524.4,246.4,524.2,245.7z"/>
	<path class="st1" d="M562.6,266c-0.8,0.3-1.7,0.5-2.8,0.6l-0.3,0.6c-0.4,0.1-0.8,0.2-1.2,0.2c-0.4,0.1-0.8,0.2-1.2,0.3l-2.1-0.5
		c-0.4-0.9-0.5-1.8-0.5-2.7c-1-0.3-1.8-0.3-2.4-0.1c-0.6,0.2-1.1,0.4-1.5,0.7c-0.4,0.3-0.9,0.6-1.5,0.9c-0.5,0.3-1.2,0.4-2.1,0.4
		l-0.8,0.8h-3.3l-0.2-0.6c-0.5-0.2-1-0.5-1.4-0.7c-0.4-0.3-0.8-0.5-1.3-0.7c-0.2-0.6-0.6-1.2-1.1-1.8c-0.5-0.6-0.9-1.1-1.3-1.6
		c-0.1-0.4-0.1-0.9,0-1.4c0.1-0.5,0.3-1,0.4-1.6c0.1-0.5,0.2-1.1,0.1-1.7c0-0.6-0.2-1.1-0.7-1.6v-12.7c0-0.1,0-0.2,0.1-0.3
		c0.1-0.1,0.2-0.1,0.2,0c0.2-0.9,0.4-1.8,0.4-2.7c0-0.8,0-1.8,0-2.8c-0.8-0.2-1.5-0.5-2.2-0.9c-0.7-0.4-1.4-0.7-2-1.1v-2.3h4.7
		l0.8,0.5h4.7c0.3,0.4,0.7,0.7,1.1,0.7v2.9c-0.3,0.1-0.6,0.3-0.7,0.6c-0.2,0.3-0.3,0.6-0.4,1c-0.1,0.4-0.2,0.7-0.4,1.1
		c-0.1,0.4-0.3,0.7-0.5,1v17.8l0.6,0.3l0.6,1.9l1.8,1.4h5.6c0.3,0,0.6-0.3,1-1c0.4-0.7,0.7-1.5,1-2.3c0.3-0.9,0.6-1.7,0.8-2.6
		c0.2-0.8,0.3-1.4,0.3-1.7v-14.4c0-0.1-0.1-0.3-0.3-0.5c-0.2-0.2-0.5-0.4-0.7-0.7c-0.3-0.3-0.6-0.5-0.8-0.7
		c-0.3-0.2-0.4-0.4-0.5-0.5l-3.4-0.6c-0.2-0.7-0.3-1.3-0.1-1.7c0.1-0.4,0.4-0.8,0.8-1.1c0.4-0.3,0.8-0.5,1.4-0.7
		c0.5-0.2,1.1-0.4,1.6-0.6c0.1,0.2,0.5,0.4,1.1,0.5c0.6,0.1,1.3,0.1,2,0.1s1.4,0,2.1-0.1c0.7,0,1.2-0.1,1.5-0.1
		c0.1,0.4,0.3,0.6,0.5,0.7c0.3,0.1,0.5,0.1,0.8,0.1s0.6,0,0.9-0.1c0.3,0,0.6,0,0.7,0.1c0.1,0.5,0.2,1,0.4,1.6c0.2,0.5,0.3,1,0.4,1.6
		c0,0.7-0.1,1.1-0.2,1.5c-0.1,0.3-0.2,0.6-0.3,0.9c-0.1,0.3-0.1,0.6-0.1,1.1c0,0.4,0.1,1,0.4,1.8c-0.5,2-0.9,4.1-1.2,6.3
		c-0.3,2.2-0.4,4.4-0.3,6.5c0,0.3,0.1,0.7,0.2,1c0.2,0.3,0.2,0.7,0.2,1c0,0.7-0.1,1.3-0.4,1.8c-0.2,0.5-0.2,1.2,0,1.9
		c0.5,0.3,1,0.5,1.7,0.5c0.2,0.4,0.5,0.8,0.7,1.2c0.3,0.4,0.5,0.8,0.6,1.3C564.1,265,563.4,265.7,562.6,266z"/>
	<path class="st1" d="M601.2,240.7c-0.8,0.8-1.9,1.1-3.4,0.9l-0.4,0.6l-1.7,0.1l-0.6,1.1c0.1,0.5,0.3,0.9,0.5,1.4
		c0.2,0.4,0.5,0.8,0.9,1.2c0.1,1.1,0.2,2.1,0.2,3s-0.1,1.7-0.2,2.4c-0.1,0.8-0.3,1.6-0.6,2.4c-0.2,0.8-0.5,1.8-0.7,2.8
		c-1.3,1.4-2.5,2.3-3.6,2.8c-1.1,0.5-2,0.9-2.9,1.1c-0.8,0.2-1.6,0.4-2.3,0.6c-0.7,0.2-1.4,0.6-2,1.2c-0.6,0-1.3,0-2.1,0.1
		c-0.8,0.1-1.5,0.4-2.2,0.8c-0.6,0.4-1.1,0.9-1.5,1.6c-0.4,0.6-0.3,1.4,0,2.2c0.7,0.6,1.5,0.8,2.4,0.8c1,0,1.9-0.1,2.7-0.1
		c0.3,0,0.8,0,1.5-0.1c0.7,0,1.4-0.1,2.2-0.2c0.8-0.1,1.5-0.1,2.3-0.2c0.8,0,1.4-0.1,1.9-0.1l0.5,0.5h5.3c2,2.1,3.5,4.3,4.5,6.7
		c1,2.4,1.5,4.6,1.2,6.7c-0.2,2.1-1.1,4-2.8,5.7c-1.7,1.7-4.2,2.8-7.6,3.5c-1.2-0.5-2.5-0.7-4-0.6c-1.4,0.1-2.8,0.1-4.1,0.1
		c-0.3,0.2-0.7,0.3-1.2,0.3c-0.5,0-1.1,0-1.7,0c-0.6,0-1.2-0.1-1.7-0.2c-0.6-0.1-1-0.1-1.3-0.1l-0.2-0.7c-1.7-0.1-3-0.4-4.1-0.8
		c-1.1-0.4-2.1-1.4-3.1-2.9c0-1.8-0.1-3.3-0.2-4.3c-0.1-1,0-1.9,0.2-2.6c0.2-0.7,0.7-1.4,1.5-2.1c0.7-0.7,1.9-1.6,3.6-2.8l-0.9-1.6
		c-1.5,0.3-2.6,0.1-3.2-0.6c-0.6-0.8-1-1.7-1-2.9c-0.1-1.2,0-2.5,0.4-3.8c0.3-1.3,0.6-2.4,1-3.1c0.8,0.1,1.6,0,2.4-0.2
		c0.8-0.2,1.4-0.7,1.8-1.5c-0.2-0.6-0.6-1.1-1-1.5c-0.4-0.4-0.9-0.7-1.4-1c-0.3-0.7-0.7-1.4-1.3-2.2c-0.6-0.8-0.9-1.5-1-2.2
		c-0.1-0.6-0.1-1.1-0.1-1.5c0-0.4-0.2-0.9-0.7-1.5v-7.2l0.6-0.2c0.2-1,0.5-1.9,1-2.7c0.5-0.8,1-1.7,1.5-2.6c0.8-0.3,1.4-0.9,1.8-1.6
		c0.4-0.7,0.9-1.4,1.2-2.1h3.6l0.8,0.5h5.7l0.2,0.7c1.3,0.3,2.6,0.5,4,0.6c0.4,0.4,0.8,0.7,1.2,0.9c0.4,0.2,0.7,0.3,1,0.3
		c0.4,0,0.8-0.1,1.2-0.2c0.4-0.1,0.9-0.2,1.4-0.4l0.2-0.6h4.5c0,0.1,0,0.2,0,0.5c0,0.2,0,0.4,0,0.6c0,0.2,0.1,0.4,0.2,0.6
		c0.1,0.2,0.3,0.2,0.5,0.1C602.3,238.8,602,240,601.2,240.7z M598,278.4c0-0.6,0-1.1-0.1-1.7c-0.1-0.5-0.3-1-0.6-1.6
		c-0.3-0.5-0.8-1.1-1.4-1.8c-0.2,0-0.4-0.1-0.6-0.2c-0.2-0.1-0.3-0.3-0.4-0.5c-1-0.1-1.8-0.2-2.4-0.3c-0.6-0.1-1.2-0.1-1.7-0.1
		c-0.6,0-1.2,0-2-0.1c-0.8,0-1.8,0-3.1,0c-0.5,0.4-1.1,0.8-1.8,1.1c-0.7,0.3-1.3,0.5-1.9,0.8l-0.3,0.6c-1.1,0.1-1.9,0.5-2.4,1.2
		c-0.4,0.6-0.8,1.4-1.1,2.4l-0.6,0.2c-0.3,1.9-0.3,3.3,0.1,4.2c0.3,0.9,0.8,1.7,1.4,2.2c0.6,0.5,1.2,0.9,1.8,1.1
		c0.6,0.2,1.1,0.6,1.3,1.1h8.5c0.1-0.3,0.3-0.5,0.5-0.6c0.2-0.1,0.4-0.2,0.7-0.2c0.3-0.1,0.5-0.1,0.8-0.2c0.3-0.1,0.5-0.2,0.7-0.4
		c0.8-0.6,1.6-1.4,2.3-2.3c0.7-0.9,1.4-1.8,2.1-2.6C597.9,279.7,598,279,598,278.4z M583.3,239.2l-0.3-0.4l-0.4-0.2v0.7h-2
		c-0.4,0.9-0.8,1.9-1.2,2.8c-0.4,0.9-0.9,1.8-1.3,2.7c0,0.1-0.2,0.3-0.3,0.6c-0.2,0.3-0.2,0.5-0.2,0.5c0,0.8-0.1,1.6,0,2.4
		c0,0.8,0,1.6,0,2.4c0.3,0.1,0.6,0.4,0.7,0.7c0.1,0.3,0.2,0.6,0.3,1c0.1,0.4,0.1,0.7,0.1,1.1c0,0.4,0.1,0.6,0.2,0.9
		c0.2,0.4,0.4,0.9,0.7,1.3c0.3,0.4,0.7,0.9,1.1,1.2c0.4,0.4,0.8,0.7,1.3,0.9c0.5,0.2,1,0.3,1.5,0.3l0.1,0.3l0.5,0.2
		c0.6-0.1,1.1-0.3,1.7-0.5c0.5-0.2,1.1-0.4,1.6-0.6c0.1-0.2,0.3-0.5,0.5-0.7c0.2-0.3,0.4-0.4,0.8-0.5c1-1.5,1.7-2.8,2-4.1
		c0.3-1.2,0.5-2.5,0.4-3.7c-0.1-1.2-0.3-2.5-0.6-3.8c-0.4-1.3-0.7-2.7-1.1-4.4L583.3,239.2z"/>
	<path class="st1" d="M628.3,253.8v0.4c0,0.3,0,0.6,0,0.9c0,0.3,0,0.6,0,0.9v0.4l-0.1,6.2c-0.4,0.6-1,1.1-1.6,1.6
		c-0.7,0.5-1.3,0.9-1.9,1.2c-0.6,0.4-1.3,0.7-2.2,1.2c-1.7,0.2-3,0.4-4,0.5s-1.8,0.2-2.4,0.2c-0.6,0-1.1,0-1.5-0.1
		c-0.4-0.1-0.7-0.2-1.1-0.5c-0.4-0.2-0.9-0.5-1.4-0.8c-0.5-0.4-1.3-0.8-2.3-1.2c-0.3-0.6-0.7-1.1-1.2-1.6c-0.2-1-0.4-1.9-0.5-2.5
		c-0.1-0.7-0.1-1.2,0-1.8c0.1-0.5,0.3-1.1,0.5-1.7c0.3-0.6,0.6-1.4,1.1-2.3h1.6c0.5,1.1,1,2.2,1.4,3.3c0.4,1.1,0.8,2.2,1.2,3.4
		c-0.4,0.3-0.8,0.6-1.2,0.7c0.1,0.4,0.4,0.7,0.6,1c0.4,0,0.7,0.1,1.1,0c0.3,0,0.7-0.2,1-0.4h2.9l0.5,0.4c0.5-0.1,1.1-0.3,1.6-0.6
		c0.6-0.3,1.1-0.7,1.5-1.1c0.4-0.4,0.8-1,1.1-1.5c0.3-0.6,0.5-1.2,0.5-1.8c0-2-0.1-3.5-0.2-4.5s-0.5-1.7-1.1-2.1
		c-0.6-0.4-1.4-0.6-2.5-0.6c-1.1,0-2.6,0-4.6,0l-0.2-0.6c-0.9-0.1-1.7-0.4-2.3-0.6c-0.4-0.7-0.9-1.1-1.6-1.1
		c-0.7-0.8-1.2-1.7-1.6-2.8c-0.3-1.1-0.5-2.2-0.5-3.4c0-1.2,0.2-2.3,0.6-3.4c0.4-1.1,0.9-2,1.5-2.8c0.4-0.1,0.7-0.3,1.1-0.6
		c0.3-0.2,0.7-0.5,1-0.7c0.3-0.3,0.7-0.5,1-0.6c0.3-0.2,0.7-0.2,1.1-0.2l0.1-0.6h3.3c0,0,0.2-0.1,0.4-0.1c0.2,0,0.5,0,0.8,0
		c0.3,0,0.6,0.1,0.8,0.1c0.3,0,0.4,0,0.5,0l0.3,0.6c0.6,0.2,1.1,0.3,1.6,0.4c0.4,0.1,0.8,0.2,1.2,0.4c0.4,0.1,0.8,0.3,1.2,0.5
		c0.4,0.2,0.8,0.5,1.4,1c0.2,0.8,0.4,1.4,0.5,1.8c0.1,0.4,0.2,0.9,0.2,1.2c0,0.4,0,0.8-0.1,1.3c-0.1,0.5-0.3,1.1-0.6,1.9h-2.1
		c-0.2-0.4-0.5-0.7-0.8-1.1c-0.3-0.4-0.7-0.6-1.2-0.7c-0.4-0.9-1-1.9-1.8-2.8c-0.8-0.9-1.7-1.5-2.7-1.8c-0.5,0.1-0.8,0.3-1,0.6
		c-1.1,0-2,0.5-2.7,1.5c-0.7,1-1,2-1,3c0,0.6,0.1,1.1,0.2,1.5c0.2,0.4,0.4,0.7,0.6,1c0.2,0.3,0.5,0.5,0.7,0.7
		c0.2,0.2,0.4,0.5,0.5,0.7c0.7,0.4,1.4,0.6,2.2,0.6c0.8,0,1.6-0.1,2.4-0.1c0.2,0.1,0.3,0.2,0.3,0.4l1.8,0.1l0.4,0.6
		c2,0.3,3.4,1.1,4.2,2.3C627.7,250.5,628.2,252,628.3,253.8c0,0,0.1,0.2,0.1,0.6C628.3,254.2,628.3,253.9,628.3,253.8z M628.3,253.8
		c0,0.1,0.1,0.4,0.1,0.6C628.3,254,628.3,253.8,628.3,253.8z"/>
</g>
<g class="st0">
	<path class="st1" d="M472.7,348.1c-0.3,0.1-0.7,0.2-1,0.2l-0.1,0.4l-1.6,0.1l-0.3,0.4c0.1,0.8,0,1.4-0.1,2c-0.2,0.6-0.3,1.3-0.3,2
		l-0.4,0.2c0,1.8,0,3.6,0,5.3c0,1.7,0,3.5,0.1,5.3c0.1,1.5,0,3-0.3,4.5c-0.2,1.5-0.4,3-0.4,4.5c0,0.1,0.1,0.4,0.2,0.9
		c0.1,0.5,0.3,1.1,0.4,1.7c0.2,0.6,0.3,1.2,0.4,1.7c0.1,0.5,0.2,0.9,0.3,1c0.3,0.3,0.5,0.6,0.7,0.7c0.2,0.2,0.3,0.3,0.5,0.3
		c0.2,0.1,0.3,0.1,0.5,0.2c0.2,0,0.5,0.1,0.9,0.2c0.2,0.6,0.2,1.1,0.1,1.7c-0.3,0.1-0.6,0.1-0.8,0.2c-0.2,0.1-0.4,0.1-0.6,0.1
		c-0.2,0-0.4,0-0.6-0.1c-0.2-0.1-0.5-0.2-0.8-0.3l-0.2-0.4c-0.5-0.1-1-0.1-1.6,0.2c-0.6,0.2-1.1,0.5-1.6,0.7l-1.1-0.4
		c-0.1-0.2-0.1-0.5-0.1-0.8c0-0.3,0-0.6,0-0.9c0-0.3,0.1-0.6,0.1-0.9c0.1-0.3,0.2-0.5,0.3-0.7l-0.4-0.6l-0.8-0.3
		c-0.9,1-1.8,1.7-2.6,2.3c-0.8,0.6-1.8,1.1-2.9,1.6c-1.1,0.5-2.4,0.8-3.8,0.8c-0.6,0-1.3-0.1-2-0.2c-0.7-0.2-1.4-0.5-2.1-0.8
		c-0.7-0.3-1.5-0.7-2.3-1.2c-0.8-0.5-1.6-0.9-2.4-1.4c-0.3-0.7-0.7-1.4-1.2-1.9c-0.4-0.6-0.9-1.1-1.3-1.7c-0.4-0.6-0.8-1.2-1.1-1.9
		c-0.3-0.7-0.4-1.5-0.4-2.5l-0.2-10.7c0-0.6,0.1-1.4,0.2-2.4c0.1-0.9,0.3-1.9,0.3-2.9c0.1-1,0.1-2,0-2.9c-0.1-0.9-0.3-1.6-0.6-2.2
		c-0.4-0.1-0.9-0.3-1.3-0.3c-0.4-0.1-0.9-0.2-1.3-0.3l-0.2-1c0.2-0.6,0.5-1.1,0.9-1.6c1,0,1.8,0,2.5,0c0.7,0,1.5-0.1,2.1-0.1
		c0.7,0,1.4,0,2.1,0c0.7,0,1.5,0.1,2.5,0.2l0.2,0.4c0.3,0.1,0.5,0.1,0.8,0.2c0.3,0.1,0.5,0.2,0.8,0.3l-0.1,0.8l-3.5,1l-1.1,2.8
		l-0.3,0.2l0.2,3.8c-0.1,0.2-0.2,0.3-0.2,0.3c-0.1,0.1-0.1,0.1-0.1,0.2c0,0,0,0.1,0.1,0.2c0.1,0.1,0.1,0.2,0.3,0.5
		c-0.2,2.5-0.1,5.2,0.3,7.9c0.4,2.8,0.9,5.4,1.5,7.9c0.4,0.5,0.9,1,1.2,1.5c0.4,0.5,0.7,1.1,1.1,1.5c0.4,0.5,0.8,0.9,1.3,1.3
		c0.5,0.4,1.1,0.6,1.8,0.7c0.4,0.5,0.8,0.9,1.3,1.2c1,0,1.8-0.1,2.5-0.4c0.7-0.2,1.5-0.3,2.4-0.3c0.4-0.3,0.8-0.5,1-0.6
		c0.2-0.1,0.4-0.2,0.6-0.4c0.2-0.1,0.4-0.3,0.5-0.5c0.2-0.2,0.4-0.6,0.7-1.1c0.3-0.1,0.6-0.2,0.8-0.5c0.2-0.2,0.3-0.5,0.4-0.9
		c0.1-0.3,0.2-0.7,0.2-1c0-0.3,0-0.7,0-1c0.1-0.1,0.2-0.2,0.3-0.5c0-0.3,0-0.6,0-0.9c0-0.3,0-0.7-0.1-1c0-0.3-0.1-0.5-0.1-0.7l0-0.5
		c0.2-1.5,0.4-3.1,0.6-4.7c0.2-1.7,0.4-3.3,0.4-5c0.1-1.7,0.1-3.4,0-5c-0.1-1.7-0.4-3.2-0.8-4.7l-0.6-0.4h-2.6l-0.1-1.2
		c0.2-0.3,0.4-0.5,0.5-0.7c0.1-0.2,0.2-0.3,0.4-0.5c0.1-0.1,0.3-0.3,0.5-0.4c0.2-0.1,0.4-0.2,0.7-0.3l0.8,0.4l1-0.4
		c0.8,0.3,1.5,0.5,2.4,0.4c0.8,0,1.6-0.1,2.4-0.1l0.3-0.4c0.2,0,0.4,0,0.7,0c0.3,0,0.7,0,1,0c0.4,0,0.7,0.1,1,0.1
		c0.3,0.1,0.5,0.2,0.7,0.3l0,1.4C473.3,347.7,473,347.9,472.7,348.1z"/>
	<path class="st1" d="M488.2,373.4v0.3c0,0.2,0,0.4,0,0.6c0,0.2,0,0.4,0,0.6v0.3l0,3.9c-0.3,0.4-0.6,0.7-1,1
		c-0.4,0.3-0.8,0.6-1.1,0.8c-0.4,0.2-0.8,0.5-1.3,0.7c-1,0.2-1.8,0.3-2.4,0.3s-1.1,0.1-1.4,0.1c-0.4,0-0.7,0-0.9-0.1
		c-0.2-0.1-0.4-0.2-0.7-0.3c-0.2-0.1-0.5-0.3-0.8-0.5c-0.3-0.2-0.8-0.5-1.4-0.8c-0.2-0.4-0.4-0.7-0.7-1c-0.1-0.7-0.2-1.2-0.3-1.6
		c-0.1-0.4-0.1-0.8,0-1.1c0.1-0.3,0.2-0.7,0.3-1.1c0.2-0.4,0.4-0.9,0.7-1.5h0.9c0.3,0.7,0.6,1.4,0.8,2.1c0.3,0.7,0.5,1.4,0.7,2.1
		c-0.3,0.2-0.5,0.4-0.7,0.5c0.1,0.2,0.2,0.4,0.4,0.6c0.2,0,0.4,0,0.6,0c0.2,0,0.4-0.1,0.6-0.2h1.7l0.3,0.3c0.3-0.1,0.6-0.2,1-0.4
		c0.3-0.2,0.6-0.4,0.9-0.7c0.3-0.3,0.5-0.6,0.7-1c0.2-0.4,0.3-0.7,0.3-1.1c0-1.3,0-2.2-0.1-2.9c-0.1-0.6-0.3-1.1-0.6-1.3
		s-0.8-0.4-1.5-0.4c-0.6,0-1.6,0-2.7,0l-0.1-0.4c-0.5-0.1-1-0.2-1.4-0.4c-0.2-0.4-0.5-0.7-1-0.7c-0.4-0.5-0.7-1.1-0.9-1.8
		c-0.2-0.7-0.3-1.4-0.3-2.1c0-0.7,0.1-1.4,0.3-2.1c0.2-0.7,0.5-1.3,0.9-1.8c0.2-0.1,0.4-0.2,0.6-0.4c0.2-0.1,0.4-0.3,0.6-0.5
		c0.2-0.2,0.4-0.3,0.6-0.4c0.2-0.1,0.4-0.2,0.7-0.2l0.1-0.4h2c0,0,0.1-0.1,0.3-0.1c0.1,0,0.3,0,0.5,0c0.2,0,0.4,0.1,0.5,0.1
		c0.2,0,0.3,0,0.3,0l0.2,0.4c0.4,0.1,0.7,0.2,0.9,0.3c0.3,0.1,0.5,0.1,0.7,0.2c0.2,0.1,0.5,0.2,0.7,0.3c0.2,0.1,0.5,0.3,0.8,0.6
		c0.1,0.5,0.2,0.9,0.3,1.1c0.1,0.3,0.1,0.5,0.1,0.8c0,0.2,0,0.5-0.1,0.8c-0.1,0.3-0.2,0.7-0.3,1.2h-1.2c-0.1-0.2-0.3-0.5-0.5-0.7
		c-0.2-0.2-0.4-0.4-0.7-0.4c-0.2-0.6-0.6-1.2-1.1-1.8c-0.5-0.6-1-0.9-1.6-1.1c-0.3,0.1-0.5,0.2-0.6,0.4c-0.7,0-1.2,0.3-1.6,0.9
		c-0.4,0.6-0.6,1.3-0.6,1.9c0,0.4,0,0.7,0.1,0.9c0.1,0.2,0.2,0.4,0.4,0.6c0.1,0.2,0.3,0.3,0.4,0.5c0.1,0.1,0.2,0.3,0.3,0.5
		c0.4,0.3,0.8,0.4,1.3,0.4c0.5,0,1,0,1.5,0c0.1,0.1,0.2,0.2,0.2,0.3l1.1,0.1l0.2,0.4c1.2,0.2,2,0.7,2.5,1.5
		C487.9,371.2,488.2,372.2,488.2,373.4c0,0,0,0.1,0,0.4C488.3,373.6,488.2,373.5,488.2,373.4z M488.2,373.4c0,0.1,0,0.2,0,0.4
		C488.3,373.5,488.2,373.4,488.2,373.4z"/>
	<path class="st1" d="M507.4,369.1c-0.2,0.1-0.5,0.1-1,0.2c-0.4,0.1-0.8,0.1-1.3,0.2s-0.8,0.1-1.1,0c-0.3,0-0.4-0.1-0.4-0.3
		l-0.8-0.1l-0.2-0.4h-3.6c-0.1,0-0.1-0.1-0.1-0.1c0,0-0.1-0.1-0.2-0.2h-1.7c-0.4,0.4-0.8,0.8-1.2,1.2v3.4l0.3,0.2
		c0.1,0.4,0.2,0.8,0.3,1.2c0,0.4,0.1,0.8,0.1,1.2c0.3,0.4,0.6,0.8,1,1.2c0.4,0.4,0.8,0.7,1.3,0.8c0.1,0.3,0.3,0.5,0.6,0.6
		c0.2,0.1,0.5,0.2,0.8,0.2c0.3,0,0.6,0,0.9,0c0.3,0,0.6-0.1,0.8-0.1c0.1,0,0.1,0,0.2-0.1c0.1-0.1,0.1-0.1,0-0.2c0.4-0.1,0.7-0.1,1,0
		c0.3,0.1,0.6-0.1,0.8-0.4l0.7-0.1l0.4-0.7c0.3-0.1,0.6-0.1,0.8-0.2c0.2-0.1,0.4-0.3,0.6-0.6c0.2,0.1,0.3,0.2,0.5,0.2
		c0.2,0.1,0.3,0.1,0.5,0.2v1c-0.9,1.1-1.6,1.9-2.1,2.2c-0.5,0.4-0.8,0.7-1.1,0.8c-0.3,0.2-0.6,0.3-0.9,0.4c-0.3,0.1-0.7,0.4-1.3,1
		c-1.2,0-2.1,0-2.5,0c-0.5,0-0.9,0-1.2,0s-0.6-0.1-0.9-0.3c-0.3-0.2-0.9-0.4-1.7-0.8c-0.2-0.4-0.5-0.7-0.8-1
		c-0.3-0.3-0.6-0.6-0.9-0.9l-0.4-1.3l-0.3-0.2c-0.1-0.3-0.1-0.6-0.2-0.8s-0.2-0.4-0.5-0.7c-0.1-0.4-0.2-1-0.3-1.8
		c-0.1-0.8-0.2-1.6-0.2-2.4s0-1.5,0.1-2.2c0.1-0.7,0.4-1.1,0.8-1.2c0.2-0.7,0.4-1.3,0.7-1.9c0.3-0.6,0.5-1.3,0.7-1.9
		c0.3-0.2,0.6-0.5,0.9-0.8c0.3-0.3,0.5-0.6,0.5-1l3.4-2.2c0.9,0,1.7,0,2.4,0.1c0.7,0.1,1.5,0.2,2.3,0.3c0.2,0.3,0.5,0.6,0.9,0.8
		c0.4,0.2,0.7,0.5,1.1,0.7c0.4,0.3,0.7,0.6,1.1,1c0.3,0.4,0.6,1,0.8,1.7l0.3,0.2c0.1,0.6,0.2,1,0.3,1.2c0.1,0.2,0.1,0.4,0.1,0.5
		c0,0.2,0,0.3-0.1,0.5c-0.1,0.2-0.2,0.6-0.3,1.2L507.4,369.1z M504.5,364.6c-0.2-0.4-0.4-0.7-0.5-0.8c-0.1,0-0.2,0-0.3,0
		c-0.1,0-0.2,0-0.3-0.1c0-0.1-0.1-0.3-0.1-0.5c-0.1-0.2-0.2-0.3-0.3-0.3h-2.7c-0.3,0.4-0.8,0.6-1.3,0.8c-0.2,0.3-0.3,0.5-0.5,0.8
		c-0.2,0.3-0.4,0.6-0.5,0.9c0.4,0.4,0.7,0.7,1.1,1.1h1.9c0.1,0,0.2,0,0.1,0.1c0,0.1,0,0.1,0.1,0.1h1.8c0.1,0,0.3,0,0.5-0.1
		c0.2-0.1,0.4-0.2,0.6-0.3c0.2-0.1,0.3-0.3,0.5-0.5c0.1-0.2,0.2-0.3,0.2-0.5C504.8,365.3,504.7,365,504.5,364.6z"/>
	<path class="st1" d="M522.9,362.2c0.1,0.2,0.1,0.4,0.1,0.6c0,0.2-0.1,0.4-0.1,0.7c-0.1,0.2-0.2,0.6-0.3,0.9
		c-0.3,0.5-0.5,0.8-0.8,0.9c-0.2,0.1-0.4,0-0.6-0.2c-0.2-0.2-0.4-0.4-0.5-0.6c-0.1-0.2-0.2-0.3-0.2-0.4h-2.9
		c-0.2,0.2-0.5,0.5-0.9,0.9c-0.4,0.4-0.5,0.7-0.5,1.1v12.8c0,0.2,0.1,0.4,0.2,0.5c0.1,0.2,0.3,0.3,0.5,0.4c0.2,0.1,0.4,0.2,0.7,0.2
		c0.2,0,0.4,0.1,0.5,0.1l0.6,0.8v1c-0.1-0.1-0.3-0.3-0.5-0.4c-0.2,0.2-0.7,0.3-1.4,0.4c-0.7,0.1-1.4,0.1-2.3,0.1c-0.8,0-1.5,0-2.3,0
		c-0.7,0-1.2,0-1.5,0c-0.1-0.1-0.2-0.3-0.3-0.5c-0.1-0.1-0.2-0.3-0.3-0.4c0-0.4,0.1-0.7,0.2-0.8c0.1-0.1,0.3-0.2,0.5-0.2
		c0.2,0,0.4-0.1,0.7-0.1c0.2,0,0.4-0.1,0.6-0.3c0.1-0.1,0.2-0.5,0.3-1.3c0.1-0.7,0.1-1.5,0.2-2.3c0-0.8,0-1.6,0-2.3
		c0-0.7-0.1-1.1-0.2-1.3c-0.1-0.1-0.1-0.2-0.2-0.3c-0.1-0.1-0.1-0.2-0.1-0.3v-3.6c0-0.5,0-0.9,0.1-1c0.1-0.2,0.1-0.4,0.2-0.5
		c0-0.2,0-0.4-0.1-0.7c-0.1-0.3-0.3-0.7-0.6-1.4c-0.8-0.2-1.2-0.4-1.3-0.7c-0.1-0.3-0.1-0.7,0.1-1c0.2-0.4,0.4-0.7,0.8-1.1
		c0.3-0.4,0.6-0.7,0.8-1h2.1l0.3-0.3h1.1l-0.2,0.2l0.1,2.3l0.1-0.4l0.6,0l1.1-1c0.5-0.1,0.9-0.2,1.1-0.3c0.2-0.1,0.5-0.4,0.9-0.8
		c0.6,0,1,0,1.3,0c0.2,0,0.4,0,0.5,0.1c0.1,0,0.3,0.1,0.4,0.2c0.2,0.1,0.5,0.3,0.9,0.5C522.8,361.6,522.9,362,522.9,362.2z"/>
	<path class="st1" d="M559.5,370.5c0.1,0.7,0,1.4-0.2,2.2c-0.2,0.8-0.6,1.7-1.1,2.6c-0.5,0.9-1.1,1.7-1.8,2.5
		c-0.7,0.8-1.4,1.5-2.2,2c-0.8,0.6-1.5,0.9-2.3,1.1l-0.2,0.4l-0.8,0c-0.2,0.3-0.7,0.5-1.5,0.6c-0.8,0.1-1.6,0-2.5-0.1
		s-1.8-0.4-2.6-0.7s-1.4-0.6-1.8-1c-0.3,0.2-0.5,0.4-0.8,0.5c-0.3,0.1-0.6,0.2-0.9,0.3l-0.9-0.4c-0.3-0.7-0.5-1.5-0.7-2.3
		c-0.2-0.9-0.3-1.8-0.3-2.7s0-1.8,0.2-2.6c0.2-0.9,0.4-1.6,0.9-2.2h0.7c0.1,0.2,0.2,0.3,0.3,0.5c0.1,0.2,0.3,0.3,0.4,0.5
		c0.1,1,0.2,1.8,0.3,2.5c0.1,0.7,0.4,1.3,0.7,1.7c0.3,0.5,0.7,0.9,1.3,1.2c0.6,0.3,1.3,0.7,2.2,1l0.2,0.4c0.5,0.1,0.9,0.2,1.3,0.2
		c0.4,0,0.7,0,1.1,0c0.4,0,0.7,0,1.1-0.1c0.4,0,0.8-0.1,1.3-0.1l0.2-0.4l2.1-0.5c0.3-0.3,0.7-0.8,1.1-1.4c0.4-0.6,0.8-1.3,1.2-2
		c0.3-0.7,0.5-1.4,0.6-2.1s-0.2-1.2-0.6-1.6c-0.1-0.6-0.2-1.1-0.5-1.6c-0.2-0.5-0.5-0.9-0.9-1.3c-0.3-0.4-0.7-0.8-1.1-1.1
		c-0.4-0.4-0.8-0.7-1.2-1.1c-0.6-0.1-1.1-0.2-1.6-0.1l-0.2-0.3H547l-0.1-0.4c-0.5,0-1.1-0.1-1.6-0.2s-1-0.3-1.5-0.6
		c-0.2-0.5-0.6-0.8-1.1-0.9c-0.2-0.3-0.4-0.5-0.8-0.8c-0.4-0.2-0.7-0.4-1-0.4c-0.3-0.5-0.6-1-0.9-1.5c-0.3-0.5-0.7-1-1.1-1.4
		c0-1.3,0-2.3,0-3c0-0.8,0.1-1.5,0.2-2.1c0.1-0.6,0.2-1.3,0.4-2c0.2-0.7,0.3-1.6,0.5-2.7c0.2-0.1,0.5-0.2,1-0.5
		c0.5-0.3,1-0.6,1.5-0.9c0.5-0.3,1-0.6,1.5-0.9c0.5-0.3,0.8-0.5,0.9-0.6c0.2,0,0.4,0,0.8,0c0.4,0,0.7,0,1.1,0c0.4,0,0.8,0,1.1-0.1
		c0.3-0.1,0.6-0.2,0.7-0.3l2.2,0.4l0.2,0.4c0.4,0.2,0.7,0.3,1.1,0.3c0.3,0.1,0.6,0.3,1,0.6c1.2,0,2.1,0.1,2.6,0.4
		c0.6,0.3,0.9,0.7,1.1,1.2c0.2,0.6,0.2,1.3,0.2,2.1s-0.1,1.9-0.1,3.1c-0.9,0-1.5-0.1-1.9-0.4c-0.4-0.3-0.7-0.6-0.9-1
		c-0.2-0.4-0.4-0.9-0.6-1.4c-0.2-0.5-0.5-0.9-1-1.3c-0.5-0.4-1.2-0.8-2.1-1.1c-0.9-0.3-2.3-0.4-3.9-0.4c-0.1,0-0.3,0.1-0.5,0.3
		c-0.2,0.2-0.4,0.4-0.4,0.5c-1.2,0.5-2.1,1.2-2.6,2.1c-0.5,0.9-0.8,1.8-0.8,2.7c0,0.9,0.2,1.7,0.6,2.5c0.4,0.8,1,1.3,1.6,1.6
		l0.2,0.4l2,0.4l0.2,0.4c0.6,0.2,1.2,0.3,1.8,0.4c0.6,0.1,1.2,0.2,1.8,0.3l0.2,0.4l1.1,0.1c0.7,0.6,1.4,1.1,2.1,1.5
		c0.7,0.4,1.4,0.9,2,1.5c0.6,0.5,1.2,1.2,1.6,2c0.5,0.8,0.8,1.8,0.9,3.1C559.1,369.4,559.4,369.9,559.5,370.5z"/>
	<path class="st1" d="M578.9,381.1c-0.4,0.2-1,0.3-1.7,0.4l-0.2,0.4c-0.3,0.1-0.5,0.1-0.7,0.2c-0.2,0-0.5,0.1-0.7,0.2l-1.2-0.3
		c-0.2-0.6-0.3-1.2-0.3-1.7c-0.6-0.2-1.1-0.2-1.4-0.1c-0.3,0.1-0.6,0.3-0.9,0.5c-0.3,0.2-0.6,0.4-0.9,0.6c-0.3,0.2-0.7,0.3-1.3,0.2
		l-0.5,0.5h-2l-0.1-0.4c-0.3-0.1-0.6-0.3-0.8-0.5c-0.2-0.2-0.5-0.3-0.8-0.4c-0.1-0.4-0.4-0.8-0.7-1.1c-0.3-0.4-0.6-0.7-0.8-1
		c-0.1-0.3-0.1-0.6,0-0.9s0.2-0.7,0.2-1c0.1-0.3,0.1-0.7,0.1-1.1c0-0.4-0.1-0.7-0.4-1v-8.1c0-0.1,0-0.1,0.1-0.2c0-0.1,0.1-0.1,0.1,0
		c0.1-0.6,0.2-1.2,0.2-1.7c0-0.5,0-1.1,0-1.8c-0.4-0.1-0.9-0.3-1.3-0.6c-0.4-0.2-0.8-0.5-1.2-0.7V360h2.8l0.5,0.3h2.8
		c0.2,0.3,0.4,0.4,0.6,0.5v1.8c-0.2,0.1-0.3,0.2-0.4,0.4c-0.1,0.2-0.2,0.4-0.3,0.6c-0.1,0.2-0.1,0.5-0.2,0.7
		c-0.1,0.2-0.2,0.5-0.3,0.6v11.3l0.4,0.2l0.4,1.2l1.1,0.9h3.3c0.2,0,0.4-0.2,0.6-0.7c0.2-0.4,0.4-0.9,0.6-1.5
		c0.2-0.6,0.4-1.1,0.5-1.6c0.1-0.5,0.2-0.9,0.2-1.1v-9.1c0-0.1-0.1-0.2-0.2-0.3c-0.1-0.1-0.3-0.3-0.4-0.4c-0.2-0.2-0.3-0.3-0.5-0.5
		c-0.2-0.1-0.3-0.2-0.3-0.3l-2-0.4c-0.1-0.5-0.2-0.8-0.1-1.1s0.2-0.5,0.5-0.7c0.2-0.2,0.5-0.3,0.8-0.4c0.3-0.1,0.6-0.3,0.9-0.4
		c0.1,0.2,0.3,0.3,0.7,0.3c0.4,0.1,0.8,0.1,1.2,0.1c0.4,0,0.8,0,1.2,0c0.4,0,0.7,0,0.9,0c0.1,0.2,0.2,0.4,0.3,0.4
		c0.2,0,0.3,0.1,0.5,0.1c0.2,0,0.3,0,0.5,0c0.2,0,0.3,0,0.4,0c0.1,0.3,0.1,0.7,0.3,1c0.1,0.3,0.2,0.7,0.2,1c0,0.4,0,0.7-0.1,0.9
		c-0.1,0.2-0.1,0.4-0.2,0.6c0,0.2-0.1,0.4-0.1,0.7c0,0.2,0.1,0.6,0.2,1.1c-0.3,1.3-0.5,2.6-0.7,4c-0.2,1.4-0.2,2.8-0.2,4.2
		c0,0.2,0,0.4,0.1,0.6c0.1,0.2,0.1,0.4,0.1,0.6c0,0.4-0.1,0.8-0.2,1.1c-0.1,0.3-0.1,0.8,0,1.2c0.3,0.2,0.6,0.3,1,0.3
		c0.1,0.3,0.3,0.5,0.4,0.8c0.2,0.3,0.3,0.5,0.4,0.8C579.7,380.5,579.3,380.9,578.9,381.1z"/>
	<path class="st1" d="M600.1,367.1c0.4,1.2,0.5,2.4,0.5,3.6c0,1.2-0.3,2.4-0.7,3.6c-0.4,1.2-1,2.4-1.8,3.7c-0.2,0.3-0.4,0.6-0.6,0.8
		s-0.6,0.4-0.9,0.4c-0.4,0.6-0.8,1-1.2,1.2c-0.4,0.2-0.8,0.5-1.1,1c-0.8,0.1-1.5,0.2-2.2,0.3c-0.7,0.1-1.5,0.1-2.3,0.1l-0.2-0.3
		c-0.2,0-0.5-0.1-0.8-0.5c-0.3-0.3-0.5-0.6-0.8-1s-0.5-0.8-0.9-1.4l-0.2,2.7c-0.6,0.2-1.2,0.3-1.7,0.3s-1.1,0.1-1.7,0.1l0.3-0.3
		c-0.1-0.1-0.1-0.4-0.2-0.9s-0.1-1.1-0.1-1.8c0-0.7,0-1.4,0-2.2c0-0.8,0-1.6,0-2.3c0-0.7,0-1.4,0-2c0-0.6,0-1,0-1.2
		c0.1-1.2,0.1-2.6,0-4.3c0-1.7-0.1-3.4-0.1-5.1s-0.1-3.4-0.1-4.9c0-1.6,0.1-2.8,0.2-3.9c0.1-0.6,0-1-0.3-1.4
		c-0.3-0.4-0.5-0.7-0.8-1.1c-0.3-0.3-0.4-0.7-0.6-1.1c-0.1-0.4-0.1-1,0.3-1.7c0.6-0.2,1.2-0.4,1.6-0.7c0.4-0.3,0.9-0.6,1.4-1.1
		c0.4,0,0.8,0,1.2,0c0.4,0,0.8,0.1,1.1,0.4c0.2,0.3,0.3,0.8,0.3,1.5c0,0.7,0,1.4,0,2.1c-0.1,0.7-0.1,1.4-0.3,2.1
		c-0.1,0.7-0.2,1.2-0.3,1.6l0.3,0.9l-0.5,1.8l0.5,1.8c-0.2,0.5-0.3,0.9-0.3,1.4c0,0.4,0,0.9,0,1.4c-0.2,0.3-0.3,0.6-0.3,0.9
		c0,0.2,0,0.5,0.1,0.7c0.1,0.2,0.2,0.4,0.4,0.7c0.2,0.2,0.3,0.4,0.4,0.7c0,0.1,0,0.3,0,0.7c0,0.4-0.1,0.7-0.1,1.1
		c-0.1,0.4-0.1,0.8-0.2,1.1c-0.1,0.4-0.1,0.6-0.2,0.7c-0.2,1.1-0.3,2-0.4,2.9c0,0.9-0.1,1.8-0.2,2.8c0,0.2-0.1,0.3-0.2,0.5
		c-0.1,0.2-0.2,0.4-0.2,0.5c0.4,1.5,1.1,2.7,2.1,3.7c1,1,2.1,1.9,3.3,2.6c0.3-0.1,0.7-0.2,1-0.4c0.3-0.1,0.6-0.3,0.9-0.3l0.2-0.4
		c0.4-0.1,0.9-0.4,1.2-0.9c0.4-0.5,0.7-1.1,1-1.8c0.3-0.7,0.5-1.5,0.7-2.3c0.2-0.8,0.3-1.6,0.4-2.4c0.1-0.8,0.1-1.5,0-2.2
		c-0.1-0.7-0.2-1.2-0.4-1.5l-0.1,0.2c-0.1-0.6-0.2-1.1-0.3-1.7c-0.1-0.6-0.2-1.2-0.3-1.8c-0.3-0.3-0.6-0.6-0.7-0.8
		c-0.2-0.2-0.5-0.3-1-0.5l-0.2-0.4c-0.3-0.1-0.6-0.3-0.8-0.5c-0.3-0.2-0.5-0.4-0.7-0.6c-0.4,0-0.8,0.1-1.2,0.2
		c-0.3,0.1-0.7,0.3-0.9,0.5c-0.3,0.2-0.6,0.4-0.9,0.6c-0.3,0.2-0.7,0.4-1.1,0.5l-0.5-0.3c0.4-0.6,0.8-1,1.1-1.4
		c0.3-0.4,0.6-0.7,1-0.9c0.3-0.2,0.7-0.4,1.2-0.4c0.5-0.1,1.1-0.1,1.9-0.1c0.1,0.1,0.1,0.1,0.1,0.2s0.1,0.1,0.1,0.2h2.1
		c0.1,0.1,0.3,0.2,0.6,0.5c0.3,0.2,0.5,0.5,0.8,0.7c0.3,0.2,0.5,0.4,0.8,0.6c0.2,0.2,0.4,0.3,0.4,0.4
		C599.1,364.6,599.7,365.9,600.1,367.1z"/>
	<path class="st1" d="M631.9,381.4c-0.1,0-0.2,0-0.3,0c-0.1,0-0.2,0-0.3,0c-0.1,0-0.1,0.1-0.2,0.2l-0.5,0l-0.3,0.3l-0.5,0.1
		c-0.6-0.3-1.4-0.5-2.2-0.4c-0.9,0.1-1.6,0.1-2.3,0.1c-0.2-0.4-0.4-0.7-0.8-0.8v-1c0.3-0.2,0.6-0.5,0.8-0.8c0.9,0,1.5-0.2,1.9-0.7
		c0.3-0.5,0.5-1.1,0.6-1.8c0-0.7,0-1.5-0.1-2.3c-0.1-0.8-0.2-1.6-0.2-2.3c0,0,0-0.1-0.1-0.2c0-0.1-0.1-0.2-0.1-0.4
		c-0.1-0.1-0.1-0.3-0.2-0.4c-0.1-0.1-0.1-0.2-0.1-0.2c0,0,0,0,0.1,0c0.1,0,0.1-0.1,0.2-0.2c0-0.1,0-0.4,0.1-0.8s0.1-0.7,0.1-1.1
		c0-0.3,0-0.6-0.1-0.9c-0.1-0.3-0.2-0.3-0.3-0.2v-2.2c-0.6-0.5-1.1-1-1.5-1.5l-1.3-0.1l-0.2-0.4c-0.5-0.1-1.1-0.1-1.6,0l-0.2,0.4
		c-0.4,0.2-0.8,0.4-1.2,0.7c-0.3,0.3-0.7,0.6-1,0.9c-0.2,2.3-0.4,4.6-0.4,6.8c-0.1,2.2-0.1,4.5-0.1,6.9c0.3,0.1,0.6,0.2,0.9,0.3
		c0.3,0.1,0.6,0.1,0.9,0.2v1.5c-0.2,0.1-0.4,0.2-0.6,0.3c-0.2,0.1-0.4,0.3-0.5,0.5l-1.2,0.1l-0.4,0.3h-2.5c-0.1,0-0.1-0.1-0.1-0.1
		c0,0,0-0.1,0-0.2l-1.6-0.1c-0.1-0.1-0.2-0.3-0.4-0.4c-0.1-0.1-0.3-0.2-0.4-0.4v-1c0.2,0.1,0.5,0.1,0.9-0.2s0.6-0.4,0.9-0.5
		c0-0.2,0-0.4,0-0.6c0-0.2,0-0.5-0.1-0.7c0-0.2,0-0.4,0.1-0.6c0.1-0.1,0.2-0.3,0.3-0.3c0-1.8,0-3.5-0.1-5.3c0-1.7-0.1-3.5-0.1-5.3
		c0-0.6-0.2-1.1-0.6-1.5c-0.4-0.4-0.8-0.8-1.1-1.2c-0.1,0-0.2,0-0.5,0c-0.2,0-0.5,0-0.7,0c-0.3,0-0.5,0-0.7,0.1
		c-0.2,0-0.3,0.1-0.3,0.2c-0.7,0.1-1.3,0.3-1.6,0.5c-0.4,0.2-0.6,0.6-0.7,0.9c-0.1,0.4-0.2,0.9-0.2,1.4c0,0.5,0,1.1,0,1.7
		c-0.5,0.5-0.8,1.2-0.9,2c-0.1,0.8-0.2,1.7-0.2,2.5c0,0.9,0.1,1.8,0.2,2.6c0.1,0.9,0.1,1.6,0.1,2.2c0.3,0.3,0.6,0.6,0.9,0.8
		c0.3,0.3,0.6,0.5,0.9,0.7v1.5l-0.6,0.2l-0.3,0.6h-2.7c-0.1,0-0.1,0-0.2,0.1s-0.1,0.1,0,0.2c-0.2,0-0.4,0.1-0.7,0.2
		c-0.2,0.1-0.4,0.1-0.7,0.2c-0.2,0.1-0.4,0.1-0.6,0.1c-0.2,0-0.4-0.1-0.5-0.3c-0.2,0-0.4-0.1-0.7-0.2c-0.3-0.1-0.4-0.3-0.5-0.5
		c-0.2-0.5-0.3-0.9-0.3-1.2c0-0.3,0.1-0.5,0.3-0.6c0.2-0.1,0.4-0.3,0.7-0.4c0.3-0.1,0.6-0.3,1-0.5c-0.1-1.2-0.1-2.5-0.3-3.7
		c-0.1-1.3,0-2.5,0.3-3.7c-0.2-0.4-0.2-0.9-0.1-1.5c0.1-0.5,0.2-1,0.3-1.5c0.1-0.5,0.1-0.9,0.1-1.3c0-0.4-0.2-0.7-0.6-0.9
		c-0.5-0.3-0.8-0.5-1.1-0.8c-0.3-0.2-0.5-0.5-0.7-0.8c-0.2-0.3-0.3-0.6-0.2-0.9c0.1-0.2,0.2-0.4,0.4-0.5c0.2-0.1,0.4-0.1,0.6-0.2
		c0.2-0.1,0.4-0.2,0.5-0.3c0.2-0.1,0.3-0.3,0.3-0.6c0.2-0.3,0.4-0.5,0.6-0.7c0.2-0.2,0.4-0.4,0.7-0.6h2.4c0.2,0.4,0.5,0.8,0.8,1.2
		l-0.1,0.3c0.3,0.1,0.7,0.1,1,0c0.3-0.1,0.7-0.2,1-0.3l0.1-0.4l2.2-0.4l0.2-0.4c0.7-0.1,1.3-0.2,2-0.4c0.6-0.1,1.3-0.1,2,0
		c0.1,0.1,0.2,0.2,0.3,0.3c0.1,0.1,0.2,0.3,0.2,0.4l0.5,0.1l0.8,0.8l0.2,0.9l0.9,0.4c0.5-0.2,0.9-0.5,1.2-0.8
		c0.3-0.3,0.8-0.5,1.4-0.7l0.2-0.4c0.3-0.1,0.6-0.2,0.8-0.3c0.2-0.1,0.4-0.3,0.7-0.5h3.4c0.4,0.4,0.8,0.8,1.2,1.2
		c0.4,0.4,0.8,0.8,1.2,1.2c0.1,0.3,0.1,0.6,0.3,0.9c0.1,0.3,0.2,0.5,0.4,0.8c0,0.3,0,1,0,1.9c0,0.9,0,2,0,3c0,1.1,0,2-0.1,2.9
		c0,0.9-0.1,1.5-0.2,1.7v0l0,0.3c0,0.1,0,0.3,0,0.6c0,0.3,0,0.6,0.1,0.9s0.1,0.6,0.1,0.9c0,0.3,0.1,0.5,0.1,0.6
		c0,0.3,0.1,0.6,0.2,0.8c0.1,0.2,0.3,0.4,0.4,0.6s0.3,0.4,0.4,0.5c0.1,0.2,0.2,0.4,0.3,0.6c0.1,0.2,0.1,0.3,0.2,0.5
		c0.1,0.2,0.1,0.4,0,0.7C632,381.3,632,381.4,631.9,381.4z"/>
	<path class="st1" d="M643.3,381.9c-0.5,0.2-1.2,0.4-1.9,0.4c-0.7,0-1.5,0-2.2,0s-1.2,0-1.6,0c-0.2,0-0.4,0-0.6-0.1
		c-0.2-0.1-0.4-0.2-0.6-0.3c-0.2-0.1-0.4-0.2-0.6-0.4c-0.2-0.1-0.4-0.2-0.5-0.3c0.2-0.4,0.4-0.6,0.7-0.8c0.3-0.1,0.6-0.3,0.9-0.5
		c0.3-0.2,0.6-0.5,0.8-0.9c0.3-0.4,0.4-1,0.4-1.7c0-1.2,0-2.2-0.1-3.1c-0.1-0.9-0.1-1.7-0.1-2.5s-0.1-1.6,0-2.5
		c0-0.9,0.1-1.9,0.2-3.1c0-0.3,0-0.5-0.2-0.8c-0.2-0.2-0.4-0.5-0.6-0.7c-0.2-0.3-0.4-0.5-0.6-0.8c-0.2-0.3-0.3-0.6-0.3-1
		c0-0.2,0.1-0.4,0.5-0.6c0.4-0.2,0.8-0.4,1.3-0.6c0.5-0.2,1-0.4,1.5-0.5c0.5-0.1,0.8-0.2,1-0.2c0.4,0,0.7,0.2,0.9,0.7
		c0.2,0.5,0.4,1.1,0.5,1.8c0.1,0.7,0.1,1.6,0.1,2.5c0,0.9,0,1.7-0.1,2.5c0,0.8-0.1,1.5-0.1,2c-0.1,0.6-0.1,0.9-0.1,1
		c-0.1,0.6-0.1,1.1-0.2,1.5c0,0.3,0,0.7,0,0.9c0,0.3,0,0.6,0,1c0,0.4,0,0.9,0,1.5c0,0.5,0.1,1,0.2,1.6s0.4,1,0.8,1.4
		c0.2,0.2,0.4,0.3,0.8,0.5c0.4,0.2,0.6,0.4,0.6,0.7C644.1,381.2,643.9,381.7,643.3,381.9z M641.8,356.2c-0.6,0.4-1.2,0.6-1.9,0.6
		c-0.7,0-1.3-0.2-1.9-0.7c-0.6-0.4-0.8-1.1-0.8-2c0-0.6,0.3-1,0.8-1.2c0.6-0.2,1.2-0.3,1.9-0.2c0.7,0.1,1.3,0.3,1.9,0.6
		c0.6,0.3,0.8,0.8,0.8,1.3C642.6,355.3,642.3,355.8,641.8,356.2z"/>
	<path class="st1" d="M658,362.1c-0.2,0.2-0.4,0.3-0.7,0.4c-0.3,0-0.6,0-0.9-0.1c-0.3-0.1-0.6-0.1-0.9-0.1h-3.7
		c-0.1,0.1-0.2,0.2-0.3,0.4s-0.2,0.4-0.2,0.4c0,0.3,0,0.7,0,1.4c0,0.7,0,1.5,0,2.4c0,0.9,0,1.9,0.1,2.9c0,1,0.1,2,0.1,2.9
		c0.1,0.9,0.1,1.8,0.2,2.6c0.1,0.8,0.2,1.3,0.3,1.7c0.5,0.4,0.9,0.7,1.2,0.9c0.3,0.2,0.6,0.3,0.9,0.3s0.7,0,1.1,0s1-0.1,1.8-0.1
		c0.1,0,0.2-0.1,0.4-0.2c0.2-0.2,0.3-0.3,0.4-0.3v-0.2c0.3,0.3,0.5,0.7,0.7,1c0.2,0.3,0.2,0.7,0.2,0.9c0,0.3-0.1,0.5-0.4,0.7
		c-0.3,0.2-0.6,0.3-1.2,0.3c-0.2,0.3-0.5,0.5-0.8,0.6c-0.3,0.1-0.6,0.3-0.9,0.5c-0.4,0.1-0.9,0.1-1.3,0.2c-0.4,0.1-0.9,0.1-1.3,0.2
		s-0.8,0-1.3,0s-0.9-0.2-1.3-0.4l-0.2-0.4c-0.6,0-1.1-0.3-1.4-0.9s-0.6-1.2-0.8-1.8c-0.2-0.7-0.3-1.4-0.4-2.1
		c-0.1-0.7-0.2-1.3-0.4-1.6l0.3-0.4c0.1-0.9,0.1-1.9,0.2-2.9c0.1-1,0.1-2.1,0.1-3.1c0-1.1,0.1-2.1,0.1-3.1c0-1,0-2,0-2.9l-1-0.2
		c-0.2-0.3-0.4-0.4-0.5-0.5c-0.2-0.1-0.4-0.1-0.5-0.1s-0.3,0-0.4-0.1s-0.1-0.2-0.1-0.3c0-0.1,0.1-0.4,0.4-0.6
		c0.3-0.3,0.4-0.5,0.4-0.8c0.1,0,0.1,0,0.1,0l0.6-0.2l0.3-0.5c0.3-0.1,0.5-0.3,0.7-0.5c0.2-0.2,0.4-0.4,0.5-0.6s0.3-0.4,0.4-0.6
		c0.1-0.2,0.3-0.3,0.4-0.3c0-0.1,0-0.3,0-0.6l0.5,0l0.3-0.3h1.1c0.1,0.4,0.1,0.7,0.2,1.1c0,0.3,0.1,0.7,0.2,1
		c0.1,0.3,0.2,0.6,0.4,0.8c0.2,0.2,0.5,0.4,0.9,0.6l0.6-0.5h3.6c0.4,0.4,0.7,0.6,0.8,0.8c0.2,0.2,0.2,0.6,0.3,1.1
		C658.2,361.5,658.2,361.9,658,362.1z"/>
	<path class="st1" d="M673.6,362.1c-0.2,0.2-0.4,0.3-0.7,0.4c-0.3,0-0.6,0-0.9-0.1c-0.3-0.1-0.6-0.1-0.9-0.1h-3.7
		c-0.1,0.1-0.2,0.2-0.3,0.4s-0.2,0.4-0.2,0.4c0,0.3,0,0.7,0,1.4c0,0.7,0,1.5,0,2.4c0,0.9,0,1.9,0.1,2.9c0,1,0.1,2,0.1,2.9
		c0.1,0.9,0.1,1.8,0.2,2.6c0.1,0.8,0.2,1.3,0.3,1.7c0.5,0.4,0.9,0.7,1.2,0.9c0.3,0.2,0.6,0.3,0.9,0.3s0.7,0,1.1,0s1-0.1,1.8-0.1
		c0.1,0,0.2-0.1,0.4-0.2c0.2-0.2,0.3-0.3,0.4-0.3v-0.2c0.3,0.3,0.5,0.7,0.7,1c0.2,0.3,0.2,0.7,0.2,0.9c0,0.3-0.1,0.5-0.4,0.7
		c-0.3,0.2-0.6,0.3-1.2,0.3c-0.2,0.3-0.5,0.5-0.8,0.6c-0.3,0.1-0.6,0.3-0.9,0.5c-0.4,0.1-0.9,0.1-1.3,0.2c-0.4,0.1-0.9,0.1-1.3,0.2
		s-0.8,0-1.3,0s-0.9-0.2-1.3-0.4l-0.2-0.4c-0.6,0-1.1-0.3-1.4-0.9s-0.6-1.2-0.8-1.8c-0.2-0.7-0.3-1.4-0.4-2.1
		c-0.1-0.7-0.2-1.3-0.4-1.6l0.3-0.4c0.1-0.9,0.1-1.9,0.2-2.9c0.1-1,0.1-2.1,0.1-3.1c0-1.1,0.1-2.1,0.1-3.1c0-1,0-2,0-2.9l-1-0.2
		c-0.2-0.3-0.4-0.4-0.5-0.5c-0.2-0.1-0.4-0.1-0.5-0.1s-0.3,0-0.4-0.1s-0.1-0.2-0.1-0.3c0-0.1,0.1-0.4,0.4-0.6
		c0.3-0.3,0.4-0.5,0.4-0.8c0.1,0,0.1,0,0.1,0l0.6-0.2l0.3-0.5c0.3-0.1,0.5-0.3,0.7-0.5c0.2-0.2,0.4-0.4,0.5-0.6s0.3-0.4,0.4-0.6
		c0.1-0.2,0.3-0.3,0.4-0.3c0-0.1,0-0.3,0-0.6l0.5,0l0.3-0.3h1.1c0.1,0.4,0.1,0.7,0.2,1.1c0,0.3,0.1,0.7,0.2,1
		c0.1,0.3,0.2,0.6,0.4,0.8c0.2,0.2,0.5,0.4,0.9,0.6l0.6-0.5h3.6c0.4,0.4,0.7,0.6,0.8,0.8c0.2,0.2,0.2,0.6,0.3,1.1
		C673.8,361.5,673.7,361.9,673.6,362.1z"/>
	<path class="st1" d="M692,369.1c-0.2,0.1-0.5,0.1-1,0.2c-0.4,0.1-0.8,0.1-1.3,0.2c-0.4,0-0.8,0.1-1.1,0c-0.3,0-0.4-0.1-0.4-0.3
		l-0.8-0.1l-0.2-0.4h-3.6c-0.1,0-0.1-0.1-0.1-0.1c0,0-0.1-0.1-0.2-0.2h-1.7c-0.4,0.4-0.8,0.8-1.2,1.2v3.4l0.3,0.2
		c0.1,0.4,0.2,0.8,0.3,1.2c0,0.4,0.1,0.8,0.1,1.2c0.3,0.4,0.6,0.8,1,1.2c0.4,0.4,0.8,0.7,1.3,0.8c0.1,0.3,0.3,0.5,0.6,0.6
		c0.2,0.1,0.5,0.2,0.8,0.2s0.6,0,0.9,0c0.3,0,0.6-0.1,0.8-0.1c0.1,0,0.1,0,0.2-0.1c0.1-0.1,0.1-0.1,0-0.2c0.4-0.1,0.7-0.1,1,0
		c0.3,0.1,0.6-0.1,0.8-0.4l0.7-0.1l0.4-0.7c0.3-0.1,0.6-0.1,0.8-0.2c0.2-0.1,0.4-0.3,0.6-0.6c0.2,0.1,0.3,0.2,0.5,0.2
		c0.2,0.1,0.3,0.1,0.5,0.2v1c-0.9,1.1-1.6,1.9-2.1,2.2c-0.5,0.4-0.8,0.7-1.1,0.8c-0.3,0.2-0.6,0.3-0.9,0.4c-0.3,0.1-0.7,0.4-1.3,1
		c-1.2,0-2.1,0-2.5,0c-0.5,0-0.9,0-1.2,0c-0.3,0-0.6-0.1-0.9-0.3c-0.3-0.2-0.9-0.4-1.7-0.8c-0.2-0.4-0.5-0.7-0.8-1
		c-0.3-0.3-0.6-0.6-0.9-0.9l-0.4-1.3l-0.3-0.2c-0.1-0.3-0.1-0.6-0.2-0.8s-0.2-0.4-0.5-0.7c-0.1-0.4-0.2-1-0.3-1.8
		c-0.1-0.8-0.2-1.6-0.2-2.4s0-1.5,0.1-2.2c0.1-0.7,0.4-1.1,0.8-1.2c0.2-0.7,0.4-1.3,0.7-1.9s0.5-1.3,0.7-1.9
		c0.3-0.2,0.6-0.5,0.9-0.8c0.3-0.3,0.5-0.6,0.5-1l3.4-2.2c0.9,0,1.7,0,2.4,0.1c0.7,0.1,1.5,0.2,2.3,0.3c0.2,0.3,0.5,0.6,0.9,0.8
		c0.4,0.2,0.7,0.5,1.1,0.7s0.7,0.6,1.1,1c0.3,0.4,0.6,1,0.8,1.7l0.3,0.2c0.1,0.6,0.2,1,0.3,1.2c0.1,0.2,0.1,0.4,0.1,0.5
		c0,0.2,0,0.3-0.1,0.5c-0.1,0.2-0.2,0.6-0.3,1.2L692,369.1z M689.1,364.6c-0.2-0.4-0.4-0.7-0.5-0.8c-0.1,0-0.2,0-0.3,0
		c-0.1,0-0.2,0-0.3-0.1c0-0.1-0.1-0.3-0.1-0.5c-0.1-0.2-0.2-0.3-0.3-0.3H685c-0.3,0.4-0.8,0.6-1.3,0.8c-0.2,0.3-0.3,0.5-0.5,0.8
		c-0.2,0.3-0.4,0.6-0.5,0.9c0.4,0.4,0.7,0.7,1.1,1.1h1.9c0.1,0,0.2,0,0.1,0.1c0,0.1,0,0.1,0.1,0.1h1.8c0.1,0,0.3,0,0.5-0.1
		c0.2-0.1,0.4-0.2,0.6-0.3c0.2-0.1,0.3-0.3,0.5-0.5c0.1-0.2,0.2-0.3,0.2-0.5C689.4,365.3,689.3,365,689.1,364.6z"/>
	<path class="st1" d="M717.2,379c0.2,0.2,0.4,0.4,0.5,0.7c0.1,0.3,0,0.6-0.1,1c-0.2,0.4-0.6,0.7-1.2,1.1c-0.8-0.2-1.6-0.2-2.4-0.1
		c-0.7,0.1-1.5,0.2-2.4,0.1l-0.7-0.9c-0.1-0.7-0.2-1.2-0.4-1.8h-0.5c-0.1,0.2-0.3,0.3-0.6,0.6c-0.3,0.2-0.6,0.5-1,0.8
		c-0.4,0.3-0.7,0.5-1.1,0.8c-0.3,0.2-0.6,0.4-0.8,0.5h-3.7c-0.7-0.5-1.5-1-2.2-1.4c-0.7-0.4-1.4-0.9-2-1.4s-1.1-1.1-1.5-1.8
		c-0.4-0.7-0.7-1.7-0.8-2.8l-0.3-0.2c-0.1-0.6-0.2-1.2-0.3-1.8s-0.1-1.2,0-1.8c0.1-0.1,0.3-0.3,0.4-0.5c0.1-0.2,0.2-0.3,0.3-0.5
		c-0.1-0.2-0.2-0.5-0.3-0.8c-0.1-0.3-0.1-0.6-0.1-0.9c0.2-0.2,0.4-0.5,0.6-0.9c0.2-0.3,0.2-0.7,0.1-1c0.4-0.4,0.7-1,1.1-1.8
		c0.3-0.7,0.6-1.4,0.7-2l1.6-0.7c0.1-0.1,0.2-0.2,0.4-0.3c0.2-0.1,0.4-0.2,0.6-0.3c0.2-0.1,0.4-0.2,0.5-0.2c0.1-0.1,0.2-0.2,0.2-0.2
		c0.9-0.2,1.7-0.3,2.4-0.2c0.7,0.1,1.5,0.1,2.4,0.1l0.1,0.4c0.3,0.1,0.5,0.2,0.8,0.3c0.3,0.1,0.5,0.3,0.7,0.5c0.7,0.2,1.2,0,1.5-0.5
		c0.3-0.5,0.5-1.1,0.5-1.9c0.1-0.7,0-1.5,0-2.4c-0.1-0.8-0.1-1.5-0.1-2.1v-3.6c0-0.1,0-0.1-0.1-0.2c-0.1-0.1-0.1-0.1-0.2,0
		c-0.1-0.4-0.1-0.7-0.1-1.1c0-0.4-0.2-0.8-0.4-1.1l-1.3-0.4l-0.3-0.4v-1l2.1-0.4l0.1-0.4c0.4,0,0.8-0.1,1.1-0.2
		c0.3-0.1,0.7-0.1,1-0.1c0.3,0,0.6,0,1,0.1c0.3,0.1,0.7,0.3,1,0.7c0.2,0.6,0.3,1.3,0.4,1.9c0,0.7,0,1.3,0,2l0,0
		c-0.2,0.9-0.3,1.7-0.3,2.6c0,0.9,0,1.7,0.1,2.6c0,0.9,0,1.7,0,2.6c0,0.9-0.2,1.7-0.5,2.6c0.2,0.5,0.3,1.2,0.3,2.2c0,1,0,2-0.1,3.3
		c-0.1,1.2-0.1,2.5-0.2,3.8c-0.1,1.3-0.1,2.6-0.1,3.8c0,1.2,0.1,2.2,0.3,3.1c0.2,0.9,0.4,1.6,0.9,2c0.3,0.1,0.6,0.1,0.9,0
		c0.3-0.1,0.6-0.2,0.8-0.2C716.7,378.8,717,378.9,717.2,379z M710.2,366.7c-0.1-0.3-0.3-0.7-0.4-1.3l-0.3-0.2c0-0.3-0.1-0.5-0.3-0.8
		s-0.4-0.5-0.6-0.8c-0.2-0.3-0.4-0.5-0.7-0.7c-0.2-0.2-0.4-0.5-0.6-0.7h-3.7c-0.3,0.4-0.5,0.7-0.8,1.1c-0.3,0.3-0.6,0.7-0.9,0.9
		l-0.1,1l-0.3,0.2c0,0.4-0.1,0.9-0.2,1.3c-0.1,0.5-0.3,0.9-0.6,1.2c-0.1,0.1-0.1,0.1-0.2,0.2c-0.1,0.1-0.1,0.2-0.1,0.2v5.6l0.4,0.1
		c0,0.2,0.1,0.5,0.2,0.9s0.2,0.7,0.4,1c0.1,0.3,0.3,0.7,0.4,1c0.2,0.3,0.3,0.6,0.4,0.8c0.2,0.1,0.4,0.3,0.8,0.6
		c0.4,0.3,0.8,0.6,1.2,0.8c0.4,0.2,0.8,0.4,1.2,0.5c0.4,0.1,0.6-0.1,0.8-0.4c0.3-0.1,0.6-0.1,0.9-0.2s0.6-0.1,0.9-0.2
		c0.4-0.2,0.7-0.5,1-1.1c0.3-0.5,0.5-1.1,0.7-1.8c0.2-0.7,0.3-1.4,0.4-2c0.1-0.7,0.1-1.2,0.1-1.6c0-0.1,0.1-0.1,0.2,0
		c0,0,0-0.3,0.1-0.8c0-0.5,0-1.1,0-1.7s0-1.2,0-1.8c0-0.6,0-0.9,0-1.1L710.2,366.7z"/>
</g>
<g class="st0">
	<path class="st1" d="M459.7,424.5c0.1,0.7,0,1.4-0.2,2.2c-0.2,0.8-0.6,1.7-1.1,2.6c-0.5,0.9-1.1,1.7-1.8,2.5
		c-0.7,0.8-1.4,1.5-2.2,2c-0.8,0.6-1.5,0.9-2.3,1.1l-0.2,0.4l-0.8,0c-0.2,0.3-0.7,0.5-1.5,0.6c-0.8,0.1-1.6,0-2.5-0.1
		s-1.8-0.4-2.6-0.7s-1.4-0.6-1.8-1c-0.3,0.2-0.5,0.4-0.8,0.5s-0.6,0.2-0.9,0.3l-0.9-0.4c-0.3-0.7-0.5-1.5-0.7-2.3
		c-0.2-0.9-0.3-1.8-0.3-2.7s0-1.8,0.2-2.6c0.2-0.9,0.4-1.6,0.9-2.2h0.7c0.1,0.2,0.2,0.3,0.3,0.5c0.1,0.2,0.3,0.3,0.4,0.5
		c0.1,1,0.2,1.8,0.3,2.5c0.1,0.7,0.4,1.3,0.7,1.7c0.3,0.5,0.7,0.9,1.3,1.2c0.6,0.3,1.3,0.7,2.2,1l0.2,0.4c0.5,0.1,0.9,0.2,1.3,0.2
		c0.4,0,0.7,0,1.1,0c0.4,0,0.7,0,1.1-0.1c0.4,0,0.8-0.1,1.3-0.1l0.2-0.4l2.1-0.4c0.3-0.3,0.7-0.8,1.1-1.4c0.4-0.6,0.8-1.3,1.2-2
		s0.5-1.4,0.6-2.1s-0.2-1.2-0.6-1.6c-0.1-0.6-0.2-1.1-0.5-1.6c-0.2-0.5-0.5-0.9-0.9-1.3s-0.7-0.8-1.1-1.1c-0.4-0.4-0.8-0.7-1.2-1.1
		c-0.6-0.1-1.1-0.2-1.6-0.1l-0.2-0.3h-2.7l-0.1-0.5c-0.5,0-1.1-0.1-1.6-0.2s-1-0.3-1.5-0.6c-0.2-0.5-0.6-0.8-1.1-0.9
		c-0.2-0.3-0.4-0.5-0.8-0.8c-0.4-0.2-0.7-0.4-1-0.4c-0.3-0.5-0.6-1-0.9-1.5s-0.7-1-1.1-1.4c0-1.3,0-2.3,0-3s0.1-1.5,0.2-2.1
		c0.1-0.6,0.2-1.3,0.4-2c0.2-0.7,0.3-1.6,0.5-2.7c0.2-0.1,0.5-0.2,1-0.5c0.5-0.3,1-0.6,1.5-0.9c0.5-0.3,1-0.6,1.5-0.9
		c0.5-0.3,0.8-0.5,0.9-0.6c0.2,0,0.4,0,0.8,0c0.4,0,0.7,0,1.1,0c0.4,0,0.8,0,1.1-0.1c0.3-0.1,0.6-0.2,0.7-0.3l2.2,0.4l0.2,0.4
		c0.4,0.2,0.7,0.3,1.1,0.3c0.3,0.1,0.6,0.3,1,0.6c1.2,0,2.1,0.1,2.6,0.4c0.6,0.3,0.9,0.7,1.1,1.2c0.2,0.6,0.2,1.3,0.2,2.1
		c-0.1,0.9-0.1,1.9-0.1,3.1c-0.9,0-1.5-0.1-1.9-0.4c-0.4-0.3-0.7-0.6-0.9-1c-0.2-0.4-0.4-0.9-0.6-1.4c-0.2-0.5-0.5-0.9-1-1.3
		c-0.5-0.4-1.2-0.8-2.1-1.1c-0.9-0.3-2.3-0.4-3.9-0.4c-0.1,0-0.3,0.1-0.5,0.3c-0.2,0.2-0.4,0.4-0.4,0.5c-1.2,0.5-2.1,1.2-2.6,2.1
		c-0.5,0.9-0.8,1.8-0.8,2.7c0,0.9,0.2,1.7,0.6,2.5c0.4,0.8,1,1.3,1.6,1.6l0.2,0.4l2,0.5l0.2,0.4c0.6,0.2,1.2,0.3,1.8,0.4
		c0.6,0.1,1.2,0.2,1.8,0.3l0.2,0.4l1.1,0.1c0.7,0.6,1.4,1.1,2.1,1.5c0.7,0.4,1.4,0.9,2,1.5c0.6,0.5,1.2,1.2,1.6,2
		c0.5,0.8,0.8,1.8,0.9,3.1C459.4,423.4,459.7,423.9,459.7,424.5z"/>
	<path class="st1" d="M474.2,416.1c-0.2,0.2-0.4,0.3-0.7,0.4c-0.3,0-0.6,0-0.9-0.1c-0.3-0.1-0.6-0.1-0.9-0.1H468
		c-0.1,0.1-0.2,0.2-0.3,0.4c-0.1,0.2-0.2,0.4-0.2,0.4c0,0.3,0,0.7,0,1.4c0,0.7,0,1.5,0,2.4c0,0.9,0,1.9,0.1,2.9c0,1,0.1,2,0.1,2.9
		c0.1,0.9,0.1,1.8,0.2,2.6c0.1,0.8,0.2,1.3,0.3,1.7c0.5,0.4,0.9,0.7,1.2,0.9s0.6,0.3,0.9,0.3c0.3,0,0.7,0,1.1,0c0.4,0,1-0.1,1.8-0.1
		c0.1,0,0.2-0.1,0.4-0.2c0.2-0.2,0.3-0.3,0.4-0.3v-0.2c0.3,0.3,0.5,0.7,0.7,1s0.2,0.7,0.2,0.9c0,0.3-0.1,0.5-0.4,0.7
		c-0.3,0.2-0.6,0.3-1.2,0.3c-0.2,0.3-0.5,0.5-0.8,0.6c-0.3,0.1-0.6,0.3-0.9,0.5c-0.4,0.1-0.9,0.1-1.3,0.2c-0.4,0.1-0.9,0.1-1.3,0.2
		c-0.4,0-0.8,0-1.3,0c-0.4,0-0.9-0.2-1.3-0.4l-0.2-0.4c-0.6,0-1.1-0.3-1.4-0.9c-0.3-0.5-0.6-1.2-0.8-1.8c-0.2-0.7-0.3-1.4-0.4-2.1
		c-0.1-0.7-0.2-1.3-0.4-1.6l0.3-0.4c0.1-0.9,0.1-1.9,0.2-2.9c0.1-1,0.1-2.1,0.1-3.1c0-1.1,0.1-2.1,0.1-3.1c0-1,0-2,0-2.9l-1-0.2
		c-0.2-0.3-0.4-0.4-0.5-0.5c-0.2-0.1-0.4-0.1-0.5-0.1c-0.2,0-0.3,0-0.4-0.1c-0.1,0-0.1-0.2-0.1-0.3c0-0.1,0.1-0.4,0.4-0.6
		c0.3-0.3,0.4-0.5,0.4-0.8c0.1,0,0.1,0,0.1,0l0.6-0.2l0.3-0.5c0.3-0.1,0.5-0.3,0.7-0.5c0.2-0.2,0.4-0.4,0.5-0.6
		c0.1-0.2,0.3-0.4,0.4-0.6c0.1-0.2,0.3-0.3,0.4-0.3c0-0.1,0-0.3,0-0.6l0.5,0l0.3-0.3h1.1c0.1,0.4,0.1,0.7,0.2,1.1s0.1,0.7,0.2,1
		s0.2,0.6,0.4,0.8c0.2,0.2,0.5,0.4,0.9,0.6l0.6-0.5h3.6c0.4,0.4,0.7,0.6,0.8,0.8c0.2,0.2,0.2,0.6,0.3,1.1
		C474.4,415.5,474.4,415.9,474.2,416.1z"/>
	<path class="st1" d="M494.9,428.6c-0.3,0.9-0.7,1.7-1.2,2.5c-0.5,0.8-1,1.5-1.6,2.2c-0.6,0.6-1.2,1-1.8,1.1c0,0.1-0.1,0.1-0.1,0.2
		c0,0.1-0.1,0.1-0.1,0.2c-0.3,0.1-0.7,0.1-1,0.2c-0.3,0.1-0.6,0.3-0.8,0.6c-0.1,0-0.3,0-0.5,0c-0.3,0-0.6,0-0.9,0
		c-0.3,0-0.5,0-0.8,0.1c-0.2,0-0.4,0.1-0.4,0.2c-0.5,0.1-1,0.1-1.3,0c-0.4-0.1-0.8-0.2-1.3-0.2l-0.1-0.4c-1.1-0.4-1.9-0.9-2.5-1.3
		c-0.6-0.4-1-0.9-1.3-1.3c-0.3-0.4-0.5-0.8-0.7-1.2c-0.2-0.4-0.5-0.7-0.8-1c-0.4-1.3-0.7-2.6-0.9-3.8c-0.2-1.2-0.2-2.3,0-3.4
		c0.1-1.1,0.5-2.1,0.9-3.2c0.5-1,1.2-2.1,2-3.2c0.4-0.5,0.8-0.8,1.1-1.1c0.4-0.2,0.7-0.4,1.1-0.5c0.3-0.1,0.6-0.2,0.9-0.3
		c0.3-0.1,0.5-0.3,0.8-0.5c1.5,0,2.6,0,3.5,0.1c0.9,0.1,1.7,0.3,2.4,0.5c0.7,0.3,1.4,0.7,2,1.3c0.6,0.6,1.4,1.4,2.4,2.5l0.7,4.9
		l0.3,0.4c0.1,0.4,0.1,0.7,0.2,1.1c0.1,0.4,0.1,0.7,0.1,1.1C495.3,427,495.2,427.7,494.9,428.6z M491.1,422.1
		c-0.1-0.2-0.2-0.4-0.2-0.7c0-0.3-0.1-0.5-0.1-0.8c0-0.3,0-0.5-0.1-0.7c-0.2-0.2-0.3-0.4-0.5-0.7c-0.2-0.3-0.4-0.6-0.6-0.9
		c-0.2-0.3-0.4-0.6-0.6-0.8c-0.2-0.3-0.4-0.4-0.6-0.5c-0.1-0.1-0.2-0.1-0.3-0.1c-0.1,0-0.2,0-0.3,0c-0.1,0-0.2,0-0.3-0.1
		c-0.1-0.1-0.2-0.2-0.3-0.4h-2v0.5c-0.8,0.1-1.4,0.2-1.8,0.5c-0.4,0.3-0.8,0.7-1,1.1c-0.2,0.5-0.4,1-0.5,1.6
		c-0.1,0.6-0.3,1.2-0.4,1.8c0,0.1-0.1,0.2-0.2,0.4c-0.1,0.2-0.2,0.3-0.3,0.4c-0.1,0.4-0.2,0.8-0.3,1.3s-0.1,1,0,1.5
		c0,0.5,0.1,1,0.1,1.6c0.1,0.5,0.1,1,0.2,1.3c0.3,0.1,0.5,0.3,0.5,0.8c0.1,0.4,0.1,0.8,0.1,1c0,0.3,0.2,0.7,0.4,1
		c0.2,0.3,0.5,0.6,0.8,0.9s0.6,0.6,0.9,0.8s0.6,0.5,0.8,0.7h2.4c0-0.2,0.2-0.4,0.4-0.4c0.2-0.1,0.5-0.2,0.8-0.3
		c0.3-0.1,0.6-0.3,0.9-0.6c0.3-0.3,0.5-0.7,0.7-1.3c0.1-0.5,0.3-0.9,0.6-1.3c0.2-0.3,0.4-0.8,0.6-1.2c0.3-1,0.5-2,0.6-3
		c0.1-1,0.1-2,0.1-3.1C491.4,422.4,491.2,422.2,491.1,422.1z"/>
	<path class="st1" d="M510.3,416.2c0.1,0.2,0.1,0.4,0.1,0.6c0,0.2-0.1,0.4-0.1,0.7c-0.1,0.2-0.2,0.6-0.3,0.9
		c-0.3,0.5-0.5,0.8-0.8,0.9c-0.2,0.1-0.4,0-0.6-0.2c-0.2-0.2-0.4-0.4-0.5-0.6c-0.1-0.2-0.2-0.3-0.2-0.4H505
		c-0.2,0.2-0.5,0.5-0.9,0.9c-0.4,0.4-0.5,0.7-0.5,1.1v12.8c0,0.2,0.1,0.4,0.2,0.5c0.1,0.2,0.3,0.3,0.5,0.4c0.2,0.1,0.4,0.2,0.7,0.2
		c0.2,0,0.4,0.1,0.5,0.1l0.6,0.8v1c-0.1-0.1-0.3-0.3-0.5-0.4c-0.2,0.2-0.7,0.3-1.4,0.4c-0.7,0.1-1.4,0.1-2.3,0.1c-0.8,0-1.5,0-2.3,0
		c-0.7,0-1.2,0-1.5,0c-0.1-0.1-0.2-0.3-0.3-0.5c-0.1-0.1-0.2-0.3-0.3-0.5c0-0.4,0.1-0.7,0.2-0.8c0.1-0.1,0.3-0.2,0.5-0.2
		c0.2,0,0.4-0.1,0.7-0.1c0.2,0,0.4-0.1,0.6-0.3c0.1-0.1,0.2-0.5,0.3-1.3c0.1-0.7,0.1-1.5,0.2-2.3c0-0.8,0-1.6,0-2.3
		c0-0.7-0.1-1.1-0.2-1.3c-0.1-0.1-0.1-0.2-0.2-0.3c-0.1-0.1-0.1-0.2-0.1-0.3v-3.6c0-0.5,0-0.9,0.1-1s0.1-0.4,0.2-0.5
		c0-0.2,0-0.4-0.1-0.7c-0.1-0.3-0.3-0.8-0.6-1.4c-0.8-0.2-1.2-0.4-1.3-0.7c-0.1-0.3-0.1-0.7,0.1-1c0.2-0.4,0.4-0.7,0.8-1.1
		c0.3-0.4,0.6-0.7,0.8-1h2.1l0.3-0.3h1.1l-0.2,0.2l0.1,2.3l0.1-0.5l0.6,0l1.1-1c0.5-0.1,0.9-0.2,1.1-0.3c0.2-0.1,0.5-0.4,0.9-0.8
		c0.6,0,1,0,1.3,0c0.2,0,0.4,0,0.5,0.1c0.1,0,0.3,0.1,0.4,0.2c0.2,0.1,0.5,0.3,0.9,0.5C510.2,415.6,510.2,416,510.3,416.2z"/>
	<path class="st1" d="M520.2,435.9c-0.5,0.2-1.2,0.4-1.9,0.4c-0.7,0-1.5,0-2.2,0c-0.7-0.1-1.2,0-1.6,0c-0.2,0-0.4,0-0.6-0.1
		c-0.2-0.1-0.4-0.2-0.6-0.3c-0.2-0.1-0.4-0.2-0.6-0.4c-0.2-0.1-0.4-0.2-0.5-0.3c0.2-0.4,0.4-0.6,0.7-0.8c0.3-0.2,0.6-0.3,0.9-0.5
		c0.3-0.2,0.6-0.5,0.8-0.9c0.3-0.4,0.4-1,0.4-1.7c0-1.2,0-2.2-0.1-3.1s-0.1-1.7-0.1-2.5c0-0.8-0.1-1.6,0-2.5c0-0.9,0.1-1.9,0.2-3.1
		c0-0.3,0-0.5-0.2-0.8c-0.2-0.2-0.4-0.5-0.6-0.7c-0.2-0.3-0.4-0.5-0.6-0.8c-0.2-0.3-0.3-0.6-0.3-1c0-0.2,0.1-0.4,0.5-0.6
		c0.4-0.2,0.8-0.4,1.3-0.6c0.5-0.2,1-0.4,1.5-0.5c0.5-0.1,0.8-0.2,1-0.2c0.4,0,0.7,0.2,0.9,0.7s0.4,1.1,0.5,1.8
		c0.1,0.7,0.1,1.6,0.1,2.5c0,0.9,0,1.7-0.1,2.5c0,0.8-0.1,1.5-0.1,2c-0.1,0.6-0.1,0.9-0.1,1c-0.1,0.6-0.1,1.1-0.2,1.5
		c0,0.3,0,0.7,0,0.9c0,0.3,0,0.6,0,1c0,0.4,0,0.9,0,1.5c0,0.5,0.1,1,0.2,1.6c0.1,0.5,0.4,1,0.8,1.4c0.2,0.2,0.4,0.3,0.8,0.4
		c0.4,0.2,0.6,0.4,0.6,0.7C521,435.2,520.8,435.7,520.2,435.9z M518.7,410.2c-0.6,0.4-1.2,0.6-1.9,0.6c-0.7,0-1.3-0.2-1.9-0.7
		c-0.6-0.4-0.8-1.1-0.8-2c0-0.6,0.3-1,0.8-1.2c0.6-0.2,1.2-0.3,1.9-0.2c0.7,0.1,1.3,0.3,1.9,0.6c0.6,0.3,0.8,0.8,0.8,1.3
		C519.5,409.3,519.3,409.8,518.7,410.2z"/>
	<path class="st1" d="M537.8,423.1c-0.2,0.1-0.5,0.1-1,0.2c-0.4,0.1-0.8,0.1-1.3,0.2s-0.8,0.1-1.1,0c-0.3,0-0.4-0.1-0.4-0.3
		l-0.8-0.1l-0.2-0.4h-3.6c-0.1,0-0.1-0.1-0.1-0.1c0,0-0.1-0.1-0.2-0.2h-1.7c-0.4,0.4-0.8,0.8-1.2,1.2v3.4l0.3,0.2
		c0.1,0.4,0.2,0.8,0.3,1.2s0.1,0.8,0.1,1.2c0.3,0.4,0.6,0.8,1,1.2c0.4,0.4,0.8,0.7,1.3,0.8c0.1,0.3,0.3,0.5,0.6,0.6
		c0.2,0.1,0.5,0.2,0.8,0.2c0.3,0,0.6,0,0.9,0c0.3,0,0.6-0.1,0.8-0.1c0.1,0,0.1,0,0.2-0.1c0.1-0.1,0.1-0.1,0-0.2c0.4-0.1,0.7-0.1,1,0
		c0.3,0.1,0.6-0.1,0.8-0.4l0.7-0.1l0.4-0.7c0.3-0.1,0.6-0.1,0.8-0.2c0.2-0.1,0.4-0.3,0.6-0.6c0.2,0.1,0.3,0.2,0.5,0.2
		c0.2,0.1,0.3,0.1,0.5,0.2v1c-0.9,1.1-1.6,1.9-2.1,2.2c-0.5,0.4-0.8,0.7-1.1,0.8s-0.6,0.3-0.9,0.4c-0.3,0.1-0.7,0.4-1.3,1
		c-1.2,0-2.1,0-2.5,0c-0.5,0-0.9,0-1.2,0s-0.6-0.1-0.9-0.3c-0.3-0.2-0.9-0.4-1.7-0.8c-0.2-0.4-0.5-0.7-0.8-1
		c-0.3-0.3-0.6-0.6-0.9-0.9l-0.4-1.3l-0.3-0.2c-0.1-0.3-0.1-0.6-0.2-0.8c0-0.2-0.2-0.4-0.5-0.7c-0.1-0.4-0.2-1-0.3-1.8
		c-0.1-0.8-0.2-1.6-0.2-2.4s0-1.5,0.1-2.2c0.1-0.7,0.4-1.1,0.8-1.2c0.2-0.7,0.4-1.3,0.7-1.9c0.3-0.6,0.5-1.3,0.7-1.9
		c0.3-0.2,0.6-0.5,0.9-0.8c0.3-0.3,0.5-0.6,0.5-1l3.4-2.2c0.9,0,1.7,0,2.4,0.1c0.7,0.1,1.5,0.2,2.3,0.3c0.2,0.3,0.5,0.6,0.9,0.8
		c0.4,0.2,0.7,0.5,1.1,0.7c0.4,0.3,0.7,0.6,1.1,1c0.3,0.4,0.6,1,0.8,1.7l0.3,0.2c0.1,0.6,0.2,1,0.3,1.2c0.1,0.2,0.1,0.4,0.1,0.5
		s0,0.3-0.1,0.5c-0.1,0.2-0.2,0.6-0.3,1.2L537.8,423.1z M534.9,418.6c-0.2-0.4-0.4-0.7-0.5-0.8c-0.1,0-0.2,0-0.3,0
		c-0.1,0-0.2,0-0.3-0.1c0-0.1-0.1-0.3-0.1-0.5c-0.1-0.2-0.2-0.3-0.3-0.3h-2.7c-0.3,0.4-0.8,0.6-1.3,0.8c-0.2,0.3-0.3,0.5-0.5,0.8
		c-0.2,0.3-0.4,0.6-0.5,0.9c0.4,0.4,0.7,0.7,1.1,1.1h1.9c0.1,0,0.2,0,0.1,0.1s0,0.1,0.1,0.1h1.8c0.1,0,0.3,0,0.5-0.1
		c0.2-0.1,0.4-0.2,0.6-0.3c0.2-0.1,0.3-0.3,0.5-0.5c0.1-0.2,0.2-0.3,0.2-0.5C535.2,419.3,535.1,419,534.9,418.6z"/>
	<path class="st1" d="M552.8,427.4v0.3c0,0.2,0,0.4,0,0.6c0,0.2,0,0.4,0,0.6v0.3l0,3.9c-0.3,0.4-0.6,0.7-1,1
		c-0.4,0.3-0.8,0.6-1.1,0.8c-0.4,0.2-0.8,0.5-1.3,0.7c-1,0.2-1.8,0.3-2.4,0.3s-1.1,0.1-1.4,0.1c-0.4,0-0.7,0-0.9-0.1
		c-0.2-0.1-0.4-0.2-0.7-0.3c-0.2-0.1-0.5-0.3-0.8-0.5c-0.3-0.2-0.8-0.5-1.4-0.8c-0.2-0.4-0.4-0.7-0.7-1c-0.1-0.7-0.2-1.2-0.3-1.6
		c-0.1-0.4-0.1-0.8,0-1.1c0.1-0.3,0.2-0.7,0.3-1.1c0.2-0.4,0.4-0.9,0.7-1.5h0.9c0.3,0.7,0.6,1.4,0.8,2.1s0.5,1.4,0.7,2.1
		c-0.3,0.2-0.5,0.4-0.7,0.4c0.1,0.2,0.2,0.5,0.4,0.6c0.2,0,0.4,0,0.6,0c0.2,0,0.4-0.1,0.6-0.2h1.7l0.3,0.3c0.3-0.1,0.6-0.2,1-0.4
		s0.6-0.4,0.9-0.7c0.3-0.3,0.5-0.6,0.7-1c0.2-0.4,0.3-0.7,0.3-1.1c0-1.3,0-2.2-0.1-2.9s-0.3-1.1-0.6-1.3c-0.3-0.3-0.8-0.4-1.5-0.4
		c-0.6,0-1.6,0-2.7,0l-0.1-0.4c-0.5-0.1-1-0.2-1.4-0.4c-0.2-0.5-0.5-0.7-1-0.7c-0.4-0.5-0.7-1.1-0.9-1.8c-0.2-0.7-0.3-1.4-0.3-2.1
		c0-0.7,0.1-1.4,0.3-2.1c0.2-0.7,0.5-1.3,0.9-1.8c0.2-0.1,0.4-0.2,0.6-0.4c0.2-0.1,0.4-0.3,0.6-0.5s0.4-0.3,0.6-0.4
		c0.2-0.1,0.4-0.2,0.7-0.2l0.1-0.4h2c0,0,0.1-0.1,0.3-0.1c0.1,0,0.3,0,0.5,0c0.2,0,0.4,0.1,0.5,0.1c0.2,0,0.3,0,0.3,0l0.2,0.4
		c0.4,0.1,0.7,0.2,0.9,0.3c0.3,0.1,0.5,0.1,0.7,0.2c0.2,0.1,0.5,0.2,0.7,0.3c0.2,0.1,0.5,0.3,0.8,0.6c0.1,0.5,0.2,0.9,0.3,1.1
		c0.1,0.3,0.1,0.5,0.1,0.8c0,0.2,0,0.5-0.1,0.8c-0.1,0.3-0.2,0.7-0.3,1.2h-1.2c-0.1-0.2-0.3-0.5-0.5-0.7c-0.2-0.2-0.4-0.4-0.7-0.4
		c-0.2-0.6-0.6-1.2-1.1-1.8c-0.5-0.6-1-0.9-1.6-1.1c-0.3,0.1-0.5,0.2-0.6,0.4c-0.7,0-1.2,0.3-1.6,0.9c-0.4,0.6-0.6,1.3-0.6,1.9
		c0,0.4,0,0.7,0.1,0.9c0.1,0.2,0.2,0.4,0.4,0.6c0.1,0.2,0.3,0.3,0.4,0.4c0.1,0.1,0.2,0.3,0.3,0.5c0.4,0.3,0.8,0.4,1.3,0.4
		c0.5,0,1,0,1.5,0c0.1,0.1,0.2,0.2,0.2,0.3l1.1,0.1l0.2,0.4c1.2,0.2,2,0.7,2.5,1.5C552.5,425.2,552.8,426.2,552.8,427.4
		c0,0,0,0.1,0,0.4C552.9,427.6,552.8,427.5,552.8,427.4z M552.8,427.4c0,0.1,0,0.2,0,0.4C552.9,427.5,552.8,427.4,552.8,427.4z"/>
</g>
<g class="st0">
	<path class="st1" d="M612.1,543.8c-0.2-0.1-0.3-0.2-0.5-0.3c-0.2-0.1-0.3-0.2-0.3-0.4c-1.2-0.4-2.1-0.3-2.6,0.4
		c-0.5,0.7-0.8,1.8-0.9,3.2c-0.1,1.4,0,3,0.3,4.7c0.3,1.8,0.6,3.4,1.1,5.1c0.4,1.6,0.9,3.1,1.4,4.3c0.5,1.2,0.9,2,1.2,2.4l-1,1.8
		c-1,0.4-1.9,0.9-2.6,1.4c-0.8,0.5-1.5,1-2.3,1.5c-0.8,0.5-1.6,0.9-2.5,1.2c-0.9,0.3-1.9,0.6-3.1,0.6c-0.8,0.6-1.9,1.2-3.2,1.6
		c-1.3,0.5-2.7,0.8-4.2,1.1c-1.4,0.2-2.8,0.4-4.1,0.4c-1.3,0-2.3-0.2-3-0.5l-0.3-0.5c-0.9,0.1-1.8,0-2.6-0.1
		c-0.8-0.1-1.6-0.3-2.3-0.4c-0.7-0.2-1.5-0.3-2.2-0.5c-0.7-0.2-1.5-0.3-2.3-0.5c-0.7-0.9-1.6-1.6-2.7-2.2c-1.1-0.6-2.1-1.3-3-2.1
		c-3-2.7-5.2-5.3-6.7-8c-1.5-2.7-2.5-5.4-2.9-8.2c-0.4-2.8-0.4-5.7,0.2-8.8c0.5-3.1,1.3-6.3,2.5-9.8c0.9-0.7,1.7-1.6,2.4-2.8
		c0.7-1.1,1.5-2.3,2.3-3.4c0.8-1.2,1.8-2.2,3-3.2c1.2-1,2.7-1.7,4.5-2.2l0.2-0.6c0.9-0.2,1.5-0.8,1.9-1.6l4.1-0.5l0.4-0.6l4.5-0.5
		l0.9,0.4l3.6-0.4l0.3,0.3l1.1,0.4l0.7,1.1c0.6,0,1-0.1,1.4-0.4c0.4-0.2,0.7-0.5,1-0.8c0.3-0.3,0.6-0.6,0.9-1
		c0.3-0.3,0.7-0.6,1.2-0.9l2,0.4c0.5,0.8,1,1.6,1.5,2.7c0.5,1,0.8,2.1,1.1,3.3c0.3,1.1,0.4,2.2,0.4,3.3s-0.2,2.1-0.6,2.9
		c-1.1-0.8-2.3-1.8-3.4-2.9c-1.1-1.1-2.2-2.2-3.1-3.2c-0.9-0.1-1.7-0.3-2.5-0.6c-0.8-0.3-1.5-0.6-2.3-0.8c-0.8-0.2-1.6-0.4-2.4-0.5
		c-0.8-0.1-1.8,0.1-2.8,0.4l-0.3,0.7c-0.7,0.4-1.4,0.7-2,0.8s-1.3,0.4-1.9,0.9c-2.1,1.4-4,2.8-5.6,4c-1.6,1.2-3,2.5-4.1,4
		c-1.1,1.4-1.9,3.1-2.5,5c-0.5,1.9-0.7,4.3-0.6,7.1l-0.4,0.4c0.2,1.4,0.4,2.8,0.8,4.5c0.4,1.6,0.9,3.2,1.4,4.8
		c0.6,1.6,1.3,3.1,2.1,4.5c0.8,1.4,1.7,2.6,2.8,3.7l0.5,2.2c1,0.7,2.2,1.6,3.4,2.6c1.3,1,2.3,2.1,3.1,3.1c0.9-0.2,1.9-0.2,3,0
		c1,0.1,1.9,0.6,2.7,1.3l6.9-0.8c0.2-0.5,0.7-0.9,1.4-1.2c0.7-0.3,1.4-0.7,2.2-1.1c0.8-0.4,1.6-0.8,2.4-1.2s1.4-0.9,1.9-1.5
		c0.5-0.6,0.8-1.3,0.9-2.1s0.1-1.6,0-2.4c-0.1-0.8-0.2-1.6-0.3-2.4s-0.2-1.5-0.2-2.1c0-0.3-0.1-0.7-0.3-1.1c-0.2-0.5-0.3-1-0.5-1.5
		s-0.3-1-0.5-1.4c-0.1-0.4-0.2-0.8-0.1-0.9c0.1-1.1,0.2-1.9,0.1-2.6c0-0.7-0.2-1.2-0.5-1.6c-0.3-0.4-0.8-0.7-1.4-0.8
		c-0.7-0.1-1.5-0.2-2.6-0.2c-0.3-0.2-0.5-0.3-0.8-0.4c-0.3-0.1-0.6-0.2-0.9-0.3l-1.3-1.4c0.2-0.7,0.4-1.3,0.7-1.9l3-1.2
		c0.3,0.3,1,0.4,2.2,0.4c1.1,0,2.4-0.1,3.8-0.2c1.4-0.1,2.7-0.3,3.9-0.5c1.2-0.2,2.1-0.3,2.6-0.4c0.3,0.2,0.6,0.4,1,0.6
		c0.3,0.2,0.7,0.4,1.1,0.5l0.4,3.5L612.1,543.8z"/>
	<path class="st1" d="M643.2,546.2c-0.4,0.1-0.9,0.3-1.6,0.5c-0.7,0.2-1.4,0.4-2.1,0.5c-0.7,0.2-1.3,0.2-1.8,0.2
		c-0.5,0-0.7-0.1-0.7-0.4l-1.4,0l-0.4-0.6l-6,0.7c-0.1,0-0.2-0.1-0.2-0.2c-0.1-0.1-0.2-0.1-0.3-0.2l-2.9,0.3
		c-0.6,0.7-1.2,1.4-1.8,2.1l0.6,5.3l0.6,0.2c0.3,0.6,0.5,1.2,0.7,1.8c0.1,0.6,0.3,1.2,0.5,1.9c0.6,0.6,1.2,1.1,1.9,1.6
		c0.7,0.5,1.4,0.9,2.3,1c0.3,0.4,0.6,0.7,1.1,0.9s0.9,0.2,1.3,0.2c0.5,0,1-0.1,1.5-0.2c0.5-0.1,1-0.2,1.4-0.3c0.1,0,0.2-0.1,0.3-0.2
		c0.1-0.1,0.1-0.2-0.1-0.3c0.6-0.2,1.2-0.3,1.7-0.2c0.5,0.1,0.9-0.2,1.3-0.8l1.2-0.3l0.6-1.1c0.5-0.2,1-0.3,1.3-0.4
		c0.4-0.1,0.7-0.5,0.8-1c0.3,0.1,0.6,0.2,0.9,0.3s0.6,0.2,0.8,0.2l0.2,1.5c-1.3,1.9-2.4,3.2-3.1,3.9c-0.7,0.7-1.3,1.2-1.8,1.5
		c-0.5,0.3-0.9,0.5-1.4,0.8c-0.5,0.2-1.2,0.8-2,1.8c-2,0.2-3.4,0.4-4.2,0.6c-0.8,0.1-1.5,0.2-2,0.2c-0.5,0-1-0.1-1.6-0.3
		c-0.5-0.2-1.6-0.5-3-1c-0.4-0.5-0.9-1-1.5-1.4c-0.5-0.4-1.1-0.8-1.7-1.2l-0.9-2l-0.5-0.2c-0.2-0.5-0.4-0.9-0.5-1.3
		c-0.1-0.3-0.4-0.6-1-0.9c-0.2-0.6-0.5-1.5-0.8-2.7c-0.3-1.2-0.6-2.5-0.8-3.7c-0.2-1.3-0.3-2.4-0.2-3.5c0.1-1.1,0.4-1.7,1-2
		c0.2-1.1,0.4-2.1,0.8-3.2c0.4-1,0.6-2.1,0.8-3.2c0.5-0.4,0.9-0.9,1.3-1.4c0.4-0.5,0.7-1,0.7-1.7l5.2-4.1c1.5-0.2,2.8-0.3,4-0.3
		c1.2,0,2.5,0,3.9,0c0.4,0.5,1,0.8,1.6,1.1c0.6,0.3,1.3,0.6,2,0.9c0.7,0.3,1.3,0.8,2,1.4c0.6,0.6,1.2,1.4,1.6,2.5l0.5,0.2
		c0.3,0.9,0.5,1.5,0.7,1.8c0.2,0.3,0.2,0.6,0.3,0.8c0,0.2,0,0.5-0.1,0.9c-0.1,0.3-0.2,1-0.2,1.9L643.2,546.2z M637.5,539.7
		c-0.4-0.6-0.7-1-0.9-1.2c-0.1,0-0.3,0-0.4,0c-0.1,0-0.3,0-0.5,0c-0.1-0.2-0.2-0.4-0.3-0.7c-0.2-0.3-0.3-0.4-0.6-0.4l-4.5,0.5
		c-0.5,0.6-1.2,1.1-2,1.5c-0.2,0.5-0.5,0.9-0.7,1.4c-0.2,0.5-0.5,1-0.8,1.5c0.7,0.5,1.3,1,2,1.6l3.2-0.4c0.2,0,0.3,0,0.3,0.2
		c0,0.1,0.1,0.2,0.2,0.2l3-0.3c0.2,0,0.5-0.1,0.8-0.3c0.3-0.2,0.6-0.4,0.9-0.6c0.3-0.2,0.5-0.5,0.7-0.8c0.2-0.3,0.3-0.6,0.2-0.8
		C638.1,540.7,637.9,540.3,637.5,539.7z"/>
	<path class="st1" d="M680.3,560.7l0.2,2.3l-1,0.1l-0.5-0.4l-7.3,0.8c-0.4-0.3-0.8-0.5-1.2-0.5c-0.5,0-0.8-0.2-1.2-0.5l-0.1-1.1
		c0.4-0.2,0.7-0.7,0.8-1.3c0.5-0.1,1-0.2,1.5-0.3c0.5-0.1,0.9-0.3,1.3-0.8l-0.7-6.4c-0.2-0.2-0.3-0.4-0.4-0.5
		c-0.1-0.1-0.1-0.2-0.1-0.2c0-0.1,0-0.2,0.1-0.3c0.1-0.1,0.1-0.2,0.3-0.5c0-0.3,0-0.8,0-1.6c0-0.8,0-1.5,0-2.3
		c0-0.8-0.1-1.4-0.3-1.9c-0.2-0.5-0.4-0.7-0.8-0.5c-0.2-2.1-0.4-3.7-0.5-4.9c-0.1-1.2-0.2-2-0.2-2.6s-0.1-0.9-0.2-1.1
		c-0.1-0.2-0.3-0.3-0.5-0.4c-0.2-0.1-0.6-0.3-1.1-0.5c-0.5-0.3-1.1-0.8-1.9-1.5l-4.5,0.5c-0.2,0.3-0.4,0.5-0.6,0.6
		c-0.2,0.1-0.5,0.3-0.8,0.4c-0.1,0.1-0.2,0.2-0.4,0.4c-0.2,0.2-0.4,0.5-0.7,0.8c-0.3,0.3-0.5,0.6-0.7,0.8c-0.2,0.3-0.4,0.4-0.5,0.6
		c-0.1,2.9,0.1,5.7,0.4,8.4c0.3,2.7,0.6,5.5,1,8.4c-0.1,0.2-0.2,0.3-0.2,0.5c-0.1,0.2-0.2,0.3-0.4,0.4l0.5,4.5
		c0.7,0.3,1.3,0.5,1.9,0.6c0.6,0.1,1,0.6,1.3,1.4c-0.1,0.4-0.2,0.8-0.4,1.1c-0.2,0.3-0.3,0.7-0.4,1.1l-6.5,0.8l-0.3-0.7
		c-0.7,0.1-1.4,0.2-2.1,0.3c-0.8,0.1-1.5,0-2.1-0.5c-0.2-0.9-0.4-1.5-0.4-2c0-0.5,0.1-0.9,0.3-1.1c0.2-0.3,0.6-0.6,1-0.8
		c0.4-0.2,1-0.6,1.7-1.1l-0.8-6.9l0.7-0.3l-0.4-3.3l-0.7-0.1c0-0.4-0.1-1-0.3-1.8c-0.1-0.8-0.2-1.6-0.3-2.3
		c-0.1-0.8-0.1-1.6-0.2-2.3c0-0.7,0.1-1.1,0.2-1.2c0.1-0.1,0.1-0.3,0-0.4c-0.1-0.2-0.3-0.2-0.4-0.2c-0.1-0.7-0.2-1.3-0.3-1.7
		c-0.1-0.4-0.3-0.7-0.5-0.9c-0.2-0.2-0.6-0.4-1-0.5c-0.4-0.1-0.9-0.3-1.6-0.5l-0.2-1.9c0.8-0.5,1.5-0.9,2.2-1.4
		c0.7-0.5,1.4-1,2.2-1.4l0.6-1.2l2.8-0.3l0.4,3.2c0.2,0.1,0.4,0.3,0.7,0.4c0.3,0.1,0.6,0.2,1,0.3s0.7,0.1,0.9,0
		c0.3,0,0.6-0.2,0.7-0.4l-0.2-0.3c0.6-0.3,1.2-0.6,1.7-0.9c0.6-0.3,1.1-0.7,1.5-1.2c0.5-0.1,0.9-0.3,1.2-0.5c0.4-0.2,0.6-0.5,0.8-1
		c0.8-0.2,1.3-0.4,1.7-0.6c0.3-0.2,0.6-0.3,0.9-0.3c0.2-0.1,0.5,0,0.9,0c0.3,0.1,0.9,0.2,1.7,0.3l0.4,0.5c1.1,0.2,2,0.6,2.7,1.2
		c0.7,0.6,1.5,1.2,2.4,1.8c0.2,1.2,0.4,2.5,0.7,4c0.3,1.5,0.6,3,0.9,4.5c0.3,1.5,0.5,3,0.6,4.5c0.1,1.4,0,2.7-0.2,3.8l0.6,0.8
		l0.5,4.7c0,0.1,0.1,0.2,0.2,0.3c0.1,0.1,0.2,0,0.2-0.1l0.5,2.6l2.1,1.3L680.3,560.7z"/>
	<path class="st1" d="M705.2,528.1c0.1,0.3,0.2,0.7,0.2,1c0,0.3,0,0.7-0.1,1c-0.1,0.4-0.2,0.9-0.3,1.5c-0.4,0.9-0.7,1.4-1.1,1.6
		c-0.3,0.1-0.7,0.1-1.1-0.2s-0.7-0.6-0.9-0.9c-0.2-0.3-0.3-0.5-0.4-0.5l-4.9,0.6c-0.3,0.4-0.8,0.9-1.3,1.5c-0.5,0.7-0.8,1.2-0.7,1.8
		l2.3,20c0,0.3,0.2,0.6,0.4,0.8c0.3,0.2,0.6,0.4,0.9,0.5c0.4,0.1,0.7,0.2,1.1,0.2s0.7,0.1,0.9,0.1l1.2,1.1l0.2,1.6
		c-0.3-0.2-0.5-0.4-0.8-0.5c-0.3,0.3-1.1,0.6-2.2,0.8c-1.1,0.2-2.4,0.4-3.7,0.6c-1.3,0.2-2.6,0.3-3.8,0.4c-1.2,0.1-2.1,0.2-2.5,0.2
		c-0.2-0.2-0.4-0.4-0.6-0.6c-0.2-0.2-0.4-0.4-0.5-0.7c-0.1-0.6,0-1,0.2-1.3c0.2-0.2,0.5-0.4,0.8-0.5c0.3-0.1,0.7-0.2,1.1-0.2
		c0.4-0.1,0.7-0.3,1-0.6c0.2-0.2,0.3-0.9,0.3-2c0-1.1,0-2.4-0.1-3.7c-0.1-1.3-0.2-2.5-0.4-3.6c-0.2-1.1-0.3-1.8-0.5-1.9
		c-0.1-0.1-0.3-0.2-0.4-0.4c-0.2-0.2-0.3-0.4-0.3-0.5l-0.6-5.6c-0.1-0.8-0.1-1.3,0-1.6c0.1-0.3,0.2-0.6,0.2-0.8c0-0.3-0.1-0.6-0.2-1
		c-0.2-0.4-0.6-1.1-1.2-2.1c-1.3-0.1-2.1-0.4-2.4-0.9c-0.3-0.5-0.3-1-0.1-1.6c0.2-0.6,0.6-1.2,1.1-1.9c0.5-0.7,0.9-1.2,1.2-1.7
		l3.6-0.4l0.4-0.5l1.9-0.2l-0.2,0.4l0.6,3.6l0.1-0.7l1-0.2l1.6-1.8c0.8-0.2,1.4-0.4,1.8-0.7c0.3-0.3,0.8-0.8,1.3-1.4
		c1-0.1,1.7-0.2,2.1-0.2c0.4,0,0.7,0,0.9,0c0.2,0,0.5,0.1,0.7,0.3c0.3,0.1,0.8,0.3,1.7,0.6C704.9,527.3,705.1,527.7,705.2,528.1z"/>
	<path class="st1" d="M735.7,535.5c-0.4,0.1-0.9,0.3-1.6,0.5c-0.7,0.2-1.4,0.4-2.1,0.5c-0.7,0.2-1.3,0.2-1.8,0.2s-0.7-0.1-0.7-0.4
		l-1.4,0l-0.4-0.6l-6,0.7c-0.1,0-0.2-0.1-0.2-0.2c-0.1-0.1-0.2-0.1-0.3-0.2l-2.9,0.3c-0.6,0.7-1.2,1.4-1.8,2.1l0.6,5.3l0.6,0.2
		c0.3,0.6,0.5,1.2,0.7,1.8s0.3,1.2,0.5,1.9c0.6,0.6,1.2,1.1,1.9,1.6c0.7,0.5,1.4,0.9,2.3,1c0.3,0.4,0.6,0.7,1.1,0.9
		c0.4,0.1,0.9,0.2,1.3,0.2c0.5,0,1-0.1,1.5-0.2c0.5-0.1,1-0.2,1.4-0.3c0.1,0,0.2-0.1,0.3-0.2c0.1-0.1,0.1-0.2-0.1-0.3
		c0.6-0.2,1.2-0.3,1.7-0.2c0.5,0.1,0.9-0.2,1.3-0.8l1.2-0.3l0.6-1.1c0.5-0.2,1-0.3,1.3-0.4c0.4-0.1,0.7-0.5,0.8-1
		c0.3,0.1,0.6,0.2,0.9,0.3c0.3,0.1,0.6,0.2,0.8,0.2l0.2,1.5c-1.3,1.9-2.4,3.2-3.1,3.9c-0.7,0.7-1.3,1.2-1.8,1.5
		c-0.5,0.3-0.9,0.5-1.4,0.8s-1.2,0.8-2,1.8c-2,0.2-3.4,0.4-4.2,0.6c-0.8,0.1-1.5,0.2-2,0.2c-0.5,0-1-0.1-1.6-0.3
		c-0.5-0.2-1.6-0.5-3-1c-0.4-0.5-0.9-1-1.5-1.4c-0.5-0.4-1.1-0.8-1.7-1.2l-0.9-2l-0.5-0.2c-0.2-0.5-0.4-0.9-0.5-1.3
		c-0.1-0.3-0.4-0.6-1-0.9c-0.2-0.6-0.5-1.5-0.8-2.7c-0.3-1.2-0.6-2.5-0.8-3.7s-0.3-2.4-0.2-3.5c0.1-1.1,0.4-1.7,1-2
		c0.2-1.1,0.4-2.1,0.8-3.2s0.6-2.1,0.8-3.2c0.5-0.4,0.9-0.9,1.3-1.4c0.4-0.5,0.7-1,0.7-1.7l5.2-4.1c1.5-0.2,2.8-0.3,4-0.3
		c1.2,0,2.5-0.1,3.9,0c0.4,0.5,1,0.8,1.6,1.1c0.6,0.3,1.3,0.6,2,0.9s1.3,0.8,2,1.4c0.6,0.6,1.2,1.4,1.6,2.5l0.5,0.2
		c0.3,0.9,0.5,1.5,0.7,1.8c0.2,0.3,0.2,0.6,0.3,0.8c0,0.2,0,0.5-0.1,0.9c-0.1,0.3-0.2,1-0.2,1.9L735.7,535.5z M730.1,529
		c-0.4-0.6-0.7-1-0.9-1.2c-0.1,0-0.3,0-0.4,0s-0.3,0-0.5,0c-0.1-0.2-0.2-0.4-0.3-0.7c-0.2-0.3-0.3-0.4-0.6-0.4l-4.5,0.5
		c-0.5,0.6-1.2,1.1-2,1.5c-0.2,0.5-0.5,0.9-0.7,1.4s-0.5,1-0.8,1.5c0.7,0.5,1.3,1,2,1.6l3.2-0.4c0.2,0,0.3,0,0.3,0.2
		c0,0.1,0.1,0.2,0.2,0.2l3-0.3c0.2,0,0.5-0.1,0.8-0.3s0.6-0.4,0.9-0.6c0.3-0.2,0.5-0.5,0.7-0.8c0.2-0.3,0.3-0.6,0.2-0.8
		C730.7,530,730.5,529.6,730.1,529z"/>
	<path class="st1" d="M761.6,539.3l0,0.4c0,0.3,0.1,0.6,0.1,0.9c0,0.3,0,0.6,0.1,0.9l0,0.4l0.6,6.1c-0.4,0.6-0.8,1.2-1.4,1.7
		c-0.6,0.5-1.2,1-1.7,1.4c-0.5,0.4-1.2,0.9-2.1,1.4c-1.6,0.4-2.9,0.8-3.9,1c-1,0.2-1.8,0.4-2.4,0.5c-0.6,0.1-1.1,0.1-1.5,0.1
		c-0.4-0.1-0.8-0.2-1.2-0.3c-0.4-0.2-0.9-0.4-1.5-0.7c-0.6-0.3-1.4-0.6-2.4-1c-0.4-0.5-0.9-1-1.4-1.5c-0.4-1-0.6-1.8-0.8-2.5
		s-0.2-1.2-0.2-1.8c0-0.5,0.1-1.1,0.3-1.7c0.2-0.6,0.5-1.4,0.8-2.4l1.5-0.2c0.6,1,1.2,2.1,1.8,3.1c0.5,1.1,1.1,2.1,1.6,3.2
		c-0.4,0.4-0.8,0.7-1.1,0.8c0.2,0.4,0.4,0.7,0.7,0.9c0.4,0,0.7,0,1.1-0.1c0.3-0.1,0.6-0.2,0.9-0.5l2.9-0.3l0.5,0.4
		c0.5-0.2,1-0.4,1.5-0.8c0.5-0.4,1-0.8,1.4-1.3c0.4-0.5,0.7-1,1-1.6c0.2-0.6,0.3-1.2,0.3-1.8c-0.2-2-0.5-3.5-0.7-4.5
		c-0.3-1-0.7-1.6-1.3-2c-0.6-0.3-1.5-0.4-2.6-0.3c-1.1,0.1-2.6,0.3-4.6,0.5l-0.3-0.6c-0.9,0-1.7-0.2-2.4-0.4c-0.5-0.7-1-1-1.7-0.9
		c-0.8-0.7-1.4-1.5-1.9-2.6c-0.5-1-0.7-2.1-0.8-3.3c-0.1-1.2-0.1-2.3,0.2-3.4c0.2-1.1,0.6-2.1,1.2-3c0.4-0.2,0.7-0.4,1-0.7
		c0.3-0.3,0.6-0.6,0.9-0.9c0.3-0.3,0.6-0.5,0.9-0.7c0.3-0.2,0.7-0.3,1.1-0.4l0.1-0.7l3.3-0.4c0-0.1,0.2-0.1,0.4-0.2
		c0.2-0.1,0.5-0.1,0.8-0.1c0.3,0,0.6,0,0.9,0c0.3,0,0.4,0,0.5,0l0.3,0.5c0.6,0.1,1.2,0.2,1.6,0.2c0.4,0,0.9,0.1,1.3,0.2
		c0.4,0.1,0.8,0.2,1.2,0.4c0.4,0.2,0.9,0.4,1.5,0.8c0.3,0.7,0.5,1.3,0.7,1.7c0.2,0.4,0.3,0.8,0.4,1.2c0.1,0.4,0.1,0.8,0,1.3
		c0,0.5-0.2,1.1-0.3,2l-2,0.2c-0.3-0.3-0.6-0.7-1-1c-0.4-0.3-0.8-0.5-1.3-0.5c-0.5-0.9-1.2-1.7-2.1-2.5c-0.9-0.8-1.9-1.3-2.8-1.5
		c-0.5,0.1-0.8,0.4-0.9,0.7c-1.1,0.1-2,0.7-2.5,1.8c-0.6,1.1-0.8,2.1-0.7,3.1c0.1,0.6,0.2,1.1,0.4,1.4c0.2,0.4,0.4,0.7,0.7,0.9
		c0.3,0.2,0.5,0.4,0.7,0.6s0.4,0.4,0.5,0.7c0.7,0.3,1.5,0.4,2.3,0.3c0.8-0.1,1.6-0.3,2.4-0.4c0.2,0.1,0.3,0.2,0.3,0.4l1.8-0.1
		l0.4,0.5c2,0.1,3.5,0.7,4.5,1.8C760.6,536,761.3,537.5,761.6,539.3c0,0,0.1,0.2,0.1,0.6C761.7,539.6,761.6,539.4,761.6,539.3z
		 M761.6,539.3c0.1,0.1,0.1,0.3,0.1,0.6C761.7,539.5,761.6,539.3,761.6,539.3z"/>
</g>
<g class="st0">
	<path d="M816.6,160l-3-1.3c-0.2,0.3-0.6,0.5-1,0.6s-0.8,0.2-1.2,0.2c-0.2,0.5-0.4,0.9-0.6,1.3c-0.2,0.4,0,0.8,0.5,1.3
		c0,1.2,0.1,2.4,0.1,3.5c0,1.1,0,2.3-0.1,3.4l0.4,0.8c-0.1,1.8-0.2,3.5-0.3,5.2c-0.1,1.7-0.1,3.3-0.1,5c0,1.7,0,3.3,0.1,5.1
		c0,1.7,0.1,3.5,0.2,5.4c-0.2,0.3-0.3,0.6-0.4,0.7c-0.1,0.1-0.1,0.3-0.1,0.4c0,0.1,0.1,0.3,0.2,0.5c0.1,0.2,0.2,0.4,0.4,0.8
		c-0.2,0.8-0.4,1.9-0.4,3.3c0,1.4,0.1,2.8,0.2,4.4s0.3,3.1,0.5,4.6c0.2,1.5,0.3,2.7,0.5,3.6c-0.3,0.3-0.7,0.6-1.1,0.8
		c-0.4,0.3-0.8,0.5-1.1,0.6c-0.6-0.2-1.4-0.8-2.5-1.8s-2.3-2.2-3.6-3.6c-1.3-1.4-2.7-2.9-4.2-4.6c-1.4-1.7-2.8-3.3-4-4.8
		c-1.3-1.6-2.3-3-3.3-4.2s-1.6-2.2-1.9-2.9c-0.8-0.5-1.6-1.2-2.3-2c-0.7-0.8-1.4-1.6-2.1-2.5c-0.7-0.9-1.4-1.7-2.2-2.6
		c-0.7-0.8-1.5-1.6-2.4-2.3c-0.2-0.6-0.7-1.5-1.5-2.7c-0.8-1.2-1.6-2.4-2.5-3.6c-0.9-1.2-2-2.7-3.4-4.5c0,2.3-0.1,4.3-0.1,6
		c0,1.7,0,3.7-0.1,5.8c0,2.1,0,4.1,0,6c0,1.9,0.1,3.6,0.2,5c0.1,1.5,0.2,2.4,0.4,2.9c-0.2,0.6-0.3,1.4-0.4,2.5
		c-0.1,1.1-0.1,2.3-0.1,3.5c0,1.3,0.1,2.4,0.4,3.6c0.2,1.1,0.5,2,1,2.6l3,0.2c0.4,0.3,0.8,0.5,1.2,0.5c0.4,0.1,0.8,0.2,1.2,0.2
		c0.4,0.1,0.7,0.2,1.1,0.5c0.3,0.2,0.6,0.6,0.8,1.2l-0.5,2c-0.7,0-1.5,0-2.2-0.1c-0.8-0.1-1.6-0.1-2.4-0.1c-0.8,0-1.5,0.1-2.3,0.2
		c-0.8,0.1-1.4,0.3-2.1,0.7l-0.4,0.6l-1.5,0.1c-0.5-0.4-1-0.7-1.7-0.8c-0.6-0.1-1.3-0.2-2-0.2s-1.4,0-2.1,0s-1.4-0.1-2-0.4l-0.8-2.3
		l0.3-1.8l-0.4-0.4h5c0.6-0.4,1-0.9,1-1.6c0.1-0.7,0.2-1.3,0.2-2l-0.9-40.9c-0.3-0.3-0.8-0.7-1.3-1c-0.5-0.4-1.1-0.7-1.6-1
		s-1.1-0.5-1.7-0.7c-0.5-0.2-1-0.2-1.5-0.2l-1.4-1.3l-0.1-0.5l1.3-1.4h9.2c0,0,0.2-0.1,0.5-0.1c0.3,0,0.5,0,0.8,0
		c0.3,0,0.6,0.1,0.9,0.1c0.3,0,0.5,0,0.6,0c0.3,0.2,0.8,0.8,1.7,1.8c0.8,0.9,1.8,2.1,2.8,3.3c1.1,1.3,2.2,2.6,3.3,4.1
		c1.2,1.4,2.2,2.8,3.2,4c1,1.3,1.8,2.3,2.4,3.3c0.6,0.9,0.9,1.5,1,1.7l1.8,1.5c0,0.5,0.2,1,0.7,1.5c0.5,0.5,0.9,0.9,1.3,1.1
		c0,0.1,0.3,0.5,0.7,1c0.4,0.5,0.9,1.1,1.5,1.8c0.6,0.6,1.1,1.2,1.6,1.8c0.5,0.6,0.9,0.9,1.1,1.1c0.4,1.4,1,2.6,1.6,3.5
		c0.6,0.9,1.8,1.5,3.4,1.6c0.9,3.3,2.3,6.3,4.2,9.1c0.1-0.8,0.3-1.6,0.6-2.4c0.2-0.8,0.5-1.6,0.7-2.4l-0.9-2.3
		c0.5-1.5,0.7-3,0.6-4.4s-0.2-2.9-0.3-4.6l0.5-0.7l-0.5-9.6l0.8-0.2c-0.1-1.5-0.2-3-0.2-4.6c0-1.6,0-3.1,0.1-4.6l0.1,0.1
		c0-0.4,0-0.7,0-0.9c0-0.2-0.1-0.5-0.1-0.7c-0.1-0.2-0.2-0.4-0.3-0.7c-0.1-0.2-0.2-0.5-0.4-0.9h-3.7c-0.3,0-0.4-0.1-0.4-0.2
		c0-0.1,0-0.2-0.1-0.3l-2.9-0.1l-0.6-0.5l0.4-2.1H816l3.3,3.2L816.6,160z"/>
	<path d="M843.6,191.2c-0.4,0.1-0.9,0.2-1.6,0.3c-0.7,0.1-1.4,0.2-2.1,0.3c-0.7,0.1-1.3,0.1-1.8,0c-0.5,0-0.7-0.2-0.7-0.5l-1.3-0.1
		l-0.3-0.6h-6c-0.1,0-0.2-0.1-0.2-0.2c0-0.1-0.1-0.2-0.3-0.2h-2.9c-0.7,0.7-1.3,1.3-2.1,1.8v5.3l0.6,0.3c0.2,0.6,0.4,1.2,0.5,1.8
		c0.1,0.6,0.2,1.3,0.2,1.9c0.5,0.6,1.1,1.2,1.7,1.8c0.6,0.6,1.3,1,2.1,1.3c0.2,0.5,0.6,0.8,1,1c0.4,0.2,0.8,0.3,1.3,0.3
		c0.5,0,1,0,1.5-0.1c0.5-0.1,1-0.1,1.4-0.1c0.1,0,0.2,0,0.3-0.1c0.1-0.1,0.1-0.2,0-0.3c0.6-0.1,1.2-0.2,1.7,0c0.5,0.1,1-0.1,1.3-0.7
		l1.2-0.1l0.7-1.1c0.5-0.1,1-0.2,1.4-0.3c0.4-0.1,0.7-0.4,1-0.9c0.3,0.1,0.6,0.3,0.8,0.4c0.3,0.1,0.5,0.2,0.8,0.3v1.6
		c-1.6,1.7-2.7,2.9-3.5,3.5c-0.8,0.6-1.4,1-1.9,1.3c-0.5,0.2-1,0.4-1.5,0.6c-0.5,0.2-1.2,0.7-2.2,1.5c-2,0-3.5,0-4.3,0.1
		c-0.8,0-1.5,0-2,0c-0.5-0.1-1-0.2-1.5-0.5c-0.5-0.3-1.5-0.7-2.9-1.3c-0.4-0.6-0.8-1.1-1.3-1.6c-0.5-0.5-1-0.9-1.6-1.3l-0.6-2.1
		l-0.5-0.3c-0.1-0.5-0.2-1-0.3-1.3c-0.1-0.4-0.4-0.7-0.9-1c-0.1-0.6-0.3-1.5-0.5-2.8c-0.2-1.2-0.3-2.5-0.4-3.8
		c-0.1-1.3,0-2.4,0.2-3.5c0.2-1,0.6-1.7,1.3-1.9c0.3-1,0.7-2.1,1.1-3c0.5-1,0.8-2,1.1-3c0.5-0.4,1-0.8,1.5-1.2s0.8-1,0.9-1.6
		l5.7-3.5c1.5,0,2.8,0,4,0.1c1.2,0.1,2.5,0.2,3.9,0.4c0.4,0.5,0.9,0.9,1.5,1.3c0.6,0.3,1.2,0.7,1.8,1.1c0.6,0.4,1.2,1,1.8,1.6
		c0.6,0.6,1,1.5,1.3,2.7l0.5,0.3c0.2,0.9,0.3,1.6,0.5,1.9c0.1,0.3,0.2,0.6,0.2,0.8c0,0.2-0.1,0.5-0.2,0.8c-0.1,0.3-0.3,0.9-0.5,1.8
		L843.6,191.2z M838.7,184.1c-0.3-0.6-0.6-1-0.8-1.3c-0.1,0-0.3,0-0.4,0c-0.1,0-0.3-0.1-0.5-0.1c0-0.2-0.1-0.4-0.2-0.7
		c-0.1-0.3-0.3-0.4-0.5-0.4h-4.5c-0.6,0.6-1.3,1-2.1,1.3c-0.3,0.4-0.6,0.9-0.8,1.3c-0.3,0.4-0.6,0.9-0.9,1.4
		c0.6,0.6,1.2,1.2,1.8,1.8h3.3c0.2,0,0.3,0.1,0.2,0.2c0,0.1,0,0.2,0.2,0.2h3c0.2,0,0.5-0.1,0.8-0.2s0.6-0.3,1-0.5
		c0.3-0.2,0.6-0.5,0.8-0.7c0.2-0.3,0.3-0.5,0.3-0.8C839.2,185.2,839,184.7,838.7,184.1z"/>
	<path d="M877.9,210c-0.3,0.3-0.5,0.6-0.8,0.7c-1.2,0.2-2.4,0.4-3.5,0.5c-1.1,0.1-2.3,0.1-3.6,0.1c-0.6-0.7-1-1.5-1.3-2.3
		c0.1-0.5,0.3-0.9,0.5-1.3c0.2-0.4,0.3-0.8,0.4-1.3c-0.2-0.5-0.5-0.8-0.8-0.9c-0.2-1.2-0.7-2.3-1.4-3.3c-0.7-1-1.2-2.1-1.5-3.3
		c-0.5-0.1-1-0.2-1.4-0.2c-0.4,0-0.8,0.1-1.3,0.5c-0.2,0.5-0.4,0.9-0.6,1.2c-0.1,0.3-0.3,0.5-0.5,0.7c-0.2,0.2-0.4,0.4-0.6,0.6
		c-0.2,0.2-0.5,0.4-0.9,0.8c0,1.1,0,1.8,0,2.2c0,0.4-0.1,0.7-0.1,0.8c-0.1,0.2-0.2,0.4-0.3,0.6c-0.1,0.2-0.3,0.7-0.5,1.5l0.5,1.1
		l1.5,0.4l0.2,0.4l0.6,0.3v1.6h-5.9c-0.3,0-0.4-0.1-0.4-0.4l-0.1,0.4H852c-0.1-0.2-0.3-0.3-0.7-0.4c-0.4,0-0.7-0.1-0.8-0.1l-0.5-1.5
		l0.4-1.3c0.6-0.5,1.2-0.8,1.7-1c0.5-0.1,1.2-0.2,2-0.3c0.4-0.7,0.8-1.2,1.2-1.6c0.4-0.4,0.7-1,0.9-1.8c0.7-0.3,1.1-0.8,1.3-1.4
		c0.2-0.7,0.3-1.3,0.4-1.9l0.6-0.2l0.1-0.9c0.4-0.4,0.8-0.8,1.1-1.3c0.4-0.5,0.7-1,0.9-1.5c-0.1-0.3-0.2-0.6-0.2-0.8
		c-0.1-0.3-0.2-0.5-0.3-0.8l-0.8-0.3c-0.2-0.3-0.4-0.6-0.6-1c-0.2-0.3-0.5-0.6-0.8-0.7c-0.1-0.4-0.3-0.8-0.7-1.3
		c-0.4-0.5-0.8-1.1-1.2-1.6c-0.4-0.6-0.9-1.1-1.3-1.7c-0.4-0.5-0.7-1-0.8-1.5l-1.8-1.3l-0.6-2.1c-0.6-0.5-1.2-1.1-1.7-1.6
		s-0.8-1.1-1-1.7c-0.1-0.5,0-1,0.5-1.5c0.4-0.4,1.3-0.8,2.6-1.1c0.7,0.3,1.4,0.4,2,0.4c0.7,0,1.4,0,2.2,0l0.1,0.7l0.1-0.6h4.9
		c0.1,0.4,0.3,0.8,0.4,1.1c0.1,0.3,0.4,0.6,0.8,0.8v1.6c-0.6,0.2-1.1,0.6-1.5,1.1c-1.1,0-1.8,0.3-2.1,0.6c-0.3,0.4-0.4,0.8-0.3,1.2
		c0.1,0.4,0.5,0.9,1,1.3c0.5,0.4,1.1,0.7,1.8,0.8c0.1,0.5,0.2,1,0.3,1.5c0,0.5,0,1-0.3,1.4h1.6l0.5,1.7l0.6,0.1
		c1.1-0.5,1.9-1,2.5-1.7c0.6-0.7,1-1.3,1.3-2c0.3-0.6,0.6-1.2,0.7-1.7c0.2-0.5,0.4-0.9,0.8-1.1v-2.6h-3.6c-0.2-0.5-0.4-1.1-0.5-1.7
		c0.1-0.3,0.3-0.6,0.6-0.9s0.5-0.5,0.7-0.8h3l0.9-0.7c0.2,0.1,0.4,0.2,0.5,0.4s0.3,0.3,0.4,0.4h3.4c0.2-0.5,0.5-0.8,0.8-0.8
		c0.4,0,0.8,0.1,1.1,0.4c0.4,0.2,0.7,0.6,1,1c0.3,0.4,0.5,0.8,0.6,1.1c-0.2,0.4-0.4,0.7-0.8,1s-0.7,0.5-1,0.7
		c-0.4,0.2-0.7,0.4-1.1,0.6c-0.4,0.2-0.8,0.4-1.1,0.7l-0.6,2.5c-0.2,0-0.6,0.4-1.1,1c-0.5,0.6-0.9,1.3-1.4,2.1
		c-0.5,0.8-0.9,1.5-1.3,2.3c-0.4,0.7-0.6,1.2-0.7,1.5c-0.8,0.4-1.2,0.9-1.2,1.6c0,0.7,0.4,1.2,1.2,1.6c0.1,0.8,0.4,1.5,0.8,2.1
		s0.9,1.1,1.5,1.7s1.1,1.2,1.7,1.9c0.5,0.7,1,1.6,1.2,2.6l0.5,0.3c0.1,1.1,0.5,2,1.3,2.7c0.8,0.7,1.5,1.5,2.2,2.2
		C878.4,209.3,878.2,209.6,877.9,210z"/>
	<path d="M904.8,180.2c-0.3,0.3-0.7,0.5-1.2,0.6c-0.5,0-1,0-1.5-0.1c-0.5-0.1-1-0.2-1.5-0.2h-6.2c-0.1,0.1-0.3,0.3-0.5,0.7
		c-0.2,0.4-0.4,0.6-0.4,0.7c0,0.4,0,1.2,0,2.2c0,1.1,0,2.3,0.1,3.7c0,1.4,0.1,2.9,0.1,4.5c0.1,1.6,0.2,3.1,0.2,4.6
		c0.1,1.5,0.2,2.8,0.3,4c0.1,1.2,0.3,2.1,0.5,2.7c0.8,0.7,1.5,1.1,2,1.4c0.5,0.3,1,0.5,1.5,0.5c0.5,0.1,1.1,0.1,1.9,0
		c0.7-0.1,1.8-0.1,3.1-0.1c0.1,0,0.4-0.1,0.7-0.4c0.4-0.3,0.6-0.4,0.7-0.5v-0.3c0.5,0.5,0.9,1.1,1.2,1.6c0.3,0.5,0.4,1,0.4,1.5
		c0,0.4-0.2,0.8-0.7,1.1s-1.1,0.4-2,0.5c-0.4,0.5-0.8,0.8-1.4,1c-0.6,0.2-1.1,0.5-1.6,0.8c-0.8,0.1-1.5,0.2-2.2,0.3
		c-0.7,0.1-1.5,0.2-2.2,0.3c-0.7,0.1-1.4,0.1-2.2,0c-0.7-0.1-1.5-0.3-2.2-0.6l-0.3-0.6c-1,0-1.8-0.5-2.4-1.3c-0.5-0.8-1-1.8-1.3-2.9
		c-0.3-1.1-0.6-2.2-0.7-3.3c-0.2-1.1-0.4-2-0.7-2.6l0.4-0.6c0.1-1.4,0.2-2.9,0.3-4.6c0.1-1.6,0.2-3.3,0.2-5c0.1-1.7,0.1-3.3,0.2-4.9
		c0-1.6,0.1-3.1,0.1-4.5l-1.6-0.3c-0.3-0.4-0.6-0.7-0.9-0.8c-0.3-0.1-0.6-0.2-0.9-0.2c-0.3,0-0.5-0.1-0.6-0.1
		c-0.1-0.1-0.2-0.2-0.2-0.5c0-0.2,0.2-0.6,0.6-1s0.7-0.8,0.7-1.2c0.1,0,0.2,0,0.2,0.1l1-0.4l0.6-0.8c0.5-0.2,0.9-0.4,1.2-0.8
		c0.3-0.3,0.6-0.7,0.8-1c0.2-0.3,0.5-0.6,0.7-0.9c0.2-0.3,0.5-0.4,0.7-0.5c0-0.2,0.1-0.5,0.1-1l0.8-0.1l0.5-0.4h1.8
		c0.1,0.6,0.2,1.1,0.3,1.7c0.1,0.5,0.2,1.1,0.3,1.5c0.1,0.5,0.4,0.9,0.7,1.2c0.4,0.4,0.9,0.6,1.6,0.9l1-0.7h6.1
		c0.7,0.6,1.1,1,1.4,1.3c0.3,0.3,0.4,0.9,0.5,1.8C905.3,179.2,905.2,179.8,904.8,180.2z"/>
</g>
<g class="st0">
	<path d="M862.2,278.5c0.1,1,0,2.2-0.4,3.5c-0.4,1.3-1,2.7-1.9,4.1s-1.9,2.7-3,4c-1.2,1.2-2.4,2.3-3.7,3.2c-1.3,0.9-2.6,1.5-3.9,1.7
		l-0.4,0.6l-1.3-0.1c-0.3,0.5-1.1,0.8-2.4,0.9c-1.3,0.1-2.7,0-4.3-0.2s-3-0.6-4.5-1.1c-1.4-0.5-2.4-1-3-1.6
		c-0.4,0.3-0.9,0.6-1.3,0.8c-0.5,0.2-1,0.4-1.5,0.5l-1.6-0.6c-0.4-1.1-0.8-2.3-1.1-3.7c-0.3-1.4-0.5-2.8-0.6-4.2
		c-0.1-1.4,0-2.8,0.3-4.1c0.3-1.3,0.7-2.5,1.5-3.5h1.2c0.1,0.3,0.3,0.5,0.6,0.8c0.2,0.2,0.5,0.5,0.7,0.7c0.1,1.6,0.3,2.9,0.5,3.9
		c0.2,1.1,0.6,2,1.1,2.7c0.5,0.8,1.2,1.4,2.2,1.9c0.9,0.5,2.2,1.1,3.7,1.5l0.3,0.6c0.8,0.1,1.5,0.2,2.2,0.3c0.6,0,1.2,0.1,1.8,0
		c0.6,0,1.2-0.1,1.8-0.1c0.6,0,1.3-0.1,2.2-0.2l0.3-0.6l3.5-0.7c0.5-0.5,1.2-1.2,1.9-2.2c0.8-1,1.4-2,1.9-3.1c0.5-1.1,0.9-2.2,1-3.3
		c0.1-1.1-0.3-1.9-1.1-2.6c-0.1-0.9-0.4-1.8-0.8-2.5c-0.4-0.8-0.9-1.4-1.5-2.1c-0.6-0.6-1.2-1.2-1.8-1.8s-1.3-1.1-2.1-1.7
		c-0.9-0.2-1.8-0.3-2.6-0.1l-0.4-0.5h-4.6l-0.2-0.7c-0.9,0-1.8-0.2-2.6-0.4c-0.8-0.2-1.7-0.5-2.5-0.9c-0.3-0.8-0.9-1.2-1.8-1.3
		c-0.3-0.4-0.7-0.8-1.3-1.2c-0.6-0.4-1.1-0.6-1.7-0.6c-0.5-0.8-1-1.6-1.5-2.4c-0.5-0.8-1.1-1.5-1.8-2.2c0-2,0-3.6,0-4.8
		c0.1-1.2,0.2-2.3,0.4-3.3s0.4-2,0.7-3.1c0.3-1.1,0.5-2.5,0.8-4.2c0.3-0.1,0.9-0.4,1.7-0.8c0.8-0.4,1.7-0.9,2.6-1.4
		c0.9-0.5,1.7-1,2.5-1.5c0.8-0.5,1.3-0.8,1.5-1c0.3,0,0.7,0,1.3,0c0.6,0,1.2,0,1.9,0s1.3,0,1.8-0.1c0.6-0.1,0.9-0.3,1.1-0.5l3.8,0.6
		l0.4,0.6c0.7,0.2,1.2,0.4,1.8,0.5c0.5,0.1,1.1,0.4,1.7,0.9c2,0,3.5,0.2,4.5,0.6c0.9,0.4,1.6,1,1.9,1.9c0.3,0.9,0.4,2,0.3,3.3
		c-0.1,1.3-0.1,3-0.1,4.8c-1.5,0-2.5-0.2-3.2-0.6c-0.6-0.4-1.1-1-1.5-1.6c-0.4-0.7-0.7-1.4-1-2.1c-0.3-0.8-0.9-1.5-1.7-2.1
		c-0.8-0.7-2-1.2-3.6-1.7c-1.6-0.4-3.8-0.7-6.6-0.7c-0.2,0-0.5,0.2-0.9,0.5c-0.4,0.3-0.6,0.6-0.7,0.7c-2.1,0.8-3.5,1.9-4.4,3.3
		s-1.3,2.9-1.3,4.3c0,1.4,0.4,2.8,1.1,4c0.7,1.3,1.6,2.1,2.7,2.6l0.4,0.6l3.4,0.7l0.4,0.6c1,0.3,2,0.5,3,0.7c1,0.2,2,0.3,3.1,0.5
		l0.4,0.6l1.8,0.2c1.1,0.9,2.3,1.7,3.5,2.4c1.2,0.7,2.3,1.5,3.4,2.3s1.9,1.9,2.7,3.1c0.8,1.2,1.3,2.8,1.6,4.8
		C861.5,276.7,862,277.4,862.2,278.5z"/>
	<path d="M886.5,265.2c-0.3,0.3-0.7,0.5-1.2,0.6c-0.5,0-1,0-1.5-0.1c-0.5-0.1-1-0.2-1.5-0.2h-6.2c-0.1,0.1-0.3,0.3-0.5,0.7
		c-0.2,0.4-0.4,0.6-0.4,0.7c0,0.4,0,1.2,0,2.2c0,1.1,0,2.3,0.1,3.7c0,1.4,0.1,2.9,0.1,4.5c0.1,1.6,0.2,3.1,0.2,4.6
		c0.1,1.5,0.2,2.8,0.3,4c0.1,1.2,0.3,2.1,0.5,2.7c0.8,0.7,1.5,1.1,2,1.4c0.5,0.3,1,0.5,1.5,0.5c0.5,0.1,1.1,0.1,1.9,0
		c0.7-0.1,1.8-0.1,3.1-0.1c0.1,0,0.4-0.1,0.7-0.4c0.4-0.3,0.6-0.4,0.7-0.5v-0.3c0.5,0.5,0.9,1.1,1.2,1.6c0.3,0.5,0.4,1,0.4,1.5
		c0,0.4-0.2,0.8-0.7,1.1c-0.4,0.3-1.1,0.4-2,0.5c-0.4,0.5-0.8,0.8-1.4,1c-0.6,0.2-1.1,0.5-1.6,0.8c-0.8,0.1-1.5,0.2-2.2,0.3
		c-0.7,0.1-1.5,0.2-2.2,0.3c-0.7,0.1-1.4,0.1-2.2,0c-0.7-0.1-1.5-0.3-2.2-0.6l-0.3-0.6c-1,0-1.8-0.5-2.4-1.3c-0.5-0.8-1-1.8-1.3-2.9
		c-0.3-1.1-0.6-2.2-0.7-3.3c-0.2-1.1-0.4-2-0.7-2.6l0.4-0.6c0.1-1.4,0.2-2.9,0.3-4.6c0.1-1.6,0.2-3.3,0.2-5c0.1-1.7,0.1-3.3,0.2-4.9
		c0-1.6,0.1-3.1,0.1-4.5l-1.6-0.3c-0.3-0.4-0.6-0.7-0.9-0.8c-0.3-0.1-0.6-0.2-0.9-0.2c-0.3,0-0.5-0.1-0.6-0.1
		c-0.1-0.1-0.2-0.2-0.2-0.5c0-0.2,0.2-0.6,0.6-1c0.4-0.4,0.7-0.8,0.7-1.2c0.1,0,0.2,0,0.2,0.1l1-0.4l0.6-0.8
		c0.5-0.2,0.9-0.4,1.2-0.8c0.3-0.3,0.6-0.7,0.8-1c0.2-0.3,0.5-0.6,0.7-0.9c0.2-0.3,0.5-0.4,0.7-0.5c0-0.2,0.1-0.5,0.1-1l0.8-0.1
		l0.5-0.4h1.8c0.1,0.6,0.2,1.1,0.3,1.7c0.1,0.5,0.2,1.1,0.3,1.5c0.1,0.5,0.4,0.9,0.7,1.2c0.4,0.4,0.9,0.6,1.6,0.9l1-0.7h6.1
		c0.7,0.6,1.1,1,1.4,1.3c0.3,0.3,0.4,0.9,0.5,1.8C886.9,264.2,886.8,264.8,886.5,265.2z"/>
	<path d="M917.6,276.2c-0.4,0.1-0.9,0.2-1.6,0.3c-0.7,0.1-1.4,0.2-2.1,0.3c-0.7,0.1-1.3,0.1-1.8,0c-0.5,0-0.7-0.2-0.7-0.5l-1.3-0.1
		l-0.3-0.6h-6c-0.1,0-0.2-0.1-0.2-0.2c0-0.1-0.1-0.2-0.3-0.2h-2.9c-0.7,0.7-1.3,1.3-2.1,1.8v5.3l0.6,0.3c0.2,0.6,0.4,1.2,0.5,1.8
		c0.1,0.6,0.2,1.3,0.2,1.9c0.5,0.6,1.1,1.2,1.7,1.8c0.6,0.6,1.3,1,2.1,1.3c0.2,0.5,0.6,0.8,1,1c0.4,0.2,0.8,0.3,1.3,0.3
		c0.5,0,1,0,1.5-0.1c0.5-0.1,1-0.1,1.4-0.1c0.1,0,0.2,0,0.3-0.1c0.1-0.1,0.1-0.2,0-0.3c0.6-0.1,1.2-0.2,1.7,0c0.5,0.1,1-0.1,1.3-0.7
		l1.2-0.1l0.7-1.1c0.5-0.1,1-0.2,1.4-0.3c0.4-0.1,0.7-0.4,1-0.9c0.3,0.1,0.6,0.3,0.8,0.4c0.3,0.1,0.5,0.2,0.8,0.3v1.6
		c-1.6,1.7-2.7,2.9-3.5,3.5c-0.8,0.6-1.4,1-1.9,1.3c-0.5,0.2-1,0.4-1.5,0.6c-0.5,0.2-1.2,0.7-2.2,1.5c-2,0-3.5,0-4.3,0.1
		c-0.8,0-1.5,0-2,0c-0.5-0.1-1-0.2-1.5-0.5c-0.5-0.3-1.5-0.7-2.9-1.3c-0.4-0.6-0.8-1.1-1.3-1.6c-0.5-0.5-1-0.9-1.6-1.3l-0.6-2.1
		l-0.5-0.3c-0.1-0.5-0.2-1-0.3-1.3c-0.1-0.4-0.4-0.7-0.9-1c-0.1-0.6-0.3-1.5-0.5-2.8c-0.2-1.2-0.3-2.5-0.4-3.8s0-2.4,0.2-3.5
		c0.2-1,0.6-1.7,1.3-1.9c0.3-1,0.7-2.1,1.1-3c0.5-1,0.8-2,1.1-3c0.5-0.4,1-0.8,1.5-1.2s0.8-1,0.9-1.6l5.7-3.5c1.5,0,2.8,0,4,0.1
		c1.2,0.1,2.5,0.2,3.9,0.4c0.4,0.5,0.9,0.9,1.5,1.3c0.6,0.3,1.2,0.7,1.8,1.1s1.2,1,1.8,1.6c0.6,0.6,1,1.5,1.3,2.7l0.5,0.3
		c0.2,0.9,0.3,1.6,0.5,1.9c0.1,0.3,0.2,0.6,0.2,0.8c0,0.2-0.1,0.5-0.2,0.8c-0.1,0.3-0.3,0.9-0.5,1.8L917.6,276.2z M912.7,269.1
		c-0.3-0.6-0.6-1-0.8-1.3c-0.1,0-0.3,0-0.4,0c-0.1,0-0.3-0.1-0.5-0.1c0-0.2-0.1-0.4-0.2-0.7c-0.1-0.3-0.3-0.4-0.5-0.4h-4.5
		c-0.6,0.6-1.3,1-2.1,1.3c-0.3,0.4-0.6,0.9-0.8,1.3c-0.3,0.4-0.6,0.9-0.9,1.4c0.6,0.6,1.2,1.2,1.8,1.8h3.3c0.2,0,0.3,0.1,0.2,0.2
		c0,0.1,0,0.2,0.2,0.2h3c0.2,0,0.5-0.1,0.8-0.2s0.6-0.3,1-0.5c0.3-0.2,0.6-0.5,0.8-0.7s0.3-0.5,0.3-0.8
		C913.2,270.2,913,269.7,912.7,269.1z"/>
	<path d="M959.6,279.2c0.1,0.2,0.2,0.5,0.3,1c0.1,0.5,0.1,1,0.1,1.5c0,0.5,0,1,0,1.5c0,0.5,0,0.8,0,1.1c-0.5,0.2-0.8,0.6-1,1
		c-0.2,0.4-0.3,0.8-0.3,1.3c0,0.5,0,0.9,0,1.4c0,0.5,0.1,0.9,0.1,1.3c-1.1,1.2-2,2.3-2.9,3.3c-0.8,1-1.7,1.8-2.7,2.4
		c-1,0.6-2.1,1.1-3.3,1.4c-1.2,0.3-2.7,0.3-4.4,0.1c-0.3,0.4-0.8,0.6-1.4,0.6c-0.6,0-1.2-0.1-1.9-0.2c-0.7-0.2-1.4-0.4-2.1-0.6
		c-0.7-0.2-1.3-0.3-1.9-0.2c-0.4,0.4-0.7,1.5-1,3.2c-0.3,1.7-0.5,3.5-0.6,5.6c-0.1,2-0.1,4,0,6.1c0.1,2,0.4,3.6,0.8,4.6
		c0.7,0,1.4,0.1,2.1,0.2c0.7,0.1,1.4,0.3,2.1,0.4v1.1l-2.6,1.8c-1,0-2,0-2.9-0.1c-0.9,0-1.8-0.1-2.5-0.1c-0.7,0-1.3-0.1-1.8,0
		c-0.4,0-0.6,0.1-0.6,0.2c-1.2,0-2.3,0-3.4,0c-1.1,0-2.1-0.2-3.2-0.5v-1.9c0.5-0.5,1.1-0.8,1.9-1c0.8-0.1,1.6-0.2,2.2-0.2l0.6-0.8
		c0-0.5,0-1.5,0-3c0-1.5-0.1-3.3-0.1-5.3c0-2-0.1-4.1-0.1-6.3c0-2.2,0-4.2,0-6.1c0-1.9,0-3.4,0-4.7c0-1.2,0.1-1.9,0.2-2V270
		c-0.2-0.2-0.4-0.5-0.8-0.7c-0.3-0.2-0.7-0.3-1-0.3l-1.3,0.8H924c-0.4-1-0.5-1.8-0.2-2.4c0.3-0.6,0.7-1.2,1.3-1.7
		c0.6-0.5,1.3-0.9,2-1.3c0.8-0.4,1.5-0.8,2.1-1.3l2.7-0.2c0.5-0.4,0.8-0.5,1.1-0.4c0.3,0.1,0.7,0.3,1.3,0.5c0,0.1,0.1,0.4,0.2,0.8
		c0.1,0.4,0.2,0.6,0.5,0.5l0.1,1.6l0.9,0.2c0.1,0,0.5-0.2,1-0.5c0.5-0.3,1.1-0.6,1.7-1c0.6-0.4,1.2-0.7,1.7-1
		c0.5-0.3,0.8-0.5,0.8-0.6h3.3l0.5-0.6c0.2,0,0.5,0,0.8,0c0.4,0,0.8,0,1.1,0s0.7,0,1,0.1c0.3,0.1,0.5,0.2,0.5,0.4l2.2,0.2l0.4,0.6
		c1.6,0.5,2.9,1.2,3.9,1.9c1,0.8,1.8,1.6,2.3,2.5c0.5,0.9,0.9,1.8,1.2,2.8c0.2,1,0.4,1.9,0.6,2.8c0.1,0.9,0.3,1.7,0.4,2.4
		c0.1,0.7,0.3,1.3,0.7,1.7L959.6,279.2z M954.1,278.2c0.1-1.5,0-2.8-0.4-4.1c-0.2-0.6-0.5-1.3-1-2.1s-1-1.7-1.7-2.5
		c-0.6-0.8-1.3-1.5-2.1-2.1c-0.7-0.6-1.5-0.8-2.2-0.8l-0.2-0.6h-3v0.8c-0.8-0.1-1.5,0-2,0.2c-0.5,0.3-1,0.6-1.4,1.1
		c-0.4,0.5-0.8,1-1.1,1.6s-0.7,1.1-1,1.6c-0.2,0.4-0.5,0.7-0.7,0.8c-0.3,0.2-0.4,0.5-0.5,1l-0.6,0.2v15.2c0.1,0.2,0.4,0.6,0.6,1
		c0.3,0.4,0.6,0.8,0.8,1.3c0.3,0.5,0.5,0.9,0.7,1.3c0.2,0.4,0.3,0.6,0.3,0.8c1,0.2,1.8,0.4,2.3,0.7s1.1,0.5,1.6,0.7
		c0.5,0.2,1.1,0.3,1.7,0.3c0.7,0,1.6-0.1,2.8-0.5c0.2-0.3,0.4-0.6,0.7-0.7s0.6-0.3,0.8-0.6c0.7-0.5,1.4-1.2,1.9-2
		c0.6-0.8,1.1-1.7,1.5-2.6c0.4-0.9,0.7-1.9,0.9-2.8c0.2-1,0.3-1.9,0.4-2.7h0.3c0.1-0.1,0.1-0.2,0.1-0.4
		C953.9,281.1,954,279.7,954.1,278.2z"/>
	<path d="M986.2,282.9v0.4c0,0.3,0,0.6,0,0.9c0,0.3,0,0.6,0,0.9v0.4l-0.1,6.2c-0.4,0.6-1,1.1-1.6,1.6c-0.7,0.5-1.3,0.9-1.9,1.2
		c-0.6,0.4-1.3,0.7-2.2,1.2c-1.7,0.2-3,0.4-4,0.5s-1.8,0.2-2.4,0.2c-0.6,0-1.1,0-1.5-0.1c-0.4-0.1-0.7-0.2-1.1-0.5
		c-0.4-0.2-0.9-0.5-1.4-0.8c-0.5-0.4-1.3-0.8-2.3-1.2c-0.3-0.6-0.7-1.1-1.2-1.6c-0.2-1-0.4-1.9-0.5-2.5c-0.1-0.7-0.1-1.2,0-1.8
		c0.1-0.5,0.3-1.1,0.5-1.7c0.3-0.6,0.6-1.4,1.1-2.3h1.6c0.5,1.1,1,2.2,1.4,3.3c0.4,1.1,0.8,2.2,1.2,3.4c-0.4,0.3-0.8,0.6-1.2,0.7
		c0.1,0.4,0.4,0.7,0.6,1c0.4,0,0.7,0.1,1.1,0c0.3,0,0.7-0.2,1-0.4h2.9l0.5,0.4c0.5-0.1,1.1-0.3,1.6-0.6c0.6-0.3,1.1-0.7,1.5-1.1
		c0.4-0.4,0.8-1,1.1-1.5c0.3-0.6,0.5-1.2,0.5-1.8c0-2-0.1-3.5-0.2-4.5s-0.5-1.7-1.1-2.1c-0.6-0.4-1.4-0.6-2.5-0.6
		c-1.1,0-2.6,0-4.6,0l-0.2-0.6c-0.9-0.1-1.7-0.4-2.3-0.6c-0.4-0.7-0.9-1.1-1.6-1.1c-0.7-0.8-1.2-1.7-1.6-2.8
		c-0.3-1.1-0.5-2.2-0.5-3.4c0-1.2,0.2-2.3,0.6-3.4c0.4-1.1,0.9-2,1.5-2.8c0.4-0.1,0.7-0.3,1.1-0.6c0.3-0.2,0.7-0.5,1-0.7
		c0.3-0.3,0.7-0.5,1-0.6c0.3-0.2,0.7-0.2,1.1-0.2l0.1-0.6h3.3c0,0,0.2-0.1,0.4-0.1c0.2,0,0.5,0,0.8,0c0.3,0,0.6,0.1,0.8,0.1
		c0.3,0,0.4,0,0.5,0l0.3,0.6c0.6,0.2,1.1,0.3,1.6,0.4c0.4,0.1,0.8,0.2,1.2,0.4c0.4,0.1,0.8,0.3,1.2,0.5c0.4,0.2,0.8,0.5,1.4,1
		c0.2,0.8,0.4,1.4,0.5,1.8c0.1,0.4,0.2,0.9,0.2,1.2c0,0.4,0,0.8-0.1,1.3c-0.1,0.5-0.3,1.1-0.6,1.9h-2.1c-0.2-0.4-0.5-0.7-0.8-1.1
		c-0.3-0.4-0.7-0.6-1.2-0.7c-0.4-0.9-1-1.9-1.8-2.8c-0.8-0.9-1.7-1.5-2.7-1.8c-0.5,0.1-0.8,0.3-1,0.6c-1.1,0-2,0.5-2.7,1.5
		c-0.7,1-1,2-1,3c0,0.6,0.1,1.1,0.2,1.5c0.2,0.4,0.4,0.7,0.6,1c0.2,0.3,0.5,0.5,0.7,0.7c0.2,0.2,0.4,0.5,0.5,0.7
		c0.7,0.4,1.4,0.6,2.2,0.6c0.8,0,1.6-0.1,2.4-0.1c0.2,0.1,0.3,0.2,0.3,0.4l1.8,0.1l0.4,0.6c2,0.3,3.4,1.1,4.2,2.3
		C985.7,279.6,986.1,281.1,986.2,282.9c0,0,0.1,0.2,0.1,0.6C986.3,283.3,986.3,283.1,986.2,282.9z M986.2,282.9
		c0,0.1,0.1,0.4,0.1,0.6C986.3,283.1,986.3,282.9,986.2,282.9z"/>
</g>
</svg>
