<?xml version="1.0" encoding="utf-8"?>
<!-- Generator: Adobe Illustrator 21.1.0, SVG Export Plug-In . SVG Version: 6.00 Build 0)  -->
<svg version="1.1" id="Layer_1" xmlns="http://www.w3.org/2000/svg" xmlns:xlink="http://www.w3.org/1999/xlink" x="0px" y="0px"
	 viewBox="0 0 1224 792" style="enable-background:new 0 0 1224 792;" xml:space="preserve">
<style type="text/css">
	.st0{font-family:'AMERICAN_HORROR_STORY';}
	.st1{font-size:176.6927px;}
	.st2{enable-background:new    ;}
</style>
<g>
	<g>
		<path d="M604.2,681.5c-38,0-76,0-114.1,0c-5.3,0-5.3,0-5.3-5.3c0-61.4,0-122.7,0-184.1c0-5.1,0-5.1,5.1-5.1c4.6,0,9.2-0.1,13.9,0
			c2.4,0.1,3.4-0.7,3.3-3.2c-0.1-3.2,0.1-6.5-0.1-9.7c-0.2-4,1.5-6.8,4.7-9c24.3-16.5,50.2-19.8,77.8-9.7c4,1.5,8,3.2,11.5,5.5
			c2.4,1.6,4.1,1.4,6.5,0c30-16.1,59.4-15.4,88.2,3.2c4.2,2.7,6.4,6.1,5.9,11.2c-0.2,2.5,0.1,5.1-0.1,7.6c-0.2,3,0.7,4.2,3.9,4
			c4.8-0.2,9.7,0.1,14.6-0.1c3.1-0.1,4,1.1,3.9,4c-0.2,8.2-0.1,16.4-0.1,24.6c0,53.5,0,107,0,160.5c0,5.4,0,5.4-5.6,5.4
			C680.3,681.5,642.3,681.5,604.2,681.5z M612.2,556.9c0,25.4,0,50.9,0,76.3c0,4,0,3.9,3.5,2.5c22.1-9.1,44.2-9.8,66.3-0.2
			c4,1.7,4,1.8,4-2.5c0-50.7,0-101.5,0.1-152.2c0-3.5-1.2-5.5-4.2-7c-22-11.5-43.8-11.2-65.7,0.2c-3.1,1.6-4.1,3.6-4.1,7
			C612.3,506.3,612.2,531.6,612.2,556.9z M522.7,556.9c0,25.5,0,51.1,0,76.6c0,2.6,0,3.8,3.3,2.4c22.4-9.7,44.8-9.7,67.2,0
			c2.9,1.3,3.4,0.8,3.4-2.2c-0.1-13.9-0.1-27.7-0.1-41.6c0-37.3,0-74.6,0-112c0-2.1-0.1-3.9-2.4-5.2c-22.6-12.6-45.2-12.8-68-0.6
			c-2.6,1.4-3.4,3.1-3.4,6C522.8,505.9,522.7,531.4,522.7,556.9z"/>
	</g>
</g>
<g>
	<g>
		<path d="M172.2,634.6c-4.5,27.2-8.9,53.6-13,80.1c-0.6,3.9-2.1,5.6-6,5.5c-5.2-0.2-10.3-0.1-15.5,0c-3.5,0.1-5.2-1.3-5-5
			c1.6-33.4,3.1-66.9,4.6-100.3c0.4-9,0.7-18,1.1-27c0.2-3-0.9-5.5-2.2-8.1c-14.7-28.8-29.3-57.6-44.1-86.3c-2-3.8-2.1-6.2,1.4-9.3
			c8.8-7.8,8.7-8,15.5,1.4c10.8,14.8,21.6,29.6,32.3,44.5c2.1,2.9,4.4,4,7.9,4c15.5-0.2,31,0,46.5-0.2c4-0.1,6.4,1.2,8.4,4.7
			c14.9,26,30,52,45.2,77.8c2.2,3.7,1.7,5.5-2,7.3c-3.5,1.6-6.8,3.5-10,5.6c-3.1,2-4.9,1.2-6.9-1.7c-7.3-10.8-14.8-21.3-22.3-32
			c-0.9-1.3-1.9-2.6-3-4.1c-1.6,1.6-0.9,3.4-0.8,4.9c0.8,15.5,1.9,30.9,2.7,46.4c1.2,24.1,2.1,48.2,3.5,72.3c0.2,4.2-1.2,5.3-5,5.2
			c-4.7-0.1-9.3-0.2-14,0c-3.8,0.1-5.3-1.6-5.8-5.2c-4-25.1-8.1-50.3-12.2-75.4C173.1,638.2,172.7,636.8,172.2,634.6z"/>
		<path d="M142.5,492.8c-0.1-15,13.2-27.9,28.3-27.7c15.2,0.2,27.6,12.8,27.8,28.3c0.2,14.8-13.2,28.1-28.2,28
			C155,521.2,142.5,508.5,142.5,492.8z"/>
		<path d="M89.3,508.6c0.5,2-0.9,2.6-2.4,3.1c-8.1,2.6-16.2,5.1-24.2,7.8c-2.5,0.8-3.7-0.1-4.4-2.5c-4-12.7-8-25.4-12.1-38
			c-0.8-2.4-0.1-3.7,2.3-4.5c7.9-2.5,15.8-5,23.7-7.6c2.3-0.8,3.8-0.2,4.6,2.2c4,12.7,8.1,25.3,12.2,38
			C89.1,507.6,89.2,508.1,89.3,508.6z M58,489.9c6.1,0.1,10.3,1.6,13,6.4c1.5-5,1.3-9.3,1.4-13.6c0-3.2-1.3-2.9-3.2-1.4
			C65.9,483.9,62.6,486.4,58,489.9z"/>
		<path d="M67.3,407.8c16.1,1,30.5,5.4,42.5,16.1c2,1.8,4.7,3.7,1.2,6.3c-2.6,2-3.7,7.8-9.3,3.1c-20.7-17.2-48-17-68.6,0.3
			c-2.3,1.9-3.9,2.2-5.8-0.1c-0.9-1-1.8-2-2.8-2.8c-2.9-2.3-2.1-4.2,0.3-6.4c9.4-8.6,20.6-13.2,33-15.4
			C61.1,408.4,64.4,408.2,67.3,407.8z"/>
		<path d="M67.8,425.8c11.5,0.3,21.5,4.2,30.4,11.4c2.4,1.9,2.7,3.6,0.4,5.6c-0.9,0.8-1.7,1.6-2.4,2.5c-2.1,2.7-3.9,3-6.9,0.6
			c-10.2-8.2-21.7-9.3-33.9-5.5c-3.5,1.1-6.6,3.1-9.4,5.5c-3.5,2.9-4.9,2.2-9.6-3.6c-2.6-3.2-0.1-4.4,1.8-5.9
			C46.7,429.4,56.7,426,67.8,425.8z"/>
		<path d="M67.7,444c6.7,0.5,12.5,2.4,17.6,6.1c2.5,1.9,2.5,3.3,0.4,5.6c-3.3,3.6-6,6.3-11.5,2.4c-4.7-3.4-10.5-2.1-15.6,1
			c-3.4,2-7.3,0.3-10.1-4.6c-2-3.5,1.4-4.2,3.1-5.5C56.5,445.3,62.3,444.5,67.7,444z"/>
	</g>
</g>
<text transform="matrix(1 0 0 1 331.4287 605.8409)" class="st0 st1">+</text>
<text transform="matrix(1 0 0 1 800.0001 628.6981)" class="st0 st1">=</text>
<g class="st2">
	<path d="M125.3,149.7c0.1,1,0,2-0.4,3.2c-0.4,1.2-0.9,2.5-1.7,3.8c-0.8,1.3-1.7,2.5-2.8,3.6c-1.1,1.1-2.2,2.1-3.4,2.9
		c-1.2,0.8-2.4,1.3-3.6,1.6l-0.3,0.6l-1.2-0.1c-0.3,0.5-1.1,0.8-2.2,0.8c-1.2,0.1-2.5,0-3.9-0.2c-1.4-0.2-2.8-0.5-4.1-1
		c-1.3-0.4-2.2-0.9-2.8-1.5c-0.4,0.3-0.8,0.6-1.2,0.7c-0.4,0.2-0.9,0.4-1.4,0.5l-1.4-0.5c-0.4-1-0.7-2.1-1-3.4
		c-0.3-1.3-0.5-2.5-0.5-3.8s0-2.6,0.3-3.8c0.2-1.2,0.7-2.3,1.3-3.2H96c0.1,0.3,0.3,0.5,0.5,0.7c0.2,0.2,0.4,0.4,0.7,0.7
		c0.1,1.4,0.2,2.6,0.5,3.6c0.2,1,0.6,1.8,1,2.5c0.5,0.7,1.1,1.3,2,1.8c0.9,0.5,2,1,3.4,1.4l0.3,0.6c0.7,0.1,1.4,0.2,2,0.3
		c0.6,0,1.1,0.1,1.7,0c0.5,0,1.1-0.1,1.7-0.1c0.6,0,1.2-0.1,2-0.2l0.3-0.6l3.2-0.7c0.5-0.4,1.1-1.1,1.8-2c0.7-0.9,1.3-1.8,1.8-2.9
		c0.5-1,0.8-2,0.9-3c0.1-1-0.2-1.8-1-2.4c-0.1-0.9-0.4-1.6-0.7-2.3c-0.4-0.7-0.8-1.3-1.3-1.9c-0.5-0.6-1.1-1.1-1.7-1.6
		c-0.6-0.5-1.2-1-1.9-1.6c-0.9-0.2-1.7-0.3-2.4-0.1l-0.3-0.5h-4.2l-0.2-0.7c-0.8,0-1.6-0.2-2.4-0.4s-1.5-0.5-2.3-0.8
		c-0.3-0.7-0.9-1.1-1.7-1.2c-0.3-0.4-0.7-0.8-1.2-1.1c-0.5-0.3-1.1-0.5-1.5-0.6c-0.5-0.7-0.9-1.5-1.4-2.2c-0.5-0.7-1-1.4-1.7-2
		c0-1.8,0-3.3,0-4.4c0.1-1.1,0.2-2.1,0.4-3c0.2-0.9,0.4-1.9,0.6-2.9c0.2-1,0.5-2.3,0.7-3.9c0.3-0.1,0.8-0.3,1.6-0.7
		c0.8-0.4,1.5-0.8,2.4-1.3c0.8-0.5,1.6-0.9,2.3-1.3c0.7-0.4,1.2-0.7,1.4-0.9c0.3,0,0.7,0,1.2,0c0.6,0,1.1,0,1.8,0
		c0.6,0,1.2,0,1.7-0.1c0.5-0.1,0.9-0.2,1-0.5l3.4,0.6l0.3,0.6c0.6,0.2,1.1,0.4,1.6,0.5c0.5,0.1,1,0.4,1.6,0.8c1.9,0,3.2,0.2,4.1,0.6
		c0.9,0.4,1.4,1,1.7,1.8c0.3,0.8,0.4,1.8,0.3,3.1c-0.1,1.2-0.1,2.7-0.1,4.5c-1.3,0-2.3-0.2-2.9-0.6c-0.6-0.4-1-0.9-1.4-1.5
		c-0.3-0.6-0.6-1.3-0.9-2c-0.3-0.7-0.8-1.3-1.6-2c-0.8-0.6-1.9-1.1-3.3-1.5c-1.5-0.4-3.5-0.6-6.1-0.6c-0.2,0-0.5,0.1-0.8,0.4
		c-0.3,0.3-0.6,0.5-0.6,0.7c-1.9,0.7-3.2,1.8-4,3.1c-0.8,1.3-1.2,2.6-1.2,4c0,1.3,0.3,2.5,1,3.7c0.7,1.1,1.5,1.9,2.5,2.4l0.3,0.6
		l3.1,0.7l0.3,0.6c0.9,0.3,1.8,0.5,2.8,0.6c0.9,0.2,1.9,0.3,2.8,0.5l0.3,0.6l1.7,0.2c1,0.8,2.1,1.5,3.2,2.2c1.1,0.6,2.1,1.3,3.1,2.1
		c1,0.8,1.8,1.7,2.5,2.9c0.7,1.1,1.2,2.6,1.5,4.4C124.7,148,125.2,148.7,125.3,149.7z"/>
	<path d="M138.9,166.1c-0.8,0.3-1.8,0.5-3,0.6c-1.1,0-2.2,0-3.3-0.1c-1.1-0.1-1.9-0.1-2.4,0.1c-0.3,0-0.6,0-0.9-0.1
		c-0.3-0.1-0.6-0.2-1-0.4c-0.3-0.2-0.6-0.3-1-0.5c-0.3-0.2-0.6-0.3-0.7-0.5c0.3-0.5,0.6-0.9,1.1-1.1c0.5-0.2,1-0.5,1.4-0.7
		c0.5-0.3,0.9-0.7,1.3-1.2c0.4-0.5,0.6-1.4,0.6-2.5c0-1.7,0-3.2-0.1-4.4c-0.1-1.3-0.2-2.5-0.2-3.6s-0.1-2.4-0.1-3.6
		c0-1.3,0.1-2.8,0.4-4.5c0-0.4-0.1-0.8-0.3-1.1c-0.3-0.3-0.6-0.7-0.9-1.1c-0.3-0.4-0.7-0.8-1-1.2c-0.3-0.4-0.5-0.9-0.5-1.4
		c0-0.3,0.2-0.6,0.8-0.9c0.6-0.3,1.3-0.6,2-0.9c0.8-0.3,1.5-0.5,2.3-0.7c0.8-0.2,1.3-0.3,1.5-0.3c0.6,0,1,0.4,1.3,1.1
		c0.3,0.7,0.6,1.6,0.7,2.7c0.2,1.1,0.2,2.2,0.2,3.5c0,1.3,0,2.4-0.1,3.6c-0.1,1.1-0.1,2.1-0.2,2.9c-0.1,0.8-0.1,1.3-0.1,1.5
		c-0.1,0.9-0.2,1.6-0.3,2.1c0,0.5-0.1,1,0,1.4c0,0.4,0,0.9,0.1,1.4c0,0.5,0,1.2,0,2.1c0,0.7,0.1,1.5,0.3,2.3c0.2,0.8,0.6,1.4,1.2,2
		c0.3,0.2,0.7,0.4,1.2,0.7c0.6,0.2,0.9,0.6,0.9,1C140.2,165.1,139.8,165.8,138.9,166.1z M136.5,129c-0.9,0.6-1.8,0.8-2.9,0.8
		c-1,0-2-0.3-2.9-1c-0.9-0.6-1.3-1.6-1.3-3c0-0.8,0.4-1.4,1.3-1.7c0.9-0.3,1.8-0.4,2.9-0.4s2,0.4,2.9,0.9c0.9,0.5,1.3,1.1,1.3,1.9
		C137.8,127.7,137.4,128.5,136.5,129z"/>
	<path d="M191.5,165.4c-0.1,0-0.3,0-0.5,0c-0.1,0-0.3,0-0.4,0c-0.1,0-0.2,0.1-0.3,0.3l-0.7,0.1l-0.5,0.4l-0.7,0.2
		c-1-0.5-2.1-0.7-3.4-0.6c-1.3,0.1-2.5,0.1-3.6,0.1c-0.3-0.6-0.7-1-1.2-1.2v-1.5c0.5-0.3,0.9-0.7,1.2-1.1c1.4,0,2.3-0.4,2.9-1.1
		s0.8-1.6,0.9-2.6s0-2.2-0.2-3.4c-0.2-1.2-0.3-2.3-0.3-3.3c0,0,0-0.1-0.1-0.3c-0.1-0.2-0.1-0.3-0.2-0.5c-0.1-0.2-0.2-0.4-0.3-0.6
		c-0.1-0.2-0.1-0.3-0.1-0.3c0,0,0.1-0.1,0.2-0.1c0.1,0,0.2-0.1,0.3-0.3c0-0.2,0-0.6,0.1-1.1c0.1-0.5,0.1-1,0.1-1.5
		c0-0.5,0-0.9-0.1-1.3c-0.1-0.4-0.3-0.5-0.5-0.4v-3.2c-0.9-0.7-1.7-1.4-2.3-2.1l-1.9-0.2l-0.3-0.5c-0.8-0.1-1.6-0.1-2.4,0l-0.3,0.5
		c-0.7,0.2-1.3,0.5-1.8,1c-0.5,0.4-1,0.9-1.6,1.4c-0.3,3.4-0.6,6.6-0.6,9.8c-0.1,3.1-0.1,6.4-0.1,9.9c0.5,0.2,0.9,0.3,1.4,0.4
		c0.4,0.1,0.9,0.2,1.4,0.3v2.1c-0.3,0.1-0.6,0.2-0.9,0.4c-0.3,0.2-0.6,0.4-0.8,0.6l-1.8,0.1l-0.6,0.5h-3.9c-0.1,0-0.2-0.1-0.2-0.2
		s-0.1-0.1,0-0.2l-2.5-0.2c-0.2-0.2-0.4-0.4-0.6-0.6c-0.2-0.2-0.4-0.3-0.6-0.5v-1.4c0.3,0.2,0.8,0.1,1.3-0.2c0.5-0.3,1-0.6,1.3-0.7
		c0-0.3,0-0.6-0.1-0.9c0-0.3-0.1-0.7-0.1-1c0-0.3,0-0.6,0.1-0.8c0.1-0.2,0.3-0.4,0.5-0.5c0-2.6,0-5.1-0.1-7.6
		c-0.1-2.5-0.1-5.1-0.2-7.7c0-0.9-0.3-1.6-0.9-2.2c-0.6-0.6-1.2-1.2-1.7-1.8c-0.1,0-0.4,0-0.7-0.1c-0.4,0-0.7-0.1-1.1-0.1
		c-0.4,0-0.7,0-1,0.1c-0.3,0.1-0.5,0.2-0.5,0.4c-1.1,0.1-2,0.4-2.5,0.7c-0.5,0.3-0.9,0.8-1.1,1.4c-0.2,0.6-0.3,1.2-0.3,2
		c0,0.7,0,1.6,0,2.5c-0.7,0.7-1.2,1.7-1.4,2.9c-0.2,1.2-0.3,2.4-0.3,3.7c0,1.3,0.1,2.5,0.3,3.8c0.2,1.3,0.2,2.3,0.2,3.1
		c0.4,0.4,0.9,0.8,1.3,1.2s0.9,0.7,1.4,1.1v2.1l-0.9,0.3l-0.5,0.8h-4.2c-0.1,0-0.2,0-0.3,0.1c-0.1,0.1-0.1,0.1,0,0.2
		c-0.3,0-0.7,0.1-1,0.2c-0.3,0.1-0.7,0.2-1,0.3c-0.3,0.1-0.6,0.1-0.9,0.1c-0.3,0-0.6-0.2-0.8-0.4c-0.3,0-0.7-0.2-1.1-0.4
		c-0.4-0.2-0.7-0.4-0.8-0.7c-0.3-0.8-0.4-1.4-0.4-1.8c0-0.4,0.2-0.7,0.5-0.9c0.3-0.2,0.6-0.4,1.1-0.6c0.5-0.2,1-0.4,1.5-0.7
		c-0.1-1.8-0.2-3.6-0.4-5.4c-0.2-1.8-0.1-3.6,0.4-5.3c-0.3-0.6-0.3-1.4-0.2-2.1c0.2-0.8,0.3-1.5,0.4-2.2c0.1-0.7,0.2-1.3,0.2-1.9
		c0-0.6-0.3-1-0.9-1.3c-0.7-0.4-1.3-0.8-1.7-1.1c-0.4-0.3-0.8-0.7-1.1-1.1c-0.3-0.4-0.4-0.9-0.3-1.3c0.1-0.3,0.3-0.6,0.6-0.7
		c0.3-0.1,0.6-0.2,0.9-0.3c0.3-0.1,0.6-0.2,0.8-0.4c0.3-0.2,0.4-0.4,0.5-0.9c0.3-0.4,0.7-0.7,1-1c0.3-0.3,0.7-0.6,1-0.9h3.8
		c0.3,0.5,0.7,1.1,1.2,1.7l-0.1,0.4c0.5,0.1,1,0.1,1.6,0s1-0.2,1.5-0.4l0.2-0.5l3.4-0.6l0.3-0.5c1-0.2,2-0.3,3-0.5
		c1-0.2,2-0.2,3.1-0.1c0.1,0.1,0.2,0.3,0.5,0.5c0.2,0.2,0.3,0.4,0.3,0.6l0.8,0.1l1.2,1.2l0.3,1.3l1.4,0.6c0.8-0.3,1.4-0.7,1.9-1.1
		c0.5-0.4,1.2-0.7,2.1-1l0.3-0.5c0.5-0.1,0.9-0.3,1.2-0.4c0.3-0.1,0.7-0.4,1-0.8h5.3c0.6,0.6,1.2,1.2,1.9,1.7
		c0.6,0.5,1.3,1.1,1.9,1.7c0.1,0.5,0.2,0.9,0.4,1.3c0.2,0.4,0.4,0.8,0.6,1.1c0,0.5,0,1.4,0,2.8c0,1.4,0,2.8,0,4.4
		c0,1.5,0,2.9-0.1,4.2c-0.1,1.3-0.2,2.1-0.4,2.5v-0.1l-0.1,0.5c0,0.1,0,0.4,0,0.8c0,0.4,0.1,0.8,0.1,1.3s0.1,0.9,0.2,1.3
		c0.1,0.4,0.1,0.7,0.1,0.9c0,0.4,0.2,0.8,0.4,1.1c0.2,0.3,0.4,0.6,0.6,0.8c0.2,0.3,0.4,0.5,0.6,0.7c0.2,0.2,0.3,0.5,0.4,0.8
		c0.1,0.2,0.2,0.5,0.3,0.7c0.1,0.3,0.1,0.6,0,0.9C191.7,165.3,191.6,165.4,191.5,165.4z"/>
	<path d="M228.6,150.3c0.1,0.2,0.2,0.5,0.3,0.9c0.1,0.4,0.1,0.9,0.1,1.4c0,0.5,0,0.9,0,1.4c0,0.4,0,0.8,0,1
		c-0.4,0.2-0.7,0.5-0.9,0.9c-0.2,0.4-0.3,0.8-0.3,1.2c0,0.4,0,0.9,0,1.3c0,0.4,0.1,0.8,0.1,1.2c-1,1.1-1.9,2.1-2.6,3
		c-0.8,0.9-1.6,1.6-2.5,2.2c-0.9,0.6-1.9,1-3,1.3c-1.1,0.3-2.5,0.3-4.1,0.1c-0.3,0.4-0.7,0.6-1.3,0.6c-0.5,0-1.1-0.1-1.8-0.2
		c-0.6-0.2-1.3-0.3-1.9-0.5c-0.6-0.2-1.2-0.3-1.7-0.2c-0.3,0.4-0.7,1.4-0.9,2.9c-0.3,1.5-0.4,3.2-0.6,5.1c-0.1,1.9-0.1,3.7,0,5.6
		s0.4,3.3,0.8,4.3c0.7,0,1.3,0.1,2,0.2c0.6,0.1,1.3,0.3,1.9,0.4v1l-2.4,1.7c-0.9,0-1.8,0-2.7-0.1c-0.9,0-1.6-0.1-2.3-0.1
		c-0.7,0-1.2-0.1-1.6,0c-0.4,0-0.6,0.1-0.6,0.2c-1.1,0-2.1,0-3.1,0c-1,0-2-0.1-3-0.5v-1.8c0.4-0.5,1-0.8,1.8-0.9
		c0.8-0.1,1.4-0.2,2-0.2l0.6-0.8c0-0.4,0-1.3,0-2.7c0-1.4-0.1-3-0.1-4.8c0-1.8-0.1-3.8-0.1-5.8c0-2,0-3.9,0-5.6c0-1.7,0-3.2,0-4.3
		c0-1.1,0.1-1.7,0.2-1.8v-15.9c-0.2-0.2-0.4-0.4-0.7-0.6c-0.3-0.2-0.6-0.3-0.9-0.3l-1.2,0.7h-2.2c-0.4-0.9-0.5-1.7-0.2-2.2
		c0.2-0.6,0.6-1.1,1.2-1.5c0.5-0.4,1.2-0.8,1.9-1.2c0.7-0.3,1.3-0.8,1.9-1.2l2.5-0.2c0.4-0.3,0.8-0.5,1-0.4c0.3,0.1,0.7,0.3,1.2,0.5
		c0,0.1,0.1,0.4,0.2,0.7c0.1,0.4,0.2,0.5,0.4,0.4l0.1,1.4l0.8,0.2c0.1,0,0.4-0.2,0.9-0.5c0.5-0.3,1-0.6,1.6-0.9
		c0.6-0.3,1.1-0.6,1.5-0.9c0.5-0.3,0.7-0.4,0.7-0.5h3l0.5-0.5c0.2,0,0.4,0,0.8,0c0.3,0,0.7,0,1,0c0.3,0,0.7,0,0.9,0.1
		c0.3,0.1,0.4,0.2,0.4,0.4l2,0.2l0.3,0.5c1.5,0.5,2.7,1.1,3.6,1.8s1.6,1.5,2.1,2.3c0.5,0.8,0.9,1.7,1.1,2.6c0.2,0.9,0.4,1.8,0.5,2.6
		s0.2,1.5,0.4,2.2c0.1,0.7,0.3,1.2,0.6,1.6L228.6,150.3z M223.5,149.5c0.1-1.4,0-2.6-0.4-3.7c-0.2-0.5-0.5-1.2-0.9-2
		c-0.4-0.8-0.9-1.5-1.5-2.3c-0.6-0.7-1.2-1.4-1.9-1.9c-0.7-0.5-1.4-0.8-2-0.8l-0.2-0.6h-2.7v0.7c-0.7-0.1-1.3,0-1.8,0.2
		c-0.5,0.2-0.9,0.6-1.3,1c-0.4,0.4-0.7,0.9-1,1.4c-0.3,0.5-0.6,1-0.9,1.5c-0.2,0.3-0.4,0.6-0.7,0.8c-0.2,0.2-0.4,0.5-0.5,0.9
		l-0.6,0.2v13.9c0.1,0.2,0.3,0.5,0.6,0.9c0.3,0.4,0.5,0.8,0.8,1.2c0.3,0.4,0.5,0.8,0.7,1.2c0.2,0.3,0.3,0.6,0.3,0.7
		c0.9,0.2,1.6,0.4,2.1,0.7c0.5,0.3,1,0.5,1.4,0.6c0.5,0.2,1,0.2,1.6,0.3c0.6,0,1.5-0.1,2.6-0.4c0.2-0.3,0.4-0.5,0.6-0.7
		c0.3-0.1,0.5-0.3,0.8-0.5c0.7-0.5,1.2-1.1,1.8-1.8c0.5-0.7,1-1.5,1.4-2.4c0.4-0.8,0.6-1.7,0.8-2.6c0.2-0.9,0.3-1.7,0.4-2.5h0.3
		c0.1-0.1,0.1-0.2,0.1-0.3C223.4,152.1,223.4,150.8,223.5,149.5z"/>
	<path d="M245.5,165.8c-0.5,0-1,0-1.6-0.1c-0.6,0-1.2,0-1.8-0.1c-0.6,0-1-0.1-1.3-0.2l-0.7,0.5h-6.9l-0.6-0.8c0.1-0.3,0.1-0.7,0-1.2
		c-0.2-0.5-0.3-0.8-0.4-1.1c0.2-0.1,0.4-0.2,0.6-0.3c0.2-0.1,0.3-0.2,0.5-0.4c0.8,0,1.5-0.2,2-0.5c0.5-0.3,0.8-0.9,0.8-1.8
		c0-3,0-6,0-9c0-3.1-0.3-6.1-0.9-9c0.1-0.5,0.2-1.4,0.3-2.6c0.1-1.2,0.1-2.6,0.2-4.1c0-1.5,0-3.1,0-4.7c0-1.7,0-3.3-0.1-4.7
		s-0.1-2.7-0.2-3.7c-0.1-1-0.2-1.7-0.3-2.1c-0.4-0.3-0.8-0.6-1.3-0.7c-0.5-0.2-0.9-0.3-1.4-0.4l-0.5-1.6c0.3-0.6,0.8-1.1,1.5-1.4
		s1.3-0.6,2-0.8l0.3-0.5c1.1-0.2,2.2-0.3,3.2-0.4c1-0.1,2.1-0.1,3.3-0.1l-0.6,0.8c0.1,0,0.2,0.1,0.2,0.3l0.1,0.5
		c0.1,0.5,0.2,0.9,0.2,1.4c0,0.5,0.1,0.9,0.1,1.4c-0.2,0.2-0.4,0.6-0.5,1.2c-0.1,0.6-0.1,1.2-0.1,1.8c0,0.7,0,1.3,0.1,1.9
		c0,0.6,0.1,1.1,0.1,1.4l0.3,0.3c0,0.1,0,0.7,0,1.7c-0.1,1-0.2,2.1-0.3,3.2c-0.1,1.2-0.2,2.2-0.3,3.2c-0.1,1-0.2,1.5-0.2,1.5
		c0,0.7,0,1.5,0.1,2.3c0.1,0.8,0.2,1.6,0.4,2.4c0.2,0.8,0.3,1.6,0.5,2.4c0.1,0.8,0.2,1.6,0.2,2.4c0,1.6-0.1,3.1-0.4,4.5
		c-0.2,1.4-0.4,2.9-0.6,4.3c-0.2,1.4-0.2,2.8-0.1,4.3c0.1,1.5,0.5,3,1.2,4.6c1.1,0.1,2.2,0.3,3.3,0.6l0.5,0.6v3.1
		C246.3,165.9,246,165.9,245.5,165.8z"/>
	<path d="M272.6,147.6c-0.3,0.1-0.8,0.2-1.5,0.3c-0.6,0.1-1.3,0.2-1.9,0.3c-0.6,0.1-1.2,0.1-1.7,0s-0.7-0.2-0.6-0.5l-1.2-0.1
		l-0.3-0.6h-5.5c-0.1,0-0.2-0.1-0.2-0.2c0-0.1-0.1-0.1-0.3-0.2h-2.7c-0.6,0.6-1.2,1.2-1.9,1.7v4.9l0.5,0.3c0.2,0.6,0.4,1.1,0.4,1.7
		c0.1,0.6,0.1,1.1,0.2,1.8c0.5,0.6,1,1.1,1.6,1.7c0.6,0.6,1.2,1,2,1.2c0.2,0.4,0.5,0.7,0.9,0.9c0.4,0.2,0.8,0.3,1.2,0.3
		c0.4,0,0.9,0,1.4-0.1c0.5-0.1,0.9-0.1,1.3-0.1c0.1,0,0.2,0,0.3-0.1c0.1-0.1,0.1-0.2,0-0.3c0.6-0.1,1.1-0.1,1.6,0
		c0.5,0.1,0.9-0.1,1.2-0.6l1.1-0.1l0.7-1c0.5-0.1,0.9-0.2,1.3-0.3c0.4-0.1,0.7-0.4,0.9-0.8c0.3,0.1,0.5,0.2,0.8,0.4
		c0.3,0.1,0.5,0.2,0.7,0.3v1.4c-1.4,1.6-2.5,2.7-3.2,3.2c-0.7,0.6-1.3,1-1.8,1.2c-0.5,0.2-0.9,0.4-1.4,0.6c-0.5,0.2-1.1,0.6-2,1.4
		c-1.9,0-3.2,0-3.9,0.1c-0.8,0-1.4,0-1.8,0c-0.5-0.1-0.9-0.2-1.4-0.5c-0.5-0.2-1.4-0.6-2.7-1.2c-0.3-0.5-0.7-1-1.2-1.4
		c-0.5-0.4-0.9-0.8-1.5-1.2l-0.6-1.9l-0.5-0.3c-0.1-0.5-0.2-0.9-0.3-1.2s-0.3-0.6-0.8-0.9c-0.1-0.6-0.3-1.4-0.5-2.6
		c-0.2-1.1-0.3-2.3-0.4-3.5s0-2.2,0.2-3.2c0.2-1,0.6-1.5,1.2-1.8c0.3-1,0.6-1.9,1-2.8c0.4-0.9,0.8-1.8,1-2.8
		c0.5-0.3,0.9-0.7,1.4-1.1c0.4-0.4,0.7-0.9,0.8-1.5l5.2-3.2c1.3,0,2.6,0,3.7,0.1s2.3,0.2,3.5,0.4c0.3,0.5,0.8,0.9,1.3,1.2
		c0.5,0.3,1.1,0.7,1.7,1s1.1,0.9,1.7,1.5s0.9,1.4,1.2,2.4l0.5,0.3c0.2,0.9,0.3,1.5,0.4,1.8c0.1,0.3,0.2,0.6,0.2,0.8
		s-0.1,0.5-0.2,0.8c-0.1,0.3-0.2,0.9-0.4,1.7L272.6,147.6z M268.2,141.1c-0.3-0.6-0.5-1-0.7-1.2c-0.1,0-0.3,0-0.4,0
		c-0.1,0-0.3-0.1-0.5-0.1c0-0.2-0.1-0.4-0.2-0.6c-0.1-0.3-0.3-0.4-0.5-0.4h-4.2c-0.5,0.5-1.2,0.9-2,1.2c-0.3,0.4-0.5,0.8-0.8,1.2
		c-0.3,0.4-0.5,0.8-0.8,1.3c0.6,0.5,1.1,1.1,1.6,1.6h3c0.2,0,0.2,0.1,0.2,0.2c0,0.1,0,0.2,0.2,0.2h2.8c0.2,0,0.5-0.1,0.8-0.2
		c0.3-0.1,0.6-0.3,0.9-0.5c0.3-0.2,0.5-0.4,0.7-0.7c0.2-0.3,0.3-0.5,0.3-0.7C268.6,142.1,268.5,141.7,268.2,141.1z"/>
	<path d="M342.8,165.4c-0.1,0-0.3,0-0.5,0c-0.1,0-0.3,0-0.4,0c-0.1,0-0.2,0.1-0.3,0.3l-0.7,0.1l-0.5,0.4l-0.7,0.2
		c-1-0.5-2.1-0.7-3.4-0.6c-1.3,0.1-2.5,0.1-3.6,0.1c-0.3-0.6-0.7-1-1.2-1.2v-1.5c0.5-0.3,0.9-0.7,1.2-1.1c1.4,0,2.3-0.4,2.9-1.1
		s0.8-1.6,0.9-2.6s0-2.2-0.2-3.4c-0.2-1.2-0.3-2.3-0.3-3.3c0,0,0-0.1-0.1-0.3c-0.1-0.2-0.1-0.3-0.2-0.5c-0.1-0.2-0.2-0.4-0.3-0.6
		c-0.1-0.2-0.1-0.3-0.1-0.3c0,0,0.1-0.1,0.2-0.1c0.1,0,0.2-0.1,0.3-0.3c0-0.2,0-0.6,0.1-1.1c0.1-0.5,0.1-1,0.1-1.5
		c0-0.5,0-0.9-0.1-1.3c-0.1-0.4-0.3-0.5-0.5-0.4v-3.2c-0.9-0.7-1.7-1.4-2.3-2.1l-1.9-0.2l-0.3-0.5c-0.8-0.1-1.6-0.1-2.4,0l-0.3,0.5
		c-0.7,0.2-1.3,0.5-1.8,1c-0.5,0.4-1,0.9-1.6,1.4c-0.3,3.4-0.6,6.6-0.6,9.8c-0.1,3.1-0.1,6.4-0.1,9.9c0.5,0.2,0.9,0.3,1.4,0.4
		c0.4,0.1,0.9,0.2,1.4,0.3v2.1c-0.3,0.1-0.6,0.2-0.9,0.4c-0.3,0.2-0.6,0.4-0.8,0.6l-1.8,0.1l-0.6,0.5h-3.9c-0.1,0-0.2-0.1-0.2-0.2
		s-0.1-0.1,0-0.2l-2.5-0.2c-0.2-0.2-0.4-0.4-0.6-0.6c-0.2-0.2-0.4-0.3-0.6-0.5v-1.4c0.3,0.2,0.8,0.1,1.3-0.2c0.5-0.3,1-0.6,1.3-0.7
		c0-0.3,0-0.6-0.1-0.9c0-0.3-0.1-0.7-0.1-1c0-0.3,0-0.6,0.1-0.8c0.1-0.2,0.3-0.4,0.5-0.5c0-2.6,0-5.1-0.1-7.6
		c-0.1-2.5-0.1-5.1-0.2-7.7c0-0.9-0.3-1.6-0.9-2.2c-0.6-0.6-1.2-1.2-1.7-1.8c-0.1,0-0.4,0-0.7-0.1c-0.4,0-0.7-0.1-1.1-0.1
		c-0.4,0-0.7,0-1,0.1c-0.3,0.1-0.5,0.2-0.5,0.4c-1.1,0.1-2,0.4-2.5,0.7c-0.5,0.3-0.9,0.8-1.1,1.4c-0.2,0.6-0.3,1.2-0.3,2
		c0,0.7,0,1.6,0,2.5c-0.7,0.7-1.2,1.7-1.4,2.9c-0.2,1.2-0.3,2.4-0.3,3.7c0,1.3,0.1,2.5,0.3,3.8c0.2,1.3,0.2,2.3,0.2,3.1
		c0.4,0.4,0.9,0.8,1.3,1.2s0.9,0.7,1.4,1.1v2.1l-0.9,0.3l-0.5,0.8h-4.2c-0.1,0-0.2,0-0.3,0.1c-0.1,0.1-0.1,0.1,0,0.2
		c-0.3,0-0.7,0.1-1,0.2c-0.3,0.1-0.7,0.2-1,0.3c-0.3,0.1-0.6,0.1-0.9,0.1c-0.3,0-0.6-0.2-0.8-0.4c-0.3,0-0.7-0.2-1.1-0.4
		c-0.4-0.2-0.7-0.4-0.8-0.7c-0.3-0.8-0.4-1.4-0.4-1.8c0-0.4,0.2-0.7,0.5-0.9c0.3-0.2,0.6-0.4,1.1-0.6c0.5-0.2,1-0.4,1.5-0.7
		c-0.1-1.8-0.2-3.6-0.4-5.4c-0.2-1.8-0.1-3.6,0.4-5.3c-0.3-0.6-0.3-1.4-0.2-2.1c0.2-0.8,0.3-1.5,0.4-2.2c0.1-0.7,0.2-1.3,0.2-1.9
		c0-0.6-0.3-1-0.9-1.3c-0.7-0.4-1.3-0.8-1.7-1.1c-0.4-0.3-0.8-0.7-1.1-1.1c-0.3-0.4-0.4-0.9-0.3-1.3c0.1-0.3,0.3-0.6,0.6-0.7
		c0.3-0.1,0.6-0.2,0.9-0.3c0.3-0.1,0.6-0.2,0.8-0.4c0.3-0.2,0.4-0.4,0.5-0.9c0.3-0.4,0.7-0.7,1-1c0.3-0.3,0.7-0.6,1-0.9h3.8
		c0.3,0.5,0.7,1.1,1.2,1.7l-0.1,0.4c0.5,0.1,1,0.1,1.6,0s1-0.2,1.5-0.4l0.2-0.5l3.4-0.6l0.3-0.5c1-0.2,2-0.3,3-0.5
		c1-0.2,2-0.2,3.1-0.1c0.1,0.1,0.2,0.3,0.5,0.5c0.2,0.2,0.3,0.4,0.3,0.6l0.8,0.1l1.2,1.2l0.3,1.3l1.4,0.6c0.8-0.3,1.4-0.7,1.9-1.1
		c0.5-0.4,1.2-0.7,2.1-1l0.3-0.5c0.5-0.1,0.9-0.3,1.2-0.4c0.3-0.1,0.7-0.4,1-0.8h5.3c0.6,0.6,1.2,1.2,1.9,1.7
		c0.6,0.5,1.3,1.1,1.9,1.7c0.1,0.5,0.2,0.9,0.4,1.3c0.2,0.4,0.4,0.8,0.6,1.1c0,0.5,0,1.4,0,2.8c0,1.4,0,2.8,0,4.4
		c0,1.5,0,2.9-0.1,4.2c-0.1,1.3-0.2,2.1-0.4,2.5v-0.1l-0.1,0.5c0,0.1,0,0.4,0,0.8c0,0.4,0.1,0.8,0.1,1.3s0.1,0.9,0.2,1.3
		c0.1,0.4,0.1,0.7,0.1,0.9c0,0.4,0.2,0.8,0.4,1.1c0.2,0.3,0.4,0.6,0.6,0.8c0.2,0.3,0.4,0.5,0.6,0.7c0.2,0.2,0.3,0.5,0.4,0.8
		c0.1,0.2,0.2,0.5,0.3,0.7c0.1,0.3,0.1,0.6,0,0.9C343,165.3,342.9,165.4,342.8,165.4z"/>
	<path d="M369.7,163.9c-0.4,0.4-0.9,0.6-1.5,0.7c-0.5,0.1-1,0.4-1.3,0.9H364l-0.7-0.7c0-0.5-0.2-0.8-0.5-1.1c-0.3-0.2-0.6-0.5-1-0.7
		c-1.3,0.6-2.1,1.1-2.5,1.5c-0.4,0.4-0.8,0.7-1.2,0.9c-0.4,0.2-0.9,0.4-1.7,0.5s-2,0.1-3.8,0.1c-0.3,0-0.7-0.2-1.1-0.5
		c-0.4-0.3-0.9-0.7-1.3-1c-0.5-0.4-0.9-0.8-1.3-1.2c-0.4-0.4-0.7-0.7-0.9-1c0-1,0-2,0-2.8c0-0.8,0.1-1.6,0.2-2.3
		c0.2-0.7,0.4-1.4,0.8-2c0.4-0.7,0.9-1.3,1.7-2c0.3-0.3,0.9-0.7,1.7-1.2c0.8-0.5,1.6-1,2.4-1.6c0.8-0.5,1.5-1.1,2.1-1.6
		c0.6-0.5,0.9-0.9,0.9-1.3l1.9-0.1c0.5-0.8,1-1.4,1.4-1.7c0.4-0.4,0.7-0.7,0.9-1c0.2-0.3,0.4-0.7,0.5-1.1c0.1-0.4,0-1.1-0.1-2.1
		c-0.4-0.3-0.8-0.6-1.1-1c-0.3-0.4-0.6-0.8-0.9-1.3l-2.3-0.6c-0.3-0.3-0.6-0.5-1-0.5c-0.3,0-0.6,0.2-0.8,0.4c-0.2,0.2-0.5,0.3-1,0.3
		c-0.3,0.3-0.5,0.7-0.8,0.9c-0.3,0.3-0.6,0.6-0.8,0.8c-0.2,0.3-0.4,0.6-0.5,0.9c-0.1,0.3-0.1,0.8,0,1.3c-0.4,0.2-0.8,0.3-1.1,0.4
		c-0.4,0.1-0.7,0.3-0.9,0.7h-4l0.3-0.3c-0.1-0.8-0.2-1.5-0.3-1.9c0-0.5,0-0.8,0.1-1.2c0.1-0.3,0.3-0.6,0.5-0.9
		c0.3-0.3,0.7-0.8,1.2-1.4l1.5-0.1l0.7-0.7h0.8l0.5-0.5l-0.1-0.1c0.4-0.2,0.9-0.4,1.3-0.5c0.4-0.1,0.8-0.3,1.1-0.7
		c0.4,0,0.7,0,1-0.2c0.3-0.2,0.6-0.2,0.9-0.3c1.4-0.1,2.6-0.1,3.6,0s2.2,0.2,3.4,0.4l2.6,2.2c0.3,0.8,0.4,1.8,0.5,3.2
		c0.1,1.3,0.1,2.8,0.1,4.3c0,1.6-0.1,3.2-0.2,4.8c-0.1,1.6-0.2,3.2-0.2,4.6c0,1.4,0,2.7,0.1,3.8c0.1,1.1,0.3,1.9,0.6,2.4l3.2,0.5
		v2.5L369.7,163.9z M363.1,155.7c-0.1-0.2-0.2-0.3-0.2-0.6c0-0.1,0-0.4,0-0.8c0-0.4,0-0.9-0.1-1.3c0-0.5-0.1-0.9-0.1-1.3
		c0-0.4-0.1-0.6-0.2-0.7c0.1-0.1,0.2-0.3,0.3-0.5h-3.4c-0.5,0.3-1,0.7-1.5,1.1s-1,0.7-1.4,1.1c0,0-0.1,0.2-0.2,0.4
		c-0.1,0.2-0.2,0.4-0.4,0.6c-0.1,0.2-0.2,0.4-0.4,0.7c-0.1,0.2-0.2,0.3-0.2,0.4c-0.6,1-0.9,1.9-0.8,2.8c0,0.9,0.3,1.8,0.7,2.9
		c0.3-0.1,0.6,0,0.8,0.1c0.2,0.2,0.4,0.4,0.6,0.7c0.2,0,0.5,0.1,0.7,0.3l0.1,0.5h3c0-0.3,0.3-0.6,0.8-0.9c0.5-0.3,0.8-0.6,1-0.7
		c0.3-0.7,0.5-1.3,0.7-2c0.2-0.7,0.3-1.4,0.3-2C363.3,156,363.2,155.8,363.1,155.7z"/>
	<path d="M392.8,137.5c-0.3,0.3-0.6,0.5-1.1,0.5c-0.4,0-0.9,0-1.4-0.1c-0.5-0.1-0.9-0.2-1.3-0.2h-5.7c-0.1,0.1-0.2,0.3-0.5,0.6
		c-0.2,0.3-0.3,0.5-0.3,0.6c0,0.4,0,1.1,0,2c0,1,0,2.1,0.1,3.4c0,1.3,0.1,2.7,0.1,4.1s0.1,2.9,0.2,4.2c0.1,1.4,0.2,2.6,0.3,3.7
		c0.1,1.1,0.2,1.9,0.4,2.5c0.8,0.6,1.4,1,1.9,1.3c0.5,0.3,0.9,0.4,1.4,0.5c0.5,0.1,1.1,0.1,1.7,0c0.7-0.1,1.6-0.1,2.8-0.1
		c0.1,0,0.4-0.1,0.7-0.4c0.3-0.2,0.5-0.4,0.6-0.5v-0.3c0.5,0.5,0.8,1,1.1,1.5c0.3,0.5,0.4,0.9,0.4,1.3c0,0.4-0.2,0.7-0.6,1
		c-0.4,0.3-1,0.4-1.8,0.5c-0.3,0.4-0.8,0.7-1.3,0.9c-0.5,0.2-1,0.4-1.4,0.8c-0.7,0.1-1.4,0.2-2,0.3c-0.7,0.1-1.3,0.2-2,0.3
		c-0.6,0.1-1.3,0.1-2,0c-0.7-0.1-1.4-0.2-2-0.6l-0.3-0.5c-1,0-1.7-0.5-2.2-1.2c-0.5-0.8-0.9-1.7-1.2-2.7c-0.3-1-0.5-2-0.7-3
		c-0.2-1-0.4-1.8-0.6-2.4l0.4-0.5c0.1-1.3,0.2-2.7,0.3-4.2c0.1-1.5,0.2-3,0.2-4.5c0.1-1.5,0.1-3,0.2-4.5c0-1.5,0.1-2.9,0.1-4.2
		l-1.5-0.3c-0.3-0.4-0.5-0.6-0.8-0.7c-0.3-0.1-0.6-0.1-0.8-0.2c-0.2,0-0.4-0.1-0.6-0.1c-0.1-0.1-0.2-0.2-0.2-0.5
		c0-0.2,0.2-0.5,0.6-0.9c0.4-0.4,0.6-0.8,0.6-1.1c0.1,0,0.2,0,0.2,0.1l0.9-0.3l0.5-0.8c0.4-0.2,0.8-0.4,1.1-0.7
		c0.3-0.3,0.6-0.6,0.8-0.9c0.2-0.3,0.4-0.6,0.6-0.8c0.2-0.2,0.4-0.4,0.7-0.5c0-0.2,0.1-0.5,0.1-0.9l0.7-0.1l0.5-0.4h1.7
		c0.1,0.5,0.2,1,0.3,1.5c0.1,0.5,0.2,1,0.3,1.4c0.1,0.4,0.4,0.8,0.7,1.1s0.8,0.6,1.5,0.8l0.9-0.7h5.6c0.6,0.5,1,0.9,1.3,1.2
		c0.2,0.3,0.4,0.8,0.4,1.7C393.2,136.6,393.1,137.2,392.8,137.5z"/>
	<path d="M427.3,165.1c-0.2,0.4-0.5,0.7-0.9,0.9h-7.1l-0.2-0.1l-0.5-0.1l-2.1-0.3c-0.2-0.3-0.3-0.6-0.5-1c-0.1-0.4-0.2-0.7-0.1-1.1
		c0.8-0.3,1.6-0.5,2.4-0.6l0.7-0.8v-6c-0.4-0.6-0.7-1.2-1-1.9c0.3-0.8,0.5-1.5,0.5-2.2s0-1.5,0-2.3c0-0.1-0.1-0.2-0.2-0.2
		c-0.1,0-0.2,0-0.3,0.1c0-1.5,0-2.7,0.1-3.5c0-0.8,0-1.5-0.1-2c-0.1-0.5-0.4-1.1-0.9-1.6c-0.5-0.5-1.2-1.3-2.2-2.3h-4.2l-0.7,0.6
		c-0.6-0.1-1.2,0-1.6,0.5c-0.4,0.4-0.7,1-0.9,1.7c-0.2,0.7-0.4,1.5-0.5,2.4c-0.1,0.9-0.1,1.7-0.1,2.6c0,0.8,0,1.5,0,2.1
		c0,0.6,0.1,1,0.1,1.2c-0.1,0.2-0.2,0.3-0.5,0.3c-0.2,1.8-0.3,3.6-0.3,5.3c0,1.7,0,3.5,0,5.3l0.9,1c0.4,0,0.8,0,1.2,0
		c0.4,0,0.8,0.1,1.2,0.2l-1.6,2l1.1-0.1l-0.7,0.4l0.1,0.3c-1.5,0-3.1,0.1-4.7,0.2c-1.6,0.1-3.1-0.1-4.5-0.6l-0.3-1.2l0.6-1.4
		c0.6-0.2,1.1-0.5,1.4-0.9c0.3-3.6,0.5-7,0.6-10.4c0.1-3.4,0.1-6.7,0.1-10c0-3.3-0.1-6.6-0.2-9.9c-0.1-3.3-0.1-6.7-0.1-10.1
		c-0.3-0.4-0.7-0.8-1.1-1c-0.5-0.2-0.8-0.5-0.9-0.9l-0.7-0.1c-0.2-0.7-0.3-1.1-0.3-1.5c0-0.3,0.2-0.8,0.5-1.5l2.2-0.6l0.2-0.5
		c1.8-0.3,3.1-0.6,3.9-1.1c0.8-0.5,1.3-0.7,1.5-0.7c0.3,0,0.5,0.4,0.7,1.1c0.2,0.8,0.5,2.2,1.1,4.3l-0.5,1.5l0.7,1.9l-0.7,1.6
		l0.5,0.8c-0.4,1-0.7,2.1-0.8,3.2c-0.1,1.1-0.2,2.3-0.2,3.5s0,2.4,0.1,3.5c0.1,1.2,0.1,2.3,0.1,3.4c0.9,0,1.9-0.3,3-0.9
		c1.1-0.6,1.9-1.2,2.6-1.7c0.8,0,1.6,0,2.5,0c0.9,0,1.6,0.1,2.2,0.3l1.9,0.1c0.6,0.5,1.1,0.9,1.5,1.3c0.4,0.4,0.7,1,0.8,1.8l0.9,0.6
		c0.3,0.7,0.5,1.8,0.7,3.1c0.2,1.3,0.2,2.7,0.3,4.3c0,1.5,0,3.1,0,4.7c0,1.6,0,3.1,0,4.5c0,1.4,0.1,2.6,0.2,3.5
		c0.1,1,0.3,1.6,0.6,1.9l1.9,0.1c0.4,0.5,0.8,1,1,1.6C427.7,164.3,427.5,164.7,427.3,165.1z"/>
	<path d="M441.8,140.8c-0.2,0.3-0.3,0.6-0.4,0.8h-4.9c-0.1-0.5-0.2-0.8-0.3-0.9c-0.1-0.1-0.2-0.2-0.4-0.1c-0.2,0-0.4,0.1-0.6,0.2
		c-0.2,0.1-0.5,0.1-0.8,0l-1.6-1.5c-0.1-0.1-0.2-0.4-0.2-0.8c0-0.4,0-0.7,0-0.8c0-0.6,0.1-1.1,0.4-1.6c0.3-0.5,0.6-1,0.9-1.4
		c0.4-0.1,0.8-0.3,1.2-0.6c0.3-0.2,0.7-0.5,1-0.8h3c0.4,0,0.8,0.1,1.2,0.3c0.4,0.2,0.7,0.3,1.1,0.3c0.3,0.6,0.5,1.2,0.6,1.8
		c0.3,0.1,0.4,0.2,0.5,0.3c0.1,0.7,0.2,1.1,0.3,1.5s0.1,0.6,0.1,0.9c0,0.2,0,0.5-0.1,0.8c-0.1,0.3-0.2,0.7-0.3,1.3
		C442.2,140.3,442,140.5,441.8,140.8z M443.3,161.3c0,0.3,0.1,0.6,0,0.9c0,0.4-0.1,0.7-0.2,1.1c-0.1,0.3-0.2,0.7-0.4,0.9
		c-0.2,0.3-0.4,0.5-0.7,0.6c0,0.2,0,0.5-0.1,1c-0.6,0.1-1,0.2-1.4,0.5l0.1,0.1l-2,0.4c-0.2,0.1-0.3,0.1-0.5,0.2
		c-0.2,0-0.3,0.1-0.5,0.1c-0.1,0-0.1,0.1-0.1,0.1c-0.7,0-1.3-0.1-1.8-0.4c-0.5-0.3-0.9-0.6-1.2-1c-0.3-0.4-0.7-0.8-1-1.4
		c-0.3-0.5-0.6-1-0.9-1.6v-4.1c0.5-0.1,0.8-0.3,1-0.6c0.2-0.3,0.4-0.6,0.6-0.9c0.2-0.3,0.3-0.7,0.4-1c0.1-0.3,0.3-0.6,0.6-0.9
		c0.7-0.1,1.3-0.2,1.8-0.4c0.5-0.1,1-0.2,1.4-0.2c0.4,0,0.9,0,1.3,0.2c0.5,0.2,1,0.4,1.7,0.9c0.1,0.3,0.2,0.6,0.5,0.7
		c0.2,0.2,0.5,0.4,0.7,0.5c0,0.1,0.1,0.4,0.3,0.8c0.2,0.4,0.3,0.9,0.4,1.3c0.1,0.5,0.2,0.9,0.3,1.3c0.1,0.4,0.1,0.7,0,0.7H443.3z"/>
</g>
<g>
	<g>
		<path d="M994.3,451.9c9.3,1.5,18.6,2.8,27.8,4.5c2.7,0.5,4.6,0,6.7-1.7c6.5-5.4,13-10.7,19.6-15.9c5.6-4.4,9-4.5,14.5,0
			c6.2,5,12.5,10,18.5,15.1c2.6,2.2,5,3.1,8.5,2.4c8.2-1.6,16.6-2.7,24.9-4c5.6-0.9,9.4,1.2,11.5,6.4c3.2,8.1,6.3,16.2,9.3,24.4
			c1,2.7,2.5,4.2,5.2,5.2c7.9,2.9,15.7,5.9,23.6,8.9c6.2,2.4,8.2,5.9,7.2,12.7c-1.3,8.3-2.5,16.6-4,24.9c-0.5,2.9,0.2,4.9,1.9,7
			c5.3,6.4,10.5,12.8,15.7,19.2c4.5,5.6,4.5,9,0.1,14.5c-5.2,6.5-10.4,12.9-15.7,19.2c-1.9,2.2-2.5,4.4-1.9,7.4
			c1.6,8.4,2.8,16.9,4.1,25.3c0.9,5.6-1.2,9.5-6.4,11.5c-7.9,3.2-15.9,6.2-24,9.1c-2.9,1-4.7,2.6-5.8,5.6
			c-2.7,7.8-5.8,15.5-8.7,23.2c-2.4,6.3-6,8.3-12.6,7.2c-8.3-1.3-16.6-2.5-24.9-4c-2.9-0.5-4.9,0.1-7,1.9
			c-6.2,5.2-12.6,10.3-18.9,15.4c-6.1,4.9-9.3,4.9-15.5-0.1c-6.4-5.2-12.9-10.4-19.3-15.6c-1.9-1.6-3.8-2-6.3-1.6
			c-8.4,1.5-16.9,2.7-25.3,4.1c-6.3,1-10-1.1-12.3-7.1c-3-7.6-5.9-15.1-8.6-22.8c-1.1-3.2-2.9-5.2-6.2-6.4
			c-7.7-2.7-15.2-5.7-22.8-8.6c-6.2-2.4-8.2-5.9-7.2-12.6c1.3-8.3,2.5-16.6,4-24.9c0.5-2.7,0-4.6-1.7-6.7
			c-5.3-6.4-10.5-12.8-15.6-19.3c-4.8-6-4.8-9.3-0.1-15.2c5.1-6.3,10.2-12.7,15.4-18.9c1.9-2.2,2.6-4.4,2-7.4
			c-1.6-8.2-2.7-16.6-4-24.9c-1-6.3,1.1-10,7.1-12.3c7.6-2.9,15.1-5.9,22.8-8.6c3.2-1.1,5.2-3,6.3-6.3c2.8-7.9,6-15.7,8.9-23.6
			C986.5,454.4,989.8,452.3,994.3,451.9z M1110.1,664.7c1.5,0.2,2-1.5,2.6-3.1c2.6-6.8,5.3-13.5,7.7-20.4c1.5-4.1,4.1-6.6,8.1-8.1
			c6.8-2.5,13.6-5.2,20.4-7.7c2.4-0.9,3.3-2.2,2.8-4.8c-1.3-7.1-2.2-14.4-3.6-21.5c-0.8-4.2,0.1-7.5,2.7-10.7
			c4.7-5.7,9.3-11.5,14.1-17.2c1.9-2.2,1.8-3.8,0-5.9c-4.9-5.8-9.6-11.7-14.3-17.5c-2.2-2.7-3.2-5.6-2.6-9.1
			c1.3-7.3,2.2-14.6,3.7-21.9c0.6-3.1-0.1-4.7-3.2-5.8c-6.7-2.4-13.3-5.1-20-7.5c-4.1-1.5-6.6-4.1-8.1-8.1
			c-2.5-6.8-5.2-13.6-7.7-20.4c-0.9-2.4-2.2-3.3-4.8-2.8c-7.3,1.3-14.6,2.3-21.9,3.7c-3.8,0.7-7-0.1-9.9-2.5
			c-5.8-4.8-11.8-9.5-17.5-14.4c-2.2-1.9-3.8-1.8-5.9,0c-5.8,4.9-11.7,9.6-17.5,14.4c-2.6,2.1-5.4,3.2-8.7,2.7
			c-7.3-1.2-14.7-2.1-21.9-3.7c-3.9-0.8-5.4,0.5-6.6,3.8c-2.3,6.6-4.9,13.1-7.3,19.6c-1.4,3.7-3.8,6.2-7.6,7.6
			c-7,2.6-13.8,5.3-20.8,7.8c-2.4,0.9-3.3,2.2-2.9,4.8c1.3,7.1,2.2,14.4,3.6,21.5c0.8,4.2-0.1,7.6-2.7,10.7
			c-4.7,5.7-9.3,11.5-14.1,17.2c-1.9,2.2-1.8,3.8,0,5.9c4.9,5.8,9.6,11.7,14.3,17.5c2.2,2.7,3.2,5.6,2.6,9.1
			c-1.3,7.4-2.4,14.9-3.8,22.3c-0.5,2.8,0.2,4.2,2.9,5.2c6.8,2.5,13.6,5.2,20.4,7.7c4.1,1.5,6.6,4.1,8.1,8.2
			c2.5,6.8,5.2,13.6,7.7,20.4c0.9,2.4,2.2,3.3,4.8,2.8c7.3-1.3,14.6-2.3,21.9-3.7c3.8-0.7,7,0.1,9.9,2.5c5.8,4.8,11.8,9.5,17.5,14.4
			c2.2,1.9,3.8,1.7,5.9-0.1c5.8-4.9,11.7-9.5,17.5-14.4c3-2.5,6.1-3.1,10-2.4C1093.8,662.2,1101.6,663.3,1110.1,664.7z"/>
		<path d="M1065.1,546.4c0,15.9,0,31.9,0,47.8c0,8-3.6,12.8-9.5,12.7s-9.3-4.8-9.3-12.9c0-31.7,0-63.5,0-95.2c0-2,0.1-4,0.6-5.9
			c1.1-4.3,5.5-7.6,9.4-7.4s7.5,3.5,8.4,7.9c0.4,1.9,0.4,4,0.4,5.9C1065.1,515.1,1065.1,530.8,1065.1,546.4z"/>
		<path d="M1070.6,630c0.1,8.3-6.5,15-14.7,15.2s-15.2-6.8-15.2-15.1c0-8.5,6.3-15,14.7-15.1C1064,614.9,1070.6,621.4,1070.6,630z"
			/>
	</g>
</g>
</svg>
