<?xml version="1.0" encoding="utf-8"?>
<!-- Generator: Adobe Illustrator 21.1.0, SVG Export Plug-In . SVG Version: 6.00 Build 0)  -->
<svg version="1.1" id="Layer_1" xmlns="http://www.w3.org/2000/svg" xmlns:xlink="http://www.w3.org/1999/xlink" x="0px" y="0px"
	 viewBox="0 0 1224 792" style="enable-background:new 0 0 1224 792;" xml:space="preserve">
<style type="text/css">
	.st0{font-family:'AMERICAN_HORROR_STORY';}
	.st1{font-size:176.6927px;}
	.st2{font-family:'UglyQua';}
	.st3{font-size:65px;}
</style>
<g>
	<g>
		<path d="M604.2,681.5c-38,0-76,0-114.1,0c-5.3,0-5.3,0-5.3-5.3c0-61.4,0-122.7,0-184.1c0-5.1,0-5.1,5.1-5.1c4.6,0,9.2-0.1,13.9,0
			c2.4,0.1,3.4-0.7,3.3-3.2c-0.1-3.2,0.1-6.5-0.1-9.7c-0.2-4,1.5-6.8,4.7-9c24.3-16.5,50.2-19.8,77.8-9.7c4,1.5,8,3.2,11.5,5.5
			c2.4,1.6,4.1,1.4,6.5,0c30-16.1,59.4-15.4,88.2,3.2c4.2,2.7,6.4,6.1,5.9,11.2c-0.2,2.5,0.1,5.1-0.1,7.6c-0.2,3,0.7,4.2,3.9,4
			c4.8-0.2,9.7,0.1,14.6-0.1c3.1-0.1,4,1.1,3.9,4c-0.2,8.2-0.1,16.4-0.1,24.6c0,53.5,0,107,0,160.5c0,5.4,0,5.4-5.6,5.4
			C680.3,681.5,642.3,681.5,604.2,681.5z M612.2,556.9c0,25.4,0,50.9,0,76.3c0,4,0,3.9,3.5,2.5c22.1-9.1,44.2-9.8,66.3-0.2
			c4,1.7,4,1.8,4-2.5c0-50.7,0-101.5,0.1-152.2c0-3.5-1.2-5.5-4.2-7c-22-11.5-43.8-11.2-65.7,0.2c-3.1,1.6-4.1,3.6-4.1,7
			C612.3,506.3,612.2,531.6,612.2,556.9z M522.7,556.9c0,25.5,0,51.1,0,76.6c0,2.6,0,3.8,3.3,2.4c22.4-9.7,44.8-9.7,67.2,0
			c2.9,1.3,3.4,0.8,3.4-2.2c-0.1-13.9-0.1-27.7-0.1-41.6c0-37.3,0-74.6,0-112c0-2.1-0.1-3.9-2.4-5.2c-22.6-12.6-45.2-12.8-68-0.6
			c-2.6,1.4-3.4,3.1-3.4,6C522.8,505.9,522.7,531.4,522.7,556.9z"/>
	</g>
</g>
<g>
	<g>
		<path d="M172.2,634.6c-4.5,27.2-8.9,53.6-13,80.1c-0.6,3.9-2.1,5.6-6,5.5c-5.2-0.2-10.3-0.1-15.5,0c-3.5,0.1-5.2-1.3-5-5
			c1.6-33.4,3.1-66.9,4.6-100.3c0.4-9,0.7-18,1.1-27c0.2-3-0.9-5.5-2.2-8.1c-14.7-28.8-29.3-57.6-44.1-86.3c-2-3.8-2.1-6.2,1.4-9.3
			c8.8-7.8,8.7-8,15.5,1.4c10.8,14.8,21.6,29.6,32.3,44.5c2.1,2.9,4.4,4,7.9,4c15.5-0.2,31,0,46.5-0.2c4-0.1,6.4,1.2,8.4,4.7
			c14.9,26,30,52,45.2,77.8c2.2,3.7,1.7,5.5-2,7.3c-3.5,1.6-6.8,3.5-10,5.6c-3.1,2-4.9,1.2-6.9-1.7c-7.3-10.8-14.8-21.3-22.3-32
			c-0.9-1.3-1.9-2.6-3-4.1c-1.6,1.6-0.9,3.4-0.8,4.9c0.8,15.5,1.9,30.9,2.7,46.4c1.2,24.1,2.1,48.2,3.5,72.3c0.2,4.2-1.2,5.3-5,5.2
			c-4.7-0.1-9.3-0.2-14,0c-3.8,0.1-5.3-1.6-5.8-5.2c-4-25.1-8.1-50.3-12.2-75.4C173.1,638.2,172.7,636.8,172.2,634.6z"/>
		<path d="M142.5,492.8c-0.1-15,13.2-27.9,28.3-27.7c15.2,0.2,27.6,12.8,27.8,28.3c0.2,14.8-13.2,28.1-28.2,28
			C155,521.2,142.5,508.5,142.5,492.8z"/>
		<path d="M89.3,508.6c0.5,2-0.9,2.6-2.4,3.1c-8.1,2.6-16.2,5.1-24.2,7.8c-2.5,0.8-3.7-0.1-4.4-2.5c-4-12.7-8-25.4-12.1-38
			c-0.8-2.4-0.1-3.7,2.3-4.5c7.9-2.5,15.8-5,23.7-7.6c2.3-0.8,3.8-0.2,4.6,2.2c4,12.7,8.1,25.3,12.2,38
			C89.1,507.6,89.2,508.1,89.3,508.6z M58,489.9c6.1,0.1,10.3,1.6,13,6.4c1.5-5,1.3-9.3,1.4-13.6c0-3.2-1.3-2.9-3.2-1.4
			C65.9,483.9,62.6,486.4,58,489.9z"/>
		<path d="M67.3,407.8c16.1,1,30.5,5.4,42.5,16.1c2,1.8,4.7,3.7,1.2,6.3c-2.6,2-3.7,7.8-9.3,3.1c-20.7-17.2-48-17-68.6,0.3
			c-2.3,1.9-3.9,2.2-5.8-0.1c-0.9-1-1.8-2-2.8-2.8c-2.9-2.3-2.1-4.2,0.3-6.4c9.4-8.6,20.6-13.2,33-15.4
			C61.1,408.4,64.4,408.2,67.3,407.8z"/>
		<path d="M67.8,425.8c11.5,0.3,21.5,4.2,30.4,11.4c2.4,1.9,2.7,3.6,0.4,5.6c-0.9,0.8-1.7,1.6-2.4,2.5c-2.1,2.7-3.9,3-6.9,0.6
			c-10.2-8.2-21.7-9.3-33.9-5.5c-3.5,1.1-6.6,3.1-9.4,5.5c-3.5,2.9-4.9,2.2-9.6-3.6c-2.6-3.2-0.1-4.4,1.8-5.9
			C46.7,429.4,56.7,426,67.8,425.8z"/>
		<path d="M67.7,444c6.7,0.5,12.5,2.4,17.6,6.1c2.5,1.9,2.5,3.3,0.4,5.6c-3.3,3.6-6,6.3-11.5,2.4c-4.7-3.4-10.5-2.1-15.6,1
			c-3.4,2-7.3,0.3-10.1-4.6c-2-3.5,1.4-4.2,3.1-5.5C56.5,445.3,62.3,444.5,67.7,444z"/>
	</g>
</g>
<text transform="matrix(1 0 0 1 331.4287 605.8409)" class="st0 st1">+</text>
<text transform="matrix(1 0 0 1 800.0001 628.6981)" class="st0 st1">=</text>
<text transform="matrix(1 0 0 1 91.4285 166.0001)" class="st2 st3">Simple math:</text>
<g>
	<g>
		<path d="M994.3,451.9c9.3,1.5,18.6,2.8,27.8,4.5c2.7,0.5,4.6,0,6.7-1.7c6.5-5.4,13-10.7,19.6-15.9c5.6-4.4,9-4.5,14.5,0
			c6.2,5,12.5,10,18.5,15.1c2.6,2.2,5,3.1,8.5,2.4c8.2-1.6,16.6-2.7,24.9-4c5.6-0.9,9.4,1.2,11.5,6.4c3.2,8.1,6.3,16.2,9.3,24.4
			c1,2.7,2.5,4.2,5.2,5.2c7.9,2.9,15.7,5.9,23.6,8.9c6.2,2.4,8.2,5.9,7.2,12.7c-1.3,8.3-2.5,16.6-4,24.9c-0.5,2.9,0.2,4.9,1.9,7
			c5.3,6.4,10.5,12.8,15.7,19.2c4.5,5.6,4.5,9,0.1,14.5c-5.2,6.5-10.4,12.9-15.7,19.2c-1.9,2.2-2.5,4.4-1.9,7.4
			c1.6,8.4,2.8,16.9,4.1,25.3c0.9,5.6-1.2,9.5-6.4,11.5c-7.9,3.2-15.9,6.2-24,9.1c-2.9,1-4.7,2.6-5.8,5.6
			c-2.7,7.8-5.8,15.5-8.7,23.2c-2.4,6.3-6,8.3-12.6,7.2c-8.3-1.3-16.6-2.5-24.9-4c-2.9-0.5-4.9,0.1-7,1.9
			c-6.2,5.2-12.6,10.3-18.9,15.4c-6.1,4.9-9.3,4.9-15.5-0.1c-6.4-5.2-12.9-10.4-19.3-15.6c-1.9-1.6-3.8-2-6.3-1.6
			c-8.4,1.5-16.9,2.7-25.3,4.1c-6.3,1-10-1.1-12.3-7.1c-3-7.6-5.9-15.1-8.6-22.8c-1.1-3.2-2.9-5.2-6.2-6.4
			c-7.7-2.7-15.2-5.7-22.8-8.6c-6.2-2.4-8.2-5.9-7.2-12.6c1.3-8.3,2.5-16.6,4-24.9c0.5-2.7,0-4.6-1.7-6.7
			c-5.3-6.4-10.5-12.8-15.6-19.3c-4.8-6-4.8-9.3-0.1-15.2c5.1-6.3,10.2-12.7,15.4-18.9c1.9-2.2,2.6-4.4,2-7.4
			c-1.6-8.2-2.7-16.6-4-24.9c-1-6.3,1.1-10,7.1-12.3c7.6-2.9,15.1-5.9,22.8-8.6c3.2-1.1,5.2-3,6.3-6.3c2.8-7.9,6-15.7,8.9-23.6
			C986.5,454.4,989.8,452.3,994.3,451.9z M1110.1,664.7c1.5,0.2,2-1.5,2.6-3.1c2.6-6.8,5.3-13.5,7.7-20.4c1.5-4.1,4.1-6.6,8.1-8.1
			c6.8-2.5,13.6-5.2,20.4-7.7c2.4-0.9,3.3-2.2,2.8-4.8c-1.3-7.1-2.2-14.4-3.6-21.5c-0.8-4.2,0.1-7.5,2.7-10.7
			c4.7-5.7,9.3-11.5,14.1-17.2c1.9-2.2,1.8-3.8,0-5.9c-4.9-5.8-9.6-11.7-14.3-17.5c-2.2-2.7-3.2-5.6-2.6-9.1
			c1.3-7.3,2.2-14.6,3.7-21.9c0.6-3.1-0.1-4.7-3.2-5.8c-6.7-2.4-13.3-5.1-20-7.5c-4.1-1.5-6.6-4.1-8.1-8.1
			c-2.5-6.8-5.2-13.6-7.7-20.4c-0.9-2.4-2.2-3.3-4.8-2.8c-7.3,1.3-14.6,2.3-21.9,3.7c-3.8,0.7-7-0.1-9.9-2.5
			c-5.8-4.8-11.8-9.5-17.5-14.4c-2.2-1.9-3.8-1.8-5.9,0c-5.8,4.9-11.7,9.6-17.5,14.4c-2.6,2.1-5.4,3.2-8.7,2.7
			c-7.3-1.2-14.7-2.1-21.9-3.7c-3.9-0.8-5.4,0.5-6.6,3.8c-2.3,6.6-4.9,13.1-7.3,19.6c-1.4,3.7-3.8,6.2-7.6,7.6
			c-7,2.6-13.8,5.3-20.8,7.8c-2.4,0.9-3.3,2.2-2.9,4.8c1.3,7.1,2.2,14.4,3.6,21.5c0.8,4.2-0.1,7.6-2.7,10.7
			c-4.7,5.7-9.3,11.5-14.1,17.2c-1.9,2.2-1.8,3.8,0,5.9c4.9,5.8,9.6,11.7,14.3,17.5c2.2,2.7,3.2,5.6,2.6,9.1
			c-1.3,7.4-2.4,14.9-3.8,22.3c-0.5,2.8,0.2,4.2,2.9,5.2c6.8,2.5,13.6,5.2,20.4,7.7c4.1,1.5,6.6,4.1,8.1,8.2
			c2.5,6.8,5.2,13.6,7.7,20.4c0.9,2.4,2.2,3.3,4.8,2.8c7.3-1.3,14.6-2.3,21.9-3.7c3.8-0.7,7,0.1,9.9,2.5c5.8,4.8,11.8,9.5,17.5,14.4
			c2.2,1.9,3.8,1.7,5.9-0.1c5.8-4.9,11.7-9.5,17.5-14.4c3-2.5,6.1-3.1,10-2.4C1093.8,662.2,1101.6,663.3,1110.1,664.7z"/>
		<path d="M1065.1,546.4c0,15.9,0,31.9,0,47.8c0,8-3.6,12.8-9.5,12.7c-5.9-0.1-9.3-4.8-9.3-12.9c0-31.7,0-63.5,0-95.2
			c0-2,0.1-4,0.6-5.9c1.1-4.3,5.5-7.6,9.4-7.4c3.9,0.2,7.5,3.5,8.4,7.9c0.4,1.9,0.4,4,0.4,5.9
			C1065.1,515.1,1065.1,530.8,1065.1,546.4z"/>
		<path d="M1070.6,630c0.1,8.3-6.5,15-14.7,15.2c-8.2,0.2-15.2-6.8-15.2-15.1c0-8.5,6.3-15,14.7-15.1
			C1064,614.9,1070.6,621.4,1070.6,630z"/>
	</g>
</g>
</svg>
