<?xml version="1.0" encoding="utf-8"?>
<!-- Generator: Adobe Illustrator 21.1.0, SVG Export Plug-In . SVG Version: 6.00 Build 0)  -->
<svg version="1.1" id="Layer_1" xmlns="http://www.w3.org/2000/svg" xmlns:xlink="http://www.w3.org/1999/xlink" x="0px" y="0px"
	 viewBox="0 0 1224 792" style="enable-background:new 0 0 1224 792;" xml:space="preserve">
<style type="text/css">
	.st0{fill:#FCFDFC;}
	.st1{fill:#0D894F;}
	.st2{fill:#74A681;}
	.st3{fill:#FFFFFF;}
	.st4{fill:#4C5151;}
	.st5{fill:#3074B7;}
	.st6{fill:#C7C6C6;}
	.st7{fill:#C7C6C5;}
	.st8{fill:#E2E1E0;}
	.st9{fill:#E1E0DF;}
	.st10{fill:#346BB1;}
	.st11{fill:#316FB4;}
	.st12{fill:#3071B5;}
	.st13{fill:#3C60AA;}
	.st14{fill:#356AB0;}
	.st15{fill:#3A61AA;}
	.st16{fill:#3669AF;}
	.st17{fill:#3567AD;}
	.st18{fill:#243A6E;}
	.st19{fill:#212E5E;}
	.st20{fill:#2F73B6;}
	.st21{fill:#3A63AB;}
	.st22{fill:#3965AC;}
	.st23{fill:#3E5CA5;}
	.st24{fill:#3072B5;}
	.st25{fill:#3865AC;}
	.st26{fill:#336DB3;}
	.st27{fill:#3C60A9;}
	.st28{fill:#3D5EA7;}
	.st29{fill:#3768AE;}
	.st30{fill:#3766AC;}
	.st31{fill:#3270B4;}
	.st32{fill:#3170B4;}
	.st33{fill:#322C70;}
	.st34{fill:#0971B6;}
	.st35{fill:#21376A;}
	.st36{fill:#213263;}
	.st37{fill:#115999;}
	.st38{fill:#1E437A;}
	.st39{fill:#203C6F;}
	.st40{fill:#14518D;}
	.st41{fill:#1F4076;}
	.st42{fill:#194A84;}
	.st43{fill:#1C4780;}
	.st44{fill:#145D9E;}
	.st45{fill:#144E89;}
	.st46{fill:#105492;}
	.st47{fill:#1B4780;}
	.st48{fill:#0C65A7;}
	.st49{fill:#0A6FB3;}
	.st50{fill:#125796;}
	.st51{fill:#213668;}
	.st52{fill:#0B6BAE;}
	.st53{fill:#10508A;}
	.st54{fill:#184B85;}
	.st55{fill:#164B84;}
	.st56{fill:#1E457D;}
	.st57{fill:#0C5490;}
	.st58{fill:#0B5897;}
	.st59{fill:#203B6F;}
	.st60{fill:#1D4075;}
	.st61{fill:#095FA0;}
	.st62{fill:#203E72;}
	.st63{fill:#1A4780;}
	.st64{fill:#1C437A;}
	.st65{fill:#0C5C9C;}
	.st66{fill:#0E72B7;}
	.st67{fill:#1E3E72;}
	.st68{fill:#10518C;}
	.st69{fill:#1F3F74;}
	.st70{fill:#223060;}
	.st71{fill:#1C447B;}
	.st72{fill:#21396C;}
	.st73{fill:#184B86;}
	.st74{fill:#0A63A4;}
	.st75{fill:#0C69AB;}
	.st76{fill:#164A84;}
	.st77{fill:#223567;}
	.st78{fill:#0B5795;}
	.st79{fill:#223161;}
	.st80{fill:#0D66A8;}
	.st81{fill:#0C5E9F;}
	.st82{fill:#0C6CAF;}
	.st83{fill:#174B85;}
	.st84{fill:#1C467D;}
	.st85{fill:#1D4176;}
	.st86{fill:#12508B;}
	.st87{fill:#0C5592;}
	.st88{fill:#0D5998;}
	.st89{fill:#FEFDFD;}
	.st90{fill:#263362;}
	.st91{fill:#2574B6;}
	.st92{fill:#161A2A;}
	.st93{fill:#FFCC0A;}
	.st94{fill:#C6A02D;}
	.st95{fill:#FFCD08;}
	.st96{fill:#336CB1;}
	.st97{fill:#C6A12E;}
	.st98{fill:#C6A12D;}
	.st99{fill:#C6A02E;}
	.st100{fill:#222F5F;}
	.st101{fill:#322C71;}
	.st102{fill:#DBB028;}
	.st103{fill:#184A85;}
	.st104{fill:#1E4279;}
	.st105{fill:#203D71;}
	.st106{fill:#1C467F;}
	.st107{fill:#3667AD;}
	.st108{fill:#3666AC;}
	.st109{fill:#FEFEFF;}
	.st110{fill:#3964AB;}
	.st111{fill:#DEE0EE;}
	.st112{fill:#13528F;}
	.st113{fill:#135898;}
	.st114{fill:#3868AE;}
	.st115{fill:#C5A02E;}
	.st116{fill:#3E5BA5;}
	.st117{fill:#E2B525;}
	.st118{fill:#DEB226;}
	.st119{fill:#3D5FA8;}
	.st120{fill:#336EB3;}
	.st121{fill:#2A387E;}
	.st122{fill:#29336E;}
	.st123{fill:#8D8F98;}
	.st124{fill:#29315F;}
	.st125{fill:#272F5C;}
	.st126{fill:#7D806A;}
	.st127{fill:#B3B9CC;}
	.st128{fill:#C6C6D2;}
	.st129{fill:#D82C2E;}
	.st130{fill:#28326B;}
	.st131{fill:#28326C;}
	.st132{fill:#28326D;}
</style>
<g id="za70Zz.tif">
	<g>
		<g>
			<path class="st0" d="M465.1,320.6c5.1,0,10.2,0,15.4,0c0,0.9-0.8,0.9-1.3,1.2c-7.2,4.1-10.3,10.9-8.4,18.4
				c1.8,6.9,7.7,11.6,14.9,11.7c7.2,0.2,13.5-4.4,15.4-11.1c2.2-7.8-0.7-14.6-8.1-19c-0.5-0.3-1.4-0.3-1.1-1.3c3.8,0,9-1.5,10.9,0.4
				c1.9,1.9,0.4,7.1,0.4,10.9c0,118.9,0,237.7,0.1,356.6c0,3.5-0.7,4.2-4.2,4.2c-134.2-0.1-268.5-0.1-402.7,0
				c-3.5,0-4.2-0.7-4.2-4.2c0.1-121.3,0.1-242.5,0.2-363.8c0-1.3-2.1-4.4,1.9-4.1c0,0.3,0,0.7,0,1c-0.1,56-0.1,112-0.2,168
				c0,2.9,0.9,3.8,3.8,3.8c8.2-0.2,16.4-0.2,24.6,0c3.4,0.1,4.5-0.8,5-4.4c4.1-32.9,16.6-62,39.6-86.2c2.3-2.4,2.3-3.6-0.5-5.8
				c-16-12.8-27.2-28.5-29.6-49.5c-0.2-1.9-2-5.3,1.7-4.9c3.1,0.3,8.2-3.5,9.2,3.4c1.2,8.3,5.1,15.5,10.5,21.8
				c4.9,5.7,10.5,10.8,16.9,14.8c12.9,8.2,7.8,8.7,20.8-0.1c13.1-9,23.8-20.2,27.2-36.4c1.4-6.7,6.1-3.4,9.2-3.6
				c4.2-0.2,2.1,3.5,1.9,5.3c-1.9,14.7-8.7,27.1-18.3,38.1c-4.3,5-9.3,9.3-14.4,13.9c26.2,17.3,43.1,40.5,49.6,71.6
				c-8.1,0-16-0.2-23.8,0.1c-3.3,0.1-4.6-0.9-5.4-4.3c-5.1-21-16-38.5-32.7-52.4c-2.8-2.3-4.3-2.6-6.8,0.3
				c-18.7,21.7-26,47.5-27.7,75.4c-0.2,2.8,1.4,2.9,3.5,2.9c34.8,0,69.7,0,104.5,0c2.8,0,3.8-0.7,3.8-3.7c-0.1-56-0.1-112-0.2-168
				c0-0.4,0.1-0.7,0.1-1.1c8.5,0,17.1,0,25.6,0c0.1,8.9,0.5,17.8,0,26.6c-0.3,5.3,1.5,6.7,6.6,7.3c27.9,3.2,52.8,14,75,31.1
				c2.5,1.9,2.3,3,0.2,5c-4.2,4-8.5,8-12.3,12.3c-3.2,3.7-5.5,4.1-9.8,1c-16.1-11.8-34.2-18.8-53.9-21.9c-4.3-0.7-5.9-0.1-5.9,4.9
				c0.2,33.8,0.2,67.6,0,101.4c0,4,1,5.1,5.1,5.1c33.5-0.2,66.9-0.1,100.4-0.1c7,0,6.9,0,5.7-7.2c-3.3-19.8-10.7-38-22.7-54.1
				c-1.7-2.4-1.9-3.8,0.4-5.9c4.8-4.4,9.4-9,13.8-13.8c2.5-2.7,3.7-2.7,6,0.3c17.2,22.8,27.8,48.3,30.8,76.8
				c0.3,2.8,1.2,3.8,4.1,3.8c8-0.1,16.1-0.3,24.1,0.1c4.4,0.2,5.3-1.4,5.3-5.5c-0.1-54.1-0.1-108.2-0.1-162.3
				C464.7,323.9,464.2,322.2,465.1,320.6z M179.8,691.5c27.3,0,54.6-0.1,82,0.1c3.5,0,4.7-0.7,4.6-4.4c-0.3-7.7-0.4-15.4,0-23
				c0.2-4.2-0.8-6.4-5.3-6.2c-0.8,0-1.7-0.1-2.5-0.3c-27.1-3.8-51.4-14.1-73.1-30.8c-2.8-2.1-2.3-3.3-0.1-5.3
				c4.6-4.3,9.1-8.7,13.4-13.4c2.4-2.6,4-3,7-0.7c16.9,12.5,35.9,20,56.8,22.9c3.5,0.5,3.8-0.6,3.8-3.5c-0.1-34.5-0.1-69,0-103.5
				c0-3.2-0.7-4.3-4.2-4.3c-34.5,0.1-69,0.1-103.5,0c-3.4,0-4.2,0.7-3.7,4.3c3.1,21,10.8,40.1,23.4,57.1c1.8,2.5,1.8,3.8-0.4,5.8
				c-4.6,4.3-9.2,8.7-13.4,13.4c-2.8,3.2-4.3,2.8-6.7-0.5c-17.2-22.7-27.5-48.1-30.7-76.4c-0.4-3.2-1.3-3.9-4.3-3.8
				c-8.2,0.2-16.4,0.3-24.6,0c-3.7-0.1-4.5,1.1-4.4,4.6c0.1,54.5,0.1,109,0,163.4c0,3.6,1,4.5,4.5,4.5
				C125.5,691.4,152.7,691.5,179.8,691.5z M422.3,556.1c-0.4,4.4-2.2,7.7-4,10.9c-9.3,16.8-24.3,24.5-42.7,27.2
				c-10.9,1.6-21.3,4.7-29.4,12.9c-2.4,2.4-3.3,4.5-2.4,8.1c6.1,24.1,12.1,48.2,17.8,72.4c0.8,3.4,2.4,4.1,5.6,4
				c30.9-0.1,61.8-0.1,92.7,0c3.7,0,4.9-0.8,4.9-4.7c-0.1-54.3-0.1-108.6,0-162.9c0-3.6-0.6-5-4.7-5c-54.5,0.1-108.9,0.1-163.4,0
				c-3.4,0-4.7,0.6-4.7,4.4c0.1,54.6,0.1,109.3,0,163.9c0,3.5,1.1,4.2,4.3,4.2c15.5-0.2,31.1-0.2,46.6,0c4.5,0.1,4.8-1.1,3.8-5.1
				c-10.1-40.1-20-80.3-30.2-120.4c-1.2-4.6,0-6.8,3.9-8.8c15.5-7.7,31.8-9.9,48.8-6.6C386.7,554.1,403.8,560.4,422.3,556.1z"/>
			<path class="st1" d="M465.1,320.6c-0.9,1.6-0.4,3.3-0.4,5c0,54.1-0.1,108.2,0.1,162.3c0,4.1-0.8,5.7-5.3,5.5
				c-8-0.4-16-0.2-24.1-0.1c-2.9,0-3.8-1-4.1-3.8c-3-28.5-13.6-54-30.8-76.8c-2.3-3-3.5-3-6-0.3c-4.4,4.8-9,9.4-13.8,13.8
				c-2.3,2.1-2.1,3.6-0.4,5.9c12,16.1,19.4,34.3,22.7,54.1c1.2,7.2,1.3,7.2-5.7,7.2c-33.5,0-66.9-0.1-100.4,0.1
				c-4.1,0-5.1-1.1-5.1-5.1c0.2-33.8,0.2-67.6,0-101.4c0-5,1.5-5.5,5.9-4.9c19.7,3.1,37.9,10.1,53.9,21.9c4.3,3.1,6.6,2.8,9.8-1
				c3.8-4.4,8-8.4,12.3-12.3c2.1-2,2.3-3-0.2-5c-22.2-17.1-47.1-27.9-75-31.1c-5.1-0.6-6.9-2-6.6-7.3c0.5-8.8,0-17.7,0-26.6
				c0.7,0,1.4,0,2,0c1.6,1.6,3.5,0.9,5.3,0.9c52.8,0,105.6,0,158.4,0c1.8,0,3.8,0.7,5.3-0.9C463.7,320.6,464.4,320.6,465.1,320.6z"
				/>
			<path class="st1" d="M491.7,320.6c-0.3,1,0.6,1,1.1,1.3c7.4,4.4,10.3,11.1,8.1,19c-1.8,6.7-8.2,11.2-15.4,11.1
				c-7.2-0.2-13.1-4.8-14.9-11.7c-1.9-7.5,1.2-14.3,8.4-18.4c0.6-0.3,1.3-0.3,1.3-1.2C484.2,320.6,488,320.6,491.7,320.6z
				 M473.3,336.2c0,7.2,5.6,12.8,12.6,12.8c6.9,0,12.7-5.8,12.8-12.7c0.1-7.2-5.6-12.9-13-12.8C478.5,323.5,473.2,328.9,473.3,336.2
				z"/>
			<path class="st2" d="M94.1,321.6c0-0.3,0-0.7,0-1c57.4,0,114.8,0,172.2,0c0,0.4-0.1,0.7-0.1,1.1
				C208.8,321.6,151.5,321.6,94.1,321.6z"/>
			<path class="st2" d="M463,320.6c-1.6,1.6-3.5,0.9-5.3,0.9c-52.8,0-105.6,0-158.4,0c-1.8,0-3.8,0.7-5.3-0.9
				C350.3,320.6,406.7,320.6,463,320.6z"/>
			<path class="st1" d="M179.8,691.5c-27.2,0-54.3-0.1-81.5,0.1c-3.6,0-4.5-0.9-4.5-4.5c0.1-54.5,0.1-109,0-163.4
				c0-3.5,0.7-4.7,4.4-4.6c8.2,0.3,16.4,0.2,24.6,0c3-0.1,3.9,0.6,4.3,3.8c3.2,28.2,13.5,53.7,30.7,76.4c2.4,3.2,3.9,3.7,6.7,0.5
				c4.2-4.7,8.7-9.1,13.4-13.4c2.2-2.1,2.3-3.4,0.4-5.8c-12.7-17-20.3-36.1-23.4-57.1c-0.5-3.6,0.3-4.3,3.7-4.3
				c34.5,0.1,69,0.1,103.5,0c3.4,0,4.2,1,4.2,4.3c-0.1,34.5-0.1,69,0,103.5c0,3-0.3,4-3.8,3.5c-20.9-2.9-39.8-10.4-56.8-22.9
				c-3.1-2.3-4.6-2-7,0.7c-4.2,4.7-8.8,9.1-13.4,13.4c-2.2,2.1-2.7,3.2,0.1,5.3c21.7,16.6,46,27,73.1,30.8c0.8,0.1,1.7,0.3,2.5,0.3
				c4.5-0.2,5.5,2,5.3,6.2c-0.4,7.7-0.3,15.4,0,23c0.2,3.7-1.1,4.4-4.6,4.4C234.5,691.4,207.2,691.5,179.8,691.5z"/>
			<path class="st1" d="M422.3,556.1c-18.5,4.3-35.6-2-53-5.4c-16.9-3.3-33.2-1.1-48.8,6.6c-4,2-5.1,4.2-3.9,8.8
				c10.2,40.1,20,80.3,30.2,120.4c1,4,0.7,5.2-3.8,5.1c-15.5-0.3-31.1-0.2-46.6,0c-3.3,0-4.3-0.7-4.3-4.2
				c0.1-54.6,0.1-109.3,0-163.9c0-3.8,1.3-4.4,4.7-4.4c54.5,0.1,108.9,0.1,163.4,0c4.1,0,4.7,1.3,4.7,5c-0.1,54.3-0.1,108.6,0,162.9
				c0,4-1.2,4.7-4.9,4.7c-30.9-0.2-61.8-0.1-92.7,0c-3.2,0-4.7-0.6-5.6-4c-5.8-24.2-11.7-48.3-17.8-72.4c-0.9-3.5,0-5.7,2.4-8.1
				c8.2-8.1,18.5-11.3,29.4-12.9c18.4-2.6,33.4-10.4,42.7-27.2C420,563.8,421.9,560.5,422.3,556.1z"/>
			<path class="st1" d="M94.1,321.6c57.3,0,114.7,0,172,0.1c0,56,0.1,112,0.2,168c0,3-1,3.7-3.8,3.7c-34.8-0.1-69.7-0.1-104.5,0
				c-2.1,0-3.7-0.1-3.5-2.9c1.7-27.9,9-53.7,27.7-75.4c2.6-3,4-2.7,6.8-0.3c16.7,13.9,27.6,31.4,32.7,52.4c0.8,3.4,2,4.4,5.4,4.3
				c7.8-0.2,15.7-0.1,23.8-0.1c-6.5-31-23.3-54.2-49.6-71.6c5.1-4.6,10.1-8.9,14.4-13.9c9.6-11,16.4-23.5,18.3-38.1
				c0.2-1.8,2.2-5.6-1.9-5.3c-3.1,0.2-7.8-3.1-9.2,3.6c-3.4,16.2-14.1,27.4-27.2,36.4c-12.9,8.9-7.9,8.3-20.8,0.1
				c-6.4-4-12-9.1-16.9-14.8c-5.4-6.3-9.3-13.5-10.5-21.8c-1-6.9-6.1-3.2-9.2-3.4c-3.7-0.3-1.9,3.1-1.7,4.9
				c2.4,21,13.6,36.7,29.6,49.5c2.8,2.2,2.7,3.4,0.5,5.8c-23,24.2-35.6,53.3-39.6,86.2c-0.4,3.6-1.6,4.5-5,4.4
				c-8.2-0.2-16.4-0.2-24.6,0c-2.9,0.1-3.8-0.8-3.8-3.8C94,433.6,94.1,377.6,94.1,321.6z M199.7,361c-0.1-7.6-6.4-13.9-14.1-14
				c-7.9-0.1-14.5,6.5-14.4,14.2c0.1,7.5,6.5,13.9,14.2,14C193.2,375.4,199.7,368.9,199.7,361z"/>
			<path class="st0" d="M473.3,336.2c0-7.3,5.2-12.7,12.4-12.8c7.4-0.1,13.1,5.6,13,12.8c-0.1,7-6,12.8-12.8,12.7
				C478.9,349,473.3,343.4,473.3,336.2z M483.6,339c3.6,0.4,4.1,7,9.5,4.3c-3-2.6-3.6-4.9-1-8.2c1.6-2,0.1-5-2.4-5.8
				c-3.1-1-6.6-1.3-9.8,0.2c-0.2,0.1-0.3,0.6-0.3,0.9c0,3.9,0,7.8,0,11.8c0,1.2,0.5,1.9,1.8,1.9c1.2,0,1.9-0.6,1.9-1.8
				C483.4,341.1,483.5,340.1,483.6,339z"/>
			<path class="st0" d="M199.7,361c0.1,7.9-6.5,14.3-14.3,14.3c-7.6-0.1-14.1-6.5-14.2-14c-0.1-7.8,6.6-14.3,14.4-14.2
				C193.3,347.1,199.6,353.4,199.7,361z"/>
			<path class="st1" d="M483.6,339c-0.1,1.2-0.2,2.2-0.2,3.2c0,1.3-0.7,1.8-1.9,1.8c-1.3,0-1.8-0.7-1.8-1.9c0-3.9,0-7.8,0-11.8
				c0-0.3,0.1-0.8,0.3-0.9c3.2-1.5,6.7-1.2,9.8-0.2c2.5,0.8,4,3.8,2.4,5.8c-2.7,3.3-2.1,5.7,1,8.2
				C487.7,345.9,487.2,339.3,483.6,339z M485.9,331.7c-1.5-0.1-2.7,0-2.6,2c0.1,1.4,0.6,2.1,2.1,2c1.4-0.1,2.8-0.1,3-1.9
				C488.8,332,487.4,331.8,485.9,331.7z"/>
			<path class="st0" d="M485.9,331.7c1.4,0.1,2.8,0.3,2.6,2.2c-0.2,1.7-1.6,1.8-3,1.9c-1.5,0.1-2-0.6-2.1-2
				C483.3,331.7,484.5,331.6,485.9,331.7z"/>
		</g>
	</g>
</g>
<g id="nPROfX.tif">
	<g>
		<g>
			<path class="st3" d="M804.7,385.3c-74.1,0-148.1,0-222.2,0c-1.2,0-1.5-0.2-1.5-1.5c0-113.1,0-226.1,0-339.2
				c0-1.2,0.2-1.4,1.4-1.4c190.1,0,380.3,0,570.4,0c1.3,0,1.5,0.3,1.5,1.5c0,23,0,45.9,0,68.9c-0.6,0.4-1.1,0.1-1.7,0
				c-13.7-3.2-27.5-6.5-41.2-9.7c-0.6-0.1-1.1-0.3-1.7-0.2c-1.8,0.6-3.3,1.8-5.1,2.6c-0.6,0.2-1.1,0.7-1.7,0.5
				c-1.1-0.9-0.9-2.3-1.2-3.5c-0.2-1.2-0.8-1.7-2-2c-12-2.5-24-5.1-35.9-7.6c-4.7-0.9-9.3-2.1-13.9-2.9c-0.4,0-0.7,0-1,0.2
				c-2.4,1.3-5,2.4-7.3,3.8c-0.4,0.2-0.9,0.4-1.2,0.8c-0.2,0.9,0.2,1.7,0.1,2.6c0,0.8,0,1.6,0,2.4c0,0.9,0,1.7,0,2.6
				c0,1.1,0,2.1,0,3.2c0,0.8,0,1.6,0,2.4c0,3.2-0.2,6.5,0.3,9.7c0.1,0.7,0.1,1.3-0.1,2c-0.4,0.9-1.2,0.9-2,0.9
				c-6,0-11.7,1.4-17.2,3.7c-2.1,1-4.3,2.1-6.3,3.4c-1.9,1.2-2.4,1-2.7-1.2c-1.6-9.8-3.2-19.6-4.8-29.4c-0.8-4.7-1.6-9.5-2.3-14.2
				c-0.3-2.1-0.4-2.1-2.5-2.1c-7.8,0-15.6,0-23.4,0c-2.9,0.1-5.9,0-8.8,0.1c-3.4,1.6-6.8,3.2-10,5.3c-0.9,0.2-1.9,0.1-2.8,0.1
				c-8.1,0.1-16.1,0-24.2,0c-1.7,0.1-2.9,1.1-4.4,1.8c-1.1,0.5-2.1,1.2-3.2,1.7c-2,0.6-2.6,2.1-2.6,4c-0.2,1.6-0.6,3.1-0.8,4.7
				c-0.1,0.7-0.3,1.3-0.3,2c-0.1,0.6-0.2,1.2-0.5,1.7c-0.6,0.4-1-0.2-1.3-0.4c-1.5-1.1-2.9-2.4-4.6-3.3c-5.4-3.4-11.3-5.8-17.6-7
				c-2-0.4-3.9-1-6-0.8c-0.3,0-0.7,0-1-0.2c-0.3-0.1-0.7-0.2-0.8-0.6c-0.1-0.4,0.3-0.6,0.5-0.8c0.2-0.2,0.5-0.3,0.8-0.4
				c8.4-4.2,16.7-8.8,25.2-13c0.6-0.3,1.3-0.7,1.9-1.1c1.4-0.8,1.5-0.8,0.5-2.3c-2.1-3.2-4.3-6.3-6.5-9.4c-4.2-6-8.3-12.1-12.6-18.2
				c-0.4-0.6-0.6-1.4-1.6-1.2c-2,0.9-3.9,2-5.9,2.9c-1.1,0.6-2.3,1-3.2,1.9c-0.7,0.7-1.4,1.3-2,2.1c-0.5,0.8-1.2,1.4-1.8,2
				c-0.9,0.8-1.4,1.8-2.3,2.6c-0.8,0.7-1.4,1.5-2,2.3c-0.7,0.7-1.5,1.4-2,2.3c-0.6,0.6-1.2,1.2-1.8,1.8c-0.6,0.7-1.1,1.4-1.8,2
				c-0.9,0.7-1.5,1.8-2.3,2.6c-1,0.8-1.7,2-2.6,2.9c-0.8,0.7-1.5,1.5-2.1,2.4c-4.4,4.7-8.7,9.6-13,14.4c-1.6,1.8-3.2,3.4-4.7,5.3
				c0.5,1.6,1.9,2.4,2.8,3.7c1,1.4,2.5,2.5,3.3,4.1c0,0.5-0.2,0.8-0.7,1c-2.2,0.9-4.1,2.4-6.4,3.2c-1.1,0-1.8-0.9-2.5-1.5
				c-5.3-4.6-10.7-9.2-16-13.8c-4.4-3.7-8.7-7.5-13-11.2c-0.4-0.3-0.7-0.9-1.3-0.7c-2.7,1.3-5.2,2.8-7.8,4.1
				c-0.7,0.3-1.2,0.9-1.6,1.6c-0.4,0.7-0.6,1.6-1.5,1.9c-0.6-0.4-0.5-1-0.5-1.6c0-1.2,0-2.4,0-3.6c0-1.4-0.1-1.5-1.4-1
				c-3.6,1.1-7.1,2.2-10.7,3.3c-8.4,2.6-16.8,5.2-25.3,7.8c-4.9,1.5-9.9,3-14.7,4.6c-2.6,1.4-5.3,2.7-8,4.1
				c-1.7,0.8-1.1,2.2-0.9,3.4c0.1,0.7,0.1,1.4,0.1,2.1c0,1,0,2,0.2,2.9c0.1,0.8,0.1,1.7,0.1,2.5c0,0.2,0,0.5,0,0.7
				c-0.2,1.3,0.3,2.6,0.3,4c0,0.5,0,1,0,1.5c-0.1,1.1,0.1,2.1,0.2,3.2c0.1,0.7,0.1,1.4,0,2.2c0,1.2,0,2.5,0.2,3.7
				c0.1,0.7,0.5,0.7,1,0.5c2-0.4,4-1,6-1.5c1.7-0.4,1.8-0.2,2.1,1.4c0.3,1.6,0.4,3.1,0.2,4.7c-1.1,0.5-2.3,0.2-3.4,0.1
				c-4-0.4-8,0.2-11.9,0.9c-4.7,0.9-9.1,2.7-13.3,5.1c-0.9,0.5-1.8,1-2.6,1.5c-0.5,0.3-1,0.9-1.6,0.5c-0.7-0.4-0.3-1.2-0.2-1.7
				c0.2-1.8,0.5-3.5,0.6-5.3c0.5-5.8-0.5-11.3-2.8-16.5c-3.3-7.5-8.4-13.5-15.2-18.1c-7.7-5.4-16.2-8.6-25.6-9.7
				c-5.7-0.6-11.4-0.9-17.1-0.9c-0.4,0-0.9,0-1.3,0.2c-8.2,0.4-16.2,1.9-24.1,4c-5.6,1.5-11,3.4-16.3,5.5c-4.9,1.9-9.6,4.1-14.3,6.5
				c-5.8,3.1-11.3,6.5-16.8,10c-2.4,2.2-4.6,4.6-6.9,6.8c-0.7,0.6-0.6,1.2-0.1,1.9c0.5,0.8,0.8,1.6,1.4,2.4c0.5,0.8,0.9,1.6,1.5,2.3
				c0.6,1,1.2,1.9,1.7,2.9c0.3,0.6,0.7,1.1,1,1.7c0.6,0.9,1.1,1.7,1.7,2.7c0.4,0.7,0.8,1.4,1.2,2c0.5,0.9,1.2,1.8,1.7,2.7
				c0.5,0.8,0.9,1.6,1.4,2.3c0.4,0.8,0.9,1.6,1.5,2.3c0.4,0.9,1,1.7,1.5,2.5c0.5,0.8,0.9,1.6,1.5,2.3c0.4,0.7,0.8,1.4,1.2,2
				c0.6,1.1,1.3,2.2,2,3.2c0.5,0.8,1,1.6,1.5,2.4c0.7,1.5,2,2.6,2.3,4.3c-0.1,0.6-0.5,0.9-0.9,1.4c0.6,0,1-0.3,1.5-0.2
				c0.4,0.1,0.7,0.4,0.7,0.8c0.9-0.6,1.6-1.5,2.4-2.2c1.2-0.7,2.3-1.5,3.8-1.3c0.7,0.7,0.9,1.6,1.4,2.4c0.5,1,0.9,2.2,1.5,3.2
				c0.7,1.2,1.1,2.5,1.7,3.8c0.5,0.9,0.9,1.9,1.3,2.8c0.5,1.1,1.1,2.1,1.5,3.2c0.5,1.3,1.3,2.5,1.7,3.8c0.5,1.3,1.3,2.5,1.7,3.8
				c0.5,1.4,1.3,2.6,1.9,3.9c0.4,1.3,1.2,2.4,1.6,3.6c0.8,1.8,1.6,3.6,2.5,5.3c0.8,1.4,1.3,3,2.1,4.4c5.5,12.1,11.1,24.1,16.6,36.2
				c1.8,3.9,3.6,7.8,5.4,11.7c0.8,1.7,0.9,1.8,2.6,1.2c10.2-3.2,20.4-6.2,30.5-9.4c1-0.3,2-0.7,3.1-0.9c2.9-0.7,5.5-2.1,7.9-3.8
				c0.8-0.6,1.7-1.1,2.6-1.6c1.2-0.8,2.6-1.1,3.9-1.5c1-0.3,1.3-0.8,1-1.8c-1.6-5.7-3.1-11.4-4.6-17.1c-0.8-3-1.8-6-2.3-9.1
				c0.1-0.3,0.1-0.6,0.5-0.8c0.2,0,0.4,0.1,0.6,0.3c6.4,9.8,15.3,15.7,27,17c0.5,0.2,1.1,0.1,1.6,0.1c1.9,0,3.7,0,5.6,0
				c0.6,0,1.1,0.1,1.6-0.1c9.2-1.1,17.2-5,24.5-10.6c0.6-0.4,1.1-1.2,1.9-0.8c0.7,0.3,0.7,1.2,0.8,1.9c0.1,0.3,0,0.7,0,1
				c0,0.5,0,1,0.2,1.6c0.1,0.5,0.1,1.1,0.1,1.6c0,0.5,0,1.1,0.2,1.6c0.1,0.5,0.1,1.1,0.1,1.6c0,0.5,0,1,0.2,1.5
				c0.1,0.5,0.1,1,0.1,1.5c-0.1,0.7,0.1,1,0.9,0.8c7.4-1.2,14.9-2.2,22.4-3.3c3.6-0.5,7.3-1.1,10.9-1.5c1.6-0.2,3.1-0.7,4.5-1.4
				c2.1-1.1,4.3-2.2,6.5-3.2c0.6-0.3,1.1-0.5,1.1-1.3c0-6.4,0-12.8,0-19.1c0-0.7-0.2-1.5,0.4-2.1c0.8-0.4,1.5,0.2,2.2,0.5
				c2.7,1.2,5.2,2.5,7.8,3.8c6.4,3.1,12.9,6.2,19.4,9.3c12.2,5.8,24.4,11.6,36.5,17.5c0.7,0.4,1.4,0.6,2.2,0.2
				c2.7-1.3,5.2-2.8,7.8-4.1c0.3-0.2,0.6-0.4,0.6-0.8c0.1-9.2,0-18.3,0-27.4c0-0.8-0.1-1.6,0.2-2.4c0.3-0.7,1.1-0.8,1.7-0.9
				c6.4-1.1,12.3-3.4,17.9-6.6c0.1,0,0.2-0.1,0.3-0.1c0.6-0.2,1.2-0.7,1.8-0.3c0.5,0.4,0.3,1.1,0.2,1.6c-0.6,3.8-1.2,7.6-1.9,11.5
				c-0.2,0.9-0.3,1.7-0.4,2.6c-0.2,0.6-0.1,0.9,0.6,0.9c12,1.8,24,3.7,36,5.6c0.9,0.1,1.7,0.2,2.6,0.4c1.3,0.3,2.6,0,3.8-0.7
				c1.5-0.9,3.1-1.7,4.6-2.4c1.3-0.6,1.7-0.5,2.5,0.7c1.2,2,2.2,4,3.4,6c0.9,1.5,1.1,1.6,2.6,0.7c1.3-0.8,2.7-1.5,4.1-2.1
				c1.4-0.6,1.8-0.4,2.1,1.1c0.4,2.8,0.8,5.7,1.1,8.5c0.1,1.3,0.7,1.8,1.9,2c8.2,1.3,16.3,2.8,24.5,4.2c6.4,1.1,12.7,2.2,19.1,3.3
				c1.2,0.2,2.2,0.1,3.2-0.5c2.5-1.5,5.3-2.5,7.5-4.3c0-2.7-0.8-5.4-1.1-8.1c-0.1-0.9-0.5-1.9,0-2.8c0.5-0.5,1.2-0.6,1.9-0.6
				c3.5-0.4,7-1,10.2-2.5c0.4-0.2,0.9-0.4,1.4-0.3c0.5,0.2,0.6,0.5,0.7,1c0,0.4,0,0.8-0.1,1.2c-0.2,0.5-0.2,1.1-0.2,1.7
				c-0.4,3.6-0.8,7.2-1.2,10.8c-0.2,0.6-0.3,1.2,0.7,1.2c9.5,1.3,19,2.6,28.4,3.9c0.7,0.1,1.4,0.1,1.8,0.7c0.6,1.5,0,3,0.4,4.5
				c0.3,2,0.1,4,0.1,5.9c0,1.2,0.4,1.8,1.5,2.1c9.6,2.9,19.2,5.9,28.9,8.9c1.3,0.4,2.4,0.3,3.6-0.3c2.5-1.3,4.9-2.7,7.4-3.9
				c0.9-1.1,1.2-2.4,1.6-3.7c3.2-9.6,6.6-19.1,9.8-28.7c1.1-3.2,2.2-6.3,3.2-9.5c1.8-4.8,3.4-9.7,5-14.5c4.6-13.5,9.2-27,13.8-40.5
				c2.9-8.4,5.7-16.8,8.7-25.1c0.2-0.6,0.2-1.5,1.2-1.5c0,89.8,0,179.6,0,269.4c0,1.1-0.2,1.3-1.3,1.3c-65.2,0-130.4,0-195.6,0
				c-0.1-0.2-0.1-0.3,0.1-0.4c0.9-0.4,2-0.2,2.9-0.3c0.6,0,1.2,0.1,1.8-0.1c9.2-1,18-3.5,26.2-7.6c8.4-4.2,15.9-9.7,22.2-16.6
				c11.1-12,17.9-26,20.4-42.1c0.3-1.7,0.4-3.4,0.7-5c0.2-0.6,0.1-1.2,0.1-1.9c0-1.1-0.1-2.2,0.1-3.3c0.3-1.5,0.3-3,0-4.4
				c-0.2-1-0.1-2-0.1-3c0-0.6,0.1-1.3-0.1-1.9c-0.1-0.5-0.1-0.9-0.1-1.4c0-0.5,0-1-0.2-1.5c-0.7-2.9-1-5.8-1.7-8.7
				c-3.1-12.6-8.9-23.8-17.4-33.5c-11.3-12.9-25.3-21.1-42.1-24.8c-3.1-0.7-6.2-1-9.3-1.4c-0.6-0.2-1.3-0.1-1.9-0.1
				c-2.9,0-5.8,0-8.8,0c-0.7,0-1.4-0.1-2.1,0.1c-6.3,0.7-12.4,1.8-18.4,3.9c-9.4,3.2-17.9,8.1-25.4,14.6
				c-7.8,6.8-14.1,14.7-18.8,23.9c-1.4,2.8-2.7,5.6-3.7,8.5c-0.2,0.6-0.4,1.3-1.2,1.5c-4.1,0.2-8.1,0.1-12.2,0.1
				c-4.2,0-8.5,0.1-12.7-0.1c-1.2-0.5-0.4-1.1,0-1.5c1.5-1.6,3.1-2.9,4.7-4.3c3.6-3.3,7.3-6.6,11-10c1.2-1.1,1.2-1.3,0.3-2.7
				c-7.5-11-17.1-19.6-29-25.7c-9-4.6-18.6-7.2-28.6-8.3c-0.5-0.2-1.1-0.1-1.6-0.1c-3.1,0-6.2,0-9.3,0c-0.6,0-1.3-0.1-1.9,0.1
				c-7.6,0.8-14.9,2.4-22,5.3c-8.7,3.5-16.4,8.4-23.4,14.7c-9.7,8.9-16.6,19.5-21.1,31.8c-2.2,6-3.6,12.3-4.2,18.7
				c-0.2,0.5-0.2,1.1-0.1,1.6c0,0.7,0,1.3-0.1,2c-0.3,2.9-0.3,5.9,0,8.8c0.2,0.8,0.1,1.7,0.1,2.5c0,0.5,0,1.1,0.1,1.6
				c1,9.7,3.6,18.9,8,27.6c6,11.9,14.4,21.7,25.4,29.3c10.3,7.1,21.6,11.4,34,13.1c0.7,0.1,1.5,0,2.2,0.2c0.5,0.2,1.1,0.2,1.6,0.1
				C802.9,384.8,804.1,384.1,804.7,385.3z"/>
			<path class="st3" d="M951.6,385.3c-46.8,0-93.6,0-140.5,0c-0.1-0.1-0.1-0.3,0-0.4c2.2-0.5,4.5-0.5,6.7-0.8
				c14.8-2,28-7.8,39.4-17.5c8.5-7.2,15.3-15.8,20.1-25.8c1-2,1.9-4.1,2.7-6.3c0.1-0.3,0.2-0.6,0.3-0.8c0.2-0.4,0.4-1,0.9-1
				c0.5,0,0.6,0.6,0.7,1c0.9,2.1,1.7,4.2,2.7,6.3c2.7,5.9,6.3,11.4,10.4,16.4c6.1,7.5,13.4,13.6,21.9,18.4
				c8.7,4.9,18.1,8.1,28.1,9.3c2.2,0.3,4.3,0.3,6.5,0.8C951.7,385.1,951.7,385.2,951.6,385.3z"/>
			<path class="st4" d="M951.6,385.1c-17.6-0.9-33.1-6.9-46.6-18.2c-10.6-8.9-18.2-19.9-23.2-32.9c-0.2-0.4-0.3-0.8-0.5-1.3
				c-1.1,2.6-2.1,5.1-3.2,7.5c-11.3,22.8-29.2,37.4-54,43.2c-4.3,1-8.6,1.4-12.9,1.7c-0.6,0.2-1.2,0.1-1.8,0.1
				c-1.3,0.1-2.7-0.2-4,0.2c-0.2,0-0.4,0-0.6,0c-0.9-0.6-1.9-0.2-2.8-0.3c-0.5-0.2-1.1,0-1.6-0.2c-6.1-0.5-12-1.9-17.8-3.8
				c-8-2.8-15.4-6.8-22.1-12.1c-2.8-2.2-5.5-4.6-8-7.2c-4.6-4.8-8.5-10.1-11.9-15.8c-2.9-5-5.1-10.2-6.8-15.7
				c-1.3-4.2-2.3-8.4-2.9-12.7c-0.1-1-0.1-2.1-0.4-3.1c-0.2-0.5,0-1.1-0.2-1.6c0-0.8-0.1-1.7-0.1-2.5c-0.1-3-0.2-6,0-9
				c0-0.7,0-1.3,0.1-2c0.3-0.5,0-1,0.2-1.5c0.3-4.7,1.2-9.3,2.5-13.8c1.8-6.3,4.3-12.3,7.6-17.9c3-5.1,6.5-9.8,10.4-14.2
				c7.8-8.6,17.1-15,27.8-19.4c7.2-2.9,14.7-4.6,22.4-5.4c0.6-0.2,1.3,0,1.9-0.2c3.2,0,6.4,0,9.6,0c0.5,0.2,1.1,0,1.6,0.2
				c13.8,1.3,26.4,5.8,37.7,13.7c8.2,5.8,15.1,12.9,20.6,21.2c0.4,0.7,0.5,1-0.1,1.6c-3.9,3.5-7.7,7-11.6,10.5
				c-1.9,1.8-4,3.3-5.7,5.3c0.2,0.3,0.5,0.2,0.8,0.2c8,0,16.1,0,24.1,0c0.3,0,0.7,0.1,1-0.1c1.2-3.3,2.5-6.5,4.1-9.6
				c2.3-4.4,4.9-8.7,7.9-12.6c2.7-3.5,5.6-6.7,8.8-9.7c6.1-5.7,12.9-10.3,20.6-13.7c6.9-3.1,14.2-5.2,21.7-6.3
				c1.3-0.2,2.6-0.3,3.9-0.5c0.7-0.2,1.4,0.1,2.1-0.2c3,0,6.1,0,9.1,0c0.6,0.3,1.2,0,1.8,0.2c15.1,1.5,28.7,6.7,40.6,16
				c8.9,6.9,16,15.4,21.3,25.3c3.9,7.3,6.6,15,8.1,23.2c0.3,1.4,0.5,2.8,0.7,4.3c0.2,0.5,0,1,0.2,1.5c0,0.5,0,0.9,0.1,1.4
				c0.2,0.6-0.1,1.2,0.2,1.8c0,1,0.1,2.1,0.1,3.1c0.2,1.4,0.1,2.9,0,4.3c0,1.1-0.1,2.3-0.1,3.4c-0.3,0.6,0,1.2-0.2,1.8
				c-1.1,10.5-3.9,20.5-8.8,29.8c-5.2,9.9-12.1,18.4-20.9,25.3c-4.8,3.8-10,7.1-15.5,9.7c-5.7,2.7-11.8,4.6-18,5.8
				c-2.2,0.4-4.4,0.6-6.6,0.9c-0.6,0.2-1.2-0.1-1.8,0.2c-1,0-2.1,0-3.1,0.1c-1.3,0.2-2.7,0-4,0.1
				C952.8,385.1,952.2,385.3,951.6,385.1z"/>
			<path class="st5" d="M1109.5,103.5c0.3-0.3,0.6-0.2,0.9-0.1c14.4,3.4,28.8,6.8,43.1,10.2c0.2,0.1,0.5,0.1,0.7,0.2
				c0,0.3,0,0.6,0,0.9c-0.7,0.1-0.6,0.8-0.8,1.2c-2.6,7.6-5.3,15.3-7.9,23c-5,14.5-9.9,29.1-14.9,43.6c-1.6,4.6-3,9.4-4.9,13.9
				c-0.6-0.6-0.5-1.5-0.5-2.2c0-7.9,0-15.8,0-23.7c0-0.5,0.1-1-0.1-1.4c-0.4-0.9,0.1-1.7,0.4-2.5c5-14.7,10.1-29.4,15-44.2
				c0.8-2.5,0.8-2.5-1.7-3c-6.9-1.5-13.8-3-20.8-4.4c-1.9-0.4-1.9-0.4-2.3,1.5c-0.2,1-0.5,2-0.7,3c-2.5,9.9-4.9,19.9-7.4,29.8
				c-0.1,0.6-0.2,1.1-0.5,1.7c-0.2,0.4-0.4,0.7-0.8,0.2c-0.6-0.9-0.5-2-0.5-3c0-8.5,0-16.9,0-25.4c0-1.1,0-2.2-0.2-3.3
				c0-0.5,0-1.1,0.1-1.6c1.1-4.4,2.2-8.7,3.3-13.1C1109.1,104.2,1109.3,103.8,1109.5,103.5z"/>
			<path class="st6" d="M953.3,385.1c1.4,0,2.7,0,4.1,0c0,0.1,0,0.2,0,0.3c-1.4,0-2.7,0-4.1,0C953.2,385.3,953.2,385.2,953.3,385.1
				C953.2,385.1,953.3,385.1,953.3,385.1z"/>
			<path class="st7" d="M805.3,385.3c1.3-0.7,2.7-0.1,4.1-0.2c0.1,0.1,0.1,0.1,0.1,0.2c0,0.1-0.1,0.1-0.1,0.1
				C808,385.3,806.6,385.3,805.3,385.3z"/>
			<path class="st8" d="M809.4,385.3c0-0.1,0-0.2,0-0.2c0.6,0,1.2,0,1.7,0c0,0.1,0,0.2,0,0.2C810.5,385.3,809.9,385.3,809.4,385.3z"
				/>
			<path class="st9" d="M953.3,385.1c0,0.1,0,0.2,0,0.2c-0.6,0-1.2,0-1.7,0c0-0.1,0-0.2,0-0.2C952.1,385.1,952.7,385.1,953.3,385.1z
				"/>
			<path class="st10" d="M932.9,86.7c3.4,0,6.8-0.1,10.3-0.1c4.9,0,9.8,0,14.8,0.1c0.4,0.5,0.4,1.1,0.5,1.6c0,1.8,0,3.6,0,5.3
				c0,1.8-0.3,2.1-2.1,2.1c-4,0-8.1,0-12.1,0c-0.6,0-1.2-0.1-1.7,0.2c-0.9,1.2-0.7,2.7-1,4c-1.9,11.1-3.8,22.1-5.8,33.2
				c-0.4,2.6-0.8,5.2-1.4,7.7c-0.2,1.2,0.1,2.1,1,2.9c1.7,1.4,3.3,2.8,4.9,4.3c1.4,1.3,1.4,1.7,0.1,3.1c-2.5,2.6-5.2,5.1-7.9,7.5
				c-1,1-1.6,2.1-1.8,3.5c-0.9,5.3-1.8,10.5-2.7,15.7c-0.3,1.5-0.2,1.6,1.4,1.9c2.2,0.4,4.5,0.7,6.7,1.1c0.6,0.1,1.3,0.2,1.6,0.9
				c0.4,1.5,0.1,3.1,0.2,4.6c0,1.5,0,3,0.2,4.5c-0.4,0.4-1,0.3-1.5,0.2c-6.4-0.9-12.8-1.9-19.2-2.9c-0.6-0.1-1.2-0.2-1.4-0.8
				c-0.2-1.2,0.2-2.3,0.4-3.4c0.8-4.6,1.5-9.2,2.3-13.7c0-0.2,0.1-0.5,0-0.7c-0.6-0.2-1,0.2-1.4,0.5c-6.2,3.2-12.7,5.5-19.4,7.1
				c-0.7,0.2-1.5,0.4-2.3,0.1c-0.6-0.3-0.7-0.8-0.7-1.4c0-2.7-0.2-5.4,0.1-8.1c0.3-0.9,1.2-1,2-1.2c6.8-1.8,13.3-4.3,19.3-8.1
				c1.8-1.1,3.5-2.4,5.2-3.7c1.4-0.9,2.5-2.3,3.9-3.3c0.9-0.6,0.9-1.3,0-2c-1.7-1.4-3.4-2.9-5-4.4c-2.9-2.5-5.8-5-8.6-7.5
				c-1.3-1.2-1.4-1.2-2.7,0.1c-1.1,1.1-2.2,2.2-3.4,3.1c-0.3,0.2-0.5,0.5-0.8,0.7c-4.7,3.5-10,5.1-15.7,5.6
				c-0.8,0.1-1.5,0.1-2.3-0.1c-0.8-0.8,0.1-1.1,0.4-1.5c3.1-3.3,6.4-6.6,9.6-9.9c5.6-5.7,11.1-11.5,16.6-17.2
				c1.2-1.1,2.3-2.3,3.5-3.4c1.1-1.1,1-1.3,0-2.4c-0.6-0.6-1.3-1.2-1.2-2.2c0.2-3.1,0-6.2,0.1-9.2c0-0.7-0.1-1.5,0.4-2.1
				c2.1,1,3.6,2.7,5.5,4c1.9,1.2,3.2,2.9,4.7,4.5c0.8,0.8,1.5,1.7,2.3,2.8c0.4-1.3,0.5-2.5,0.7-3.6c0.2-1.1,0.4-2.2,0.5-3.4
				c0.4-1.5,0.3-3.2,0.7-4.7c0.4-1.3,0.5-2.6,0.7-4c0.4-2.1,0.7-4.1,1-6.2C932.4,87.9,932.5,87.3,932.9,86.7z"/>
			<path class="st11" d="M979.5,81.2c8.3,0,16.6,0,24.8-0.1c0.9,0,1,0.4,1.1,1.1c1.7,10.6,3.4,21.1,5.2,31.6
				c0.8,4.8,1.6,9.5,2.3,14.3c0.2,1.1,0.5,0.9,1.2,0.4c2.3-1.5,4.6-3,7.3-3.8c0.5,0.5,0.4,1.2,0.4,1.9c0,2.3,0,4.6,0.1,6.9
				c0,0.7-0.7,0.9-1.1,1.2c-3,2.2-6.1,4.3-8.6,7.1c-5.1,5.5-8.5,11.7-9.7,19.1c-1.9,11.7,4.3,23.5,15.2,27.9c1,0.4,1.9,0.9,3,1.2
				c0.5,0.2,1,0.4,1.1,1c0.2,1.4,0.1,2.9,0.1,4.3c0,5.2,0,10.4,0,15.6c0,1,0,1.9-0.3,2.9c-0.6,0.6-1.3,0.3-1.9,0.2
				c-11.5-1.9-22.9-3.9-34.4-5.8c-1.4-0.2-2.8-0.5-4.2-0.7c-1-0.2-1.6-0.7-1.7-1.8c-0.2-2-0.6-3.9-0.5-5.9c0.3-1.1,0.3-2.2,0.3-3.3
				c-0.1-10.5,0-21,0-31.5c0-0.6,0.1-1.2-0.2-1.7c-0.1-0.1-0.2-0.3-0.1-0.4c0.8-2.7,1.6-5.4,3.2-7.8c1.1,0.3,0.9,1.4,1.1,2.1
				c0.7,4.9,1.5,9.9,2.3,14.8c1.3,8.3,2.6,16.6,3.9,24.8c0.3,1.8,0.4,1.9,2.1,2.2c6,0.9,12,1.7,18,2.7c1.5,0.3,3,0.4,4.4,0.7
				c0.7,0.1,1-0.2,0.9-0.9c-0.2-1.1-0.3-2.2-0.5-3.3c-0.1-0.8-0.8-1.2-1.4-1.5c-4.6-2.1-8.5-5-11.7-8.8c-5-6-7.9-12.9-8.2-20.8
				c-0.5-11.2,3.5-20.8,10.5-29.4c0.9-1.1,0.9-2.1,0.7-3.4c-1.3-7.8-2.5-15.7-3.8-23.5c-1-6-1.9-12.1-2.9-18.1
				c-0.3-1.9-0.3-1.9-2.3-1.9c-4.6,0-9.1,0-13.7,0c-0.7,0-1.6,0.2-2.1-0.6c-0.4-2.8-0.2-5.5-0.1-8.3
				C979.1,81.6,979.3,81.4,979.5,81.2z"/>
			<path class="st12" d="M1049.5,90.4c4.1,0.6,8.1,1.7,12.2,2.5c0.7,0.1,1.4,0.3,2.1,0.5c0.6,0.1,0.9,0.5,1,1.1c0.1,2.5,0.1,5,0,7.5
				c0,0.3-0.2,0.6-0.4,0.9c-0.4,0.5-1,0.4-1.5,0.3c-0.6-0.1-1.1-0.2-1.7-0.3c-2.2-0.4-2.2-0.4-2.2,1.8c0,1.6-0.4,3.1-0.3,4.6
				c0,1,0.4,1.6,1.4,1.8c1.4,0.3,2.8,0.7,4.2,1.1c1.3,0.3,1.7,1.1,1.6,2.3c-0.4,3.4-0.6,6.8-1,10.1c-0.6,4.6-0.6,4.6,2.4,8.1
				c4.4,5,7,10.9,7.9,17.5c1.4,10.6-1.5,20.2-7.3,28.9c-2.3,3.5-5,6.6-8.3,9.3c-0.7,0.6-1.1,1.3-1.2,2.3c-0.3,3.7-0.7,7.4-1.1,11.1
				c-0.1,1.1,0.3,1.5,1.3,1.6c4.6,0.6,9.1,1.4,13.6,2.1c0.9,0.2,1.8,0.2,2.7,0.4c1,0.2,1.4-0.1,1.5-1.1c1-5.8,2.1-11.6,3.2-17.4
				c1.3-7.3,2.7-14.7,4-22c0.1-0.7,0-1.7,1-2.1c0.7,0.5,0.8,1.2,0.7,1.9c-0.2,1.4-0.1,2.8-0.1,4.2c0,18.8,0,37.7,0,56.5
				c0,1.3,0.2,2.5,0,3.8c-0.4,0.6-1,0.5-1.6,0.4c-1.3-0.4-2.5-0.7-3.8-1.1c-1.2-0.4-1.7-1.1-1.7-2.4c0-2.8,0-5.6,0-8.4
				c0-2-0.1-2.1-2.1-2.4c-9.1-1.2-18.2-2.5-27.4-3.8c-0.4-0.1-0.8-0.1-1.1-0.2c-1-0.6-0.8-1.6-0.7-2.5c0.4-4.2,1-8.3,1.4-12.5
				c0-0.3,0.2-0.6-0.1-0.8c-0.5-0.1-0.8,0.3-1.2,0.4c-0.9,0.2-1.8,0.7-2.7,0.9c-0.6,0.2-1.2,0.4-1.8,0.1c-0.6-0.5-0.5-1.2-0.5-1.9
				c0-2.1,0-4.2,0-6.2c-0.1-0.7,0.5-1,1-1.2c3.9-1.7,7.5-3.9,10.7-6.7c6-5.5,10.4-11.9,12-20c1.6-7.9,0.6-15.4-4.5-21.9
				c-4.2-5.4-9.9-8.4-16.6-9.5c-0.8-0.1-1.8-0.1-2.3-1c-0.3-2.3-0.1-4.5-0.1-6.8c0-0.7,0.3-1.2,1-1.4c0.4-0.1,0.9-0.1,1.3-0.1
				c2.7,0.3,5.3,0.9,7.8,1.8c1.2,0.5,2.3,0.9,3.5,1.4c0.8,0.4,1.3,0.1,1.2-0.7c-0.1-1,0.7-2-0.1-3c-1.8-0.4-3.6-0.8-5.4-1.2
				c-0.7-0.2-1.5-0.2-2-1c-0.3-0.9-0.2-1.8-0.2-2.7c0-4.1,0.1-8.2-0.1-12.3c-0.1-0.2-0.1-0.3-0.1-0.5c-0.1-0.9-0.1-1.7-0.1-2.6
				c-0.1-1,0-2,0-2.9c0-1.7,0.1-3.4,0-5.1C1049.2,91.4,1049.2,90.9,1049.5,90.4z"/>
			<path class="st13" d="M699.1,201c0.5,3,1.5,5.8,2.2,8.7c1.6,6.1,3.2,12.1,4.9,18.1c0.2,0.9,0,1-0.7,1.3c-1.5,0.4-3.1,0.9-4.5,1.6
				c-4.8,1.7-9.7,3.1-14.5,4.6c-5.8,1.8-11.6,3.6-17.5,5.4c-1.5,0.5-1.9,0.3-2.5-1.1c-1.1-2.2-2-4.5-3.1-6.7
				c-0.4-0.7-0.6-1.4-0.6-2.2c0.5-6.5,0.1-13,0.2-19.5c0-0.8-0.1-1.7,0.3-2.4c0.9-0.7,1,0.2,1.3,0.7c1.1,2.2,2.1,4.5,3.2,6.7
				c1.6,3.5,3.3,7,4.9,10.6c0.5,1.2,1.1,1.3,2.3,0.9c4.6-1.5,9.2-2.9,13.9-4.3c1.2-0.3,2.3-0.8,3.5-1.1c1.5-0.4,1.5-0.6,1.1-2.1
				c-1.1-4.3-2.3-8.6-3.5-12.9c-2.9-10.6-5.7-21.3-8.6-31.9c-0.2-0.6-0.3-1.1-0.3-1.7c0.2-0.7,0.8-1,1.3-1.3
				c5.7-3.5,10.9-7.7,15.6-12.5c2-2.2,4-4.4,5.7-6.8c0.4-0.5,0.7-1.4,1.7-0.7c0.5,0.6,0.5,1.4,0.5,2.1c0,11.2,0,22.4,0,33.6
				c0,0.7,0,1.5-0.4,2.1c-1.2,0.7-1.2-0.4-1.5-1c-0.3-1.5-1-2.9-1.5-4.3c-0.2-1.5-0.6-3.1-0.9-4.6c0-1-0.2-2-0.3-3
				c0.1-1.8-0.1-3.6,0.3-5.6c-1.4,1-2.4,2-3.6,2.9c-1,0.8-2,1.7-3.1,2.4c-1.2,0.7-1.6,1.6-1,2.9c0.1,0.2,0.2,0.5,0.2,0.7
				c0.2,1.1,0.5,2.1,0.9,3.2c0.3,1.4,0.6,2.8,1.1,4.1c0.3,1.5,0.8,2.9,1.2,4.3c0.4,1.8,1,3.6,1.4,5.4c0.2,0.7,0.5,1.3,0.6,2
				C699,200.1,698.9,200.5,699.1,201z"/>
			<path class="st14" d="M916.1,99.2c0,3.2,0,6.4,0,9.6c0,0.8-0.1,1.5-0.3,2.3c-0.6,0.2-1-0.3-1.4-0.7c-6.3-5.5-13.7-8.4-22-9.2
				c-5.6-0.5-11.1,0.3-16.5,1.6c-0.6,0.2-1.4,0.7-2-0.2c-0.1-0.2-0.1-0.4-0.1-0.6c-0.1-5.4-0.2-10.8,0.1-16.1c0.4-1,0.8-0.5,1.2-0.1
				c0.6,0.5,0.7,1.7,1.7,1.6c0.8,0,1.4-0.5,2.1-0.8c2.9-1.3,5.7-2.8,8.6-4.2c5.1-2.4,10.1-4.9,15.2-7.3c1.6-0.7,3.1-1.6,4.7-2.3
				c1-0.4,1-0.8,0.4-1.6c-2.8-3.6-5.5-7.3-8.3-10.9c-1.9-2.5-2-2.4-4-0.1c-0.7,0.9-1.5,1.7-2.2,2.5c-3.8,4.6-7.7,9-11.6,13.6
				c-2.1,2.4-4.1,4.9-6.2,7.3c-0.4,0.4-0.7,1.6-1.6,0.4c-0.3-2.8-0.1-5.7-0.1-8.5c0-1,0-1.9-0.2-2.9c-0.2-0.7,0.2-1.2,0.6-1.6
				c0.5-0.6,1.1-1.1,1.5-1.7c0.7-0.9,1.8-1.6,2.4-2.7c0.5-0.9,1.5-1.3,2-2.1c0.5-0.8,1.3-1.3,1.8-2c0.7-0.6,1.2-1.3,1.7-2.1
				c0.8-0.8,1.7-1.5,2.3-2.6c0.8-0.7,1.5-1.4,2.1-2.3c0.6-0.7,1.4-1.3,2-2.1c0.5-0.8,1.3-1.3,1.8-2.1c0.7-1,1.7-1.7,2.4-2.6
				c1.6-1.5,2.8-3.4,4.6-4.7c0.8-1,1,0,1.3,0.4c2.8,3.9,5.5,7.9,8.2,11.8c4,5.8,8,11.6,12.1,17.4c0.7,0.9,0.5,1.3-0.5,1.8
				c-9.3,4.8-18.6,9.7-27.9,14.5c-0.4,0.2-0.8,0.5-1.7,0.9C899.7,91.7,908.4,94.1,916.1,99.2z"/>
			<path class="st15" d="M704.9,190.5c0.3-0.8,0.3-1.6,0.3-2.4c0-11.3,0-22.6,0-34c0-0.6,0.2-1.4-0.6-1.8c-0.1-1,0.6-1.6,1.1-2.3
				c3.3-5.2,5.7-10.7,6.8-16.8c1.5-8.4-0.7-15.9-6-22.5c-0.8-1-1.9-1.7-2-3.1c0-3.3,0-6.6,0-10c0-0.7-0.1-1.6,0.8-2
				c9.4,6.5,15.6,15.1,17.7,26.5c0.9,5.1,0.5,10.2-0.6,15.5c1.5-0.8,2.7-1.8,4.1-2.4c0.8,0.1,0.7,0.8,0.7,1.3c0,2.4,0.1,4.8,0,7.2
				c-0.1,0.8-0.6,1.3-1.2,1.7c-1.5,1.1-2.7,2.4-4,3.7c-5.8,5.8-9.5,12.7-10.9,20.7c-2,11.5,3.4,23.4,13.8,28.8
				c0.6,0.3,1.3,0.6,1.7,1.3c0.5,0.9,0.3,1.9,0.3,2.8c0,2.2,0.2,4.3-0.1,6.5c-0.3,0.8-0.9,0.6-1.4,0.4c-4.6-1.6-8.8-4-12.4-7.3
				c-1.9-1.7-3.5-3.5-5-5.6c-0.6-1.2-1.5-2.1-2.1-3.3C705.7,192.4,704.6,191.7,704.9,190.5z"/>
			<path class="st16" d="M895.2,167.6c0,2.8,0,5.5,0,8.3c0,0.5-0.2,1.1,0.6,1.2c-0.1,0.8-0.8,0.7-1.4,0.8c-1.6,0.3-3.2,0.6-4.9,0.7
				c-1.2,0.1-1.6,0.6-1.6,1.7c0,1,0.3,2.1-0.4,3.1c0,9.8,0,19.6-0.1,29.3c0,0.5,0.3,1.1-0.2,1.5c-0.5,0.1-0.9-0.1-1.2-0.3
				c-4.3-2-8.6-4.1-12.8-6.1c-6.4-3.1-12.8-6.1-19.1-9.2c-0.5-0.3-1-0.5-1.3-1.1c-0.5-1.7-0.2-3.4-0.3-5.2c0-1.6-0.2-3.2,0.1-4.7
				c0.5-1,1.2-0.3,1.7-0.1c2.8,1.4,5.8,2.7,8.6,4.2c3.4,1.7,6.9,3.3,10.3,4.9c0.9,0.5,1.9,1,2.9,1.4c1.2,0.6,1.4,0.5,1.4-0.9
				c0-4.4,0-8.8,0-13.2c0-1.2,0-2.3,0-3.5c0-1.7-0.1-1.8-1.9-2.1c-4.6-0.6-9-1.7-13.3-3.6c-3.1-1.4-6.1-2.9-8.8-5
				c-0.5-0.4-1.1-0.7-1.1-1.5c0-3.5,0-7,0-10.5c0-0.6,0-1.3,0.2-1.9c0.7-0.8,1.1,0,1.5,0.4c0.9,1.1,1.9,2.1,2.9,3
				c6.1,5.2,13.2,7.9,21.1,8.8c5.1,0.5,10,0.1,15-0.8C893.8,167.4,894.5,167.1,895.2,167.6z"/>
			<path class="st17" d="M853,155.8c0,3.8,0,7.6,0,11.4c0,0.5,0.2,1.1-0.3,1.5c-0.7,0.1-1.2-0.4-1.6-0.8c-3.4-2.8-6.2-6.1-8.5-9.9
				c-0.6-1-1.3-1.6-2.4-2c-2.5-0.9-5-1.9-7.5-2.9c-0.6-0.2-1.2-0.5-1.3-1.2c-0.2-2.9-0.1-5.8-0.1-8.7c0.4-0.8,1-0.3,1.5-0.2
				c1.5,0.5,2.9,1.2,4.7,1.6c-0.8-3.8-0.6-7.6-0.6-11.6c-1.4,1.1-2.3,2.4-3.6,3.2c-0.5,0.3-0.8,0.9-1.5,0.4
				c-0.6-0.7-0.4-1.4-0.5-2.2c-0.1-3,0.2-5.9-0.1-8.9c-0.4-0.9,0.3-1.3,0.8-1.8c2.5-2.5,5-5,7.4-7.5c1.2-1,2.1-2.4,3.3-3.5
				c0.7-0.6,0.6-1-0.1-1.6c-3.4-3.2-7-6.3-10.3-9.6c-0.5-0.5-1-0.9-1-1.7c0.2-3.2,0-6.3,0.1-9.5c0-0.7-0.1-1.5,0.4-2
				c5.3,4.5,10.6,9,15.9,13.5c0.8,0.6,1.4,1.5,2.4,1.8c0.8,0.5,1.5,0.6,2.2-0.1c0.5-0.4,1-0.5,1.1,0.3c0.2,4.3,0.1,8.5,0,12.8
				c0,0.7-0.4,1.2-0.7,1.7c-3.9,5.9-5.8,12.5-5.4,19.5c0.3,5.8,1.8,11.3,5.2,16.1C852.8,154.7,853.3,155.1,853,155.8z"/>
			<path class="st18" d="M979.2,200.1c0,2.1,0.5,4.1,0.6,6.2c0,0.7,0.5,0.7,1,0.8c4.9,0.8,9.9,1.7,14.8,2.6c7.7,1.3,15.5,2.6,23.2,4
				c0.9,0.1,1.7,0.3,2.6,0.4c1.9-0.2,3.8,0.1,5.5,0.9c-0.4,0.8-1.3,1-2,1.3c-1.9,0.9-3.8,1.9-5.5,3c-1.7,1.1-3.3,0.7-4.9,0.5
				c-2.6-0.4-5.2-0.9-7.8-1.4c-3.1-0.6-6.2-1.1-9.3-1.7c-2.7-0.4-5.3-0.8-8-1.2c-2.5-0.4-4.9-0.9-7.4-1.4c-2.5-0.4-5.1-0.9-7.6-1.3
				c-1.3-0.2-2.5-0.7-3.8-0.6c-0.4,0-0.5-0.5-0.5-0.7c0-1.8-0.5-3.5-0.6-5.2c-0.1-1.8-0.6-3.6-0.6-5.5c0-0.7-0.5-0.5-1-0.3
				c-2,0.8-3.8,2-5.7,3c-0.8,0.4-1.1,0.3-1.5-0.5c-1.3-2.4-2.6-4.8-4-7.2c-0.4-0.7-0.8-0.9-1.6-0.5c-1.9,1.1-4,2-5.9,3.1
				c-1.1,0.6-2.2,0.4-3.2,0.3c-3-0.5-6.1-1-9.1-1.4c-2.7-0.3-5.4-1-8.1-1.4c-2.2-0.4-4.3-0.6-6.5-1c-2.8-0.4-5.7-0.9-8.5-1.3
				c-2.1-0.3-4.3-0.6-6.4-0.9c-0.3-0.2-0.8,0-0.7-0.6c3.2-1.7,6.4-3.2,9.6-4.9c0.3,1,1.1,0.6,1.7,0.7c6.7,1.1,13.4,2.1,20.1,3.1
				c1-0.5,1.9-0.1,2.8,0.1c4.9,0.7,9.8,1.5,14.8,2.2c1.7,0.3,1.8,0.1,2.1-1.6c0.3-1.7,0.5-3.4,0.8-5.2c0.1-1.7,0.4-3.5,0.7-5.2
				c0.1-0.6,0.1-1.3,0.8-1.4c0.7-0.1,1,0.5,1.2,1c2,3.6,4,7.2,6,10.8c1.2,2.2,2.3,4.3,3.6,6.5c1.7-3.5,3.7-6.8,5.4-10.2
				c0.2-0.5,0.5-1.1,1.1-1c0.6,0.1,0.7,0.8,0.7,1.3c0.3,3.3,0.8,6.5,1.1,9.8C979.3,198.8,978.8,199.5,979.2,200.1z"/>
			<path class="st19" d="M663,231.3c1.1,3.1,2.8,6,4,9c0.3,0.8,0.9,0.5,1.5,0.3c6.1-1.9,12.3-3.8,18.4-5.7c4.2-1.3,8.5-2.6,12.7-3.9
				c0.4-0.1,0.8-0.5,1.2-0.1c-1.1,0.7-2.3,1.4-3.4,2.2c-3.8,3-8.6,3.5-13,5.1c-3.5,1.3-7.2,2.2-10.8,3.3c-5.1,1.5-10.2,3.1-15.3,4.7
				c-0.4,0.1-0.8,0.4-1.2,0.5c-2.5,0.7-3,0.3-4-2.2c-1.4-3.7-3.2-7.2-4.9-10.8c-1.5-3.2-2.9-6.5-4.4-9.8c-2-4.4-4.2-8.7-6.1-13.1
				c-2-4.6-4.3-9-6.1-13.6c-0.3-0.5,0.1-0.7,0.4-0.9c4-1.7,7.9-3.4,11.9-4.8c0.1,0,0.3,0,0.4,0c0.6,0.2,0.8,0.7,1,1.1
				c4.3,9.4,8.7,18.8,13,28.2c1.2,2.7,2.5,5.4,3.7,8C662.5,229.6,662.8,230.4,663,231.3z"/>
			<path class="st20" d="M1085,230.1c-0.4-1.8-0.3-3.7-0.3-5.5c0-19.1,0-38.3,0-57.4c0-1.2,0.9-2.6-0.2-3.8
				c-0.5-1.6,0.2-3.1,0.5-4.5c0.1-0.2,0.2-0.4,0.5-0.3c0.2,0.1,0.3,0.3,0.4,0.6c0.2,0.9,0,1.8,0.3,2.7c0.1,0.4,0.1,0.8,0.1,1.2
				c-0.2,6.1,0.3,12.1,0.3,18.1c0.1,8.8,0.4,17.5,0.6,26.3c0.1,3.8,0.1,7.6,0.2,11.5c0,2.1,0.2,2.2,2.1,2.9
				c4.1,1.3,8.2,2.3,12.3,3.6c3.1,1.1,3.1,1.1,4.2-1.8c1.8-4.8,3.3-9.6,4.9-14.4c4.1-12.1,8.3-24.1,12.3-36.2c0.5-1.4,0.7-3,1.9-4.2
				c0.8,0.3,0.5,1,0.5,1.5c0,8.7,0,17.4,0,26.2c-1.1,4-2.6,7.9-3.9,11.8c-3.3,9.7-6.7,19.4-10,29.2c-0.1,0.4-0.2,0.8-0.6,1.1
				c-2.7-0.4-5.2-1.4-7.8-2.2c-5.3-1.6-10.6-3.2-15.8-4.8C1086.7,231.1,1085.6,231.2,1085,230.1z"/>
			<path class="st21" d="M726.8,144.2c0-2.5,0-5,0-7.5c0-0.5,0.2-1.1-0.3-1.5c5.1-3.1,10.7-4.9,16.5-5.8c4.1-0.6,8.2-0.6,12.3-0.1
				c0.6-0.4,1.2-0.2,1.8-0.1c2.2,0.5,4.4,1,6.6,1.8c1.3,0.5,1.4,0.4,1.3-1c-0.3-3.3-0.6-6.5-0.9-9.8c-0.1-1-0.4-1.3-1.4-1
				c-1.8,0.5-3.6,0.9-5.5,1.4c-0.6,0.1-1.2,0.4-1.8,0.2c-0.2-0.3-0.3-0.6-0.3-0.9c0-0.8,0-1.6-0.2-2.4c-0.2-0.9-0.1-1.8-0.1-2.8
				c-0.1-1.1,0.2-2.2-0.2-3.2c-0.1-0.4-0.1-0.8-0.1-1.3c-0.1-1.5,0.2-3-0.2-4.5c0-0.2-0.1-0.3-0.1-0.5c-0.2-1.8,0.2-3.6-0.2-5.4
				c-0.3-1.7,0.1-3.5-0.2-5.2c-0.1-0.3-0.1-0.6,0-1c4.1-1.6,8.3-2.6,12.5-4c0.7-0.2,1.5-0.4,2.2-0.6c0.7-0.3,1,0.2,1,0.7
				c0.1,3,0.5,6.1-0.3,9.1c-0.7,0.8-1.7,0.9-2.6,1.2c-2.5,0.7-2.6,0.8-2.1,3.4c0.1,1.1,0,2.2,0.1,3.3c0,1.3,0.2,1.4,1.5,1.1
				c0.5-0.1,1-0.3,1.5-0.4c0.5-0.1,1.1-0.2,1.4,0.4c0.3,0.7,0.2,1.4,0.2,2.1c0,10.1,0,20.1,0,30.2c0,0.8,0.1,1.6-0.3,2.3
				c-1,0.7-1.6-0.1-2.3-0.6c-3.9-2.6-8.2-4.2-12.8-4.7c-8.9-1-17,1.3-24.5,6.1C728.5,143.6,727.8,144.5,726.8,144.2z"/>
			<path class="st22" d="M768.6,98.8c0.5-0.8,0.3-1.6,0.3-2.4c0-2.1,0-4.1,0-6.2c0-0.5,0.2-1.1-0.6-1.2c5.4-1.7,10.8-3.5,16.3-5.1
				c6.8-2.1,13.6-4.1,20.3-6.3c1.3-0.4,1.4-0.1,1.4,1.1c-0.1,1.9-0.3,3.8,0.1,5.8c0.5,1.9,0.3,3.8,0.2,5.6c-0.1,1.9-0.2,3.8-0.2,5.7
				c0,0.4,0,0.9-0.3,1.3c1.2-2.1,2.2-4.3,3.5-6.3c0.3-0.5,0.4-1.3,1.3-0.9c0.4,0.5,0.5,1,0.5,1.6c0,4.3,0.1,8.6-0.1,12.9
				c-0.1,0.8-0.4,1.4-0.9,2c-3.7,5.1-7.4,10.2-11.2,15.2c-0.4,0.5-0.6,1.2-1.5,1.3c-0.7-0.3-0.6-0.9-0.6-1.5
				c-0.3-6.2-0.7-12.4-1.1-18.5c-0.2-3.1-0.3-6.3-0.6-9.4c-0.1-1.5-0.1-1.5-1.6-1.1c-7.7,2.3-15.5,4.4-23.2,6.7
				C770,98.9,769.3,99.4,768.6,98.8z"/>
			<path class="st23" d="M589.2,111.3c8.1-5.3,16.4-10.2,25.3-14.2c1.9-0.8,3.7-1.8,5.8-2.4c0.8-0.3,1,0.3,1,0.8
				c0.1,3.1,0.3,6.2-0.2,9.3c-0.4,0.8-1.2,1.1-1.9,1.4c-4.8,2.2-9.6,4.5-14.1,7.3c-1.3,0.8-1.3,0.8-0.5,2.2
				c4.5,7.5,9.1,15,13.7,22.5c0.5,0.8,0.9,1.3,1.9,0.8c0.4-0.2,0.9,0,1,0.5c0.3,3.3,0.2,6.6,0.1,10c-0.1,0.3-0.2,0.7-0.5,0.9
				c-1.7,1-3.5,1.9-5.4,2.5c-1.2,0.4-1.4-0.9-1.9-1.6c-0.3-0.6-0.7-1.2-1-1.8c-0.5-1-1.2-1.8-1.7-2.7c-0.6-1.2-1.3-2.3-2-3.4
				c-0.5-0.8-1-1.5-1.5-2.3c-0.4-0.6-0.7-1.2-1.1-1.8c-0.5-0.8-0.9-1.6-1.5-2.3c-0.6-1-1-2-1.7-2.9c-0.5-0.8-0.9-1.6-1.4-2.4
				c-0.4-0.9-1-1.7-1.5-2.6c-0.5-0.8-1-1.5-1.4-2.3c-0.4-0.6-0.7-1.2-1.2-1.8c-0.5-0.8-0.8-1.6-1.5-2.3c-0.5-0.9-0.9-1.8-1.5-2.6
				c-0.5-0.9-1.1-1.8-1.7-2.7c-0.5-0.9-1-1.7-1.5-2.6C590.7,113.7,589.6,112.7,589.2,111.3z"/>
			<path class="st24" d="M1064.1,102.9c0.6-2.9,0.2-5.8,0.3-8.7c0-0.4-0.4-0.5-0.6-0.8c7.1,1.5,14.2,3,21.2,4.5
				c5.1,1.1,10.3,2.2,15.4,3.3c0.9,0.2,1.3,0.6,1.5,1.5c0.3,1.4,0.3,2.9,1,4.2c0.9,2.1,1.1,4.4,1.6,6.6c0.4,1.8,0.9,3.6,1,5.4
				c0,0.4,0.3,0,0.4,0.1c0.3,1.4,0.3,2.8,0.3,4.2c0,8.1,0,16.2,0,24.3c0,1.3,0,2.6,0.3,3.9c0.4,0.5,0.3,1,0.2,1.5
				c-0.5,2.2-1.1,4.4-1.7,6.6c-0.1,0.5-0.2,1.2-0.8,1.2c-0.7,0-0.7-0.7-0.8-1.2c-1.4-6.1-2.7-12.2-4-18.3
				c-2.2-10.2-4.5-20.3-6.6-30.5c-0.2-1.2-0.9-1.7-2-1.9c-8.1-1.5-16.3-3.2-24.4-4.7C1065.6,103.7,1064.6,103.9,1064.1,102.9z"/>
			<path class="st19" d="M708.1,196.6c2.2,2.5,4.2,5,6.9,7c3.5,2.7,7.2,4.8,11.5,6c0.5-0.3,0.9-0.1,1.4,0.1
				c3.5,1.1,7.1,1.6,10.7,1.5c11.3-0.2,21.5-3.7,30.1-11.2c0.6-0.5,1.2-0.9,1.8-1.4c1.1-1,1.5-0.8,1.7,0.7c0.4,2.8,0.5,5.6,0.9,8.3
				c0.2,1.7,0.3,3.5,0.5,5.2c0.1,1.1,0.6,1.3,1.6,1.2c4.8-0.7,9.6-1.4,14.3-2.1c6-0.8,11.9-1.7,17.9-2.5c0.7-0.1,1.5-0.3,2,0.5
				c-1.4,0.7-2.9,1.3-4.2,2.2c-3.5,2.2-7.5,2.9-11.5,3.4c-6,0.8-12,1.8-18,2.6c-3.8,0.5-7.6,1-11.4,1.6c-1,0.2-0.6-0.7-0.8-1.1
				c0-0.5,0-1.1-0.1-1.6c-0.2-0.5,0-1.1-0.2-1.6c0-0.5-0.1-1.1-0.1-1.6c-0.2-0.5,0-1.1-0.2-1.5c0-0.6-0.1-1.1-0.1-1.7
				c-0.2-0.5,0.1-1-0.2-1.5c0.3-0.9-0.1-1.7-0.3-2.5c-0.3-0.9-0.9-0.1-1.1,0.2c-1.9,1.5-3.8,2.9-5.8,4.2c-5.9,3.9-12.4,6.2-19.5,7.1
				c-0.5,0.2-1.1,0-1.6,0.2c-2,0-3.9,0-5.9,0c-0.5-0.2-1.1,0-1.6-0.2c-4.8-0.4-9.2-1.8-13.4-4.1c-4-2.2-7.7-5-10.5-8.7
				c-1.1-1.5-2.5-2.7-3.2-4.5c-0.1-0.4,0.2-0.5,0.4-0.6c2.3-1.1,4.5-2.3,6.7-3.3C707.3,196.5,707.7,196.2,708.1,196.6z"/>
			<path class="st18" d="M853.3,197.8c4.8,2.3,9.6,4.6,14.3,7c6.6,3.2,13.2,6.2,19.7,9.6c-2.9,1.8-5.9,3.2-8.9,4.8
				c-0.6,0.3-1.1,0.1-1.6-0.1c-6.7-3.2-13.3-6.5-20-9.7c-7.3-3.6-14.7-7.1-22-10.6c-4.8-2.3-9.6-4.6-14.4-6.9
				c-3.1-1.5-6.2-3-9.3-4.4c-0.2-0.2-0.7-0.2-0.9-0.5c-0.4-0.6-0.3-1.3-0.4-2c0-1.9,0-3.8,0-5.7c0-0.7-0.1-1.4,0.5-1.9
				c1.4-0.1,2.5,0.8,3.6,1.3c5.2,2.5,10.4,5,15.6,7.4c7.2,3.5,14.5,6.9,21.7,10.4C851.9,196.8,852.6,197.2,853.3,197.8z"/>
			<path class="st18" d="M1085,230.1c5.2,1.8,10.5,3.3,15.8,4.9c3.1,1,6.3,1.9,9.4,2.9c0.4,0.1,0.7,0.3,1,0.5c-2,1.1-4,2-5.9,3.2
				c-2.6,1.7-5.1,1.5-7.9,0.5c-3-1.1-6.1-2.1-9.3-3c-3.6-1-7.1-2.2-10.7-3.3c-2.5-0.7-5-1.6-7.6-2.3c-0.7-0.2-0.8-0.5-0.8-1.1
				c0-2.3,0-4.5-0.1-6.8c-0.3-1.5,0.1-3.1-0.2-4.6c-0.8-0.8-2-0.5-3-0.7c-4.5-0.5-9-1.4-13.5-1.8c-3.8-0.4-7.6-1.2-11.4-1.7
				c-0.9-0.1-1.8-0.1-2.6-0.3c-0.2-0.1-0.4-0.2-0.4-0.4c0.2-0.5,0.8-0.7,1.2-0.9c2.2-1.1,4.4-2.2,6.6-3.3c0.6-0.3,1.2-0.7,1.9-0.3
				c3.6,0.2,7.1,0.9,10.6,1.3c5.4,0.7,10.7,1.5,16.1,2.2c4.3,0.5,4.4,0.4,4.4,4.7c0,2.4,0,4.8,0,7.3c0,0.6,0,1.2,0.8,1.4
				C1081.3,229.1,1083.2,229.6,1085,230.1z"/>
			<path class="st25" d="M810.8,177.4c-0.4,0-0.6,0.3-0.6,0.7c0,2.8,0,5.5,0,8.3c0,0.2,0.1,0.4,0.2,0.5c-0.1,0.4-0.1,0.8-0.1,1.1
				c0,6.8,0,13.6,0,20.4c0,0.2,0,0.5,0.1,0.7c-0.3,0.3-0.6,0.6-1.1,0.7c-2.1-0.5-4.1,0.3-6.1,0.6c-4.6,0.5-9.2,1.2-13.7,1.9
				c-0.2-0.2-0.3-0.4-0.3-0.6c-0.1-2.9-0.4-5.9,0.1-8.8c0.4-0.5,1-0.6,1.5-0.7c1.8-0.2,3.6-0.6,5.4-0.7c1.1-0.1,2.2-0.4,3.3-0.5
				c1-0.1,1.4-0.7,1.4-1.7c0-2,0-4,0-5.9c-0.5-10.1-0.2-20.2-0.1-30.3c0.1-0.8,0.6-0.9,1.3-0.6c2.8,1.2,5.6,2.6,8.3,4
				c0.5,0.3,0.9,0.6,0.9,1.2c-0.1,2.6,0,5.3,0,7.9C811.2,176.2,811.3,176.9,810.8,177.4z"/>
			<path class="st26" d="M979.5,81.2c0,3.1,0,6.2,0,9.4c0.7,1.5-0.2,2.9-0.3,4.4c-1.9,10.3-3.8,20.7-5.7,31
				c-0.1,0.7-0.1,1.5-0.9,1.9c-0.7-0.3-0.7-1-0.8-1.6c-1.7-9.1-3.5-18.2-5.2-27.4c-0.1-0.3-0.2-0.7-0.2-1c-0.1-1.3-0.8-1.7-2-1.7
				c-6.9,0-13.7,0-20.6,0c-0.8,0-1.6,0.1-2.2-0.4c0.4-0.5,1-0.3,1.5-0.3c4.5,0,9,0,13.5,0c1,0,1.3-0.3,1.3-1.3c-0.1-2.5,0-4.9,0-7.4
				c1,0,1.9,0,2.9,0c0.9-0.6,1.9-0.4,2.8-0.4c1.4,0,2.8,0,4.2,0c1,0,1.5-0.4,1.6-1.4c0.2-1.1,0.4-2.3,0.7-3.4
				c0.2-0.3,0.6-0.3,0.9-0.3C973.9,81.1,976.7,81.1,979.5,81.2z"/>
			<path class="st27" d="M705.3,95.6c-0.3,0.6-0.3,1.2-0.3,1.8c0,3,0,6,0,9c0,0.5,0.2,1.1-0.3,1.5c-0.7,0.1-1-0.4-1.5-0.8
				c-4.9-4.2-10.3-7.6-16.5-9.4c-4.3-1.3-8.8-1.7-13.3-2.2c-2.9-0.3-5.9-0.2-8.8-0.3c-0.6,0-1.2,0-1.6-0.5c-0.5-2.1-0.2-4.2-0.2-6.4
				c0-1.4-0.1-2.6-1.7-3.1c2.8-0.5,5.7-0.3,8.5-0.2c7.2,0.3,14.4,1,21.3,3.2C696.1,89.8,700.8,92.5,705.3,95.6z"/>
			<path class="st28" d="M661,85.2c2.1,0.1,2.1,0.1,2.1,2.2c0,2.5,0,4.9,0,7.4c-0.8,0.6-1.7,0.6-2.6,0.7c-11,0.7-21.6,3.3-31.9,7.1
				c-2.2,0.8-4.3,1.7-6.5,2.5c-0.5,0.2-1,0.5-1.5,0.1c0.5-0.8,0.3-1.7,0.3-2.6c0-2.2,0-4.5,0-6.7c0-0.5,0.2-1.1-0.6-1.2
				c5.7-2.5,11.6-4.4,17.7-6c7.1-1.9,14.3-3.1,21.6-3.6C660,85.1,660.5,85.2,661,85.2z"/>
			<path class="st29" d="M853,117.3c0-4.6,0-9.1,0-13.7c0.3-1.1,1.3-1.4,2-2c0.5-0.3,1-0.6,1.5-0.9c0.3-0.2,0.5-0.4,0.6-0.8
				c2.6-1.6,5.3-3,8.1-4.2c1-0.4,1-0.8,0.4-1.5c-1.9-2.1-3.7-4.5-5.7-6.6c0-0.6,0.4-1,0.8-1.3c3.4-3.7,6.7-7.4,10-11.1
				c0.8-0.9,1.7-1.8,2.6-2.7c0.1-0.1,0.3,0,0.4,0c0.6,0.5,0.6,1.2,0.6,1.8c0,3.5,0,6.9,0,10.4c0.2,0.2,0.2,0.5,0,0.7
				c0,5.8,0,11.7,0,17.5c-0.2,0.6-0.8,0.7-1.3,0.8c-6.3,2.1-11.9,5.6-16.6,10.2c-0.3,0.3-0.7,0.7-1,1.1
				C854.5,115.7,854.3,117,853,117.3z"/>
			<path class="st30" d="M810.8,104.7c0-4.4,0-8.9,0-13.3c0-0.6,0.1-1.3-0.3-1.8c-0.3-0.4-0.1-0.7,0.1-1.1c2-3.7,4-7.4,5.9-11.1
				c0.2-0.3,0.5-0.6,0.7-0.9c0.4-0.4,0.6,0,0.8,0.2c4.6,3.9,9.1,7.9,13.7,11.8c0,3.3,0,6.7,0,10c0,0.7-0.1,1.3-0.3,2
				c-0.7,0.3-0.9-0.3-1.3-0.6c-2.7-2.6-5.5-5-8.1-7.6c-0.8-0.8-1.2-0.6-1.8,0.2c-0.9,1.3-1.8,2.6-2.8,3.9c-1.7,2.3-3.4,4.6-5.1,6.9
				C812,103.9,811.7,104.7,810.8,104.7z"/>
			<path class="st19" d="M916,187.3c-0.3,0.3-0.5,0.7-0.9,0.9c-2.6,1.3-5.2,2.6-7.8,3.9c-0.2,0.1-0.6,0.1-0.8,0.2
				c-0.1,0-0.1-0.1-0.1-0.2c0-0.1,0-0.1,0-0.1c0.6-4,1.1-7.9,1.9-11.9c0.2-0.9,0.2-1.9,0.6-2.9c0.1-0.4,0.1-1-0.1-1.2
				c-0.3-0.3-0.8,0.1-1.2,0.3c-1.4,0.8-2.8,1.5-4.3,2.2c-4.5,2.2-9.1,3.9-14.1,4.6c-0.6,0.1-1.1,0.2-1.7,0.3c0-1.3,0-2.6,0-3.9
				c-0.1-1,0.4-1.2,1.3-1.3c2.3-0.2,4.7-0.4,6.9-1.1c4.8-0.8,9.4-2.3,13.9-4.1c3.2-1.2,6.3-2.8,9.6-4.5
				C918.1,175,917.1,181.1,916,187.3z"/>
			<path class="st31" d="M1026.9,215c-1.8-0.3-3.7-0.6-5.5-0.9c0-7.7,0-15.5,0-23.2c0.5-0.4,1-0.3,1.5-0.2
				c6.1,1.3,12.1,0.5,17.9-1.5c0.5-0.2,1-0.4,1.5,0c0.6,2,0.1,4.1,0.3,6.1c0.1,0.8-0.3,1.6,0.4,2.3c-0.3,0.9-1.2,0.9-1.9,1.1
				c-4.1,1.2-8.3,1.8-12.6,1.6c-0.7,0-1.4,0-2,0c-1,0-1.3,0.4-1.1,1.4c0.1,0.7,0.5,1.5,0.1,2.3c0.1,3.1,0.9,6.1,1.3,9.2
				C1026.8,213.7,1026.9,214.3,1026.9,215z"/>
			<path class="st32" d="M1043.5,121.3c-0.9-0.1-0.9,0.5-0.9,1.1c0,2.3,0,4.7,0,7c-0.5,0.6-1.1,0.5-1.8,0.4
				c-6.3-0.3-12.1,1.1-17.7,3.9c-0.5,0.2-0.9,0.6-1.5,0.2c-0.6-2.1-0.2-4.3-0.3-6.5c0-0.9,0-1.8,0-2.8c5-2.4,10.4-3.5,15.9-3.8
				c1-0.1,2,0.3,3-0.3c0.7-0.2,1.4-0.1,2.2,0C1042.8,120.6,1043.4,120.6,1043.5,121.3z"/>
			<path class="st33" d="M1047.6,211.7c-0.9,0-1.6,0.5-2.4,0.9c-2.4,1.3-5,2.3-7.2,3.8c-0.7-0.1-0.4-0.5-0.3-0.9
				c0.4-3.8,0.8-7.5,1.2-11.3c0.3-0.5,0-1,0.2-1.5c0-0.3,0-0.7,0.1-1c0.2-0.4,0.1-0.9,0.1-1.3c0.2-0.6,0.8-0.7,1.2-0.9
				c2.1-1.2,4.4-2,6.6-3.2c0.6-0.4,1.2-0.9,2-0.9c-0.3,3-0.7,5.9-1,8.9c-0.2,2-0.5,4.1-0.7,6.1
				C1047.2,210.8,1047.2,211.3,1047.6,211.7z"/>
			<path class="st19" d="M755.3,120.6c2.7-0.7,5.3-1.3,8-2c0.8-0.2,1-0.1,1.1,0.7c0.3,3.8,0.7,7.7,1.1,11.5c0.1,1-0.1,1.3-1.1,0.9
				c-2.9-1.2-5.9-1.9-9.1-2.4c-0.2-2-0.4-3.9-0.6-5.9c-2.6,0.6-5.2,1.2-7.8,1.7c-0.2-0.6,0.3-0.8,0.6-0.9c2.2-1.2,4.6-2.2,6.8-3.5
				C754.6,120.5,754.9,120.4,755.3,120.6z"/>
			<path class="st19" d="M860,87.4c1.4,0.9,2.2,2.3,3.3,3.6c1.2,1.4,2.4,2.8,3.6,4.3c-3.2,1.4-6.3,2.8-9.1,4.7
				c-0.1,0.1-0.4,0-0.7-0.1c-2-2.3-4-4.5-5.9-6.8c-0.3-0.3-0.9-0.6-0.5-1.2C853.6,90,856.7,88.4,860,87.4z"/>
			<path class="st34" d="M860,87.4c-3.1,1.5-6.2,3-9.3,4.5c3.9-4.4,7.8-8.7,11.7-13.1c2.1-2.3,4.2-4.6,6.3-6.8c0.8,0.6,1.3,1.4,2,2
				c0.3,0.3,0.7,0.7,0.4,1.3c-3.5,3.8-6.9,7.7-10.4,11.5C860.4,87,860.2,87.2,860,87.4z"/>
			<path class="st19" d="M817.2,76.5c-1.1,2.8-2.7,5.3-4.1,7.9c-0.9,1.7-1.8,3.4-2.6,5.1c-1.5,2.6-2.9,5.3-4.6,8.2c0-2,0-3.8,0-5.5
				c0.1-2.6,0.3-5.3,0.4-7.9c0.8-2.2,2.3-3.7,4.5-4.6C813,78.9,815.1,77.6,817.2,76.5z"/>
			<path class="st35" d="M629.6,192.7c-1.1-1.6-1.5-3.5-2.5-5.2c0.1-0.6,0.6-0.8,1.1-1c3.6-1.5,7.2-2.9,10.8-4.5
				c0.4-0.2,0.7-0.3,1.1-0.1c1.3,1.6,2.3,3.3,2.4,5.4c-2.2,1.3-4.8,2.1-7.1,3.1C633.5,191.2,631.6,192.1,629.6,192.7z"/>
			<path class="st36" d="M629.6,192.7c0.7-1,1.9-1.1,3-1.6c2.9-1.3,5.9-2.5,8.8-3.7c0.3-0.1,0.7-0.1,1-0.2c1.4,1.1,2,2.6,2.1,4.4
				c-4.3,1.4-8.3,3.4-12.5,5c-0.1,0.1-0.2,0.3-0.3,0.5C630.7,195.8,630.3,194.2,629.6,192.7z"/>
			<path class="st37" d="M613.6,151.2c0,0,0.1,0,0.1,0.1c1.4,1.6,1.4,1.7,3.4,0.6c1.2-0.7,2.6-0.9,3.7-1.8c0.9-0.8,1.9-1.4,3.1-1.4
				c0.5,0.1,0.8,0.4,1.1,0.7c0.3,0.6,1.1,1,0.8,1.9c-2.4,1.6-5.3,2.3-7.9,3.5c-1.6,0.8-3.4,1.3-5,2.2c-1.4,0.1-2.6,0.8-3.8,1.5
				c-1,0.7-2.1,1.1-3.2,1.4c-0.8-0.1-1.5,0.4-2.4,0.7c0.3-1,1.1-1.4,1.6-2.1c2.4-2.3,4.2-5.1,7-6.9
				C612.7,151.3,613.1,151,613.6,151.2z"/>
			<path class="st38" d="M623.6,180c-0.4-1.4-1.2-2.5-1.7-3.8c0-0.7,0.4-1.1,1-1.3c3.7-1.6,7.4-3.1,11.1-4.6c0.2-0.1,0.4-0.1,0.6,0
				c1.3,1.1,2,2.5,2.1,4.3c-1.7,1.3-3.7,1.7-5.5,2.5C628.7,178.1,626.2,179.3,623.6,180z"/>
			<path class="st39" d="M640.1,182.1c-4.1,1.7-8.3,3.4-12.4,5.1c-0.2,0.1-0.4,0.3-0.6,0.4c-0.3-1.3-1.3-2.4-1.5-3.8
				c-0.3-0.6,0.1-0.8,0.5-1c3.8-1.6,7.6-3.2,11.4-4.7c0.3-0.1,0.6-0.1,0.9,0C639.3,179.3,640.2,180.4,640.1,182.1z"/>
			<path class="st40" d="M617.4,166.3c-0.9-1.1-1.2-2.5-1.8-3.7c-0.4-0.7-0.1-1.2,0.5-1.4c4-1.6,7.8-3.6,12-4.8
				c1.3,1,1.8,2.3,1.9,3.9c-1,1.1-2.6,1.3-3.9,1.9c-2.1,1-4.3,1.9-6.4,2.7C618.9,165.1,618.1,165.6,617.4,166.3z"/>
			<path class="st41" d="M638.3,178.3c-4.2,1.4-8.3,3.4-12.4,5c-0.3,0.1-0.3,0.3-0.4,0.6c-0.6-1.3-1.3-2.5-1.9-3.8
				c1.6-1.1,3.5-1.7,5.4-2.4c2.5-1,5.1-2.1,7.6-3.1C637.7,175.5,638.4,176.7,638.3,178.3z"/>
			<path class="st42" d="M620.1,172.4c-0.4-1.1-0.9-2.2-1.5-3.2c0-0.7,0.4-1.1,0.9-1.3c3.7-1.7,7.5-3.2,11.3-4.7
				c0.1-0.1,0.3,0,0.4,0c1.2,0.9,1.7,2.2,1.8,3.7c-0.4,0.7-1.1,0.8-1.7,1c-3.5,1.5-7.1,2.9-10.6,4.4
				C620.7,172.5,620.4,172.6,620.1,172.4z"/>
			<path class="st43" d="M620.1,172.4c4.2-2.1,8.7-3.6,13-5.5c1,1,1.9,1.9,1.5,3.5c-3.9,1.6-7.7,3.2-11.6,4.8
				c-0.5,0.2-0.9,0.6-1.1,1C621.5,174.9,620.7,173.7,620.1,172.4z"/>
			<path class="st44" d="M1043.5,121.3c-0.5-0.5-1.2-0.2-1.8-0.3c-0.5-0.1-1.1,0.2-1.5-0.3c-0.2-4-0.3-7.9-0.2-11.9
				c0.7,0.2,0.5,0.8,0.6,1.3c0,1,0,2,0,3c0,0.1,0,0.3,0,0.4c0,1.8,0.2,2,2,1.7c1.3-0.2,2.6-0.2,3.9-0.2c2.6,0,2.6,0,2.6-2.6
				c0-1,0-1.9,0-2.9c0-1.2,0-2.3,0-3.5c0.1-1.2-0.4-2.4,0.5-3.5c0.4,0.5,0.2,1,0.2,1.5c0,4.7,0,9.5,0,14.2c0,0.7-0.6,0.8-1,1
				c-1.4,0.7-2.7,1.5-4.2,1.9C1044.3,121.3,1043.9,121.3,1043.5,121.3z"/>
			<path class="st19" d="M1047,196.3c-0.7,1-1.9,1.2-2.9,1.8c-1.5,0.8-3.1,1.6-4.7,2.3c-0.2,0.2-0.4,0.1-0.6,0.3
				c-2.6,0.9-5.2,2.1-8,2.4c-1.8,0.2-3.6,0.5-5.3,0.7c-1.3-4-1.3-4.1,2.8-4c5.1,0.1,10-0.5,14.8-2.3
				C1044.4,197.4,1045.6,196.4,1047,196.3z"/>
			<path class="st19" d="M1106,118.9c-0.1,0.2-0.2,0.4-0.5,0.8c-0.8-4.4-2-8.6-2.5-12.9c2.2-1.1,4.4-2.2,6.5-3.3
				c-0.2,2.9-1.3,5.7-1.9,8.6C1107.1,114.3,1106.5,116.6,1106,118.9z"/>
			<path class="st45" d="M631.4,163.4c-3.8,1.6-7.6,3.1-11.5,4.7c-0.6,0.2-1,0.6-1.3,1.1c-0.4-1-0.8-2-1.2-3
				c-0.1-1.1,0.8-1.2,1.5-1.5c3.7-1.5,7.4-3,11-4.5C631.1,161,631.6,162,631.4,163.4z"/>
			<path class="st46" d="M628.2,156.5c-3.7,1.5-7.5,3.1-11.2,4.6c-0.7,0.3-1.4,0.5-1.3,1.4c-0.7-0.9-1-2.1-1.5-3.2
				c-0.3-0.8,0.3-1.1,0.8-1.4c3.5-1.5,7.1-3,10.7-4.4c0.5-0.2,0.9-0.2,1.4,0C627.8,154.5,628.5,155.3,628.2,156.5z"/>
			<path class="st47" d="M931.5,94.8c0,1.4-0.3,2.7-0.6,4.1c-0.3,0.3-0.6,0.2-0.9,0c-2.3-1.4-4.8-2.6-6.9-4.4
				c-0.1-2.1,0.6-3.6,2.8-4.1c2.1,0.4,3.7,1.9,5.5,3.1C931.8,93.8,931.7,94.4,931.5,94.8z"/>
			<path class="st48" d="M609,143.4c0.8,1.1,1.5,2.2,2,3.5c-3,2.1-6.2,3.7-9.6,4.9c-0.8-0.9-1.3-2.1-2-3.2c0.3-0.5,0.8-0.7,1.2-1
				C603.4,146.1,606.2,144.8,609,143.4z"/>
			<path class="st38" d="M923.1,94.5c2.3,1,4.3,2.6,6.5,3.8c0.4,0.2,0.8,0.5,1.3,0.6c-0.5,1.5-0.2,3.2-0.8,4.7
				c-1.9-0.4-3.3-1.8-5-2.7c-0.9-0.5-1.7-1.3-2.8-1.4C922.4,97.8,922.7,96.1,923.1,94.5z"/>
			<path class="st49" d="M613.6,151.2c-2.1,0.8-3.4,2.6-4.9,4.1c-1.1,1.1-2,2.4-3.5,3.2c-0.5-1.6-1.9-2.8-2.4-4.4
				c0-0.4,0.3-0.4,0.6-0.5c2.5-1.3,5-2.4,7.4-3.8c0.6-0.3,1.2-0.8,1.9-0.3C613.1,150,613.6,150.5,613.6,151.2z"/>
			<path class="st50" d="M627,153.8c-0.9-0.4-1.6,0.3-2.3,0.5c-3.1,1.2-6.1,2.5-9.2,3.8c-0.5,0.2-1.3,0.4-1.3,1.2
				c-0.5-0.7-1-1.4-1.2-2.3c-0.1-0.3-0.2-0.5,0.3-0.6c4.2-1.7,8.4-3.5,12.5-5.2C626.7,151.9,627.3,152.7,627,153.8z"/>
			<path class="st36" d="M708.1,196.6c-2.9,1.1-5.6,2.7-8.4,4c-0.1-0.1-0.2-0.2-0.3-0.3c-0.2-0.2-0.5-0.3-0.5-0.6
				c-0.2-0.7-0.4-1.3-0.6-2c-0.3-0.6,0.1-0.9,0.5-1.2c2.1-1.2,4.3-2.3,6.6-3.3c0.3-0.1,0.6-0.1,0.8,0.1
				C706.7,194.5,707.7,195.4,708.1,196.6z"/>
			<path class="st19" d="M589.2,111.3c0.9,1.1,1.7,2.3,2.3,3.5c0.3,0.4,0,0.8-0.3,1c-2.9,1.7-5.9,3.3-9,4.6
				c-0.9-0.9-0.8-1.6,0.2-2.4C584.7,115.8,587,113.5,589.2,111.3z"/>
			<path class="st51" d="M593,117.4c0.7,0.8,1.2,1.7,1.7,2.7c0.1,0.8-0.6,0.9-1,1.2c-2.3,1.2-4.7,2.3-7,3.6c-0.5,0.3-1,0.6-1.6,0.1
				c-0.6-0.7-1.1-1.5-1.4-2.4c-0.1-0.4,0.3-0.6,0.5-0.8C587.1,120.4,590,118.8,593,117.4z"/>
			<path class="st52" d="M612.8,149.5c-0.8,0-1.4,0.5-2.1,0.8c-2.5,1.4-5,2.8-7.7,3.8c-0.7-0.7-1-1.5-1.5-2.3
				c3.2-1.6,6.4-3.3,9.6-4.9C611.6,147.7,612.3,148.5,612.8,149.5z"/>
			<path class="st53" d="M601.7,131.7c0.8,0.6,0.9,1.6,1.4,2.3c0.2,0.5-0.2,0.8-0.6,1.1c-2.7,1.5-5.4,3-8.2,4.2
				c-0.2,0.1-0.4,0.1-0.6,0c-0.6-0.7-1.1-1.5-1.4-2.4c-0.1-0.6,0.3-0.8,0.7-1c2.7-1.3,5.3-2.8,7.9-4.1
				C601.2,131.7,601.5,131.7,601.7,131.7z"/>
			<path class="st54" d="M1049.6,106.1c0,1.2,0,2.3,0,3.5c-1.9,0.1-3.7,0.9-5.6,0.6c-1.2-0.2-2.5,0-3.7-0.4
				c-0.1-0.4,0.1-0.8-0.2-1.1c0-0.8,0-1.6,0-2.4c0.2-0.2,0.4-0.3,0.6-0.3c2.6-0.1,5.2-0.6,7.9-0.4
				C1048.9,105.8,1049.3,105.9,1049.6,106.1z"/>
			<path class="st55" d="M601.7,131.7c-2.5,1.6-5.3,2.9-7.9,4.3c-0.5,0.3-1.1,0.4-1.4,1c-0.6-0.8-1.3-1.6-1.7-2.6
				c0.3-0.5,0.8-0.8,1.3-1.1c2.7-1.5,5.4-2.9,8.2-4.1C600.8,129.9,601.5,130.7,601.7,131.7z"/>
			<path class="st56" d="M1049.6,106.1c-3.2-0.2-6.3,0.4-9.5,0.3c0-1.1,0-2.1,0-3.2c0.5-0.5,1.2-0.5,1.9-0.6c2.1-0.3,4.3,0,6.5-0.4
				c0.4-0.1,0.9,0.1,1.2,0.4c0,0,0.1,0,0.1,0C1049.6,103.8,1049.6,105,1049.6,106.1z"/>
			<path class="st57" d="M593.9,139.3c2.7-1.4,5.4-2.8,8.2-4.2c0.5-0.2,0.9-0.5,1.2-1c0.9,0.8,1.3,1.9,1.8,2.9
				c-1.5,1.3-3.4,1.9-5.1,2.9c-1,0.6-2,1.1-3.1,1.6c-0.5,0.2-0.9,0.6-1.5,0.2C594.7,141,594.1,140.2,593.9,139.3z"/>
			<path class="st58" d="M595.3,141.6c2.8-1,5.2-2.6,7.8-3.9c0.6-0.3,1.2-0.7,1.9-0.8c0.7,0.6,1.1,1.5,1.4,2.3
				c-0.1,0.3-0.3,0.5-0.5,0.6c-2.6,1.3-5.2,2.8-7.8,4.1c-0.4,0.2-0.8,0.3-1.2,0.2C596.3,143.4,595.6,142.6,595.3,141.6z"/>
			<path class="st51" d="M753.8,94.2c0.5,1.8,0.2,3.7,0.3,5.6c0.2,0.3,0.2,0.5-0.1,0.7c-2.8,0.7-5.7,0.8-8.5,1.1
				c-0.4,0-0.7-0.1-1.1-0.4c-0.1-0.4-0.1-0.8-0.2-1.2c-0.3-1.2,0.1-2,1.4-2.3c2.3,0,4.5-0.5,6.8-0.7c0.7,0,0.9-0.5,0.9-1.1
				C753.5,95.3,753.3,94.6,753.8,94.2z"/>
			<path class="st36" d="M593,117.4c-0.8,1-2.1,1.5-3.2,2c-2.1,0.9-4.1,2.1-6.1,3.2c-0.8-0.5-0.9-1.6-1.5-2.3
				c2.4-1.6,5.1-2.8,7.6-4.1c0.7-0.3,1.4-0.6,1.7-1.4C592.1,115.7,592.7,116.5,593,117.4z"/>
			<path class="st59" d="M585.1,125.1c1.1,0,1.8-0.7,2.7-1.2c1.9-1,3.8-1.9,5.6-2.8c0.5-0.2,1-0.4,1.2-0.9c0.7,0.8,1,1.7,1.5,2.6
				c-0.2,0.4-0.5,0.6-0.8,0.7c-2.8,1.5-5.7,3-8.5,4.5C586.2,127,585.6,126.1,585.1,125.1z"/>
			<path class="st60" d="M586.9,127.9c0.5-1,1.6-1.2,2.5-1.7c2.3-1.2,4.6-2.4,6.9-3.5c0.7,0.6,1,1.5,1.4,2.3
				c-0.1,0.4-0.5,0.6-0.8,0.8c-2.5,1.2-4.8,2.6-7.3,3.8c-0.6,0.3-1.1,0.6-1.8,0.1C587.5,129.1,587.2,128.5,586.9,127.9z"/>
			<path class="st61" d="M609,143.4c-1.3,1.4-3.1,1.9-4.7,2.8c-1.6,0.9-3.2,1.6-4.9,2.5c-0.4-0.7-0.8-1.4-1.2-2.1
				c0.2-1.1,1.2-1.3,1.9-1.7c2.4-1.3,4.9-2.5,7.4-3.8C608,141.8,608.5,142.6,609,143.4z"/>
			<path class="st62" d="M929.5,107c0,1.3-0.3,2.6-0.7,4.2c-2.4-3-4.8-5.6-7.2-8.1c0.2-0.6-0.1-1.2,0.4-1.7c0.4-0.2,0.7,0,1,0.1
				c2,1.2,4,2.4,6,3.6C929.6,105.6,929.8,106.2,929.5,107z"/>
			<path class="st63" d="M600.3,129.1c-1.3,1.2-2.9,1.7-4.4,2.5c-1.7,0.9-3.5,1.8-5.2,2.8c-0.4-0.7-0.8-1.4-1.2-2.1
				c-0.1-0.8,0.7-1,1.2-1.2c2.7-1.4,5.4-2.9,8.1-4.3C599.3,127.6,599.8,128.4,600.3,129.1z"/>
			<path class="st49" d="M755.3,120.6c-2.6,1.3-5.2,2.6-7.8,4c-0.2,0.1-0.5,0.2-0.6,0.6c-0.9,0.6-1.3,0.4-1.3-0.7
				c0-1.3-0.1-2.5-0.2-3.8c0.6-0.6,1.4-0.4,2.1-0.5c1.9-0.3,3.9-0.4,5.9-0.7c0.7-0.1,1.3-0.2,1.9,0.3
				C755.3,120.1,755.3,120.4,755.3,120.6z"/>
			<path class="st64" d="M598.8,126.8c-0.1,0.7-0.7,0.8-1.1,1c-2.4,1.3-4.9,2.5-7.3,3.8c-0.3,0.2-0.7,0.3-0.9,0.7
				c-0.6-0.9-1.1-1.7-1.7-2.6c1.4,0.1,2.4-0.8,3.4-1.4c2.1-1.2,4.3-2.2,6.4-3.3C598.3,125.5,598.5,126.2,598.8,126.8z"/>
			<path class="st65" d="M607.5,141c-0.3,0.7-1,0.9-1.5,1.2c-2.6,1.4-5.4,2.4-7.7,4.3c-0.6-0.7-1.1-1.5-1.4-2.4
				c3.2-1.6,6.4-3.3,9.6-4.9C607.1,139.7,607.2,140.5,607.5,141z"/>
			<path class="st66" d="M970.2,81.4c0.4,1.7-0.3,3.3-0.7,4.9c-0.1,0.5-0.8,0.3-1.2,0.3c-2.5,0-5,0-7.5,0c0.1-0.4,0.3-0.6,0.6-0.8
				C964.3,84.4,967.2,82.9,970.2,81.4z"/>
			<path class="st67" d="M744.5,101.2c3.2,0,6.4-0.8,9.6-0.9c0.4,0.7,0.1,1.4,0.2,2.1c0,0.6-0.4,0.9-0.9,1c-2.6,0.4-5.2,0.7-7.9,0.9
				c-0.5,0-0.8-0.2-0.9-0.7C744.5,102.8,744.5,102,744.5,101.2z"/>
			<path class="st68" d="M754.4,105.5c0.6,1.5,0.1,3.1,0.3,4.7c-0.2,0.4-0.5,0.6-0.9,0.6c-2.4,0.2-4.7,0.7-7,0.8
				c-1.4,0.1-1.7-0.2-1.9-2c0-0.2,0-0.4,0-0.6c0.7-0.8,1.7-0.8,2.6-0.9c1.6-0.2,3.2-0.5,4.9-0.6c1.1-0.1,1.7-0.4,1.8-1.5
				C754.1,105.8,754.3,105.7,754.4,105.5z"/>
			<path class="st69" d="M1049.6,102.7c-3.2,0.2-6.4,0.4-9.5,0.6c0-0.9,0-1.7,0-2.6c0.6-0.5,1.4-0.6,2.2-0.7c2-0.1,4,0,6-0.3
				c0.5-0.1,1,0,1.3,0.4C1049.5,100.9,1049.6,101.8,1049.6,102.7z"/>
			<path class="st70" d="M1040,95.4c2.8-1.8,5.8-3.2,8.7-4.7c0.6-0.3,0.7,0.1,0.7,0.5c0,0.9,0,1.7,0,2.6c0,1.8-0.1,2-1.8,1.9
				c-2,0-4,0.4-5.9,0.3C1041,96.1,1040.2,96.3,1040,95.4z"/>
			<path class="st71" d="M744.6,103.5c0.2,0.1,0.3,0.4,0.7,0.4c2.4-0.3,4.9-0.5,7.3-0.7c2-0.2,1.5-1.7,1.5-2.9c0-0.2,0-0.4,0-0.6
				c0.5,1.8,0.2,3.7,0.3,5.5c-0.7,0.7-1.6,0.7-2.4,0.8c-1.9,0.2-3.8,0.4-5.7,0.6c-0.5,0.1-1.1,0.1-1.5-0.2
				C744.5,105.5,744.5,104.5,744.6,103.5z"/>
			<path class="st72" d="M1049.5,100c-3.2,0.2-6.4,0.4-9.6,0.6c0-0.9,0-1.7,0-2.6c0.3-0.3,0.7-0.4,1.1-0.4c2.8-0.4,5.7-0.4,8.5-0.4
				C1049.5,98.1,1049.5,99.1,1049.5,100z"/>
			<path class="st73" d="M931.5,94.8c0.1-0.7-0.2-1.1-0.8-1.5c-1.6-0.9-3.2-1.9-4.8-2.9c2.3-1.4,4.6-2.6,7-3.7
				C932.5,89.4,932.2,92.2,931.5,94.8z"/>
			<path class="st74" d="M755,114.6c0,1,0,1.9,0,2.9c-2.1,0.8-4.3,0.8-6.5,1c-1,0.1-2.1,0.6-3.1-0.1c-0.3-1.1-0.3-2.1-0.2-3.2
				c2.1,0.5,4.1-0.1,6.1-0.2C752.5,114.9,753.7,114.5,755,114.6z"/>
			<path class="st75" d="M745.4,118.4c3.2-0.1,6.4-0.9,9.6-0.9c0.6,0.7,0.2,1.6,0.3,2.3c-2.4,0.3-4.7,0.5-7.1,0.8
				c-0.9,0.1-1.8,0.1-2.7,0.1C745.4,119.9,745.4,119.1,745.4,118.4z"/>
			<path class="st65" d="M755,114.6c-2.3,1-4.9,0.7-7.3,1.2c-0.4,0.1-0.8-0.1-1.1,0.1c-0.8,0.4-1.1,0-1.4-0.6c0-0.5,0-1,0-1.5
				c0.5-0.6,1.3-0.6,2-0.7c1.9-0.1,3.8-0.5,5.7-0.6c0.8,0,1.3-0.5,1.9-1C755.3,112.4,754.8,113.5,755,114.6z"/>
			<path class="st76" d="M744.8,106.5c3.2-0.4,6.4-0.8,9.6-1.2c0,0.1,0,0.2,0,0.3c0,0.4-0.1,0.8,0,1.1c0.1,1-0.3,1.1-1.2,1.2
				c-2.8,0.3-5.6,0.4-8.3,1.1C744.8,108.2,744.8,107.3,744.8,106.5z"/>
			<path class="st77" d="M1049.5,97.1c-0.9,0.4-1.9,0.5-2.8,0.5c-2.3,0-4.5,0.2-6.8,0.3c-0.1-0.9-0.3-1.7,0-2.6
				c1.1,0.6,2.3,0.4,3.4,0.2c1.5-0.2,3.1-0.2,4.6-0.2c1,0,1.4-0.4,1.3-1.3c-0.1-0.8,0-1.6,0-2.5c0-0.4,0-0.8-0.6-0.9
				c0.2-0.3,0.5-0.4,0.8-0.3C1049.5,92.7,1049.5,94.9,1049.5,97.1z"/>
			<path class="st41" d="M929.5,107c0.1-0.8-0.3-1.2-0.9-1.6c-2.2-1.3-4.4-2.6-6.7-3.9c-0.1-0.7,0.1-1.4,0.3-2
				c0.2-0.1,0.3-0.5,0.8-0.2c2.3,1.5,4.7,2.9,7,4.3C930.1,104.8,929.9,105.9,929.5,107z"/>
			<path class="st78" d="M754.7,111.4c0.1,1.5-1.1,1.3-1.9,1.4c-2.5,0.4-5.1,0.6-7.7,0.9c-0.2-1.3-0.3-2.7-0.3-4.1
				c0.2,1.5,0.9,1.7,2.5,1.6c2.2-0.3,4.3-0.9,6.5-0.7c0.3,0,0.5-0.2,0.8-0.3C754.7,110.6,754.7,111,754.7,111.4z"/>
			<path class="st79" d="M753.8,94.2c-0.1,3.1-0.1,3.2-3.5,3.5c-1.4,0.1-2.9,0.2-4.3,0.6c-0.6,0.1-0.5-0.2-0.4-0.6
				c2.6-1.4,5.3-2.7,7.9-4.1C753.8,93.7,753.9,93.9,753.8,94.2z"/>
			<path class="st80" d="M873.6,72.4c-0.1,0-0.2,0-0.3,0c-1.3-0.4-2.3-1.2-2.6-2.7c0.8-1.1,1.6-2,2.6-2.9c0.8,1,2.1,1.4,2.6,2.7
				C875.6,70.8,874.2,71.3,873.6,72.4z"/>
			<path class="st81" d="M876,69.5c-0.8-0.9-2.3-1.2-2.6-2.7c0.7-0.9,1.4-1.8,2.3-2.6c1,0.8,2.1,1.4,2.6,2.7
				C877.9,68.1,876.8,68.7,876,69.5z"/>
			<path class="st82" d="M870.7,69.7c0.7,1.1,1.7,1.8,2.6,2.7c-0.4,1.3-1.7,1.8-2.3,2.9c-0.1-0.9-0.9-1.2-1.4-1.8
				c-0.4-0.5-1-0.8-1-1.5C869.2,71.2,869.9,70.4,870.7,69.7z"/>
			<path class="st83" d="M886.1,58.2c-0.5,1.1-1.5,1.8-2.3,2.6c-1.2-0.6-2.6-1-2.6-2.7c0.6-0.8,1.3-1.6,2.1-2.3
				C884.3,56.4,885.3,57.2,886.1,58.2z"/>
			<path class="st84" d="M886.1,58.2c-1.1-0.6-2.2-1.3-2.9-2.3c0.8-0.9,1.6-1.7,2.3-2.6c0.9,0.9,1.9,1.7,2.7,2.7
				C887.7,56.8,887,57.5,886.1,58.2z"/>
			<path class="st51" d="M894.2,49.1c-0.5,1.1-1.6,1.7-2.3,2.6c-1.3-0.4-2.5-1.6-2.6-2.7c0.8-1.1,2.1-1.4,3.2-1.9
				C893.2,47.7,893.8,48.3,894.2,49.1z"/>
			<path class="st85" d="M888.2,55.9c-1.2-0.6-2.2-1.4-2.7-2.7c0.6-0.7,1.2-1.3,1.8-2c1.3,0.5,2.2,1.3,2.8,2.5
				C889.7,54.6,888.9,55.2,888.2,55.9z"/>
			<path class="st86" d="M881.2,58.1c0.5,1.3,1.9,1.7,2.6,2.7c-0.5,0.8-1,1.5-1.8,2c-1.3,0-2.6-1.1-2.9-2.4
				C879.7,59.5,880.4,58.8,881.2,58.1z"/>
			<path class="st59" d="M890.2,53.8c-0.9-0.8-1.9-1.7-2.8-2.5c0.6-0.8,1.2-1.5,2-2.2c0.6,1.2,1.7,1.8,2.6,2.7
				C891.5,52.6,890.7,53.1,890.2,53.8z"/>
			<path class="st87" d="M879.1,60.4c0.7,1.1,1.8,1.8,2.9,2.4c-0.6,0.7-1.2,1.4-1.7,2c-1.4,0-2.9-1.3-2.9-2.6
				C877.9,61.6,878.5,60.9,879.1,60.4z"/>
			<path class="st88" d="M877.4,62.3c0.5,1.4,1.7,1.9,2.9,2.6c-0.5,0.9-1.4,1.3-2,2c-0.9-0.9-2.1-1.4-2.6-2.7
				C876.2,63.5,876.7,62.8,877.4,62.3z"/>
			<path class="st79" d="M894.2,49.1c-0.7-0.5-1.4-1.1-1.7-2c2-1.1,3.9-2.3,6.1-2.9C897.3,46,895.9,47.6,894.2,49.1z"/>
			<path class="st89" d="M881.2,279.5c-0.1,0.3-0.4,0.2-0.6,0.2c-8.3,0-16.6,0-24.9,0c-0.1,0-0.3,0-0.4-0.1c0-0.1,0-0.1,0-0.2
				C863.9,279.5,872.5,279.5,881.2,279.5z"/>
			<path class="st89" d="M810.5,209.2c-0.1-0.3-0.2-0.7-0.2-1c0-6.7,0-13.5,0-20.2c0-0.4-0.1-0.8,0.2-1.1c0.2,0.1,0.3,0.2,0.5,0.4
				c-0.8,0.3-0.5,1-0.5,1.5C810.5,195.6,810.5,202.4,810.5,209.2z"/>
			<path class="st90" d="M856.5,100.6c-1.2,1-2.3,1.9-3.5,2.9c-0.3,0.2-0.6,0.4-0.9,0.7c-0.9,0.9-1.6,0.8-2.1-0.4
				C852.2,102.8,854.2,101.5,856.5,100.6z"/>
			<path class="st91" d="M606.1,159.9c0.9-0.9,2.1-1,3.2-1.4c-0.4,0.4-0.9,0.9-1.3,1.3C607.4,160.6,606.8,160.9,606.1,159.9z"/>
			<path class="st89" d="M730.2,301.3c0,3,0,6,0,9c-0.5-2.4-0.1-4.9-0.2-7.3C730,302.4,729.8,301.8,730.2,301.3z"/>
			<path class="st89" d="M1068.8,221.1c0.5,1.5,0.2,3,0.2,4.6C1068.5,224.2,1068.9,222.6,1068.8,221.1z"/>
			<path class="st89" d="M1032.5,308c0-1.4,0-2.9,0-4.3C1032.9,305.1,1032.9,306.5,1032.5,308z"/>
			<path class="st89" d="M950.2,226.9c-0.7,0.3-1.4,0.2-2.1,0.2C948.8,226.6,949.5,226.9,950.2,226.9z"/>
			<path class="st89" d="M698.9,199.7c0.3,0.1,0.5,0.3,0.5,0.6c-0.2,0.2-0.3,0.4-0.3,0.7C698.9,200.6,698.5,200.2,698.9,199.7z"/>
			<path class="st89" d="M1037.6,215.5c0.2,0.3-0.3,0.8,0.3,0.9c0.1,0.1,0.2,0.2,0.4,0.3C1037.4,216.7,1037.1,216.3,1037.6,215.5z"
				/>
			<path class="st89" d="M960.5,385c0.6-0.3,1.2-0.3,1.8-0.2C961.8,385.3,961.1,385,960.5,385z"/>
			<path class="st89" d="M1032.2,313.2c0-0.6,0-1.2,0.2-1.8C1032.3,312,1032.6,312.6,1032.2,313.2z"/>
			<path class="st89" d="M763.4,218.5c0.3,0.3,0,1.2,0.8,1.1C762.9,220.1,763.6,219,763.4,218.5z"/>
			<path class="st89" d="M803.1,226.9c-0.6,0.3-1.2,0.2-1.9,0.2C801.8,226.6,802.5,226.9,803.1,226.9z"/>
			<path class="st89" d="M961.2,227.1c-0.6,0-1.2,0-1.8-0.2C959.9,226.9,960.6,226.6,961.2,227.1z"/>
			<path class="st89" d="M1032.4,300.5c-0.2-0.6-0.3-1.2-0.2-1.8C1032.6,299.2,1032.3,299.9,1032.4,300.5z"/>
			<path class="st89" d="M800.3,384.8c0.5,0,1.1-0.1,1.6,0.2C801.4,385,800.8,385.2,800.3,384.8z"/>
			<path class="st89" d="M906.4,192c0,0.1,0.1,0.2,0.1,0.3c0,0.5,0.5,0.3,0.7,0.5C906.6,192.8,905.9,192.9,906.4,192z"/>
			<path class="st89" d="M1038.8,200.7c0.1-0.2,0.3-0.3,0.6-0.3c0,0.4,0,0.9-0.2,1.3C1039.1,201.3,1039.2,200.9,1038.8,200.7z"/>
			<path class="st89" d="M1039.1,202.7c0,0.5,0,1.1-0.2,1.5C1038.9,203.7,1038.6,203.2,1039.1,202.7z"/>
			<path class="st89" d="M762.6,209c0.2,0.5,0.2,1,0.2,1.5C762.4,210.1,762.6,209.5,762.6,209z"/>
			<path class="st89" d="M730.3,312.8c0.3,0.5,0.2,1,0.2,1.6C730.1,313.9,730.3,313.3,730.3,312.8z"/>
			<path class="st89" d="M762.9,212.2c0.2,0.5,0.3,1,0.2,1.5C762.7,213.3,762.9,212.7,762.9,212.2z"/>
			<path class="st89" d="M763.1,215.4c0.3,0.5,0.3,1,0.2,1.6C762.9,216.5,763.2,215.9,763.1,215.4z"/>
			<path class="st89" d="M726.8,217.9c0.5,0,1.1,0,1.6,0.2C727.8,218.1,727.2,218.3,726.8,217.9z"/>
			<path class="st89" d="M734.2,218.1c0.5-0.3,1-0.2,1.6-0.2C735.3,218.3,734.7,218.1,734.2,218.1z"/>
			<path class="st89" d="M814.3,227.1c-0.5,0-1.1,0.1-1.6-0.2C813.3,226.9,813.8,226.7,814.3,227.1z"/>
			<path class="st89" d="M1032.1,297.3c-0.3-0.5-0.3-1-0.2-1.5C1032.3,296.2,1032.1,296.8,1032.1,297.3z"/>
			<path class="st89" d="M730.5,297.8c0,0.5,0,1-0.2,1.5C730.3,298.8,730.1,298.3,730.5,297.8z"/>
			<path class="st92" d="M850.3,281.5c1.1,0,2,0,2.8,0c8.3,0,16.6,0,24.9,0c1.6,0,2.4,0.4,2.7,2c0.1,0.5,0.1,1.2,0.7,1.6
				c1.5-5.5,3.6-10.7,6.3-15.7c3.2-6.1,7.2-11.5,11.8-16.6c6.2-6.8,13.5-12.2,21.7-16.3c7.3-3.6,15-6.1,23.2-7.1
				c3.7-0.5,7.5-0.9,11.2-0.8c10.1,0.3,19.8,2.2,29.1,6.3c7.6,3.4,14.5,7.9,20.7,13.5c6.5,5.8,11.6,12.6,15.8,20.2
				c4.3,7.9,7.1,16.3,8.5,25.1c0.9,5.3,1.2,10.6,0.9,15.9c-0.7,11.7-3.6,22.9-9.2,33.2c-4.2,7.8-9.5,14.7-16,20.6
				c-10.6,9.6-22.9,15.8-37,18.5c-5.8,1.1-11.6,1.5-17.5,1.2c-11.4-0.7-22.3-3.6-32.3-9.2c-5.1-2.8-9.8-6.2-14.2-10
				c-7.5-6.6-13.3-14.5-17.8-23.4c-2.2-4.4-4-9-5.3-13.9c-0.7,0.7-0.6,1.5-0.8,2.2c-3.2,10.2-8.1,19.4-15.1,27.5
				c-8.7,10.1-19.2,17.6-31.7,22.2c-6.6,2.4-13.4,3.8-20.4,4.4c-14.1,1.1-27.4-1.8-39.9-8.1c-8.4-4.3-15.6-10.1-21.9-17
				c-4.5-4.9-8.2-10.4-11.2-16.4c-3.8-7.5-6.3-15.3-7.6-23.6c-0.9-5.7-1.1-11.4-0.8-17.1c0.4-7.7,2.1-15.2,4.8-22.4
				c2.9-7.6,6.7-14.6,11.8-20.9c6.1-7.7,13.4-14,21.9-18.9c6.1-3.5,12.6-6.1,19.4-7.8c4.5-1.1,9.1-1.7,13.7-2
				c9.7-0.7,19.2,0.7,28.3,3.8c9.3,3.1,17.6,7.9,25,14.4c4.9,4.3,9.3,9.1,13.1,14.5c0.6,0.8,0.6,1.3-0.1,1.9
				c-2.5,2.2-4.9,4.5-7.4,6.7c-2.7,2.5-5.5,4.9-8.2,7.4C853.1,278.8,851.7,279.8,850.3,281.5z"/>
			<path class="st93" d="M1064.1,102.9c3.9,0.8,7.7,1.6,11.6,2.4c5.3,1.1,10.6,2.1,15.9,3.1c1,0.2,1.3,0.6,1.4,1.4
				c1.9,8.7,3.7,17.3,5.6,26c1.8,8.2,3.6,16.4,5.5,24.6c0.9-3,1.8-6.1,2.4-9.2c1.3-4.9,2.5-9.8,3.8-14.6c1.5-5.8,2.9-11.6,4.4-17.3
				c0.4-0.4,0.9-0.2,1.4-0.1c6.5,1.5,13.1,2.8,19.6,4.2c1.8,0.4,2,0.7,1.4,2.5c-5.1,14.9-10.1,29.8-15.3,44.7
				c-1.6,4.5-3.1,9-4.6,13.5c-4.1,12-8.3,24-12.2,36.1c-0.5,1.6-1.1,3.1-1.7,4.6c-0.2,0.5-0.3,1.2-1.1,0.9c-4.8-1.4-9.5-2.7-14.3-4
				c-0.9-0.2-0.7-0.9-0.7-1.4c-0.1-4-0.2-8-0.3-12c-0.4-15.4-0.7-30.8-1.1-46.1c0-0.1,0-0.2,0-0.3c-0.3-1.3,0.2-2.6-0.4-4
				c-2,1.8-4,3.2-4.5,6.3c-2.3,13.3-4.8,26.6-7.2,39.8c-0.1,0.8,0.1,2.1-1.5,2c-4.9-0.7-9.7-1.4-14.6-2.2c-0.7-0.1-0.8-0.5-0.8-1.1
				c0.4-4.2,0.9-8.5,1.3-12.7c0.1-0.8,0.6-1.2,1.1-1.6c7.8-6.8,13.2-15.2,15.2-25.4c2.4-12.4-0.5-23.3-9.6-32.3
				c-0.6-0.5-0.7-1-0.7-1.8c0.5-4.6,0.9-9.1,1.4-13.7c0.2-2.1,0.3-2.1-1.8-2.7c-1.5-0.4-3-0.8-4.5-1.1c-0.7-0.2-1-0.5-1-1.3
				c0.2-2.4,0.3-4.7,0.4-7.1c0-0.9,0.4-0.9,1.1-0.8C1061.2,102.4,1062.6,102.9,1064.1,102.9z"/>
			<path class="st94" d="M1102.2,225.7c0.7-0.1,0.7-0.7,0.8-1.1c3.1-9.2,6.3-18.4,9.4-27.6c4.5-13.1,8.9-26.2,13.4-39.2
				c2.9-8.5,5.8-17,8.7-25.5c0.8-2.3,1.6-4.7,2.4-7c0.3-0.9,0.2-1.2-0.8-1.4c-7.1-1.5-14.2-3-21.3-4.6c0.4-1.5,0.7-3,1-4.5
				c0.1-0.6,0.4-0.7,1-0.6c8,1.7,16,3.4,24,5.1c1.2,0.3,0.9,0.9,0.6,1.6c-5.3,15.5-10.6,31-15.8,46.5c-0.1,0.4-0.3,0.8-0.4,1.2
				c-2.9,8.4-5.8,16.9-8.7,25.3c-3.5,10.4-7.1,20.7-10.5,31.1c-0.5,1.4-1.1,1.7-2.3,1.2C1103.2,226,1102.7,225.9,1102.2,225.7z"/>
			<path class="st95" d="M972.8,127.6c1-5.2,1.9-10.5,2.9-15.7c1.1-5.7,2.1-11.3,3.2-17c0.5-0.5,1.2-0.4,1.8-0.4c3.3,0,6.7,0,10,0
				c2.1,0,2.4,0.2,2.7,2.4c1.2,7.5,2.4,15,3.6,22.5c1,6.6,2.1,13.2,3.2,19.8c0.3,1.5-0.1,2.6-1.1,3.8c-5.5,6.6-9.2,14.2-10,22.8
				c-1.1,10.8,2,20.4,9.8,28.2c2.8,2.8,6.1,5,9.7,6.6c0.4,0.2,0.9,0.4,1.2,0.8c0.2,0.3,0.4,0.7-0.2,0.8c-3.8-0.5-7.6-1.1-11.3-1.6
				c-2.5-0.4-5-0.7-7.5-1.1c-1-0.1-1.6-0.5-1.7-1.6c-1.1-7.7-2.4-15.5-3.6-23.2c-1-6.3-1.9-12.5-2.9-18.8c-0.1-0.4-0.1-0.7-0.6-0.6
				c-0.6,1.1-1.7,1.8-2.6,2.7c-0.9,0.9-1.5,1.8-2,3c-1.7,4.4-3.5,8.9-5.3,13.3c-0.2,0.6-0.4,1.3-1.2,1.6c-0.5,0-0.6-0.4-0.8-0.8
				c-2.2-4.3-4.2-8.7-6.3-13c-1.8-3.7-3.5-7.4-5.3-11.1c-0.4-0.4-0.2-1.5-1.2-1.3c-3.1,1.9-4.2,4.8-4.7,8.3
				c-1.1,7.9-2.5,15.8-3.8,23.8c-0.1,0.9-0.2,1.9-1.5,2c-3.3-0.4-6.7-0.7-9.8-1.8c-2.8-0.7-5.6-1.1-8.4-1.5
				c-1.2-0.2-1.8-0.5-1.5-1.9c1.1-5.7,2-11.4,3-17.1c0.1-0.8,0.5-1.5,1.2-2.1c3-2.9,6-5.9,9-8.9c0.6-0.6,0.6-0.9-0.1-1.4
				c-2-1.7-4-3.5-6-5.2c-0.6-0.5-0.9-0.9-0.7-1.8c1.9-10.5,3.7-21,5.5-31.5c0.6-3.4,1.2-6.8,1.8-10.3c0.5-0.5,1.2-0.4,1.8-0.4
				c5.8,0,11.5,0,17.3,0c1.9,0,2.2,0.3,2.5,2.2c1.8,9.5,3.6,18.9,5.4,28.4c0.1,0.4-0.1,1.1,0.5,1.2c0.4,0.1,0.7-0.5,1-0.7
				C970.7,129.7,971.6,128.6,972.8,127.6z"/>
			<path class="st95" d="M853,117.3c0.7-0.8,1.4-1.6,2.1-2.3c4.2-4.1,9.4-6.2,14.8-7.9c5.7-1.8,11.6-2.5,17.5-2
				c8.3,0.6,15.8,3.5,22.3,9c1.2,1,2.5,2,3.4,3.4c0.3,0.4,0.8,0.8,0.4,1.4c-6.2,6.4-12.4,12.9-18.6,19.3c-2.8,2.9-5.6,5.9-8.4,8.8
				c-0.4,1.2-1.6,1.8-2.3,2.7c-0.4,0.5-1,0.8-1.3,1.6c2-0.1,4-0.4,5.9-0.7c6.4-1.1,11.4-4.7,16-9.1c0.2-0.2,0.4-0.3,0.6-0.5
				c0.6-0.4,1,0.1,1.4,0.4c2.9,2.4,5.7,4.9,8.5,7.4c1.9,1.7,3.9,3.3,5.8,5.1c0.4,0.4,1,0.7,0.7,1.4c-5.7,4.8-12.3,8.1-19.4,10.4
				c-2.3,0.8-4.7,1.4-7.1,2.1c-4.6,0.9-9.3,1.6-14,1.4c-9.9-0.5-18.8-3.5-25.9-10.7c-0.8-0.8-1.5-1.6-2.2-2.5
				c-2.9-4.1-4.8-8.5-5.6-13.5c-1.4-8.9,0.2-17,5.3-24.4C852.8,117.7,852.9,117.5,853,117.3z"/>
			<path class="st96" d="M957.4,148.9c1,0.2,0.9,1.1,1.2,1.7c0.3,2.3,0.1,4.5,0.1,6.8c0,8.7,0,17.3,0,26c0,1-0.5,2,0.1,3
				c-0.3,2.1-0.6,4.3-0.9,6.4c-0.1,0.8-0.5,1.3-1.4,1.1c-6.2-1-12.4-2-18.6-2.9c-0.6-0.4-0.6-0.9-0.6-1.5c0-2.6,0-5.2,0-7.7
				c2.7,0.4,5.4,0.8,8.1,1.2c0.6,0.1,1.1,0.2,1.7,0.2c1.1,0.1,2.2,0,3.3,0.2c1,0.2,1.1-0.6,1.2-1.3c0.4-2.3,0.8-4.7,1.2-7
				c1.3-8.1,2.6-16.2,4-24.4C956.9,150.1,957,149.5,957.4,148.9z"/>
			<path class="st97" d="M913.5,118.7c-0.5-1.3-1.4-2.2-2.4-3.1c-6.2-5.7-13.4-9.2-21.8-10.1c-8.6-0.9-16.7,0.4-24.6,3.8
				c-3.5,1.4-6.5,3.5-9.6,5.6c3.5-4.1,7.8-7,12.6-9.4c2.1-1,4.4-1.8,6.6-2.6c4.4-1.2,8.8-2.1,13.4-2.2c10.7-0.2,20.2,3,28.2,10.4
				c0.6,1.1,2.4,1.7,2.2,2.8c-0.2,1-1.6,1.9-2.4,2.8C914.9,117.4,914.2,118,913.5,118.7z"/>
			<path class="st98" d="M972.8,127.6c0.1,0.4-0.1,0.6-0.4,0.9c-1.2,1.2-2.4,2.4-3.6,3.6c-0.6,0.6-0.8,0.4-1-0.4
				c-1.1-5.9-2.2-11.7-3.2-17.6c-0.8-4.2-1.6-8.3-2.3-12.5c-0.2-1.1-0.5-1.6-1.8-1.6c-6.4,0.1-12.9,0.1-19.3,0.1
				c0.2-1.4,0.4-2.9,0.6-4.3c0.7,0,1.4-0.1,2.2-0.1c7.1,0,14.1,0,21.2,0c1.2,0,1.6,0.4,1.8,1.5c1.8,10,3.7,19.9,5.6,29.9
				C972.6,127.2,972.5,127.4,972.8,127.6z"/>
			<path class="st99" d="M921.6,155.1c-0.1-0.2-0.1-0.5-0.3-0.7c-4-3.5-8.1-7-12.1-10.5c-1.3-1.1-2.3-2.4-3.9-3.1
				c1.4-1.4,2.8-2.8,4.2-4.2c0.5-0.5,0.7-0.4,1.2,0c5.1,4.5,10.2,8.9,15.3,13.4c0.5,0.4,0.7,0.7,0.1,1.2
				C924.6,152.5,923.3,154,921.6,155.1z"/>
			<path class="st100" d="M927.4,120c-0.8,4.7-1.5,9.4-2.3,14.1c-0.1,0.8-0.5,0.8-1.1,0.3c-1.8-1.6-3.6-3.1-5.4-4.7
				c-0.4-0.3-0.6-0.6-0.1-1c2.9-2.9,5.7-5.8,8.5-8.7C927.1,120,927.2,120,927.4,120z"/>
			<path class="st97" d="M904.7,141.3c-3.8,4.6-8.5,7.6-14.3,9.1c-2.4,0.6-4.9,1-7.4,1.2c-0.3,0-0.8,0.2-0.9-0.3
				c0-0.2,0.2-0.5,0.4-0.7c1.3-1.3,2.6-2.5,3.8-3.7c6.3,0.2,12.2-1.4,17.4-5C904.2,141.6,904.4,141.4,904.7,141.3z"/>
			<path class="st95" d="M1042.3,189c-3.4,1-6.8,2.1-10.3,2.4c-3.3,0.3-6.5,0.1-9.7-0.6c-0.3-0.1-0.6,0-0.9,0
				c-3.2-1.1-6.5-2.3-9.2-4.4c-7.5-5.8-10.9-13.5-10.3-22.9c0.6-8.6,4.3-15.7,10.2-21.8c5-4.3,10.8-6.7,17.3-7.8
				c7.9-1.3,15.3-0.2,22.1,4.3c6,4,9.6,9.7,10.7,16.7c1.6,10.2-1.4,19.1-8.2,26.8C1050.5,185,1046.5,187.1,1042.3,189z"/>
			<path class="st98" d="M1009.4,202.1c0.6-0.8-0.3-0.9-0.6-1c-4.3-1.9-8.1-4.5-11.3-7.9c-4.7-5.1-7.7-11.1-8.7-18
				c-1.6-11.6,1.8-21.9,8.8-31.1c0.2-0.2,0.3-0.5,0.5-0.7c2.4-1.6,1.8-3.9,1.4-6.1c-1.3-7.8-2.5-15.7-3.8-23.5
				c-0.9-5.9-1.9-11.8-2.8-17.7c-0.2-1-0.5-1.3-1.5-1.3c-4.2,0-8.3,0-12.5,0c0.2-1.4,0.4-2.9,0.6-4.3c2.5-0.3,4.9-0.1,7.4-0.1
				c3.1,0,6.3,0,9.4,0c0.7,0,1.1,0.1,1.2,1c1.8,11.6,3.7,23.3,5.5,34.9c0.5,2.9,0.9,5.8,1.5,8.7c0.2,1.2-0.1,2.1-0.9,3
				c-4.5,5.3-7.7,11.3-9.5,18c-4.4,16.7,3.5,33.5,19.2,40.6c0.6,0.3,1,0.6,1.1,1.3c0.2,1.4,0.4,2.9,0.7,4.3c0.1,0.7-0.2,0.8-0.8,0.7
				C1012.7,202.7,1011.1,202.4,1009.4,202.1z"/>
			<path class="st26" d="M958.8,186.4c-0.7-0.1-0.5-0.7-0.5-1.2c0-11.1,0-22.2,0-33.3c0-0.5,0.1-1,0.3-1.4
				c2.6,5.4,5.2,10.7,7.8,16.1c1.5,3,2.9,6,4.4,9c0.8,0.6,0.9,1.7,1.6,2.4c0.5-0.2,0.5-0.7,0.6-1.1c1.6-4.2,3.3-8.4,5-12.6
				c0.2-0.5,0.3-1.1,1-1.3c0.3-0.1,0.6-0.2,0.6,0.3c0,0.7,0,1.5,0,2.2c0,10.1,0,20.1,0,30.2c0,1.4,0.1,2.9-0.3,4.3
				c-0.6-2-0.6-4.1-0.8-6.1c-0.3-2.3-0.6-4.5-1.2-6.9c-2.1,3.9-4.1,7.7-6.4,11.9c-3.6-6.4-7.1-12.7-10.8-19.3
				C959.1,182.1,959.1,184.3,958.8,186.4z"/>
			<path class="st98" d="M1053.9,181.7c1.6-2.5,3.3-4.8,4.7-7.5c2.8-5.5,4.1-11.2,3.4-17.3c-0.9-8.3-4.7-14.8-11.9-19.2
				c-5.4-3.3-11.4-4.5-17.7-4c-7,0.6-13.5,2.9-19.2,7.1c-0.4,0.3-0.7,0.7-1.3,0.7c2.7-3.1,6.1-5.5,9.6-7.6c4.3-2.2,8.8-3.8,13.6-4.4
				c2.4-0.3,4.9-0.2,7.3-0.2c6,0.7,11.4,2.7,16,6.8c5.3,4.8,8,10.8,8.2,17.9C1067.1,165.4,1062.2,174.4,1053.9,181.7z"/>
			<path class="st99" d="M978.9,163.2c-1.8,4.3-3.5,8.7-5.3,13c-0.4,0.9-0.8,1.9-1.3,3.1c-0.6-1.4-1.1-2.5-1.6-3.6
				c1.4-2.2,2.1-4.8,3.1-7.2c1.1-2.6,2.1-5.3,3.1-7.9c0.9-2.4,2.9-3.8,4.8-5.2c-0.5,2.2-1.6,4.2-2.4,6.4
				C979.3,162.2,979.1,162.7,978.9,163.2z"/>
			<path class="st97" d="M1072.2,205.9c0.7-0.1,0.8-0.5,0.9-1.1c2-11.3,4.1-22.7,6.1-34c0.5-2.8,1.1-5.6,1.6-8.4
				c0.2-1,0.6-1.8,1.4-2.4c1.2-1,2.3-2,3.7-3.3c0,1.8,0,3.4,0,5c-0.4-1-0.1-2.1-0.5-3.2c-0.3,1.6-0.6,3.2-0.9,4.8
				c-2.5,14-5.1,27.9-7.6,41.9c-0.2,0.9-0.5,1.4-1.6,1.1C1074.3,206.2,1073.3,206.1,1072.2,205.9z"/>
			<path class="st19" d="M1044.6,121.3c1.1-1,2.6-1.4,3.9-2.1c0.5-0.3,0.9-0.5,1.4-0.8c2.5,0.6,5,1.2,7.5,1.7c0.1,0.3,0,0.6-0.3,0.7
				c-1.5,0.8-2.9,1.8-4.7,2.2C1049.9,122.4,1047.3,121.5,1044.6,121.3z"/>
			<path class="st101" d="M1052.5,123c1.1-0.9,2.5-1.3,3.7-2c0.5-0.3,1-0.4,1.3-0.9c0.5,1.5-0.1,3-0.3,4.5c-0.1,0.6-0.4,0.3-0.8,0.2
				C1055.1,124.2,1053.8,123.6,1052.5,123z"/>
			<path class="st93" d="M620.9,139.3c-2,0.7-2,0.7-3.2-1.3c-4.3-7-8.6-14-12.8-21c-0.2-0.3-0.3-0.6-0.5-0.9c-0.3-1,0.5-1.1,1.1-1.4
				c3.6-2.2,7.5-3.8,11.4-5.5c10.5-4.5,21.4-7.8,32.7-9.3c3.3-0.4,6.6-0.8,10-0.8c1.6,0,3.2,0,4.8,0c7,0.3,14.1,0.8,20.7,3.4
				c8.7,3.5,16.2,8.8,20.8,17.3c2.5,4.6,3.6,9.6,3.3,14.8c-0.2,0.5-0.2,1-0.2,1.5c-0.4,4.5-1.7,8.7-3.6,12.7
				c-1.9,4.1-4.3,8-7.3,11.4c-4.9,5.4-10.6,9.7-16.8,13.4c-0.7,1.3-2,1.9-3.2,2.6c-1.1,0.7-1.4,1.5-1,2.8c4,14.1,7.8,28.2,11.7,42.4
				c0.2,0.8,0.7,1.7,0,2.5c-4.9,1.5-9.8,3.1-14.7,4.6c-0.9,0.3-1.2-0.2-1.5-0.8c-2.7-5.9-5.4-11.8-8.2-17.7
				c-0.2-0.4-0.4-0.8-0.6-1.1c-0.9-0.9-1.3-2-1.8-3.1c-4.6-10-9.2-20-13.8-29.9c-6-13-11.9-26-18-38.9c-0.6-1.4-0.6-1.4-2-0.7
				c-1.9,0.9-3.8,2-5.8,2.7C621.8,139.1,621.4,139.4,620.9,139.3z"/>
			<path class="st28" d="M620.9,139.3c2.7-1.3,5.4-2.6,8-4c1-0.5,1,0.4,1.2,0.8c3.5,7.5,6.9,15,10.4,22.5
				c7.5,16.3,15.1,32.7,22.6,49c0.2,0.4,0.3,0.8,0.5,1.2c-0.5,0.4-0.3,1-0.3,1.5c0,4.9,0,9.8,0,14.6c0,2.1,0.1,4.2-0.3,6.3
				c-1.9-3.4-3.4-7.1-5-10.6c-4-8.6-8-17.3-12-25.9c-0.5-1-0.8-2.2-1.5-3.1c-0.5-1.5-1.2-3-2.1-4.4c-0.5-1.9-1.5-3.5-2.3-5.2
				c-0.4-1.4-1.2-2.5-1.7-3.8c-0.6-1.3-1.2-2.5-1.7-3.8c-0.5-1.4-1.1-2.8-2-4.1c-0.1-1.3-1.1-2.3-1.5-3.5c-0.5-1.2-0.9-2.4-1.7-3.5
				c-0.3-1.2-0.8-2.2-1.5-3.2c-0.3-1.4-1.1-2.6-1.7-3.8c-0.2-0.9-0.7-1.8-1.2-2.6c-0.2-1-0.8-1.7-1.2-2.6c0.1-0.7-0.9-1-0.9-1.7
				c-0.2-0.3-0.3-0.8-0.9-0.6c-1.2,0-2.1,1-3.2,1.2C620.9,146.5,620.9,142.9,620.9,139.3z"/>
			<path class="st102" d="M659.3,99.5c-8.9,0.1-17.6,1.8-26.2,4.2c-8.8,2.5-17.2,5.9-25.3,10.1c-1.2,0.6-2.7,1-3.5,2.3
				c-1.2-1.7-1.2-1.7,0.4-2.6c4.7-2.8,9.7-5.4,14.7-7.6c0.4-0.2,0.8-0.4,1.1-0.6c5.9-2.4,11.8-4.6,18-6.4c8-2.3,16.2-3.5,24.5-4.1
				c4.2,0.1,8.4,0.2,12.6,0.5c11.1,0.9,20.8,4.9,29,12.6c3.4,3.7,6.2,7.8,7.6,12.7c2,7,1,13.9-1.6,20.6c-1.5,4-3.7,7.7-6,11.2
				c-2.1,2.7-4.1,5.5-6.7,7.9c0.8-1.7,2.2-3.1,3.2-4.8c3.6-5.7,6.2-11.7,7.2-18.4c0.1-0.3,0-0.7,0-1c0.3-0.4,0-1,0.3-1.5
				c0.2-12.5-5.9-21.4-16.2-27.9c-4.2-2.6-8.5-4.7-13.4-5.7c-3.3-0.6-6.5-1.1-9.8-1.4c-1.6-0.2-3.2-0.2-4.8-0.3
				C662.8,99.2,661,99.2,659.3,99.5z"/>
			<path class="st97" d="M688.7,223.9c-0.2-2.8-1.3-5.3-2-8c-2.8-10.3-5.6-20.6-8.5-30.9c-0.6-2.2-1.2-4.5-1.9-6.7
				c-0.3-0.8-0.1-1.4,0.6-1.8c1.4-0.9,2.8-1.9,4.2-2.8c3.1,11.7,6.3,23.4,9.4,35.2c1.1,4.1,2.2,8.2,3.3,12.3
				c0.2,0.8,0.2,1.3-0.8,1.5C691.6,222.9,690.1,223.4,688.7,223.9z"/>
			<path class="st35" d="M706.1,193.4c-2.6,1-4.9,2.4-7.3,3.5c-0.3,0.2-0.5,0.5-0.5,0.8c-0.7-1.8-1.2-3.6-1.5-5.5
				c2-1.2,4.2-2.2,6.4-3.2c0.3-0.1,0.6-0.2,0.9,0c0.2,0.6,0.3,1.1,0.9,1.5C705.3,191.5,705.7,192.4,706.1,193.4z"/>
			<path class="st103" d="M693.6,180.6c-0.1-0.4-0.2-0.7-0.4-1.1c-0.4-1-0.3-1.7,0.7-2.4c2.4-1.7,4.7-3.5,6.9-5.6
				c0.2-0.2,0.4-0.5,0.7-0.4c0.4,0.2,0.3,0.6,0.2,0.9c-0.5,1.7-0.1,3.4-0.2,5.1c-2.2,1.3-4.6,2.4-6.9,3.5
				C694.3,180.8,693.9,180.9,693.6,180.6z"/>
			<path class="st104" d="M695.6,187.9c-0.6-1.3-0.9-2.7-1.1-4.1c0.1-0.4,0.5-0.6,0.8-0.8c1.7-0.8,3.3-1.7,5.1-2.5
				c0.4-0.2,0.9-0.5,1.4-0.2c0.3,1.5,0.6,3.1,0.9,4.6c-1.9,1.1-3.9,2-5.8,3C696.4,188.1,696,188.2,695.6,187.9z"/>
			<path class="st105" d="M695.6,187.9c1.8-0.3,3.2-1.5,4.9-2.1c0.7-0.3,1.3-0.8,2.2-0.8c0.5,1.3,1.1,2.7,1.4,4.1
				c-2,0.7-3.7,1.8-5.6,2.6c-0.6,0.3-1.1,0.6-1.7,0.6C696.2,190.8,695.8,189.4,695.6,187.9z"/>
			<path class="st106" d="M701.8,180.3c-2.4,1.2-4.8,2.3-7.3,3.5c-0.4-1-0.7-2.1-0.9-3.2c2.2-0.8,4.1-2,6.2-3c0.5-0.2,1-0.6,1.6-0.5
				C701.5,178.2,701.9,179.2,701.8,180.3z"/>
			<path class="st95" d="M874.3,85.4c0-0.2,0-0.5,0-0.7c3.3-3.8,6.6-7.6,9.9-11.4c3-3.5,6-7,9-10.4c0.7-0.4,1,0.1,1.3,0.5
				c2.8,3.6,5.6,7.2,8.3,10.9c0.3,0.4,0.7,0.7,0.3,1.3c-8.6,4.1-17.2,8.3-25.7,12.4c-0.8,0.4-1.1,0.2-1.5-0.5
				C875.3,86.8,874.8,86.1,874.3,85.4z"/>
			<path class="st99" d="M903,75.5c-1-2.2-2.8-3.9-4.1-5.8c-1.5-2.1-3.1-4.1-4.7-6.2c-0.3-0.3-0.5-0.7-1-0.7
				c1.3-1.5,2.6-3.1,3.9-4.6c0.4-0.5,0.7-0.6,1.2,0c3.6,4.8,7.2,9.5,10.9,14.4C907,73.6,905,74.6,903,75.5z"/>
			<path class="st95" d="M726.2,199.8c-4.5-2.2-8.3-5.1-11.1-9.3c-6-9.1-6.1-18.8-2.2-28.6c2-4.9,4.9-9.3,8.7-13
				c1.7-1.2,3.3-2.5,5.2-3.4c9.4-4.8,19.1-6.6,29.2-2.9c10.3,3.8,16.2,11.3,17.6,22.2c1.3,10.3-2.3,19.2-8.6,27.2
				c-0.2,0.2-0.3,0.4-0.4,0.6c-1.6,2-3.8,3.2-6,4.5c-6.4,3.9-13.3,5.9-20.8,5.8c-3.2-0.1-6.4-0.6-9.5-1.8
				C727.5,200.7,726.8,200.3,726.2,199.8z"/>
			<path class="st21" d="M726.2,199.8c4.3,1.7,8.7,2.7,13.3,2.6c9.5-0.4,17.7-3.8,24.9-10c1-1,1.9-2,2.8-3c0.4-0.4,0.9-1.2,1.6-0.4
				c0.2,0.3,0.3,0.6,0.3,1c0,3.5,0.2,6.9-0.1,10.4c-1.7,1.8-3.9,3.2-6,4.4c-6.8,4.1-14.2,6.4-22.2,6.7c-4.9,0.2-9.6-0.3-14.2-1.9
				c0-2.7,0-5.4,0-8.1C726.5,200.9,726.5,200.3,726.2,199.8z"/>
			<path class="st98" d="M768.3,188.7c-1.4,1.2-2.5,2.7-4,3.7c2.2-2.8,4.1-5.7,5.7-8.9c2.6-5.3,3.9-10.8,3.6-16.7
				c-0.8-12.9-9.1-22.7-22.1-25.2c-10.2-1.9-19.4,0.7-27.9,6.3c-0.5,0.4-1,0.9-1.8,0.9c1.4-1.8,3.4-3.1,5-4.7
				c3.3-2,6.5-4.1,10.2-5.4c10-3.5,19.7-3.5,29.1,2.2c0.8,0.5,1.5,1,2.3,1.5c1.1,0.4,1.9,1.2,2.7,1.9c4.1,4.4,6.6,9.5,7.4,15.5
				c1.2,9.4-1.6,17.7-6.9,25.3C770.5,186.5,769.7,187.9,768.3,188.7z"/>
			<path class="st95" d="M810.8,104.7c2.1-2.8,4.2-5.6,6.4-8.4c0.5-0.2,0.8,0.2,1.1,0.5c3,2.6,5.9,5.3,8.8,8
				c3.9,3.6,7.9,7.1,11.7,10.8c0.3,0.3,0.9,0.5,0.8,1.1c-2.5,2.6-5,5.1-7.4,7.7c-0.3,0.3-0.6,0.7-0.9,1.1c-1.3,1.9-3,3.5-4.6,5.2
				c-3.6,3.8-7.4,7.5-11.1,11.2c-1.1,1.1-1.9,2.4-3,3.3c-1,1.2-2.2,2.3-3.3,3.4c-0.7,0.7-0.6,1,0.3,1.3c5.2,1.9,10.3,4,15.4,6
				c3.8,1.4,7.6,3,11.4,4.4c1,0.4,1.7,1,2.3,1.9c6.5,10.7,16.3,16.7,28.3,19.4c1.7,0.4,3.5,0.8,5.3,0.9c1.2,0.1,1.7,0.7,1.7,1.9
				c0,3.8,0,7.7,0,11.5c0,0.5,0.2,1.2-0.7,1.3c-5.6-2.7-11.2-5.4-16.7-8c-1.1-0.5-2.2-1-3.3-1.5c-1.4-0.1-2.6-0.8-3.7-1.4
				c-11.5-5.7-23.1-11.1-34.6-16.8c-1.2-0.6-2.6-0.8-3.6-1.8c-2.4-1.7-5.2-2.6-7.8-4c-0.6-0.3-1.3-1-2.1-0.7
				c-0.4,1.2-1.3,1.9-2.3,2.6c-1.4,1-2,2.3-1.9,4.1c0.1,8.3,0,16.5,0,24.8c0,2,0.4,4,0.3,6.1c-0.1,0.7-0.1,1.5-1,1.7
				c-2.2,0.3-4.5,0.6-6.7,1c-2.5,1-5.1,1.1-7.7,1.3c-0.8,0.1-0.8-0.7-0.9-1.3c-0.4-3.2-0.3-6.4-0.9-9.5c-0.7-4,0.5-7.2,2.2-10.8
				c4.7-10.1,5.5-20.6,1.4-31.2c-1.6-4-3.8-7.6-6.9-10.7c-0.9-0.9-1.4-2-1.5-3.2c-0.4-4.9-0.8-9.7-1.2-14.6
				c-0.4-4.7-0.8-9.4-1.2-14.2c-0.1-1.4-0.4-1.5-1.8-1.3c-0.8,0.2-1.6,0.6-2.4,0.3c-1.2,0-2.3,0.5-3.4,0.8c-0.9,0.2-1.3,0.1-1.2-0.9
				c0-1.4,0-2.8,0-4.2c0.4-0.5,1-0.6,1.5-0.7c7.8-2.3,15.7-4.5,23.6-6.8c2-0.6,2.2-0.4,2.4,1.6c0.5,6.5,0.8,12.9,1.2,19.4
				c0.2,3.7,0.5,7.3,0.7,11c1.8-1.7,2.5-4.2,4.7-5.4c4-5.5,8-11,12-16.5C810.3,105.5,810.6,105.1,810.8,104.7z"/>
			<path class="st98" d="M873,196.9c0.5-0.3,0.3-0.9,0.3-1.3c0-3.8,0-7.6,0-11.3c0-1.1-0.4-1.5-1.5-1.6c-8.5-0.9-16.2-3.7-23.1-8.8
				c-4.5-3.3-8.1-7.3-10.9-12.1c-0.5-0.9-1.3-1.1-2.1-1.5c-9.2-3.6-18.4-7.1-27.6-10.7c-0.1-0.1-0.3-0.1-0.5-0.3
				c1.5-1.6,3-3.2,4.5-4.8c5.5,2.3,11.2,4.3,16.8,6.5c0.9,0.4,2,0.6,2.7,1.3c3,1.2,6,2.4,9,3.5c0.9,0.3,1.5,0.8,2,1.7
				c2.6,4.4,5.8,8.1,9.9,11.1c5.6,4.5,12,7.2,19,8.7c1.7,0.4,3.5,0.6,5.3,0.9c0.8,0.1,1,0.4,1,1.1c0,6.3,0,12.7,0,19
				c0,0.7,0,1.1-0.9,0.6C875.7,198.3,874.3,197.6,873,196.9z"/>
			<path class="st107" d="M811.1,167.2c0.3-0.1,0.5,0.1,0.8,0.2c13.6,6.6,27.1,13.1,40.7,19.7c0.1,0.1,0.2,0.1,0.4,0.2
				c0,2.9,0,5.8,0,8.7c0,0.6,0,1.2,0.3,1.7c-2.1-1-4.3-1.9-6.4-3c-10.9-5.2-21.9-10.5-32.8-15.8c-1.1-0.5-2.3-0.8-3.2-1.6
				c0-2.8,0-5.7,0-8.5C810.8,168.3,810.8,167.8,811.1,167.2z"/>
			<path class="st108" d="M831.7,152.4c-4.5-1.7-9-3.4-13.5-5.1c-1.7-0.6-3.4-1.3-5.1-2c-0.4-0.1-1.1,0-0.9-0.8
				c6-6.1,11.9-12.1,17.9-18.2c0.3-0.3,0.7-0.7,1.1-1c0.8,0.2,0.5,0.8,0.6,1.3c0,2.9,0,5.7,0,8.6c0,0.6,0,1.3,0.3,1.8
				c-0.4,1.5-1.9,2.2-2.8,3.3c-0.3,0.3-0.7,0.5-1,0.9c0.8,1,2.5,0.6,3.2,1.8c0.5,0.8,0.3,1.7,0.3,2.5
				C831.8,147.9,831.7,150.1,831.7,152.4z"/>
			<path class="st98" d="M839.6,116.6c-2.9-2.7-5.8-5.4-8.7-8c-4.5-4.1-9.1-8.2-13.6-12.3c1.1-1.5,2.2-2.9,3.2-4.5
				c0.5-0.8,0.9-0.7,1.5-0.1c3.2,3,6.4,5.9,9.6,8.8c3.9,3.6,7.7,7.2,11.6,10.8c0.7,0.7,0.9,1,0.1,1.8
				C841.9,114.2,840.8,115.4,839.6,116.6z"/>
			<path class="st109" d="M831.5,143.1c-1.3-0.5-2.6-1-3.7-1.5c1.4-1.5,2.9-3.1,4.3-4.6c1.7-1.5,3.3-3,5.2-4.7
				c-0.3,4.5-0.1,8.8,0.7,13.2C835.7,144.6,833.6,143.9,831.5,143.1z"/>
			<path class="st110" d="M768.6,107.6c1.1-0.5,2.4-0.6,3.6-1c0.7-0.2,0.8,0.1,0.8,0.6c0.3,2.9,0.5,5.8,0.8,8.7
				c0.6,6.4,1.3,12.7,1.6,19.1c0.1,2.8,1.2,4.9,3,7c6.6,7.8,9,16.9,8,27c-0.6,6.3-2.6,12.2-5.8,17.7c-0.8,1.4-0.4,2.7-0.3,4.1
				c0.3,4,0.7,7.9,1,11.9c0.1,0.8,0.1,1.2,1.1,1c2.3-0.4,4.7-0.6,7-0.9c0,3.2,0,6.4,0,9.5c-3.9,0.6-7.8,1.2-11.7,1.8
				c-1.1,0.2-2.2,0.3-3.3,0.5c-0.8,0.1-1.2,0.1-1.3-0.9c-0.4-5.1-1-10.2-1.5-15.4c-1.1,0.6-1.8,1.7-2.9,2.1c-0.4-0.4-0.3-1-0.3-1.5
				c0-2.8,0-5.6,0-8.4c0-0.6,0-1.3-0.3-1.8c2.5-3.2,4.9-6.4,6.6-10.2c4-9,4.7-18.1,0.4-27.2c-1.6-3.5-4.2-6.2-7-8.8
				c0.6-0.4,0.3-1.1,0.3-1.6C768.6,129.8,768.6,118.7,768.6,107.6z"/>
			<path class="st99" d="M798,122.4c-1.6,2.1-3.1,4.1-4.8,6.3c-0.4-0.9-0.4-1.8-0.5-2.7c-0.3-6-0.6-12-1.1-18
				c-0.2-2.1-0.2-4.2-0.3-6.4c-0.1-1.7-0.2-3.4-0.3-5.1c0-0.8-0.4-0.8-1-0.6c-5.1,1.5-10.3,3-15.4,4.5c-3.5,1-7,2.2-10.6,3
				c-0.6-2.9-0.6-2.9,2.1-3.6c0.9-0.3,1.7-0.5,2.6-0.8c8.5-2.4,17.1-4.8,25.6-7.3c1.2-0.4,1.5-0.2,1.5,1.1
				c0.5,8.6,1.1,17.2,1.6,25.8c0.1,1,0,2,0.1,3C797.5,121.8,797.3,122.4,798,122.4z"/>
			<path class="st98" d="M796.3,201.8c0.7-0.4,0.6-1.2,0.6-1.8c-0.5-10.3-0.1-20.7-0.3-31c0-1.7,0.4-2.9,1.7-3.9
				c1-0.8,2-1.7,2.9-2.6c0.1,8.3,0.1,16.6,0.2,24.9c0,4.2,0.1,8.3,0.1,12.5c0,0.9-0.1,1.3-1.1,1.3
				C798.9,201.3,797.6,201.6,796.3,201.8z"/>
			<path class="st111" d="M624.1,148.9c0.9-0.7,0.7,0.2,0.9,0.6C624.7,149.3,624.4,149.1,624.1,148.9z"/>
			<path class="st112" d="M1040.3,109.9c1-0.3,2-0.3,3.1-0.1c1.1,0.2,2.3,0.4,3.4-0.3c0.9-0.5,1.9,0.1,2.8,0.1c0,1,0,1.9,0,2.9
				c-0.3,0.5-0.8,0.7-1.3,0.7c-2.1,0-4.2,0.2-6.3,0.3c-0.6,0-1.2,0-1.6-0.4C1040.3,112.1,1040.3,111,1040.3,109.9z"/>
			<path class="st113" d="M1040.3,113.1c2.8,0.1,5.5-0.5,8.3-0.3c0.3,0,0.6-0.2,1-0.3c0,2.6,0.7,3-2.9,2.9c-1.5,0-3.1,0.1-4.6,0.3
				c-1.8,0.2-1.8,0.1-1.8-1.7C1040.3,113.7,1040.3,113.4,1040.3,113.1z"/>
			<path class="st3" d="M1025.5,306.9c-0.1,29.9-18.9,57.3-47.6,67.1c-26.5,9.1-50.6,3.7-71.3-15.1c-12-10.8-19.2-24.6-21.8-40.5
				c-3.6-22.2,1.7-42.2,16.2-59.4c10.7-12.8,24.3-20.9,40.7-23.9c20.8-3.8,39.8,0.9,56.4,14c14.4,11.4,23,26.3,26.4,44.3
				c0.3,1.5,0.4,3,0.6,4.5C1025.4,300.6,1025.5,303.3,1025.5,306.9z"/>
			<path class="st3" d="M839.5,285.5c0.9,0,1.3,0,1.8,0c10.2,0,20.4,0,30.5,0c3.9,0,5.8,1.5,6.7,5.3c1.3,5.9,1.9,11.9,1.7,18
				c-0.4,10.7-2.9,20.9-8,30.4c-10.9,20.4-27.7,33.3-50.5,37.3c-26,4.5-48-3.8-65.6-23.4c-9.3-10.4-14.7-22.7-16.8-36.5
				c-4.5-29.9,11-60.1,37.9-73.9c11.3-5.8,23.3-8.5,36-7.7c19.5,1.2,35.8,9.2,48.9,23.7c1,1.1,2.9,2.2,2.7,3.5
				c-0.1,1.1-2,2.1-3.1,3.1c-7.1,6.4-14.2,12.9-21.3,19.3C840.3,284.8,840.1,285,839.5,285.5z"/>
			<path class="st99" d="M957.4,148.9c-0.6,3.9-1.2,7.7-1.8,11.6c-1.2,7.5-2.5,15-3.7,22.6c-0.1,0.9-0.3,1.2-1.3,0.9
				c-1.1-0.3-2.3-0.5-3.5-0.7c0.6,0,0.9-0.3,1-1c0.7-4.6,1.5-9.2,2.3-13.8c0.8-4.9,1.6-9.9,2.4-14.8c0.1-0.5,0.3-0.9,0.7-1.3
				C954.7,151.2,955.9,149.9,957.4,148.9z"/>
			<path class="st114" d="M869.9,120.4c3.9-3.8,8.6-5.8,14.1-5.5c4.6,0.2,8.5,1.8,11.9,5c0.6,0.6,0.8,1,0.1,1.7
				c-7.5,8.2-15,16.4-22.5,24.7c-0.8,0.9-1.3,0.3-1.9,0c-1.4-0.4-2.2-1.7-3.1-2.7c-5-6-5.2-15.9,0.1-22.2
				C869,121,869.3,120.5,869.9,120.4z"/>
			<path class="st99" d="M869.9,120.4c-3.6,4-5.3,8.6-4.7,13.9c0.4,3.7,1.9,7,4.4,9.7c0.7,0.7,1.4,1.4,2.1,2.2
				c-0.1,0.1-0.1,0.3-0.3,0.3c-3.5,2.3-2.6,3.1-5.6-0.7c-5.3-6.8-5.1-16.6,0.4-23.2c1-1.2,2-2.4,3.3-3.4
				C870,119.6,869.3,120.2,869.9,120.4z"/>
			<path class="st17" d="M1051.3,144c3.1,6.2,2.1,11.8-2.3,17c-2,2.6-4.8,4.1-7.9,4.9c-6.1,1.6-11.8,0.5-16.7-3.5
				c-5.7-4.7-7.5-13-3.3-19.2c0.5-0.7,1-1.4,1.8-1.9c3.8-3.8,8.4-5.6,13.7-5.5c0.7,0,1.5-0.1,2.2,0.5c-0.1,0.1-0.1,0.2-0.2,0.2
				c-3.1,0.7-5.5,2.6-7.4,5.1c-1.7,3.4-0.8,7.5,2.4,9.9c3.8,2.9,7.9,3.2,12.2,1.3c0.3-0.6,0.8-0.8,1.3-1.1c2.2-1.5,3.3-3.6,3.6-6.3
				C1050.7,144.9,1050.4,144.2,1051.3,144z"/>
			<path class="st97" d="M1022.9,141.3c-2,2.6-3.5,5.3-3.6,8.7c-0.2,7.2,4.5,13.6,11.6,15.5c6.8,1.8,12.9,0.4,18.1-4.4
				c-0.8,1.8-2.4,3-3.9,4.2c-2.9,2.6-6.2,4.4-10,5.2c-7.8,1.8-17.5-2.5-19.9-11.1c-0.9-3.1-0.7-6.1,0.6-9c1.4-3.1,3.4-5.8,5.8-8.3
				C1022,141.8,1022.3,141.3,1022.9,141.3z"/>
			<path class="st115" d="M1051.3,144c-0.5,0.2-0.3,0.6-0.3,0.9c-0.1,3.7-1.9,6.3-5.2,7.9c0.3-1.6,0.9-3.1,0.3-4.7
				c-0.2-0.5,0.2-0.8,0.5-1.1c1.2-1.2,2.6-2.2,3.7-3.5C1051,142.9,1051.1,143.7,1051.3,144z"/>
			<path class="st115" d="M1031.2,141.6c1.5-3.2,4.2-4.7,7.6-5.3c0.2-0.1,0.4-0.2,0.7-0.2c0.1,0,0.2,0,0.3,0.1
				C1037.7,139.3,1034.9,141.2,1031.2,141.6z"/>
			<path class="st116" d="M666.3,126.5c3.3-1.5,6.7-2.6,10.4-2.8c3.8-0.2,7.4,0.5,10.8,2.4c6,3.4,7.8,8.9,7.2,15.6
				c-0.7,7.1-5.1,11.9-10.5,16.1c-1.8,1.4-3.6,2.6-5.4,3.9c-0.1,0.1-0.2,0.2-0.3,0.3c-1.4,1-1.7,1-2.2-0.7
				c-2.2-6.8-4.4-13.5-6.6-20.3c-1.3-4.1-2.5-8.1-3.7-12.2C665.7,127.9,665.3,127.1,666.3,126.5z"/>
			<path class="st99" d="M666.3,126.5c-0.4,0.4-0.4,0.8-0.2,1.3c3.4,11.4,7.2,22.8,10.8,34.2c0.1,0.2,0.2,0.3,0.3,0.5
				c0.6-0.3,1.1-0.6,1.7-0.9c-1.2,1.6-3,2.4-4.6,3.5c-0.9,0.6-0.8-0.5-0.9-0.8c-1.6-4.8-3.1-9.5-4.6-14.3c-2-6.4-3.9-12.8-6-19.2
				c-0.3-0.9-0.1-1.5,0.4-2.1c0.6-0.7,1.3-1.4,1.8-2.2C665.6,125.5,665.9,125.9,666.3,126.5z"/>
			<path class="st117" d="M659.3,99.5c1.7-0.5,3.5-0.5,5.2,0C662.8,99.5,661,99.5,659.3,99.5z"/>
			<path class="st118" d="M708.7,134.6c-0.1,0.5,0.2,1.1-0.3,1.5C708.5,135.6,708.3,135.1,708.7,134.6z"/>
			<path class="st97" d="M759.9,169.8c-1.1,2.2-2.9,3.7-4.8,5.1c-4.1,3-8.7,4.5-13.9,4c-8.2-0.9-15.7-7.5-15-16.6
				c0.3-3.6,2-6.8,4.4-9.4c1.4-1.6,2.9-3.3,4.9-4.3c0.3,0.6-0.2,0.9-0.5,1.2c-6.4,6.7-4,16.3,2.3,20.9c0.2,0.1,0.4,0.3,0.6,0.4
				c1.6,1,3.2,1.9,5.1,2.3c1.4,0.5,2.9,0.5,4.3,0.5c1.8,0,3.6,0,5.4-0.6c1.6-0.4,3-1.1,4.4-1.9C758.1,170.9,758.7,169.8,759.9,169.8
				z"/>
			<path class="st21" d="M742.8,173.6c-1.8-0.3-3.5-1.1-5-2.2c-0.5-0.7-0.4-1.6-0.4-2.4c0-6.1,0-12.2,0-18.3c0-1.1,0-2.2-0.2-3.3
				c3.6-2.8,7.8-3.5,12.3-3.4c0.4,0.6-0.1,0.8-0.5,0.9c-2.8,0.8-4.8,2.7-6.5,4.9c-1.5,2.8-0.8,5.5,0.7,8.1c0.3,1.9,0.1,3.8,0.1,5.8
				c0,2.7,0,5.4,0,8.1C743.2,172.4,743.3,173.1,742.8,173.6z"/>
			<path class="st119" d="M737.1,147.4c0.8,0.1,0.7,0.7,0.7,1.2c0,7.6,0,15.2,0,22.8c-7.3-4.2-9.2-14.6-3.8-21.1
				c0.5-0.6,1-1.2,1.5-1.7C736,148.2,736.6,147.8,737.1,147.4z"/>
			<path class="st24" d="M759.9,169.8c-0.9,0.5-1.6,1.4-2.6,1.8c-0.3-0.3-0.4-0.7-0.4-1c0-3.1-0.2-6.2,0.1-9.3
				c0.2-0.7,0.6-1.2,1.2-1.6c2.4-1.8,3.9-4.1,3.7-7.2c0-0.3-0.1-0.7,0.4-0.7c2.2,2.7,2.6,5.8,2.2,9.1
				C764,164.4,762.3,167.2,759.9,169.8z"/>
			<path class="st14" d="M752.9,173.6c-1.8,0.6-3.7,0.8-5.5,0.7c-0.3-0.4-0.4-1-0.4-1.5c0-3.2,0-6.5,0-9.7c0-0.6,0-1.3,0.7-1.6
				c1.7,0.2,3.5,0.7,5.2,0.6c0.4,0.4,0.4,1,0.4,1.5c0,2.9,0,5.7,0,8.6C753.4,172.6,753.3,173.2,752.9,173.6z"/>
			<path class="st107" d="M747.7,161.4c-0.3,0.5-0.3,1.1-0.3,1.7c0,3.7,0,7.4,0,11.1c-1.6,0-3.1,0-4.6-0.6c0-4.6,0-9.3,0-13.9
				c0-0.6,0-1.3,0.3-1.8C744.4,159.3,746,160.5,747.7,161.4z"/>
			<path class="st120" d="M752.9,173.6c0-3.9,0-7.7,0-11.6c1.4-0.3,2.8-0.5,4-1.2c0.1-0.1,0.2-0.1,0.3,0c0,3.6,0,7.2,0,10.8
				C756,172.6,754.5,173.2,752.9,173.6z"/>
			<path class="st115" d="M757.3,160.8c-0.1,0-0.2,0-0.3,0c0.5-1.7,0.9-3.3,0.4-5.1c-0.2-0.5,0.3-0.9,0.6-1.2c1-1,2.1-2,3.1-3.1
				c0.8-0.9,1.1-0.6,1.2,0.4C762.5,155.8,760.7,158.7,757.3,160.8z"/>
			<path class="st115" d="M742.4,149.8c1.2-2.8,3.5-4.2,6.3-5.2c0.3-0.1,0.9,0.1,0.8-0.6c0.4,0,0.9-0.2,1.1,0.2
				c0.2,0.4-0.3,0.7-0.5,0.9c-0.8,0.8-1.7,1.6-2.4,2.5c-0.7,0.8-1.5,1.3-2.6,1.4C744,149,743.2,149.4,742.4,149.8z"/>
			<path class="st92" d="M986.5,309.4c0.8-8.6-1.1-16.6-6.5-23.4c-7.7-9.9-18-14.3-30.4-12.1c-13,2.2-21.4,10.3-25.4,22.8
				c-0.7,2.3-1,4.6-1.2,7c-0.5,0.5-1.2,0.4-1.8,0.3c-3.9-0.4-7.8-0.4-11.7-0.4c-6.2,0-12.4-0.5-18.5-0.4c-0.5,0-1.1,0-1.5-0.3
				c-0.4-0.5-0.2-1.1-0.1-1.6c1.3-15.9,7.2-29.8,18.1-41.4c10.8-11.4,24-18.2,39.6-20c32-3.7,62,16.6,70.5,47.7
				c2.4,8.8,3.1,17.7,2,26.7c0,0.4-0.2,0.8-0.3,1.1c-0.6,0.3-1.2,0.1-1.8-0.1c-9.7-2.1-19.5-3.9-29.4-5.3
				C987.5,310,986.9,309.9,986.5,309.4z"/>
			<path class="st92" d="M923.5,311.7c2.6,12.1,9.5,20.6,21.2,24.8c15.6,5.6,32.8-2.3,39.4-17.9c0.1-0.3,0.3-0.7,0.5-1
				c0.5-0.3,1.1-0.3,1.7-0.2c10,1.5,19.9,3.3,29.8,5.4c0.6,0.1,1.3,0.2,1.6,0.8c-2.5,9.3-6.7,17.7-12.9,25
				c-9.1,11-20.5,18.7-34.5,21.9c-27.1,6.1-49.5-2-67.1-23.4c-8.4-10.2-12.8-22.3-13.9-35.5c0.4-0.7,1.1-0.6,1.7-0.6
				c8.3-0.2,16.7,0.3,25,0.3C918.6,311.4,921,311.5,923.5,311.7z"/>
			<path class="st92" d="M980.3,306c0,14.3-11.5,26-25.5,26c-14.1,0-25.6-11.7-25.6-26.1c0-14.3,11.5-25.9,25.6-25.9
				C968.8,280.1,980.3,291.8,980.3,306z"/>
			<path class="st121" d="M923.5,311.7c-0.8,0.7-1.9,0.4-2.8,0.3c-9.9-0.3-19.7-0.5-29.6-0.5c-0.6,0-1.2-0.1-1.7,0.2
				c0-0.2,0-0.3,0-0.5c2.5-0.3,5.1-0.1,7.6-0.2c0.5,0,1,0.2,1.1,0c-2.8-0.1-5.8,0.2-8.8-0.2c0-0.1-0.1-0.2-0.1-0.3
				c-0.3-2.7-0.2-2.7,2.5-2.8c7.3-0.2,14.7,0.3,22,0.4c2.5,0,5.1,0.2,7.7,0.2c0.6,0,1.4-0.1,1.7,0.7c0.1,0.7-0.1,1.4,0.2,2.1
				C923.4,311.4,923.5,311.5,923.5,311.7z"/>
			<path class="st121" d="M889.3,302.8c7.4,0.1,14.8,0.1,22.2,0.4c3.8,0.1,7.7,0,11.5,0.5c0,0.8,0,1.6,0,2.4
				c-0.2,0.3-0.4,0.4-0.7,0.5c-2.2,0.1-4.3,0.2-6.5-0.1c-0.5-0.1-1.1-0.1-1.6-0.1c-7.5,0.1-15.1-0.5-22.6-0.3c-0.3,0-0.7,0-1,0
				c-1.1,0-1.6-0.5-1.4-1.6C889.3,303.9,889,303.3,889.3,302.8z"/>
			<path class="st121" d="M1017.7,323.6c-5.2-1.4-10.5-2.3-15.8-3.3c-5.7-1-11.5-1.9-17.2-2.8c0.7-2.7,0.7-2.7,3.4-2.3
				c9.8,1.4,19.5,3.3,29.2,5.3c0.8,0.2,1.4,0.4,1,1.5C1018,322.5,1017.9,323.1,1017.7,323.6z"/>
			<path class="st121" d="M986.5,309.4c8.4,1.3,16.7,2.7,25,4.4c2.6,0.5,5.2,1.1,7.8,1.7c0,0.2,0,0.4,0,0.6
				c-0.2,2.2-0.2,2.2-2.4,1.7c-8.8-1.9-17.6-3.6-26.5-4.9c-1.1-0.2-2.2-0.5-3.3-0.5c-1,0-1.1-0.4-0.9-1.3
				C986.4,310.6,986.5,310,986.5,309.4z"/>
			<path class="st3" d="M889.3,302.8c-0.3,2.9-0.3,2.9,2.6,2.9c10.2-0.1,20.4,0.4,30.6,0.6c0.7,0.3,0.4,0.9,0.4,1.4
				c0,0.2,0-0.1,0,0.1c0,0,0.2,0,0.2-0.1c0.4,0.6,0.2,1.2,0.2,1.8c-0.1,0-0.2-0.1-0.2-0.2c-0.5-0.7-1.2-0.4-1.8-0.4
				c-10.1-0.3-20.1-0.7-30.2-0.7c-1.4,0-2.1,0.3-1.7,1.8c0,0.2,0,0.4,0,0.6c-0.5-2.2-0.1-4.5-0.2-6.7c0-0.8-0.3-1.7,0.2-2.5
				C889.3,301.8,889.3,302.3,889.3,302.8z"/>
			<path class="st122" d="M889.4,310.9c3,0,6,0,8.9,0c0,0.1,0,0.2,0,0.3c-3,0-5.9,0-8.9,0C889.4,311.1,889.4,311,889.4,310.9z"/>
			<path class="st123" d="M923.1,307.7c0,0.2-0.1,0.4-0.2,0.7c-0.4-0.7,0.1-1.5-0.5-2.1c0.2-0.1,0.4-0.1,0.5-0.2
				C923.1,306.6,923.1,307.2,923.1,307.7z"/>
			<path class="st124" d="M923.1,309.3c0.1,0.1,0.2,0.1,0.2,0.2c0,0.6,0,1.1,0,1.7C922.8,310.6,923.2,309.9,923.1,309.3z"/>
			<path class="st92" d="M875.9,311.7c-0.4,6.3-1.7,12.5-4,18.3c-8.7,21.8-24.2,36.1-47.1,41.7c-20.7,5-39.7,0.6-56.5-12.6
				c-11.9-9.3-19.6-21.4-23.4-36.1c0.4-0.6,1-0.6,1.7-0.8c9.8-1.7,19.6-3,29.5-4c1.2-0.1,2.3-0.4,3.5-0.3
				c2.4,5.5,5.8,10.2,10.6,13.9c16.6,12.5,39.8,6.2,48.3-11.7c-0.5-0.4-1-0.2-1.5-0.2c-9.1,0-18.1,0-27.2,0c-0.5,0-1.2,0.3-1.6-0.3
				c0-1.1,0-2.1,0-3.2c-0.1-1.1,0.5-1.6,1.4-1.6c3,0,6-0.5,9-0.7c3.2-0.2,6.4-0.3,9.5-0.7c1.7-0.2,3.4-0.2,5.1-0.3
				c4.4-0.2,8.8-0.5,13.2-0.7c4.6-0.2,9.3-0.3,13.9-0.6c2.9-0.2,5.8,0,8.7-0.3c1.8-0.1,3.7-0.3,5.5-0.2
				C874.8,311.4,875.4,311.3,875.9,311.7z"/>
			<path class="st92" d="M743.4,314.9c-0.8-4.2-0.8-8.4-0.5-12.6c0.7-10.8,3.6-21,9.3-30.3c10.5-17.3,25.6-28.3,45.6-31.8
				c23.7-4.1,43.9,3.1,60.6,20.3c1,1.1,1,1.6-0.1,2.5c-8,7.1-15.9,14.3-23.8,21.5c-0.8,0.8-1.1,0.3-1.6-0.2
				c-6.7-6.9-14.9-10.3-24.5-10c-15.8,0.5-28.7,12.4-30.7,28c-0.3,2.5-0.2,4.9-0.2,7.4c-0.1,0.3-0.3,0.4-0.5,0.5
				c-3.7,0.8-7.5,1-11.2,1.6c-6.8,1-13.7,2-20.5,3.2C744.6,315.2,743.9,315.4,743.4,314.9z"/>
			<path class="st92" d="M830.9,324.2c-9.9,11.7-27.8,13.7-39.8,3.1c-12.3-10.8-13-29-1.6-40.5c11.5-11.6,29-10.1,38.4-1.3
				c-0.6,0-1.1,0-1.5,0c-7,0-14,0-20.9,0c-1.1,0-1.5,0.2-1.5,1.4c0.1,12,0,23.9,0,35.9c0,1.2,0.3,1.4,1.5,1.4c7.9,0,15.9,0,23.8,0
				C829.7,324.2,830.2,324.2,830.9,324.2z"/>
			<path class="st92" d="M808.1,289.9c0.4-0.5,0.9-0.3,1.4-0.3c21.1,0,42.2,0,63.3,0c0.8,0,1.5,0,1.7,1.1c0.9,4.1,1.6,8.1,1.6,12.3
				c-0.1,0.1-0.1,0.1-0.2,0.2c-0.4,0.2-0.9,0.3-1.4,0.3c-5.2-0.2-10.4,0.2-15.5,0.3c-5.4,0.2-10.7,0.4-16.1,0.7c-4,0.2-8,0.4-12,0.7
				c-5.5,0.4-10.9,0.7-16.4,1.3c-1.5,0.2-3.1,0.3-4.6,0.4c-1.4,0.1-1.7-0.2-1.7-1.6C808.1,300.2,808.1,295.1,808.1,289.9z"/>
			<path class="st121" d="M875.9,311.7c-2.4,0.1-4.7,0.3-7.1,0.3c-8.7,0.1-17.3,0.6-26,1c-7.4,0.3-14.8,0.9-22.2,1.4
				c-3.7,0.3-7.4,0.6-11.1,0.9c-1,0.1-1.5,0.4-1.4,1.5c0.1,1,0,1.9-0.1,2.9c0-2.4-0.1-4.8-0.1-7.2c0.2-0.8,0.9-0.8,1.5-0.9
				c2.9-0.4,5.9-0.6,8.8-0.8c5-0.4,9.9-0.8,14.9-1.1c4-0.3,8.1-0.5,12.2-0.7c5.9-0.3,11.8-0.4,17.7-0.8c2.6-0.2,5.2,0,7.8-0.1
				c0.9,0,1.7,0,2.6-0.1c2-0.3,2-0.3,2.1-2.3c0-0.9-0.2-1.8,0.4-2.7c0,0,0.1,0,0.1,0C876.3,305.9,876.2,308.8,875.9,311.7z"/>
			<path class="st121" d="M875.9,303c0,0.9,0,1.7,0,2.6c-1.5,0.8-3.2,0.7-4.8,0.7c-5.1,0-10.3,0.2-15.4,0.4c-5,0.2-9.9,0.4-14.9,0.7
				c-3.8,0.2-7.6,0.5-11.4,0.7c-5.4,0.3-10.8,0.8-16.2,1.3c-1.3,0.1-2.6,0.1-3.9,0.3c-0.6,0.1-1.2,0-1.4-0.7c0-4.1,0-8.3,0.1-12.4
				c0-2.2,0-4.4,0.1-6.7c0,5,0.1,10,0.1,14.9c0,1.5,0.5,1.8,1.8,1.6c8-0.7,16.1-1.3,24.1-2c3.6-0.3,7.1-0.5,10.7-0.6
				c6.3-0.3,12.6-0.4,18.8-0.7C867.7,303,871.8,303,875.9,303z"/>
			<path class="st3" d="M807.9,309c0.3,0.6,0.8,0.4,1.3,0.3c10.1-1,20.1-1.6,30.2-2.3c12.2-0.8,24.4-1,36.5-1.5c0,0,0,0.1,0.1,0.1
				c0.3,2.5,0.3,2.6-2.1,2.6c-4.9,0.2-9.9,0.3-14.8,0.4c-7.5,0.2-15.1,0.6-22.6,1.1c-4.9,0.3-9.8,0.6-14.6,1
				c-4.4,0.3-8.8,0.8-13.1,1.1c-0.3,0-0.5,0.1-0.7,0.4C807.9,311.3,807.9,310.2,807.9,309z"/>
			<path class="st121" d="M779.4,318c-0.8,0.9-1.9,0.5-2.8,0.6c-5.8,0.6-11.7,1.3-17.5,2.2c-4.8,0.7-9.5,1.5-14.3,2.3
				c-0.8-2.7-0.8-2.7,2.1-3.2c8.9-1.6,17.8-2.7,26.7-4c0.8-0.1,1.6-0.2,2.4-0.3C778.7,315.2,778.7,315.2,779.4,318z"/>
			<path class="st121" d="M743.4,314.9c9.3-1.7,18.7-3,28.1-4.3c1.9-0.3,3.7-0.4,5.6-0.7c0.9,0.2,0.1,1.1,0.6,1.5
				c0.8,1.3-0.3,1.3-1.1,1.4c-4.3,0.6-8.7,1.1-13.1,1.8c-5.9,0.9-11.7,1.8-17.6,2.7C743.4,317.7,743.4,317.7,743.4,314.9z"/>
			<path class="st125" d="M777.7,311.5c-0.5-0.4,0-1.2-0.6-1.5c0.1-0.1,0.2-0.2,0.4-0.2C777.7,310.3,777.7,310.9,777.7,311.5z"/>
			<path class="st3" d="M884.8,124.8c-3.9,4.4-7.8,8.7-11.7,13.1c-2.7-3.7-1.9-9.7,1.6-13.1c2.9-1.5,5.9-1.4,9-0.8
				C884.1,124.1,884.5,124.3,884.8,124.8z"/>
			<path class="st126" d="M884.8,124.8c-3-1-6-0.9-9-0.2c-0.4,0.1-0.8,0.1-1.1,0.2c3.1-3.4,8.1-4.6,12.4-3c0,0.9-1,1.1-1.2,1.9
				C885.5,124,885.1,124.4,884.8,124.8z"/>
			<path class="st127" d="M885.8,123.7c0-0.9,0.9-1.2,1.2-1.9C887.3,122.9,886.3,123.1,885.8,123.7z"/>
			<path class="st126" d="M676,134.1c-0.9-2.7-1.7-2.9,2.1-3c1.1,0,2.1,0.1,3.1,0.4c5.1,1.6,6,4.3,5.8,8.8c-0.1,1.5-0.4,3.1-1.3,4.4
				c-0.3,0.8-0.9,1.4-1.4,2.1c-0.3,0.3-0.6,0.9-1.2,0.6c-0.5-0.3-0.3-0.9-0.2-1.3c0.4-1.6,0.4-3.2,0.3-4.7c-0.1-3.5-1.9-5.6-5.3-6.5
				C677.3,134.7,676.6,134.6,676,134.1z"/>
			<path class="st109" d="M676,134.1c1.1,0.2,2.2,0.3,3.2,0.7c2.3,0.9,3.8,2.4,4.3,5c0.4,2.5,0.3,5-0.4,7.5c0.7,0.1,0.9-0.5,1.2-0.8
				c0.2-0.1,0.4,0,0.2,0.3c-0.9,1.3-2,2.5-3.5,3.7C679.4,144.9,677.7,139.5,676,134.1z"/>
			<path class="st128" d="M684.6,146.8c-0.1-0.1-0.2-0.2-0.2-0.3c0.5-0.6,0.9-1.2,1.4-1.8C685.7,145.6,685.1,146.2,684.6,146.8z"/>
			<path class="st3" d="M938.2,307.2c1.6,0,3.2,0.1,4.8,0c1.3-0.1,1.9,0.2,2.2,1.6c0.9,3.7,3.4,6,7,7c3.7,1,6.9-0.1,9.5-2.8
				c1.4-1.4,2.2-3.1,2.5-5c0.1-0.8,0.4-0.9,1.1-0.9c3.9,0,7.7,0,11.6,0c0.8,0,1,0.2,0.9,1c-1,12.6-12,22.3-24.7,21.6
				c-12.3-0.7-20.9-10.7-21.8-21.3c-0.1-1,0.1-1.4,1.2-1.3C934.5,307.3,936.4,307.2,938.2,307.2z"/>
			<path class="st129" d="M971.1,304.8c-1.8,0-3.7,0-5.5,0c-0.8,0-1.1-0.1-1.4-1c-1.2-4.8-5-7.8-9.6-7.8c-4.6,0-8.4,2.9-9.6,7.7
				c-0.3,1-0.7,1.1-1.5,1.1c-3.6,0-7.2-0.1-10.7,0c-1.3,0-1.4-0.5-1.3-1.5c0.9-9.6,8.5-18.2,17.9-20.3c13.9-3.2,27.2,6.6,28.5,20.9
				c0.1,0.9-0.3,1-0.9,0.9C975,304.8,973.1,304.8,971.1,304.8z"/>
			<path class="st3" d="M954.7,313.8c-4.3,0-7.7-3.5-7.7-7.8c0-4.3,3.4-7.7,7.6-7.7c4.3,0,7.7,3.5,7.7,7.8
				C962.3,310.4,958.9,313.8,954.7,313.8z"/>
			<path class="st130" d="M875.1,311.4c-3.1,0-6.1,0-9.2,0c0,0,0-0.1,0-0.1c3.1,0,6.1,0,9.2,0C875.1,311.3,875.1,311.4,875.1,311.4z
				"/>
			<path class="st130" d="M857.4,311.5c2,0,4,0,6,0c0,0,0,0.1,0,0.1c-2,0-4,0-6,0C857.4,311.6,857.4,311.6,857.4,311.5z"/>
			<path class="st131" d="M850.4,311.8c1.4,0,2.8,0,4.2,0c0,0,0,0.1,0,0.1c-1.4,0-2.8,0-4.2,0C850.4,311.9,850.4,311.9,850.4,311.8z
				"/>
			<path class="st130" d="M844.3,312.1c1.3,0,2.7,0,4,0c0,0,0,0.1,0,0.1c-1.3,0-2.7,0-4,0C844.3,312.2,844.3,312.2,844.3,312.1z"/>
			<path class="st131" d="M839.3,312.4c1.1,0,2.3,0,3.4,0c0,0,0,0.1,0,0.1c-1.1,0-2.3,0-3.4,0C839.3,312.5,839.3,312.5,839.3,312.4z
				"/>
			<path class="st131" d="M837.5,312.9c-1.1,0-2.3,0-3.4,0c0,0,0-0.1,0-0.1c1.1,0,2.3,0,3.4,0C837.5,312.8,837.5,312.8,837.5,312.9z
				"/>
			<path class="st132" d="M825.7,313.3c0.9,0,1.9,0,2.8,0c0,0,0,0.1,0,0.1c-0.9,0-1.9,0-2.8,0C825.7,313.4,825.7,313.3,825.7,313.3z
				"/>
			<path class="st131" d="M832.6,313.2c-0.8,0-1.7,0-2.5,0c0,0,0-0.1,0-0.1c0.8,0,1.7,0,2.5,0C832.6,313.1,832.6,313.1,832.6,313.2z
				"/>
			<path class="st131" d="M814.7,314.1c0.7,0,1.5,0,2.2,0c0,0,0,0.1,0,0.1c-0.8,0-1.5,0-2.3,0C814.6,314.2,814.7,314.2,814.7,314.1z
				"/>
			<path class="st131" d="M824.5,313.7c-0.8,0-1.5,0-2.3,0c0,0,0-0.1,0-0.1c0.8,0,1.5,0,2.3,0C824.5,313.6,824.5,313.7,824.5,313.7z
				"/>
			<path class="st131" d="M811.7,314.4c0.6,0,1.3,0,1.9,0c0,0,0,0.1,0,0.1c-0.6,0-1.3,0-1.9,0C811.7,314.5,811.7,314.5,811.7,314.4z
				"/>
			<path class="st131" d="M820.4,314c-0.7,0.1-1.3,0.3-2.1,0C819.1,313.7,819.7,313.8,820.4,314z"/>
			<path class="st130" d="M808.5,314.7c0.6,0,1.1,0,1.7,0c0,0,0,0.1,0,0.1c-0.6,0-1.1,0-1.7,0C808.5,314.8,808.5,314.8,808.5,314.7z
				"/>
		</g>
	</g>
</g>
</svg>
